<svg width="97" height="36" viewBox="0 0 97 36" fill="none" xmlns="http://www.w3.org/2000/svg">
<g clip-path="url(#clip0_170_566)">
<path d="M49.2931 9.45541H47.4194L47.2758 8.68727C46.9487 9.0748 46.5161 9.35908 46.0306 9.50563C45.5451 9.65217 45.0275 9.65467 44.5406 9.51284C43.9271 9.33478 43.3869 8.96466 42.9992 8.45686C42.6116 7.94905 42.397 7.33032 42.387 6.69155C42.3198 6.00236 42.4744 5.30972 42.8281 4.71447C43.1819 4.11922 43.7165 3.65244 44.354 3.38209C44.8922 3.11517 45.4913 2.99455 46.0909 3.03236C46.6905 3.07017 47.2696 3.26508 47.77 3.5975C48.2705 3.92993 48.6747 4.38818 48.942 4.92623C49.2094 5.46428 49.3304 6.06319 49.2931 6.66283C49.3002 7.56019 49.2931 8.48626 49.2931 9.45541ZM45.84 4.77479C45.6372 4.76796 45.4352 4.80422 45.2473 4.88117C45.0595 4.95813 44.8901 5.07403 44.7504 5.22124C44.6106 5.36845 44.5037 5.54362 44.4366 5.73519C44.3695 5.92676 44.3438 6.13037 44.3612 6.33261C44.3458 6.53494 44.3734 6.73825 44.4423 6.92911C44.5112 7.11998 44.6198 7.29408 44.7609 7.43992C44.902 7.58576 45.0724 7.70004 45.2609 7.77521C45.4494 7.85039 45.6516 7.88476 45.8544 7.87606C46.0554 7.87426 46.2541 7.83225 46.4387 7.75251C46.6233 7.67278 46.7901 7.55692 46.9292 7.41176C47.0683 7.2666 47.177 7.09508 47.2489 6.90728C47.3207 6.71948 47.3543 6.51921 47.3476 6.31825C47.3514 6.11753 47.3153 5.91805 47.2413 5.73142C47.1673 5.54479 47.057 5.37472 46.9167 5.23111C46.7764 5.08749 46.609 4.97319 46.4242 4.89486C46.2393 4.81652 46.0408 4.77571 45.84 4.77479Z" fill="white"/>
<path d="M68.1519 3.18828L68.2596 4.00667C68.3529 3.92052 68.4319 3.87027 68.4893 3.81284C68.811 3.45042 69.2357 3.19499 69.7066 3.08079C70.1775 2.96659 70.6721 2.99909 71.124 3.17392C71.5695 3.31055 71.9609 3.58358 72.243 3.95452C72.5251 4.32547 72.6836 4.7756 72.6962 5.24143C72.7751 6.61977 72.6962 8.01247 72.6962 9.43389H70.7794C70.7794 8.29245 70.7794 7.16537 70.7794 6.03829C70.8116 5.78504 70.7585 5.52829 70.6285 5.30859C70.4985 5.08889 70.299 4.91875 70.0615 4.82506C69.8108 4.71386 69.5288 4.6954 69.2658 4.77299C69.0028 4.85058 68.7759 5.01916 68.6257 5.24861C68.394 5.6006 68.2557 6.00575 68.2237 6.42595C68.1663 7.41663 68.2237 8.41449 68.2237 9.44825H66.2926V3.18828H68.1519Z" fill="white"/>
<path d="M60.9515 6.9715C61.0073 7.17781 61.1052 7.37029 61.2392 7.53677C61.3732 7.70324 61.5403 7.84008 61.73 7.93861C61.9196 8.03714 62.1276 8.09521 62.3409 8.10916C62.5541 8.1231 62.7679 8.09261 62.9688 8.01961C63.9523 7.76835 64.0959 7.79707 65.0291 8.37855C64.3687 9.51999 62.2509 9.93637 60.7218 9.21848C59.986 8.85238 59.4187 8.21792 59.1369 7.4459C58.855 6.67387 58.8802 5.82314 59.2071 5.0691C59.5276 4.26836 60.1486 3.62478 60.9374 3.27598C61.7263 2.92718 62.6202 2.90084 63.4282 3.2026C64.1991 3.43233 64.8481 3.95722 65.234 4.66306C65.6198 5.36889 65.7113 6.19855 65.4886 6.9715H60.9515ZM63.6221 5.70802C63.6319 5.53315 63.6023 5.35831 63.5355 5.19639C63.4688 5.03448 63.3665 4.88961 63.2363 4.77249C63.1061 4.65536 62.9512 4.56896 62.7831 4.51966C62.6151 4.47035 62.4381 4.4594 62.2653 4.48761C62.1002 4.47395 61.9342 4.49591 61.7784 4.55201C61.6226 4.6081 61.4806 4.69702 61.3622 4.81275C61.2437 4.92848 61.1515 5.0683 61.0918 5.22277C61.0321 5.37723 61.0063 5.54271 61.0161 5.70802H63.6221Z" fill="white"/>
<path d="M94.1753 6.97153H89.71C89.6985 7.21539 89.7782 7.4548 89.9334 7.64321C90.0886 7.83162 90.3084 7.95556 90.55 7.99093C90.9016 8.10912 91.2823 8.10912 91.634 7.99093C92.5026 7.48841 93.0698 8.07708 93.7876 8.34987C92.9118 9.62053 90.6864 9.95794 89.186 9.06776C88.5065 8.62713 88.014 7.95076 87.8033 7.16882C87.5926 6.38687 87.6785 5.55462 88.0445 4.83223C88.4355 4.0643 89.1055 3.47507 89.9171 3.18541C90.7287 2.89574 91.6204 2.92759 92.4093 3.27442C93.1121 3.55896 93.683 4.09611 94.0098 4.78026C94.3366 5.46441 94.3956 6.24606 94.1753 6.97153ZM89.7172 5.68652H92.316C92.3325 5.52436 92.313 5.36055 92.2588 5.20683C92.2046 5.0531 92.1171 4.91326 92.0025 4.79732C91.8879 4.68138 91.7491 4.5922 91.5961 4.53619C91.443 4.48017 91.2794 4.45869 91.1171 4.47329C90.9402 4.44432 90.7591 4.45514 90.5869 4.50496C90.4147 4.55478 90.2558 4.64235 90.1218 4.7613C89.9877 4.88025 89.8818 5.02759 89.8118 5.19261C89.7418 5.35762 89.7095 5.53616 89.7172 5.71523V5.68652Z" fill="white"/>
<path d="M80.9016 3.17392H83.005L84.4408 7.17254C84.7853 6.18904 85.094 5.33476 85.3884 4.48047C85.8478 3.1452 85.8406 3.1452 87.2333 3.1452H87.9512C87.9283 3.28098 87.8972 3.41524 87.8579 3.54722C87.14 5.37065 86.3575 7.1869 85.6324 9.01751C85.5982 9.16631 85.5106 9.29742 85.3863 9.38604C85.262 9.47467 85.1095 9.51467 84.9576 9.4985C83.5219 9.4985 83.5219 9.4985 82.9547 8.14169C82.3517 6.66285 81.7415 5.184 81.1385 3.69798C81.0165 3.54004 80.9734 3.38211 80.9016 3.17392Z" fill="white"/>
<path d="M52.1215 4.73171C52.1215 5.61471 52.1215 6.3972 52.1215 7.17252C52.1204 7.28683 52.1447 7.39995 52.1929 7.50365C52.241 7.60734 52.3116 7.69899 52.3997 7.7719C52.4877 7.84481 52.591 7.89715 52.7018 7.92511C52.8126 7.95306 52.9283 7.95592 53.0404 7.93348C53.3276 7.93348 53.6147 7.84733 53.9665 7.7899C53.9665 8.22063 53.9665 8.62983 53.9665 9.03184C53.9482 9.10955 53.9112 9.1816 53.8586 9.24168C53.8061 9.30175 53.7396 9.34802 53.665 9.37643C53.0387 9.49992 52.4006 9.5529 51.7626 9.53436C51.3347 9.49352 50.9372 9.29552 50.6468 8.97862C50.3564 8.66172 50.1938 8.24842 50.1904 7.81861C50.1258 5.66496 50.1904 3.5113 50.1904 1.29303H52.1215V3.11646H53.8875V4.73171H52.1215Z" fill="white"/>
<path d="M56.0914 17.3737L56.156 16.8137H57.0175V17.7398C57.0175 19.3479 57.0175 20.9511 57.0175 22.5496C57.0361 23.1525 56.8353 23.7416 56.4524 24.2076C56.0696 24.6737 55.5306 24.985 54.9356 25.0838C53.3348 25.4212 51.9062 24.8038 51.3462 23.4901L51.978 23.1383C53.0548 24.3874 54.0742 24.7176 55.1654 24.1792C55.5594 23.9797 55.8684 23.645 56.0358 23.2363C56.2032 22.8277 56.2179 22.3724 56.0771 21.9538C54.3326 22.9947 52.6384 22.9229 51.6047 21.7528C51.1375 21.1957 50.8715 20.4977 50.8493 19.771C50.8272 19.0444 51.0503 18.3314 51.4826 17.747C52.5523 16.4261 54.0957 16.304 56.0914 17.3737ZM56.0914 19.6924C56.2566 17.9982 55.0218 17.4024 53.9378 17.3737C53.639 17.3633 53.3414 17.4152 53.0638 17.5261C52.7863 17.637 52.5348 17.8044 52.3255 18.0178C52.1161 18.2312 51.9535 18.4858 51.848 18.7655C51.7424 19.0451 51.6962 19.3437 51.7123 19.6422C51.6811 19.946 51.7168 20.253 51.817 20.5415C51.9172 20.83 52.0794 21.093 52.2923 21.3121C52.5052 21.5311 52.7635 21.7008 53.049 21.8092C53.3345 21.9176 53.6404 21.962 53.945 21.9394C55.3736 21.9394 56.1489 21.1354 56.1489 19.6924H56.0914Z" fill="white"/>
<path d="M73.6509 1.30023H75.5605V3.12366H77.3552V4.73891H75.6251C75.6251 5.63626 75.6251 6.46901 75.6251 7.29458C75.6251 7.75403 76.0271 7.94786 76.4722 7.9335C76.7594 7.9335 77.0465 7.84735 77.427 7.78992C77.4522 8.19633 77.4522 8.60392 77.427 9.01033C77.4084 9.09536 77.3693 9.17453 77.313 9.24087C77.2566 9.30721 77.1848 9.3587 77.1039 9.39081C76.5117 9.5145 75.9068 9.56752 75.3021 9.54874C74.8753 9.51609 74.4751 9.32892 74.1764 9.02232C73.8777 8.71572 73.7011 8.31074 73.6796 7.88325C73.6222 5.70087 73.6509 3.51132 73.6509 1.30023Z" fill="white"/>
<path d="M58.5825 7.78987C58.5825 7.93345 58.5825 8.03396 58.5825 8.12728C58.5825 9.43384 58.5107 9.56305 57.1467 9.56305C55.6176 9.62049 54.7992 8.91696 54.7705 7.4094C54.7705 5.38496 54.7705 3.35334 54.7705 1.28583H56.7088V3.12361H58.5035V4.73168H56.8093C56.8093 5.6075 56.7734 6.42589 56.8093 7.2371C56.8093 7.72526 57.2042 7.95499 57.678 7.91192C57.9814 7.88667 58.2833 7.84593 58.5825 7.78987Z" fill="white"/>
<path d="M44.232 32.6216V35.5506H43.3561V28.0415C44.9283 28.0415 46.4933 27.9482 48.0368 28.0415C48.311 28.0768 48.5756 28.1661 48.8152 28.3042C49.0548 28.4422 49.2648 28.6263 49.4329 28.8458C49.6011 29.0654 49.7241 29.316 49.795 29.5833C49.8659 29.8506 49.8831 30.1293 49.8458 30.4033C49.831 30.976 49.5944 31.5206 49.186 31.9223C48.7775 32.3241 48.2291 32.5516 47.6563 32.557C46.7517 32.6001 45.8544 32.557 44.9498 32.557L44.232 32.6216ZM44.2679 31.7099C45.5098 31.7099 46.7015 31.7817 47.8573 31.7099C48.5752 31.6524 48.9413 30.992 48.8982 30.2741C48.8551 29.5562 48.4747 28.9604 47.7783 28.9173C46.6153 28.8599 45.4452 28.9173 44.2463 28.9173L44.2679 31.7099Z" fill="white"/>
<path d="M42.4516 22.4706C43.0403 21.1713 43.6218 19.8719 44.2104 18.5797C44.7129 17.4598 45.2083 16.3327 45.7395 15.2272C45.8071 15.1347 45.8957 15.0598 45.9981 15.0086C46.1005 14.9574 46.2137 14.9314 46.3282 14.9328C46.4426 14.9257 46.5571 14.9462 46.662 14.9924C46.7669 15.0386 46.8592 15.1092 46.9312 15.1984C48.0511 17.6034 49.1351 20.0226 50.2263 22.4419C49.4079 22.6788 49.3289 22.6429 49.0346 21.9681C48.9485 21.7671 48.8408 21.5805 48.7762 21.3795C48.7419 21.2384 48.6554 21.1155 48.5342 21.0356C48.413 20.9557 48.2661 20.9247 48.1229 20.9487C46.9456 20.9487 45.7682 20.9487 44.5981 20.9487C44.2176 20.9487 44.0094 21.0564 43.8802 21.4153C43.8299 21.5805 43.7151 21.7312 43.672 21.8963C43.55 22.5568 43.1264 22.686 42.4516 22.4706ZM46.3497 15.8733L44.4832 20.116H48.1947L47.9865 19.5847C47.4768 18.393 46.9599 17.2014 46.3713 15.8733H46.3497Z" fill="white"/>
<path d="M80.4996 33.0092H75.4744C75.4486 33.3947 75.5469 33.7782 75.7549 34.1038C75.9629 34.4293 76.2696 34.6797 76.6302 34.8183C77.7501 35.2849 78.7838 34.9619 79.753 33.8061L80.3632 34.2009C79.7099 35.6367 77.7214 36.0531 76.3789 35.5506C75.6526 35.2614 75.0665 34.7019 74.7439 33.9898C74.4213 33.2776 74.3872 32.4682 74.6488 31.7314C74.8816 30.9961 75.3867 30.3775 76.0607 30.0025C76.7347 29.6274 77.5265 29.5243 78.2741 29.7141C78.9986 29.8701 79.6347 30.3001 80.0494 30.9142C80.4642 31.5283 80.6255 32.279 80.4996 33.0092ZM79.6022 32.2914C79.5819 31.7809 79.3651 31.2981 78.9973 30.9436C78.6294 30.5891 78.1389 30.3904 77.628 30.389C77.3636 30.3704 77.098 30.4042 76.8466 30.4883C76.5952 30.5725 76.3628 30.7053 76.1628 30.8794C75.9628 31.0534 75.799 31.2651 75.6809 31.5025C75.5628 31.7398 75.4926 31.9981 75.4744 32.2626L79.6022 32.2914Z" fill="white"/>
<path d="M64.584 19.9939H59.487C59.4781 20.407 59.6055 20.8115 59.8494 21.145C60.0934 21.4784 60.4403 21.7223 60.8367 21.8389C61.9422 22.2122 62.8396 21.9035 63.8015 20.7764L64.3974 21.1641C63.8087 22.4922 61.9996 23.0809 60.3772 22.4994C59.6638 22.2065 59.091 21.6497 58.778 20.9449C58.4651 20.2401 58.4362 19.4417 58.6974 18.7161C58.9212 17.9815 59.4181 17.3607 60.0858 16.9814C60.7535 16.6022 61.5412 16.4933 62.2868 16.6773C63.0244 16.8255 63.6759 17.2538 64.1043 17.8723C64.5327 18.4908 64.7046 19.2513 64.584 19.9939ZM59.5014 19.2186H63.7082C63.6589 18.6899 63.4074 18.2007 63.0062 17.8529C62.6049 17.5052 62.0849 17.3258 61.5545 17.3521C61.038 17.3397 60.5366 17.5267 60.1543 17.8743C59.772 18.2218 59.5382 18.7033 59.5014 19.2186Z" fill="white"/>
<path d="M51.7841 31.796L51.0662 31.6165C51.1032 31.2546 51.2357 30.909 51.4501 30.6151C51.6646 30.3212 51.9533 30.0895 52.2866 29.9439C52.7059 29.7466 53.1613 29.6377 53.6245 29.6241C54.0876 29.6105 54.5486 29.6925 54.9787 29.8649C55.2728 29.9382 55.5372 30.1001 55.7362 30.3287C55.9352 30.5572 56.0592 30.8414 56.0914 31.1427C56.156 32.5785 56.0914 34.0645 56.0914 35.5577H55.3735L55.2587 34.9691C54.8676 35.3235 54.3943 35.5747 53.8816 35.7001C53.3689 35.8254 52.833 35.8209 52.3225 35.687C51.961 35.6278 51.6302 35.448 51.3838 35.1769C51.1374 34.9058 50.9901 34.5593 50.9657 34.1938C50.9285 33.8376 51.0256 33.4804 51.2381 33.1922C51.4506 32.904 51.7631 32.7056 52.1144 32.6359C52.7461 32.4278 53.4065 32.3416 54.0455 32.1621C54.5336 32.0257 55.1725 32.0329 55.1797 31.2935C55.1797 30.8269 54.7131 30.5325 53.9306 30.4464C52.9471 30.31 52.301 30.712 51.7841 31.796ZM55.2013 32.5139C54.7418 32.6503 54.2824 32.7939 53.8157 32.9231C53.3491 33.0523 52.9686 33.0882 52.5666 33.2246C52.1646 33.361 51.7985 33.6266 51.8487 34.165C51.899 34.7034 52.3082 34.8829 52.7461 34.9404C54.4905 35.249 55.5028 34.2512 55.2156 32.5139H55.2013Z" fill="white"/>
<path d="M86.1637 16.8209C86.0847 17.0076 86.0201 17.187 85.934 17.3521C84.7853 19.6637 83.608 21.9681 82.4881 24.2941C82.2081 24.8756 81.8923 25.1771 81.1744 24.9258C81.383 24.3949 81.6376 23.8833 81.9353 23.3967C82.2357 23.0082 82.3987 22.531 82.3987 22.0399C82.3987 21.5488 82.2357 21.0716 81.9353 20.6831C81.2174 19.4627 80.6431 18.149 80.0042 16.8712C80.88 16.663 80.9159 16.6917 81.2677 17.4239C81.8564 18.6372 82.445 19.8432 83.0911 21.1569L84.893 17.4742C85.2591 16.7204 85.2592 16.7276 86.1637 16.8209Z" fill="white"/>
<path d="M66.2567 16.8066H66.9746L67.0751 17.4239C67.3831 17.1476 67.7428 16.9349 68.1333 16.7982C68.5239 16.6614 68.9377 16.6033 69.3508 16.6271C69.6849 16.6131 70.0182 16.6682 70.3301 16.7888C70.642 16.9093 70.9256 17.0929 71.1634 17.328C71.4012 17.5631 71.588 17.8446 71.7121 18.1551C71.8362 18.4656 71.8951 18.7983 71.8849 19.1325C71.8849 20.2452 71.8849 21.358 71.8849 22.5066H71.0235C71.0235 21.4728 71.0235 20.4391 71.0235 19.4053C71.0546 19.0464 70.9841 18.686 70.8198 18.3654C70.6555 18.0448 70.4043 17.777 70.0948 17.5926C69.7853 17.4083 69.4301 17.3149 69.07 17.3231C68.7098 17.3314 68.3593 17.441 68.0586 17.6393C67.7329 17.8049 67.4632 18.0627 67.2832 18.3806C67.1032 18.6985 67.0208 19.0624 67.0464 19.4269C67.0464 20.4391 67.0464 21.4585 67.0464 22.5066H66.228L66.2567 16.8066Z" fill="white"/>
<path d="M79.4012 18.6874L78.6833 18.8741C78.5883 18.5867 78.4356 18.3218 78.2344 18.0957C78.0332 17.8696 77.7879 17.687 77.5135 17.5592C77.2392 17.4315 76.9416 17.3612 76.639 17.3527C76.3365 17.3443 76.0354 17.3978 75.7544 17.5101C75.276 17.6728 74.8701 17.9985 74.6076 18.4303C74.3451 18.8621 74.2428 19.3724 74.3186 19.8719C74.3339 20.354 74.5107 20.817 74.8205 21.1866C75.1303 21.5563 75.5552 21.8113 76.0271 21.9107C77.1973 22.1333 78.0229 21.6882 78.6474 20.475L79.4012 20.6688C79.2054 21.3401 78.7714 21.9168 78.1806 22.2909C77.5898 22.6649 76.8828 22.8105 76.1923 22.7004C75.4314 22.6348 74.7243 22.2808 74.2159 21.7109C73.7074 21.1411 73.436 20.3985 73.4571 19.635C73.4546 18.8933 73.7268 18.177 74.2213 17.6242C74.7158 17.0714 75.3974 16.7213 76.1348 16.6414C77.7716 16.4907 79.1284 17.3091 79.4012 18.6874Z" fill="white"/>
<path d="M68.1806 30.4464C68.5934 30.0751 69.0974 29.8202 69.6412 29.7079C70.1849 29.5956 70.7487 29.63 71.2747 29.8075C71.7482 29.9177 72.1704 30.1848 72.4728 30.5654C72.7752 30.9459 72.9399 31.4176 72.9402 31.9037C72.9905 33.0954 72.9402 34.2871 72.9402 35.5506L72.0931 35.5865V34.2512C72.0931 33.6266 72.0931 33.0021 72.0931 32.3775C72.1183 32.1222 72.088 31.8645 72.0044 31.622C71.9207 31.3795 71.7856 31.158 71.6083 30.9725C71.4311 30.7871 71.2158 30.6421 70.9774 30.5476C70.7389 30.4531 70.4828 30.4112 70.2266 30.4249C69.9647 30.4064 69.7017 30.4411 69.4535 30.5269C69.2053 30.6128 68.9771 30.748 68.7826 30.9244C68.588 31.1008 68.4313 31.3148 68.3216 31.5534C68.212 31.7921 68.1518 32.0504 68.1447 32.3129C68.1089 33.117 68.1447 33.921 68.1447 34.7178C68.1447 34.9906 68.1447 35.2563 68.1447 35.5578H67.3335V29.8147L68.0514 29.7788L68.1806 30.4464Z" fill="white"/>
<path d="M78.3459 3.38208H80.2339V9.46257H78.3459V3.38208Z" fill="white"/>
<path d="M61.8776 30.5038V29.8362L63.1052 29.7787V28.5511H63.9882V29.7859H65.8331V30.5397H63.9882C63.9882 31.8534 63.9882 33.081 63.9882 34.3014C63.9882 34.4809 64.3256 34.7321 64.5553 34.8111C64.8528 34.8548 65.1551 34.8548 65.4527 34.8111V35.6008C64.9628 35.5943 64.4737 35.5584 63.9882 35.4931C63.7436 35.4491 63.5252 35.3128 63.3783 35.1124C63.2313 34.912 63.167 34.6628 63.1985 34.4163C63.1985 33.361 63.1554 32.3057 63.1985 31.2576C63.1985 30.7048 63.0765 30.4464 62.4806 30.5397C62.2789 30.5451 62.0772 30.5331 61.8776 30.5038Z" fill="white"/>
<path d="M82.1866 29.8505C82.5886 29.7931 82.9906 29.6423 83.0624 30.2454C83.3778 29.9824 83.7577 29.8084 84.1628 29.7415C84.568 29.6746 84.9837 29.7172 85.3668 29.8649L85.2089 30.5828C85.0079 30.5828 84.8428 30.5828 84.6705 30.5828C84.4643 30.5413 84.2514 30.548 84.0483 30.6024C83.8452 30.6568 83.6574 30.7575 83.4996 30.8965C83.3418 31.0355 83.2183 31.2091 83.1388 31.4038C83.0592 31.5984 83.0257 31.8088 83.0409 32.0185C83.0409 32.9949 83.0409 33.9712 83.0409 34.9475V35.5362H82.1938L82.1866 29.8505Z" fill="white"/>
<path d="M57.9077 29.8362H58.6615L58.7404 30.3171C59.0466 30.0311 59.4271 29.837 59.8385 29.757C60.2498 29.677 60.6753 29.7144 61.0664 29.8649L60.9156 30.5828C60.8008 30.5828 60.7003 30.5828 60.6069 30.5828C59.3076 30.4751 58.7548 30.9632 58.7332 32.2698C58.7332 33.3394 58.7332 34.4235 58.7332 35.5218H57.9077V29.8362Z" fill="white"/>
<path d="M79.3366 0.3526C79.4929 0.346807 79.6488 0.372606 79.7949 0.428451C79.941 0.484297 80.0743 0.569043 80.1869 0.677618C80.2995 0.786193 80.3891 0.916364 80.4502 1.06035C80.5113 1.20433 80.5427 1.35916 80.5426 1.51558C80.5188 1.82021 80.3789 2.10405 80.1518 2.30847C79.9246 2.51288 79.6277 2.62223 79.3222 2.61394C79.1657 2.62369 79.0089 2.60149 78.8612 2.54869C78.7136 2.49589 78.5782 2.41359 78.4634 2.30681C78.3485 2.20003 78.2566 2.071 78.1932 1.92757C78.1298 1.78414 78.0963 1.62931 78.0946 1.4725C78.0959 1.31525 78.1299 1.15998 78.1944 1.01656C78.2589 0.873131 78.3525 0.744684 78.4693 0.639372C78.5861 0.53406 78.7235 0.454183 78.8728 0.404815C79.0221 0.355447 79.18 0.337665 79.3366 0.3526Z" fill="white"/>
<path d="M36.1198 28.9532C36.1198 30.4976 35.6053 31.9979 34.6576 33.2173C33.7099 34.4367 32.383 35.3057 30.8865 35.687C29.3656 36.0676 27.761 35.9272 26.3294 35.2882C24.8978 34.6492 23.7219 33.5485 22.9897 32.1622L15.2509 17.625C14.9025 16.9759 14.4249 16.405 13.8476 15.9474C13.2703 15.4898 12.6054 15.1552 11.8939 14.9642C11.1824 14.7732 10.4393 14.7299 9.71044 14.8368C8.98156 14.9438 8.28228 15.1988 7.65566 15.5862C7.42662 15.6789 7.1843 15.7346 6.93777 15.7513C6.96408 15.5056 7.02199 15.2643 7.11007 15.0334C8.96222 11.8532 10.7856 8.65857 12.6809 5.51423C13.3049 4.48184 14.1875 3.6301 15.2415 3.04315C16.2954 2.45621 17.4843 2.15435 18.6906 2.1674C19.8969 2.18045 21.0789 2.50795 22.1199 3.11756C23.1609 3.72717 24.0249 4.5978 24.6265 5.64345C26.7801 9.46978 28.783 13.3823 30.8506 17.2588L35.2727 25.6366C35.8331 26.6519 36.1247 27.7935 36.1198 28.9532Z" fill="white"/>
<path d="M16.1554 28.1492C16.1621 29.1562 15.9697 30.1546 15.5893 31.0871C15.2089 32.0195 14.6481 32.8677 13.939 33.5828C13.2299 34.2979 12.3866 34.8658 11.4573 35.254C10.5281 35.6422 9.53136 35.843 8.52431 35.8449C6.49184 35.845 4.54155 35.0425 3.09767 33.6121C1.6538 32.1817 0.833133 30.239 0.814209 28.2066C0.819808 26.1747 1.62651 24.227 3.05922 22.7863C4.49194 21.3455 6.43507 20.5279 8.46688 20.5109C9.47339 20.5071 10.4708 20.7017 11.402 21.0836C12.3333 21.4655 13.1801 22.0272 13.8942 22.7366C14.6082 23.446 15.1754 24.2891 15.5634 25.2178C15.9514 26.1466 16.1526 27.1427 16.1554 28.1492Z" fill="white"/>
<path d="M95.8049 3.38207H95.5752L95.288 3.05184H95.1085V3.38207H94.9219V2.39139H95.3885C95.4342 2.3874 95.4803 2.39298 95.5237 2.40778C95.5672 2.42258 95.6071 2.44627 95.6408 2.47734C95.6746 2.50841 95.7015 2.54618 95.7199 2.58824C95.7382 2.6303 95.7476 2.67573 95.7475 2.72162C95.7518 2.79519 95.7285 2.86771 95.6819 2.92487C95.6354 2.98203 95.5691 3.01965 95.4962 3.03031L95.7977 3.36771L95.8049 3.38207ZM95.087 2.56368V2.87955H95.367C95.3889 2.88155 95.411 2.87895 95.4318 2.87192C95.4527 2.86488 95.4718 2.85356 95.4881 2.83869C95.5043 2.82382 95.5172 2.80573 95.526 2.78556C95.5349 2.7654 95.5394 2.74362 95.5393 2.72162C95.5394 2.69961 95.5349 2.67783 95.526 2.65767C95.5172 2.63751 95.5043 2.61941 95.4881 2.60454C95.4718 2.58967 95.4527 2.57835 95.4318 2.57132C95.411 2.56428 95.3889 2.56168 95.367 2.56368H95.087Z" fill="white"/>
<path d="M95.3024 3.74099C95.0739 3.74099 94.8548 3.65023 94.6932 3.48868C94.5317 3.32712 94.4409 3.108 94.4409 2.87953C94.4409 2.65106 94.5317 2.43194 94.6932 2.27039C94.8548 2.10883 95.0739 2.01807 95.3024 2.01807C95.5309 2.01807 95.75 2.10883 95.9115 2.27039C96.0731 2.43194 96.1638 2.65106 96.1638 2.87953C96.1638 3.108 96.0731 3.32712 95.9115 3.48868C95.75 3.65023 95.5309 3.74099 95.3024 3.74099ZM95.3024 2.14011C95.112 2.14011 94.9294 2.21574 94.7948 2.35037C94.6601 2.485 94.5845 2.6676 94.5845 2.85799C94.5845 3.04839 94.6601 3.23099 94.7948 3.36562C94.9294 3.50025 95.112 3.57588 95.3024 3.57588C95.4928 3.57588 95.6754 3.50025 95.81 3.36562C95.9446 3.23099 96.0203 3.04839 96.0203 2.85799C96.0203 2.6676 95.9446 2.485 95.81 2.35037C95.6754 2.21574 95.4928 2.14011 95.3024 2.14011Z" fill="white"/>
</g>
<defs>
<clipPath id="clip0_170_566">
<rect width="95.3496" height="35.5569" fill="white" transform="translate(0.814209 0.3526)"/>
</clipPath>
</defs>
</svg>
