<svg width="160" height="50" viewBox="0 0 160 50" fill="none" xmlns="http://www.w3.org/2000/svg">
<path d="M11.0002 29.3677C11.6861 28.9059 12.1992 28.2244 12.4574 27.4323C13.6472 24.1855 14.9097 20.9535 16.1504 17.7362C16.2234 17.5448 16.3036 17.3607 16.4496 17C16.6019 17.3317 16.6962 17.5086 16.7687 17.6928C18.1393 20.9945 19.5243 24.3256 20.8731 27.6125C21.0747 28.2174 21.4517 28.7467 21.955 29.1313C22.071 29.2371 22.1802 29.3504 22.2819 29.4705L18.274 29.4654L19.5699 28.5021C19.0333 27.1977 18.504 25.9006 17.9455 24.6109C17.902 24.5003 17.6694 24.4263 17.5166 24.4262C16.5637 24.4249 15.6036 24.4237 14.6434 24.4225C14.5424 24.4386 14.4465 24.4782 14.3631 24.5381C14.2797 24.5981 14.2112 24.6768 14.1629 24.7681C13.7105 25.8797 13.3091 26.9767 12.8639 28.1252C12.832 28.1783 12.8118 28.2376 12.8048 28.2994C12.7979 28.361 12.8043 28.4235 12.8236 28.4824C12.8429 28.5413 12.8747 28.5952 12.9167 28.6405C12.9587 28.6857 13.0099 28.7211 13.0668 28.7443C13.3937 28.946 13.6797 29.2088 13.9096 29.5188L11 29.515L11.0002 29.3677ZM16.0313 19.8722L14.5715 23.7668L17.6338 23.7707L16.0313 19.8722Z" fill="white"/>
<path d="M115.22 29.5962C115.336 29.4637 115.38 29.3902 115.438 29.3608C116.355 28.9494 116.465 28.2056 116.452 27.2774C116.397 24.6624 116.414 22.0402 116.462 19.4253C116.505 19.1479 116.457 18.8639 116.326 18.6165C116.195 18.369 115.988 18.1716 115.736 18.0543C115.576 17.956 115.427 17.8397 115.293 17.7076C115.293 17.6486 115.336 17.5824 115.351 17.5824C117.415 17.544 119.479 17.6204 121.534 17.8113C122.599 17.9133 123.607 18.3468 124.418 19.0521C125.23 19.7575 125.806 20.7001 126.068 21.7505C126.417 22.8287 126.458 23.985 126.187 25.086C125.915 26.187 125.341 27.1877 124.532 27.9728C123.567 28.9603 122.265 29.5358 120.893 29.5814C119.082 29.6527 117.198 29.5987 115.22 29.5962ZM118.049 18.2414L118.037 27.7583C118.035 28.9 118.035 28.9 119.163 29.012C121.999 29.2881 123.9 27.8689 124.412 25.0336C124.519 24.4411 124.561 23.8384 124.538 23.2365C124.44 20.1279 122.247 17.6059 118.049 18.2414Z" fill="white"/>
<path d="M141.74 23.6631L141.737 26.2485C141.754 26.4937 141.753 26.7399 141.736 26.9851C141.589 28.0898 141.733 29.0107 142.948 29.4322C142.984 29.4322 143.005 29.5132 143.064 29.6091L138.932 29.6038C139.056 29.458 139.201 29.3316 139.362 29.2287C139.651 29.087 139.887 28.8518 140.031 28.56C140.175 28.2683 140.219 27.9364 140.156 27.6166C140.117 24.8838 140.127 22.151 140.167 19.4183C140.207 19.1422 140.158 18.8604 140.027 18.6147C139.896 18.369 139.691 18.1726 139.442 18.0547C139.297 17.9527 139.161 17.8393 139.034 17.7154C139.1 17.6565 139.137 17.5903 139.18 17.5903C140.766 17.5924 142.358 17.5944 143.944 17.5964C144.253 17.6175 144.558 17.6747 144.853 17.767C147.071 18.337 147.701 20.5402 146.149 22.2545C145.596 22.8578 145.152 23.1003 143.609 23.6286C145.323 25.7007 146.513 28.1476 148.991 29.6461C148.534 29.7997 148.046 29.8387 147.569 29.7599C147.093 29.681 146.643 29.4866 146.257 29.1933C145.72 28.7583 145.232 28.2635 144.804 27.7182C143.919 26.5533 143.083 25.3442 142.227 24.1499L141.937 23.6191L141.74 23.6631ZM141.741 23.0517L143.196 23.0536C143.756 23.0702 144.301 22.8613 144.71 22.4727C145.12 22.084 145.361 21.5471 145.38 20.9792C145.451 20.6953 145.466 20.4 145.423 20.1105C145.38 19.8209 145.28 19.5429 145.13 19.2926C144.98 19.0422 144.783 18.8246 144.549 18.6522C144.315 18.4799 144.05 18.3563 143.769 18.2886C143.127 18.1801 142.478 18.1178 141.827 18.102C141.827 18.3745 141.783 18.5439 141.782 18.7133L141.741 23.0517Z" fill="white"/>
<path d="M59.0144 23.3739C59.0435 24.1855 58.9139 24.9949 58.6333 25.7557C58.3525 26.5165 57.9261 27.2136 57.3786 27.807C56.8309 28.4005 56.173 28.8784 55.4425 29.2136C54.712 29.5488 53.9233 29.7345 53.1217 29.76C48.6119 29.7985 45.7738 25.088 47.7213 20.7887C48.2853 19.5369 49.2577 18.52 50.475 17.9088C51.6924 17.2977 53.0803 17.1297 54.4056 17.433C55.7309 17.7364 56.9125 18.4926 57.7519 19.5746C58.5912 20.6565 59.037 21.9982 59.0144 23.3739ZM48.9253 23.5304C48.8789 24.826 49.2085 26.1069 49.8735 27.2146C50.1825 27.789 50.6369 28.2698 51.19 28.6075C51.7432 28.9452 52.3753 29.1276 53.0212 29.1358C53.6671 29.1442 54.3035 28.9782 54.865 28.6549C55.4266 28.3316 55.8929 27.8627 56.2162 27.2964C56.903 26.1482 57.2669 24.8319 57.2686 23.4895C57.2703 22.1471 56.9098 20.8299 56.226 19.68C55.8976 19.1134 55.4255 18.6461 54.8587 18.3265C54.2919 18.0069 53.6511 17.8466 53.0025 17.8623C52.3539 17.878 51.7213 18.0691 51.1702 18.4158C50.6192 18.7624 50.1697 19.2521 49.8684 19.8339C49.2169 20.9511 48.8947 22.2338 48.9399 23.5304L48.9253 23.5304Z" fill="white"/>
<path d="M62.8461 19.8725C62.8458 20.1451 62.8093 20.2776 62.8091 20.4028C62.8059 22.9441 62.8026 25.478 62.7994 28.0193C62.8431 28.3031 62.9815 28.5631 63.1912 28.7564C63.5088 29.0282 63.8465 29.2749 64.2013 29.4943L60.6735 29.4898C61.0335 29.2467 61.3765 28.9788 61.7002 28.6882C61.888 28.5213 62.0097 28.2912 62.0429 28.0404C62.0466 25.1333 62.0502 22.2262 62.0539 19.3191C62.0408 19.0751 61.9491 18.8421 61.793 18.6558C61.4589 18.2723 61.0665 17.9183 60.6016 17.4536C61.4308 17.4547 62.1146 17.4555 62.7837 17.4564C62.951 17.4566 63.1181 17.6852 63.2561 17.84L70.6063 26.3793C70.7516 26.5489 70.9041 26.7111 71.1511 26.984C71.1515 26.6525 71.1518 26.4462 71.152 26.2474C71.155 23.9197 71.1579 21.5994 71.161 19.2718C71.1906 19.0444 71.1491 18.8133 71.0424 18.6111C70.9356 18.4088 70.769 18.2454 70.566 18.144C70.3083 17.993 70.0913 17.7802 69.9339 17.5244L73.3308 17.5288C73.1668 17.6849 72.9888 17.8252 72.7993 17.948C72.484 18.099 72.2267 18.351 72.0672 18.6651C71.9077 18.9791 71.8549 19.3377 71.9169 19.6852C71.9639 22.7422 71.9091 25.8063 71.9052 28.8706L71.9044 29.4894C71.4677 29.695 71.2352 29.4885 70.9809 29.2083C68.4631 26.2882 65.9307 23.3704 63.3837 20.4551L62.8461 19.8725Z" fill="white"/>
<path d="M32.8367 17.477L36.059 17.4811L36.1098 17.5843C35.8392 17.8074 35.5573 18.016 35.2652 18.2093C35.1174 18.2923 34.997 18.4175 34.9192 18.5694C34.8413 18.7213 34.8095 18.8931 34.8277 19.0633C34.8235 22.3191 34.8194 25.5823 34.8153 28.838L34.8144 29.4421C34.3705 29.6404 34.1308 29.4412 33.8838 29.1536C31.3271 26.2334 28.7704 23.3156 26.2137 20.4003C26.063 20.2114 25.8716 20.06 25.6543 19.9576L25.6535 20.5321C25.6504 22.9556 25.6473 25.379 25.6442 27.8025C25.6159 27.9995 25.6481 28.2007 25.7363 28.3786C25.8245 28.5566 25.9646 28.7028 26.1375 28.7975C26.4689 29.0065 26.7892 29.2331 27.0969 29.4764L23.5327 29.4719C23.8871 29.227 24.2274 28.9618 24.552 28.6777C24.7366 28.5061 24.8554 28.2741 24.8875 28.0225C24.8912 25.1154 24.8949 22.2057 24.8986 19.2937C24.8862 19.0503 24.7915 18.8187 24.6303 18.6378C24.3035 18.2543 23.9039 17.9002 23.4316 17.4355C24.2609 17.4366 24.9228 17.4375 25.6138 17.4383C25.7957 17.4386 25.9917 17.6745 26.137 17.8368C28.5919 20.6636 31.0421 23.4928 33.4873 26.3245C33.6326 26.4941 33.7851 26.6563 34.0249 26.9219C34.0252 26.5904 34.0255 26.3842 34.0258 26.1852C34.0287 23.8723 34.0317 21.5667 34.0346 19.2611C34.0693 19.0254 34.0297 18.7846 33.9216 18.5729C33.8135 18.3612 33.6424 18.1894 33.4324 18.0818C33.1902 17.9321 32.9595 17.7644 32.742 17.58L32.8367 17.477Z" fill="white"/>
<path d="M130.977 29.0272C132.307 29.0289 133.588 29.0305 134.868 29.0322C135.028 29.0323 135.217 28.8337 135.334 28.6792C135.663 28.1793 136.029 27.7047 136.427 27.2589L136.424 29.6308L128.146 29.6203C128.253 29.4905 128.379 29.3765 128.518 29.2819C128.82 29.1285 129.066 28.8798 129.216 28.5732C129.368 28.2665 129.417 27.9185 129.356 27.5814C129.309 24.8705 129.326 22.1524 129.366 19.4785C129.407 19.2013 129.358 18.9183 129.227 18.6713C129.097 18.4244 128.891 18.2266 128.641 18.1074C128.456 17.9623 128.284 17.802 128.125 17.6279L136.032 17.638L136.029 19.789C135.644 19.2949 135.347 18.9041 135.034 18.5281C134.91 18.3953 134.751 18.2036 134.598 18.2034C133.419 18.2019 132.234 18.2004 131.02 18.1988L131.013 22.9132L132.817 22.9155C133.028 22.901 133.239 22.9013 133.45 22.9163C134.403 23.0502 135.181 22.867 135.568 21.8509C135.568 21.8509 135.648 21.7921 135.742 21.7333L135.739 24.7976C135.477 24.429 135.303 24.1489 135.1 23.8982C134.991 23.7581 134.831 23.5516 134.693 23.5441C133.471 23.5425 132.249 23.5409 131.006 23.5394L130.977 29.0272Z" fill="white"/>
<path d="M94.5396 29.564L91.7388 29.5605C91.7395 29.4868 91.7395 29.4278 91.7395 29.4205C92.6854 28.8398 92.9557 27.831 93.3138 26.8739L96.8456 17.8405C96.9187 17.6564 97.0066 17.4724 97.1447 17.1411C97.3042 17.4875 97.4061 17.6865 97.4932 17.8781C98.7404 20.8997 99.9898 23.9213 101.242 26.9429C101.633 27.901 101.887 28.9547 102.977 29.4569L102.883 29.5746L99.0128 29.5697L100.28 28.6211C99.9026 27.7073 99.5548 26.7861 99.1413 25.8649C98.5905 24.5383 98.5905 24.5383 97.1498 24.5365C96.5975 24.5357 96.0371 24.535 95.484 24.5343C95.3356 24.506 95.1827 24.5379 95.0572 24.6232C94.9317 24.7084 94.8445 24.8403 94.8142 24.9901C94.4347 26.0651 94.0264 27.1326 93.5959 28.1854C93.5567 28.2485 93.5316 28.3196 93.5228 28.3936C93.5139 28.4676 93.522 28.5426 93.5457 28.6133C93.5693 28.6839 93.6077 28.7483 93.6594 28.8017C93.7103 28.8552 93.7731 28.8963 93.8418 28.9223C94.1113 29.0891 94.3712 29.2714 94.6193 29.4684L94.5396 29.564ZM95.2159 23.8858L98.2929 23.8897L96.6832 19.9837C96.1722 21.3605 95.7048 22.5827 95.2159 23.8858Z" fill="white"/>
<path d="M90.2366 27.1198L90.2359 27.8564C90.2344 29.057 90.2344 29.0643 89.0625 29.3943C87.5192 29.8819 85.8719 29.9257 84.3054 29.5208C82.9684 29.1933 81.7891 28.3968 80.977 27.2726C80.1648 26.1483 79.7722 24.769 79.8689 23.3795C79.9006 21.9928 80.3933 20.6575 81.2671 19.5893C82.1409 18.5211 83.3449 17.7826 84.6844 17.4929C86.3511 17.1915 88.0642 17.2869 89.6887 17.7718C89.767 17.8049 89.8356 17.8573 89.8888 17.9243C89.9427 17.9913 89.9781 18.0707 89.9937 18.1553C89.9929 18.6709 89.9922 19.1865 89.9914 19.7021L89.8098 19.8344C89.7426 19.6856 89.6599 19.5446 89.5624 19.4143C89.1157 18.8977 88.5552 18.4938 87.9268 18.2348C87.2977 17.9759 86.6184 17.8689 85.942 17.9223C85.2656 17.9758 84.6107 18.1883 84.0294 18.5429C83.4482 18.8975 82.9565 19.3845 82.5937 19.9652C81.9544 21.0524 81.6252 22.2978 81.6428 23.5631C81.6605 24.8283 82.0242 26.0638 82.6937 27.1323C83.0454 27.6868 83.5153 28.1547 84.0688 28.5016C84.6222 28.8485 85.2457 29.0656 85.8925 29.1371C86.5394 29.2085 87.1943 29.1324 87.8087 28.9145C88.4231 28.6965 88.9813 28.3422 89.4428 27.8775C89.6902 27.701 89.9087 27.4582 90.2366 27.1198Z" fill="white"/>
<path d="M38.3318 26.7956C38.5351 27.1126 38.7239 27.437 38.9417 27.7392C39.3402 28.368 39.9665 28.8132 40.6858 28.9789C41.1337 29.103 41.6086 29.0835 42.0451 28.9231C42.4817 28.7628 42.8585 28.4694 43.1237 28.0834C43.3742 27.6782 43.4949 27.2046 43.4695 26.7273C43.4441 26.25 43.2737 25.7923 42.9817 25.4168C42.5146 24.9048 42.0014 24.4381 41.4487 24.0227C40.7473 23.5219 40.0776 22.9773 39.4431 22.3922C38.9923 21.9065 38.6702 21.3132 38.507 20.6674C38.4194 20.3221 38.4021 19.9623 38.456 19.61C38.51 19.2577 38.6341 18.9202 38.821 18.6179C39.0078 18.3157 39.2533 18.0551 39.5427 17.852C39.8321 17.6489 40.1592 17.5074 40.5042 17.4363C41.5723 17.155 42.6974 17.1871 43.7482 17.5288C43.8385 17.5728 43.9171 17.6378 43.9777 17.7186C44.0383 17.7993 44.0791 17.8935 44.0967 17.9933C44.147 18.4619 44.1143 18.9357 44.0004 19.3927L43.5647 18.8176C43.3674 18.5419 43.1115 18.3145 42.8158 18.1522C42.5202 17.9899 42.1924 17.8969 41.8566 17.88C41.5124 17.8247 41.1598 17.8733 40.8427 18.0196C40.5256 18.1659 40.2581 18.4035 40.0734 18.7027C39.8811 19.0225 39.7898 19.3941 39.8113 19.7679C39.8329 20.1417 39.9666 20.4999 40.1944 20.7948C40.5796 21.2729 41.0211 21.7014 41.5093 22.0708C42.2359 22.7052 43.079 23.2513 43.8055 23.9078C44.2477 24.2714 44.5828 24.7509 44.7745 25.294C44.9662 25.8372 45.0071 26.4231 44.8927 26.9882C44.7683 27.7796 44.3567 28.4957 43.7387 28.9961C43.1206 29.4967 42.3403 29.7457 41.5505 29.6945C40.5662 29.6158 39.5919 29.4394 38.6416 29.1679C38.5705 29.1562 38.5023 29.1303 38.4413 29.0915C38.3802 29.0527 38.3274 29.0019 38.2861 28.9421C38.2449 28.8823 38.2158 28.8146 38.2008 28.7432C38.1858 28.6718 38.185 28.5981 38.1987 28.5264C38.1994 27.9593 38.2002 27.3921 38.2009 26.8175L38.3318 26.7956Z" fill="white"/>
<path d="M104.543 17.585L108.646 17.5902C108.528 17.7177 108.399 17.8334 108.259 17.9359C107.953 18.0837 107.703 18.3297 107.549 18.6358C107.395 18.9419 107.344 19.291 107.407 19.629C107.454 22.4944 107.399 25.367 107.395 28.2323L107.394 28.9689C108.5 28.9703 109.577 28.9275 110.588 28.9729C110.881 29.0221 111.182 28.9726 111.445 28.8319C111.708 28.6912 111.918 28.4671 112.043 28.1941C112.374 27.6373 112.733 27.0993 113.122 26.5823L113.118 29.5286L104.578 29.5177C104.81 29.3199 105.054 29.1358 105.306 28.9662C105.492 28.8699 105.642 28.7172 105.736 28.5295C105.83 28.3419 105.864 28.1289 105.831 27.9209C105.835 25.0556 105.839 22.1829 105.843 19.3176C105.886 19.0532 105.845 18.7817 105.725 18.5428C105.605 18.304 105.412 18.1106 105.175 17.9909C104.956 17.8705 104.744 17.7349 104.543 17.585Z" fill="white"/>
</svg>
