<svg width="285" height="46" viewBox="0 0 285 46" fill="none" xmlns="http://www.w3.org/2000/svg">
<path d="M42.3351 21.3841C42.3258 25.5534 41.0946 29.6261 38.7975 33.0861C36.5004 36.546 33.2407 39.2375 29.4316 40.8194C25.6226 42.4013 21.4355 42.8025 17.4011 41.972C13.3666 41.1416 9.66642 39.1169 6.76936 36.1546C3.87231 33.1923 1.90881 29.4257 1.12769 25.3321C0.346574 21.2385 0.783 17.0022 2.38166 13.1601C3.98033 9.31797 6.66926 6.04294 10.1077 3.75003C13.5462 1.45712 17.5794 0.249555 21.6962 0.28036C27.1958 0.309185 32.4591 2.54832 36.3293 6.50561C40.1994 10.4629 42.3596 15.8145 42.3351 21.3841ZM13.3515 26.8313V21.3686C13.3241 19.787 13.6939 18.2242 14.4261 16.827C15.1584 15.4298 16.2292 14.2438 17.5379 13.3804C18.8467 12.517 20.3506 12.0045 21.9086 11.8909C23.4665 11.7773 25.0274 12.0663 26.4448 12.731C26.8271 12.9518 27.2517 13.0868 27.69 13.1271C28.1282 13.1673 28.5699 13.1118 28.9852 12.9643C29.4004 12.8167 29.7795 12.5806 30.0969 12.2718C30.4142 11.9631 30.6624 11.5889 30.8246 11.1746C30.9871 10.7647 31.0616 10.3244 31.0431 9.88299C31.0246 9.44161 30.9135 9.00928 30.7173 8.61474C30.521 8.2202 30.2441 7.87249 29.9049 7.59471C29.5657 7.31693 29.172 7.11546 28.75 7.00368C26.2264 5.87216 23.4445 5.46389 20.7075 5.8234C17.9706 6.18291 15.3836 7.29639 13.2286 9.04247C11.4237 10.4654 9.95531 12.2784 8.9304 14.3493C7.90549 16.4201 7.34995 18.6965 7.3043 21.0124C7.25865 23.3283 7.72405 25.6253 8.66654 27.7359C9.60903 29.8465 11.0048 31.7174 12.7522 33.2122C12.8905 33.3211 13.0134 33.5235 13.1978 33.4612C13.3822 33.399 13.3515 33.1033 13.3515 32.9165V26.8313ZM31.9157 27.0025C31.9157 25.1037 31.9157 23.1895 31.9157 21.2907C31.9302 20.8729 31.8614 20.4564 31.7134 20.0661C31.5654 19.6758 31.3413 19.3197 31.0544 19.019C30.7676 18.7183 30.4239 18.4793 30.0438 18.3161C29.6637 18.1529 29.255 18.0689 28.8422 18.0692C26.7522 18.0692 24.6468 18.0692 22.5568 18.0692C21.797 18.0822 21.0675 18.3729 20.5027 18.8877C19.9378 19.4025 19.5758 20.1067 19.4832 20.8705C19.3782 21.6588 19.5606 22.4588 19.9962 23.1207C20.4319 23.7825 21.091 24.2607 21.8499 24.4657C22.4674 24.5847 23.0971 24.6265 23.7247 24.5902C24.0917 24.5797 24.4569 24.6442 24.7987 24.7797C25.1406 24.9152 25.452 25.119 25.7144 25.3789C25.9768 25.6389 26.1849 25.9497 26.3262 26.2927C26.4675 26.6358 26.5392 27.0042 26.537 27.376C26.5435 27.7476 26.4752 28.1167 26.3364 28.4607C26.1975 28.8047 25.9909 29.1165 25.7293 29.3772C25.4676 29.6378 25.1563 29.8417 24.8144 29.9766C24.4724 30.1115 24.1069 30.1745 23.7401 30.1618C22.5107 30.1618 21.2813 30.1618 20.0518 30.1618C19.5601 30.1618 19.3603 30.333 19.3603 30.8466C19.3603 32.517 19.3603 34.1823 19.3603 35.8424C19.3603 36.3715 19.5601 36.6206 20.0826 36.6517C20.6051 36.6828 21.4503 36.8229 22.1265 36.8384C24.6196 36.8993 27.1015 36.4821 29.4415 35.6089C30.2399 35.419 30.9395 34.9338 31.4029 34.2486C31.8663 33.5633 32.0602 32.7274 31.9465 31.9049L31.9157 27.0025Z" fill="white"/>
<path d="M151.044 32.0281C149.871 33.619 148.271 34.8346 146.434 35.5298C145.007 36.0432 143.483 36.2203 141.979 36.0476C140.474 35.8748 139.028 35.3568 137.751 34.533C136.473 33.7092 135.398 32.6012 134.608 31.2933C133.817 29.9855 133.331 28.5122 133.187 26.9856C132.871 25.1195 133.041 23.2023 133.679 21.4229C134.318 19.6435 135.404 18.0634 136.829 16.8383C140.364 13.7257 147.325 13.4922 150.66 18.5036C150.66 18.597 150.814 18.6748 150.952 18.846C151.078 18.0957 151.114 17.3328 151.06 16.5737C151.06 15.3598 151.398 15.0174 152.597 15.0174C153.795 15.0174 154.133 15.3443 154.133 16.5737V35.1251C154.3 37.5191 153.55 39.886 152.039 41.7348C150.528 43.5837 148.372 44.7725 146.019 45.0545C142.655 45.722 139.167 45.1008 136.23 43.3114C134.893 42.5177 135.2 41.7551 136.076 40.6345C136.506 40.1365 137.014 40.5412 137.444 40.8213C139.788 42.3024 142.59 42.8565 145.312 42.3776C146.854 42.1987 148.281 41.463 149.331 40.3053C150.381 39.1477 150.984 37.6457 151.029 36.0745C151.106 34.6894 151.044 33.3509 151.044 32.0281ZM151.044 25.9273C151.141 24.7996 151.005 23.6639 150.645 22.5923C150.285 21.5207 149.71 20.5364 148.954 19.702C148.24 18.9679 147.388 18.385 146.449 17.9872C145.509 17.5893 144.501 17.3844 143.483 17.3844C142.465 17.3844 141.457 17.5893 140.518 17.9872C139.579 18.385 138.727 18.9679 138.012 19.702C135.077 23.0169 135.492 29.1489 138.904 31.7012C140.029 32.5827 141.381 33.1174 142.798 33.2416C144.215 33.3658 145.637 33.0742 146.895 32.4016C148.145 31.8562 149.211 30.9531 149.962 29.803C150.713 28.6529 151.116 27.3059 151.121 25.9273H151.044Z" fill="white"/>
<path d="M71.0693 21.5392H75.2032C76.2482 21.5392 76.571 21.866 76.5863 22.8776C76.5863 25.6323 76.5863 28.4026 76.5863 31.1572C76.5808 31.5658 76.4702 31.9659 76.2654 32.318C76.0605 32.6701 75.7686 32.962 75.4184 33.1649C72.5402 35.2666 69.0326 36.2949 65.4908 36.0752C61.6066 36.0649 57.8856 34.4924 55.1462 31.7036C52.4069 28.9148 50.8737 25.1382 50.8838 21.2046C50.894 17.271 52.4468 13.5026 55.2005 10.7284C57.9543 7.95421 61.6835 6.40149 65.5677 6.41181C68.7791 6.24051 71.9735 6.98458 74.7883 8.55952C75.7104 9.10423 75.8487 9.52444 75.4337 10.4115C74.8805 11.6099 74.5424 11.7033 73.3591 11.0808C71.6511 10.1147 69.7624 9.52146 67.8144 9.33919C65.8664 9.15692 63.9023 9.38967 62.0485 10.0225C59.4904 10.9617 57.3358 12.7749 55.9557 15.1497C54.5757 17.5246 54.0565 20.3125 54.4876 23.0333C54.8202 25.8069 56.1398 28.3625 58.1991 30.2218C60.2585 32.081 62.9164 33.1163 65.6753 33.1338C68.2267 33.2794 70.7657 32.6798 72.9903 31.4063C73.218 31.3003 73.4072 31.1246 73.5312 30.9041C73.6553 30.6836 73.7079 30.4292 73.6818 30.1768C73.6818 28.5115 73.6818 26.8463 73.6818 25.181C73.6818 24.434 73.4359 24.2783 72.7598 24.2939C70.8081 24.2939 68.8564 24.2939 66.9047 24.2939C65.8136 24.2939 65.4755 23.9515 65.4755 22.9243C65.4755 21.8972 65.8289 21.5859 66.9354 21.5703L71.0693 21.5392Z" fill="white"/>
<path d="M262.308 31.0949C262.692 30.877 262.676 30.5346 262.769 30.27C264.198 25.9279 265.612 21.5859 267.041 17.2438C267.487 15.8898 268.117 15.5474 269.5 15.8276C270.16 15.9521 270.406 16.4345 270.591 17.0104L275.032 30.4568C275.109 30.6747 275.201 30.9081 275.293 31.126C275.631 30.9548 275.616 30.6124 275.724 30.3478C277.445 25.6582 279.161 20.9893 280.872 16.3411C280.987 16.0673 281.158 15.8212 281.374 15.619C281.59 15.4167 281.845 15.2628 282.124 15.1674C282.402 15.0719 282.698 15.037 282.99 15.0649C283.283 15.0929 283.566 15.1831 283.822 15.3296C283.917 15.3769 284.001 15.4434 284.069 15.5249C284.136 15.6063 284.187 15.7011 284.217 15.8033C284.248 15.9054 284.257 16.0128 284.244 16.1187C284.232 16.2246 284.198 16.3268 284.145 16.419C281.871 22.4885 279.535 28.5425 277.337 34.6121C276.922 35.7015 276.108 35.6704 275.216 35.6859C274.843 35.7214 274.47 35.6176 274.168 35.3941C273.865 35.1705 273.653 34.8426 273.572 34.472C272.158 30.1611 270.714 25.8657 269.269 21.5703C269.162 21.259 269.162 20.9011 268.777 20.6054L268.07 22.6597C266.795 26.5349 265.489 30.4412 264.244 34.3008C264.176 34.7206 263.951 35.098 263.617 35.3556C263.283 35.6131 262.864 35.7313 262.446 35.6859C261.001 35.6859 260.786 35.577 260.341 34.3475C258.204 28.6048 256.053 22.8465 253.932 17.0882C253.702 16.4501 253.148 15.6719 254.163 15.2362C254.396 15.1156 254.65 15.0442 254.911 15.0261C255.172 15.008 255.434 15.0436 255.681 15.1309C255.928 15.2182 256.155 15.3552 256.349 15.5338C256.542 15.7124 256.698 15.9288 256.806 16.17C258.343 20.512 259.987 24.8697 261.585 29.2117C261.816 29.8498 262.016 30.4256 262.308 31.0949Z" fill="white"/>
<path d="M124.936 18.6297V10.5677C124.936 9.71168 124.936 8.87124 124.936 8.01523C124.936 7.15923 125.274 6.67676 126.473 6.67676C127.672 6.67676 128.01 6.94134 128.01 7.99967C128.01 11.3614 128.01 14.7387 128.01 18.1005V34.0066C128.01 34.5358 128.133 35.1739 127.503 35.4384C127.173 35.5851 126.817 35.6608 126.458 35.6608C126.098 35.6608 125.742 35.5851 125.413 35.4384C124.967 35.2517 124.905 34.8003 124.905 34.349C124.905 33.5708 124.905 32.7926 124.905 32.0611C124.706 31.9366 124.613 32.0611 124.567 32.0611C121.248 37.6329 112.089 37.415 108.462 31.4075C107.115 29.095 106.6 26.3812 107.007 23.7279C107.413 21.0746 108.715 18.646 110.69 16.8554C114.409 13.7427 121.279 13.7427 124.521 18.4118C124.598 18.5363 124.66 18.6764 124.736 18.8164L124.936 18.6297ZM124.936 24.9641C124.94 23.8467 124.694 22.743 124.218 21.7351C123.742 20.7273 123.047 19.8413 122.185 19.1433C121.069 18.2014 119.707 17.6074 118.264 17.4334C116.821 17.2594 115.359 17.5127 114.056 18.1628C112.782 18.7683 111.713 19.7412 110.983 20.9594C110.253 22.1777 109.895 23.587 109.953 25.0108C109.778 26.6883 110.167 28.3763 111.057 29.8024C111.946 31.2284 113.284 32.3093 114.855 32.8704C120.126 34.5202 124.982 30.9561 125.013 24.9641H124.936Z" fill="white"/>
<path d="M98.7635 18.6443C98.7635 17.8972 98.7635 17.0879 98.7635 16.403C98.7635 15.3447 99.1323 15.0646 100.3 15.0801C101.468 15.0957 101.837 15.3758 101.837 16.3719C101.837 22.3485 101.837 28.3094 101.837 34.286C101.837 35.3288 101.484 35.6245 100.3 35.6089C99.1169 35.5933 98.7635 35.3443 98.7635 34.2393C98.7635 33.57 98.7635 32.9164 98.7635 32.2471C98.7635 32.2471 98.7635 32.1537 98.7635 32.0915C98.7635 32.0292 98.4868 32.0915 98.41 32.2938C94.8447 37.8345 84.8094 37.5077 81.7666 30.0526C80.849 28.0742 80.5245 25.8667 80.8332 23.7034C81.1418 21.5401 82.0701 19.516 83.5032 17.8816C87.0224 13.6327 94.7832 13.2124 98.3024 18.3174C98.41 18.4575 98.5329 18.582 98.6405 18.7065L98.7635 18.6443ZM91.1871 17.3991C86.838 17.3991 83.8413 20.5897 83.8105 25.1811C83.7798 29.7724 86.8841 33.1342 91.2025 33.1187C92.215 33.1448 93.2221 32.9608 94.1618 32.578C95.1015 32.1951 95.9539 31.6215 96.6665 30.8926C97.3791 30.1636 97.9369 29.2946 98.3054 28.3391C98.674 27.3836 98.8455 26.3619 98.8096 25.3367C98.8628 24.2986 98.7037 23.2606 98.3423 22.2876C97.9809 21.3147 97.425 20.4278 96.7094 19.6827C95.9938 18.9375 95.1339 18.35 94.1836 17.957C93.2334 17.5641 92.2132 17.3742 91.1871 17.3991Z" fill="white"/>
<path d="M171.003 25.3197C168.36 25.3197 165.732 25.3197 163.089 25.3197C162.382 25.3197 162.213 25.5532 162.259 26.2224C162.36 27.9342 163.048 29.5566 164.203 30.8096C165.359 32.0627 166.911 32.8677 168.591 33.0858C169.917 33.3465 171.282 33.332 172.603 33.0431C173.923 32.7542 175.172 32.1969 176.274 31.405C176.92 30.9537 177.488 30.7825 178.119 31.405C178.749 32.0275 178.887 32.7746 178.119 33.4594C176.308 35.0242 174.041 35.943 171.664 36.074C167.484 36.3697 163.75 35.3114 161.153 31.7785C159.964 30.2288 159.243 28.3642 159.077 26.4093C158.911 24.4544 159.306 22.4925 160.215 20.7597C161.001 19.0011 162.262 17.5036 163.853 16.4405C165.444 15.3775 167.3 14.7921 169.205 14.7523C170.998 14.541 172.814 14.845 174.444 15.6293C176.075 16.4137 177.455 17.6468 178.426 19.1878C179.305 20.5948 179.832 22.1972 179.963 23.8568C180.086 25.1019 179.871 25.4131 178.61 25.4131C176.689 25.4131 174.768 25.4131 172.847 25.4131L171.003 25.3197ZM169.712 22.8919C171.879 22.8919 174.046 22.8919 176.198 22.8919C176.828 22.8919 176.92 22.674 176.735 22.1293C176.354 20.8899 175.628 19.7878 174.645 18.9544C173.698 18.2639 172.612 17.7934 171.465 17.5762C170.318 17.359 169.137 17.4004 168.007 17.6976C166.878 17.9947 165.827 18.5403 164.929 19.2955C164.031 20.0507 163.308 20.997 162.812 22.067C162.582 22.6584 162.643 22.8763 163.335 22.8607C165.456 22.8763 167.592 22.8919 169.712 22.8919Z" fill="white"/>
<path d="M251.135 25.3216C251.153 27.4503 250.548 29.5367 249.396 31.3172C248.244 33.0977 246.596 34.4926 244.662 35.3256C242.728 36.1586 240.593 36.3923 238.528 35.9974C236.462 35.6024 234.559 34.5964 233.057 33.1064C231.556 31.6165 230.524 29.7094 230.093 27.626C229.661 25.5426 229.849 23.3764 230.632 21.401C231.415 19.4255 232.759 17.7295 234.494 16.527C236.228 15.3246 238.276 14.6696 240.377 14.645C241.777 14.6265 243.167 14.8884 244.466 15.4157C245.765 15.943 246.949 16.7253 247.949 17.7175C248.948 18.7098 249.745 19.8924 250.291 21.1974C250.838 22.5024 251.125 23.904 251.135 25.3216ZM240.5 33.2436C242.062 33.312 243.608 32.9039 244.939 32.0721C246.269 31.2404 247.322 30.0234 247.961 28.5786C248.601 27.1339 248.797 25.5279 248.525 23.9688C248.253 22.4097 247.525 20.9692 246.436 19.8339C245.346 18.6986 243.945 17.9207 242.414 17.6011C240.883 17.2814 239.292 17.4347 237.848 18.041C236.404 18.6474 235.172 19.6788 234.314 21.0019C233.455 22.3249 233.008 23.8786 233.032 25.4617C233.031 27.4884 233.811 29.4354 235.206 30.8887C236.6 32.342 238.5 33.1868 240.5 33.2436Z" fill="white"/>
<path d="M199.01 21.2284V8.49734C199.01 7.11218 199.271 6.83203 200.623 6.83203H215.284C216.421 6.83203 216.713 7.12774 216.713 8.18607C216.713 9.2444 216.437 9.49341 215.438 9.50898H207.6C206.064 9.50898 204.527 9.50898 202.99 9.50898C202.498 9.50898 202.298 9.66461 202.298 10.1782C202.298 13.2909 202.298 16.4037 202.298 19.5164C202.298 20.2012 202.621 20.2323 203.128 20.2323H213.563C214.639 20.2323 214.977 20.6059 214.961 21.6486C214.946 22.6914 214.593 22.9715 213.563 22.9871C210.136 22.9871 206.724 22.9871 203.297 22.9871C202.529 22.9871 202.268 23.1427 202.283 23.9676C202.283 27.3294 202.283 30.6911 202.283 34.0684C202.283 34.6287 202.391 35.3135 201.73 35.6248C201.387 35.7821 201.015 35.8635 200.639 35.8635C200.262 35.8635 199.89 35.7821 199.548 35.6248C199.01 35.3602 199.056 34.7843 199.056 34.2552L199.01 21.2284Z" fill="white"/>
<path d="M185.497 26.3487C185.497 23.7186 185.497 21.0729 185.497 18.4428C185.497 17.8203 185.344 17.5402 184.698 17.618C184.314 17.618 183.914 17.618 183.53 17.618C182.193 17.618 181.625 16.7932 182.132 15.517C182.27 15.1435 182.577 15.0812 182.931 15.0812H184.913C185.374 15.0812 185.528 14.9256 185.574 14.4587C185.712 13.0114 185.882 11.5641 186.081 10.1323C186.204 9.13626 186.604 8.85613 187.618 8.91838C188.632 8.98063 188.663 9.52533 188.648 10.2879C188.648 11.5952 188.648 12.9025 188.648 14.1942C188.648 14.9412 188.878 15.1591 189.57 15.0968C190.261 15.0346 190.646 15.0968 191.107 15.0968C191.983 15.0968 192.044 15.6415 192.029 16.3107C192.013 16.9799 192.152 17.6647 191.153 17.6335H190.876C188.586 17.6335 188.586 17.6335 188.586 20.0302C188.586 24.6991 188.586 29.2901 188.586 33.9278C188.586 34.5036 188.694 35.1728 188.048 35.4841C187.706 35.6414 187.334 35.7228 186.957 35.7228C186.581 35.7228 186.209 35.6414 185.866 35.4841C185.328 35.2351 185.359 34.6437 185.359 34.1301V26.3487H185.497Z" fill="white"/>
<path d="M224.81 21.1814V33.9901C224.81 34.5348 224.886 35.1574 224.318 35.4375C223.987 35.5873 223.628 35.6647 223.265 35.6647C222.902 35.6647 222.544 35.5873 222.213 35.4375C221.675 35.1729 221.705 34.5971 221.705 34.0835V8.46601C221.671 8.14876 221.726 7.82804 221.866 7.54202C222.006 7.25601 222.224 7.01676 222.495 6.85277C222.765 6.68878 223.076 6.60696 223.392 6.61704C223.707 6.62713 224.012 6.7287 224.272 6.90966C224.81 7.20537 224.825 7.71896 224.825 8.24812C224.804 12.5851 224.799 16.8962 224.81 21.1814Z" fill="white"/>
</svg>
