<svg width="104" height="23" viewBox="0 0 104 23" fill="none" xmlns="http://www.w3.org/2000/svg">
<path d="M18.0485 8.69269C19.3296 7.8717 20.8262 7.45933 22.343 7.50935C25.5373 7.60514 28.5307 10.5409 28.5753 13.7528C28.6033 16.1984 28.5753 18.6439 28.6033 21.0782C28.6033 21.6417 28.4245 21.7262 27.9275 21.7319C25.8613 21.7319 25.8892 21.7319 25.8501 19.6977C25.811 17.6635 26.0344 15.7082 25.7216 13.7303C25.6205 12.946 25.2836 12.2118 24.7564 11.6265C24.2293 11.0412 23.5371 10.6328 22.773 10.4564C21.9895 10.2076 21.1516 10.1917 20.3594 10.4105C19.5671 10.6293 18.8541 11.0737 18.3054 11.6905C18.1983 11.8252 18.1202 11.9809 18.076 12.1478C18.0317 12.3147 18.0224 12.489 18.0485 12.6597C18.0485 15.4208 18.0485 18.1875 18.0485 20.9543C18.0485 21.5966 17.8698 21.7995 17.2611 21.7262C16.6524 21.653 15.7644 22.008 15.3624 21.5797C14.9603 21.1515 15.2451 20.3175 15.2451 19.6582C15.2451 13.5951 15.2451 7.53752 15.2451 1.47436C15.2451 0.854517 15.3959 0.60658 16.0269 0.685469C16.4478 0.739035 16.8737 0.739035 17.2946 0.685469C17.9703 0.589675 18.0708 0.905232 18.0653 1.4969C18.0373 3.59872 18.0653 5.70054 18.0653 7.79673L18.0485 8.69269Z" fill="#F2F2F2"/>
<path d="M41.6374 8.83367C41.3414 7.77994 41.8552 7.70669 42.6035 7.70669C44.4017 7.74613 44.4073 7.70669 44.4073 9.53803C44.4073 13.3641 44.4073 17.1959 44.4073 21.0276C44.4073 21.5911 44.2621 21.794 43.7037 21.732C43.332 21.7006 42.9584 21.7006 42.5868 21.732C41.8943 21.7771 41.2409 21.794 41.6597 20.605C39.6382 21.9067 37.6445 22.3518 35.4889 21.732C33.9796 21.3008 32.6602 20.365 31.7472 19.0779C30.8378 17.7192 30.3811 16.1034 30.4434 14.465C30.5056 12.8266 31.0836 11.2508 32.0935 9.96628C34.0369 7.68414 37.7506 6.41065 41.6374 8.83367ZM41.5816 14.8292C41.5424 14.2984 41.5424 13.7654 41.5816 13.2345C41.7882 11.854 40.9784 11.206 39.9062 10.6988C39.47 10.5189 39.0116 10.3994 38.5436 10.3438C35.0812 9.78033 32.5291 12.6598 33.4226 16.0745C34.3496 19.6189 38.8731 19.9006 40.9114 18.1707C41.1449 18.0007 41.3299 17.7716 41.4475 17.5065C41.5652 17.2413 41.6114 16.9495 41.5816 16.6606C41.5369 16.0576 41.5816 15.4265 41.5816 14.8292Z" fill="#F2F2F2"/>
<path d="M93.2103 15.5052C91.6243 15.5052 90.0383 15.5052 88.4578 15.5052C87.8603 15.5052 87.8045 15.7081 87.9552 16.2096C88.2095 17.0518 88.7191 17.7924 89.4123 18.3272C90.1056 18.8619 90.9475 19.1638 91.8197 19.1904C93.361 19.2524 94.8298 19.1059 95.9578 17.8719C96.1477 17.6577 96.3097 17.7197 96.4828 17.9C96.7933 18.2623 97.1333 18.5978 97.4992 18.9031C98.1637 19.382 97.8845 19.7201 97.4433 20.1315C93.7575 23.5124 86.2743 22.4643 85.1183 16.2659C84.3141 11.8369 86.5368 8.4841 90.418 7.61069C94.1373 6.77672 98.2363 9.78013 98.5155 13.6231C98.6663 15.5165 98.6663 15.5165 96.7732 15.5165L93.2103 15.5052ZM88.0893 12.9526C90.4459 12.9526 92.7858 12.9526 95.1257 12.9526C95.4441 12.9526 95.5334 12.8906 95.3882 12.5356C95.0265 11.8595 94.4917 11.2937 93.8394 10.8973C93.1872 10.5008 92.4415 10.2882 91.6801 10.2816C90.883 10.3042 90.1119 10.5721 89.47 11.0495C88.8282 11.5269 88.3464 12.191 88.0893 12.9526Z" fill="white"/>
<path d="M80.1928 20.6051C79.1822 21.2857 78.0403 21.7427 76.8421 21.9462C75.3298 22.1026 73.8132 21.6948 72.5785 20.7999C71.3439 19.905 70.4767 18.5849 70.1407 17.0889C70.0282 16.4605 69.9739 15.8229 69.9787 15.1843C69.9787 12.8966 69.9787 10.6088 69.9787 8.32101C69.9787 7.90403 70.0513 7.72371 70.5372 7.71244C72.8324 7.64482 72.8268 7.62792 72.8268 9.92133C72.8268 11.8372 72.8268 13.7531 72.8268 15.6689C72.8268 17.7651 74.2286 19.1231 76.3116 19.1795C77.3131 19.2779 78.3194 19.0487 79.182 18.5258C79.4787 18.3536 79.7223 18.1019 79.886 17.7986C80.0496 17.4952 80.1268 17.1521 80.109 16.8072C80.0699 13.9897 80.109 11.223 80.0811 8.42807C80.0811 7.86458 80.2207 7.70681 80.7792 7.70681C82.8287 7.70681 82.8287 7.70681 82.8287 9.75792C82.8287 13.4826 82.8287 17.2073 82.8287 20.932C82.8287 21.6194 82.6332 21.8223 81.991 21.7377C81.6479 21.6955 81.301 21.6955 80.9579 21.7377C80.2822 21.811 79.8577 21.6532 80.1928 20.6051Z" fill="white"/>
<path d="M60.9263 16.0576C60.9263 14.3277 60.9263 12.5978 60.9263 10.8679C60.9263 10.372 60.7811 10.2255 60.3008 10.2536C59.6642 10.2987 59.0275 10.2536 58.3965 10.2536C57.9721 10.2536 57.8771 10.1015 57.838 9.69015C57.7654 7.70103 57.7543 7.70666 59.7144 7.70103C60.8872 7.70103 60.8872 7.70103 60.8928 6.5346C60.8735 5.14301 61.3152 3.78476 62.1478 2.67519C62.9803 1.56562 64.1562 0.768227 65.4888 0.409451C66.3202 0.137422 67.2076 0.0888666 68.0633 0.268578C68.376 0.347467 68.5379 0.398182 68.3816 0.758817C68.2967 1.00874 68.2314 1.26497 68.1861 1.52517C67.8399 2.89445 67.8399 2.89445 66.4382 3.02969C65.0365 3.16492 63.9196 4.46095 63.752 6.03873C63.5733 7.7292 63.5733 7.7292 65.2096 7.69539C65.9747 7.69539 66.7453 7.69539 67.5104 7.69539C67.946 7.69539 68.1024 7.80246 68.1135 8.25888C68.1749 10.2367 68.1917 10.2367 66.2483 10.2367C65.6396 10.2367 65.0309 10.2762 64.4278 10.2367C63.8246 10.1973 63.7185 10.4058 63.7241 10.9524C63.7241 14.277 63.7241 17.6016 63.7241 20.9262C63.7241 21.5404 63.5957 21.8052 62.9534 21.7207C62.3112 21.6362 61.3786 22.0137 60.9877 21.5573C60.5968 21.1009 60.8816 20.2894 60.876 19.6301C60.9207 18.4524 60.9263 17.2522 60.9263 16.0576Z" fill="white"/>
<path d="M5.71234 19.1793C6.57235 19.1061 7.61108 19.3315 8.62187 19.0159C9.49802 18.8024 10.2701 18.281 10.7998 17.5452C11.0735 17.1282 11.2969 17.0099 11.6989 17.4156C12.1064 17.7935 12.5413 18.1401 13.0001 18.4524C13.324 18.6834 13.352 18.8694 13.1006 19.2075C11.5928 21.2248 9.49864 22.025 7.10288 22.025C5.64156 22.0689 4.20488 21.6381 3.00445 20.7961C1.80402 19.9541 0.903306 18.7454 0.434974 17.348C-0.949985 13.1838 0.993422 8.40536 5.96364 7.61084C8.56044 7.19385 10.9339 7.82497 12.7767 9.89298C13.0783 10.2311 13.1286 10.4565 12.7153 10.6875C12.5891 10.7825 12.468 10.884 12.3523 10.9918C11.9891 11.3767 11.5596 11.6917 11.0846 11.9215C10.5597 12.0737 10.3642 11.3581 9.96774 11.0932C9.15949 10.59 8.22849 10.3236 7.27879 10.3236C6.32909 10.3236 5.3981 10.59 4.58985 11.0932C3.86956 11.6403 3.32602 12.3904 3.02785 13.2488C2.72968 14.1073 2.69023 15.0356 2.9145 15.9167C3.15711 16.8453 3.12213 17.8256 2.81397 18.7342C2.65202 19.1737 2.78605 19.23 3.1658 19.2244C3.96997 19.1681 4.76297 19.1793 5.71234 19.1793Z" fill="#F2F2F2"/>
<path d="M51.885 13.4881C51.9688 14.3052 51.7454 15.3195 52.0134 16.3056C52.5049 18.1708 53.6162 19.0104 55.5093 18.892C55.8388 18.892 55.9784 18.9258 56.0678 19.2696C56.162 19.8476 56.3154 20.4141 56.5257 20.9601C56.7658 21.5235 56.4866 21.6531 56.0343 21.7208C54.4773 21.8963 52.9118 21.4753 51.6479 20.5413C50.384 19.6073 49.5139 18.2283 49.21 16.6775C49.0175 14.881 48.9783 13.0712 49.0927 11.268C49.0927 10.4058 48.8303 10.141 48.0373 10.2706C47.9592 10.2762 47.8808 10.2762 47.8027 10.2706C45.8872 10.2706 45.7365 10.0734 46.0157 8.1068C46.0604 7.77997 46.2111 7.72362 46.4792 7.72926C47.1661 7.72926 47.853 7.72926 48.5399 7.72926C48.9643 7.72926 49.0983 7.58275 49.0704 7.16576C49.0704 5.91481 49.0704 4.66386 49.0704 3.41291C49.0704 2.94521 49.1653 2.73672 49.6847 2.77617C50.3883 2.83252 51.3265 2.54513 51.751 2.90013C52.1754 3.25513 51.8794 4.29759 51.9129 5.03013C51.9464 5.76267 51.9129 6.4614 51.9129 7.18267C51.9129 7.59402 52.0302 7.74616 52.4714 7.74616C53.5268 7.74616 54.5879 7.74616 55.6434 7.74616C56.2018 7.74616 56.347 7.92648 56.3414 8.46743C56.3414 10.3044 56.3414 10.2875 54.5041 10.3157C53.672 10.3157 52.5607 9.93815 52.086 10.4791C51.6113 11.0201 51.9632 12.0456 51.9408 12.8627C51.8794 12.9866 51.885 13.1726 51.885 13.4881Z" fill="#F2F2F2"/>
<path d="M103.748 11.206C103.748 14.4517 103.748 17.6918 103.748 20.9318C103.748 21.4953 103.664 21.7602 102.994 21.7489C100.995 21.7094 100.995 21.7489 100.995 19.7203C100.995 13.6628 100.995 7.60525 100.995 1.54208C100.995 0.905336 101.118 0.674302 101.805 0.685572C103.754 0.719381 103.754 0.685572 103.748 2.68033C103.744 5.52033 103.744 8.36221 103.748 11.206Z" fill="white"/>
</svg>
