<svg width="160" height="50" viewBox="0 0 160 50" fill="none" xmlns="http://www.w3.org/2000/svg">
<path d="M47.186 38.9998C42.5213 38.9817 38.8004 35.2245 38.8367 30.5416C38.8549 25.9676 42.6483 22.2286 47.2586 22.2286C51.8507 22.2467 55.5898 26.004 55.608 30.6142C55.608 35.2426 51.8326 38.9998 47.186 38.9998ZM46.7141 29.2711C47.3312 28.781 47.9302 28.4361 48.3295 27.9461C49.0374 27.1111 48.8921 26.0221 48.0754 25.4776C47.422 25.042 46.2603 25.0601 45.5888 25.5502C44.8809 26.0584 44.6449 26.7844 44.8083 27.6194C44.8991 28.1094 45.0987 28.5814 45.262 29.0895C44.9898 29.2166 44.7538 29.3255 44.4997 29.4344C43.1566 30.1242 42.5031 31.431 42.7754 32.9012C43.0114 34.1717 44.1911 35.2789 45.625 35.2426C46.7504 35.2245 47.8939 34.8796 49.2007 34.6437C49.7816 35.1882 51.0158 35.3878 51.8144 34.9704C51.161 34.5166 50.4713 34.0265 49.963 33.6636C50.3442 32.2841 50.6347 31.1587 50.9432 29.9971C51.161 29.9245 51.4514 29.8337 51.7237 29.743C51.7055 29.6885 51.6874 29.6341 51.6692 29.5615C50.9069 29.5615 50.1446 29.5615 49.3641 29.5615C49.3641 29.6159 49.3641 29.6885 49.346 29.743C49.6182 29.8337 49.8905 29.9063 50.3261 30.0515C50.0901 31.0135 49.8541 31.9574 49.6182 32.9194C49.5274 32.9194 49.4185 32.9194 49.3278 32.9012C48.4747 31.6851 47.5853 30.4509 46.7141 29.2711Z" fill="white"/>
<path d="M115.341 4.71308C115.523 4.58602 115.704 4.33191 115.904 4.33191C117.846 4.29561 119.77 4.29561 121.712 4.33191C121.875 4.33191 122.039 4.56787 122.202 4.69493C122.021 4.78568 121.839 4.96719 121.657 4.98534C121.131 5.02164 120.587 5.00349 120.006 5.00349C120.006 10.1401 120.006 15.1497 120.006 20.1593C120.659 20.6312 121.676 19.887 122.22 20.9216C119.897 20.9216 117.683 20.9216 115.305 20.9216C115.867 19.7963 116.902 20.6675 117.556 20.1593C117.556 17.7997 117.556 15.3494 117.556 12.8446C114.742 12.8446 111.947 12.8446 109.097 12.8446C109.097 15.2949 109.097 17.7634 109.097 20.1956C109.75 20.5586 110.694 19.9233 111.312 20.9761C110.059 20.9761 108.952 20.9761 107.863 20.9761C107.137 20.9761 106.411 21.0124 105.685 20.9579C105.285 20.9398 104.904 20.7583 104.505 20.6675C104.886 20.5405 105.267 20.3953 105.649 20.3227C105.957 20.2682 106.284 20.3045 106.647 20.3045C106.647 15.1678 106.647 10.1583 106.647 5.03979C105.939 5.00349 105.231 4.96719 104.523 4.94903C104.487 4.87644 104.451 4.78568 104.415 4.71308C104.596 4.58602 104.795 4.35006 104.977 4.35006C106.883 4.31376 108.789 4.33191 110.694 4.35006C110.858 4.35006 111.021 4.56787 111.185 4.69493C111.003 4.80383 110.839 4.98534 110.658 4.98534C110.15 5.02164 109.641 5.00349 109.079 5.00349C109.079 7.38123 109.079 9.65006 109.079 11.9915C111.91 11.9915 114.706 11.9915 117.556 11.9915C117.556 9.68636 117.556 7.43568 117.556 5.05794C116.884 5.05794 116.212 5.05794 115.541 5.05794C115.468 4.93089 115.396 4.82198 115.341 4.71308Z" fill="white"/>
<path d="M105.686 37.9834C104.542 37.9834 103.398 38.0197 102.255 37.9653C101.983 37.9471 101.62 37.6567 101.456 37.4026C100.295 35.4968 99.1512 33.5728 98.0803 31.6125C97.6991 30.9047 97.2817 30.5598 96.4649 30.6687C96.0293 30.7231 95.5573 30.6869 95.031 30.6869C95.031 32.9012 95.031 35.0612 95.031 37.2029C95.6118 37.693 96.6282 36.8399 97.1546 38.0016C94.9947 38.0016 93.0163 38.0016 91.0197 37.9834C90.8745 37.9834 90.7111 37.8019 90.5659 37.693C90.7293 37.5841 90.8926 37.3663 91.0742 37.3663C91.5823 37.3118 92.0906 37.3481 92.6532 37.3481C92.6532 32.4656 92.6532 27.6738 92.6532 22.7368C92.1087 22.7368 91.5823 22.755 91.056 22.7187C90.8926 22.7006 90.7293 22.5372 90.5841 22.4464C90.7474 22.3194 90.9108 22.0834 91.0742 22.0834C93.9057 22.1016 96.7553 22.0108 99.5868 22.2105C101.91 22.3738 103.416 23.8985 103.598 25.7317C103.798 27.819 102.672 29.3982 100.44 30.233C100.277 30.2875 100.113 30.3783 99.8591 30.4691C100.712 31.8303 101.529 33.1553 102.364 34.4804C102.763 35.1156 103.199 35.7509 103.562 36.4043C103.889 37.0033 104.251 37.4389 105.032 37.33C105.268 37.2937 105.54 37.5297 105.813 37.6567C105.758 37.7837 105.722 37.8926 105.686 37.9834ZM95.0128 29.8701C96.2289 29.8701 97.3906 29.9971 98.4977 29.8338C100.077 29.616 101.22 28.0006 101.202 26.24C101.184 24.5156 100.131 23.0273 98.5522 22.8276C97.4087 22.6824 96.2289 22.7913 95.0128 22.7913C95.0128 25.1509 95.0128 27.4742 95.0128 29.8701Z" fill="white"/>
<path d="M69.2753 12.5541C69.2753 7.88944 72.3791 4.40451 77.0257 4.02335C80.6921 3.73294 85.1753 6.14697 85.738 11.5377C86.2825 16.9285 82.489 21.3935 77.2798 21.2846C72.5969 21.1757 69.2753 17.5456 69.2753 12.5541ZM83.0699 13.3891C83.1606 12.8264 83.1606 12.2638 83.0699 11.7193C82.852 10.5031 82.6887 9.26889 82.3257 8.1254C81.6178 5.92917 79.8753 4.80383 77.552 4.78567C75.2287 4.76753 73.5044 5.85656 72.7239 8.05279C71.653 11.0476 71.653 14.1151 72.7058 17.1282C73.5226 19.4514 75.2469 20.5949 77.6065 20.5586C79.8572 20.5223 81.636 19.2881 82.3438 17.0192C82.7068 15.8576 82.8702 14.6234 83.0699 13.3891Z" fill="white"/>
<path d="M108.644 22.7185C108.063 22.7185 107.555 22.7367 107.047 22.7004C106.902 22.6822 106.775 22.4826 106.629 22.3737C106.756 22.2648 106.865 22.0832 106.992 22.0832C110.078 22.1559 113.199 21.9018 116.213 22.4099C120.696 23.1541 122.529 26.9658 122.021 31.0678C121.494 35.2606 118.499 37.8743 114.27 37.9651C111.947 38.0195 109.606 37.9832 107.283 37.9651C107.065 37.9651 106.847 37.7836 106.629 37.6928C106.847 37.5658 107.065 37.3843 107.301 37.3479C107.718 37.2935 108.136 37.3298 108.644 37.3298C108.644 32.4654 108.644 27.6555 108.644 22.7185ZM111.021 22.7911C111.021 27.6555 111.021 32.4473 111.021 37.3298C112.11 37.3298 113.127 37.3479 114.143 37.3298C116.649 37.2935 118.318 36.0774 119.044 33.6815C119.807 31.1949 119.789 28.6719 119.026 26.1853C118.427 24.225 117.066 23.0452 115.051 22.8274C113.762 22.6822 112.419 22.7911 111.021 22.7911Z" fill="white"/>
<path d="M80.4008 38.1648C75.6635 38.1648 72.5234 34.8795 72.5234 29.9062C72.5234 25.2052 75.845 21.811 80.4371 21.811C85.0656 21.811 88.3145 25.2052 88.2782 30.0333C88.2782 34.7706 84.9748 38.1648 80.4008 38.1648ZM84.9748 34.1898C85.8097 31.4853 85.846 28.5631 84.9929 25.8586C84.9204 25.6408 84.8478 25.423 84.7751 25.2052C84.031 23.2812 82.3974 22.5189 80.3646 22.5007C78.3498 22.5007 76.807 23.3357 76.0266 25.187C75.5727 26.2761 75.3187 27.4922 75.1735 28.672C74.9375 30.723 75.1008 32.774 75.9539 34.698C76.8614 36.749 78.5313 37.6021 80.6731 37.5658C82.6334 37.5295 84.1399 36.5312 84.7933 34.698C84.8478 34.5528 84.9204 34.3713 84.9748 34.1898Z" fill="white"/>
<path d="M88.4424 9.6135C88.4424 7.90734 88.4424 6.18302 88.4424 4.38611C93.0526 4.38611 97.554 4.38611 102.164 4.38611C102.164 6.14673 102.164 7.85289 102.164 9.84946C101.856 9.59536 101.529 9.432 101.438 9.19604C101.239 8.66967 101.184 8.08885 101.021 7.52618C100.44 5.43885 99.1331 4.73097 96.5194 5.07584C96.5194 10.0854 96.5194 15.1131 96.5194 20.1772C97.2636 20.5947 98.3526 19.8505 99.2057 20.9577C98.389 20.9577 97.8081 20.9577 97.2092 20.9577C95.4848 20.9577 93.7605 20.9758 92.0362 20.9395C91.8365 20.9395 91.6369 20.7217 91.4372 20.6128C91.6369 20.5039 91.8365 20.3042 92.0543 20.3042C92.6896 20.268 93.3068 20.2861 94.0691 20.2861C94.0691 19.9049 94.0691 19.6145 94.0691 19.3241C94.0691 14.8409 94.0509 10.3758 94.0872 5.89262C94.0872 5.20289 93.9238 4.94878 93.1797 4.94878C91.2194 4.98508 90.0215 5.91077 89.4407 7.97995C89.3318 8.37926 89.2955 8.81488 89.1321 9.21419C89.0413 9.45015 88.7872 9.6135 88.5876 9.79501C88.5694 9.75871 88.5149 9.68611 88.4424 9.6135Z" fill="white"/>
<path d="M52.3223 21.176C52.1408 20.7586 51.9411 20.3411 51.7051 19.8328C48.8918 21.3212 45.8788 21.8476 42.775 20.5045C41.1415 19.7966 39.9254 18.5986 39.0723 17.0377C37.1846 13.6072 37.8562 8.83356 40.5606 6.20171C43.2469 3.58801 47.7301 3.2976 51.5781 5.45753C51.7778 5.02192 51.9956 4.60445 52.2134 4.16883C52.3223 4.20514 52.413 4.25959 52.5219 4.29589C52.5219 5.92945 52.5219 7.58116 52.5219 9.21472C52.4493 9.26917 52.3767 9.30548 52.3041 9.35993C52.1226 9.10581 51.8685 8.85171 51.7414 8.5613C50.9791 6.80068 49.8901 5.43938 47.9479 4.94931C44.9713 4.20514 42.2849 5.69349 41.3411 8.7065C40.488 11.3928 40.5243 14.1336 41.3956 16.8198C42.1216 19.0161 43.5918 20.4137 46.0058 20.5226C48.3836 20.6315 50.2349 19.6877 51.3784 17.5277C51.5962 17.1102 51.7414 16.6384 51.9774 16.2209C52.05 16.0757 52.2859 16.0212 52.4493 15.9123C52.5219 16.0575 52.6853 16.2027 52.6853 16.3298C52.7034 17.9089 52.7034 19.4698 52.7034 21.0308C52.5764 21.0853 52.4493 21.1215 52.3223 21.176Z" fill="white"/>
<path d="M70.0005 33.2278C70.0005 34.8251 70.0005 36.4042 70.0005 38.0014C69.9279 38.0378 69.8371 38.0922 69.7645 38.1285C69.5649 37.7474 69.3652 37.3843 69.1111 36.9124C66.4248 38.3281 63.5388 38.8001 60.544 37.5114C58.983 36.8398 57.8577 35.6782 57.059 34.208C55.2803 30.9771 55.8974 26.4758 58.4204 23.9347C60.9251 21.4299 65.2269 21.1032 69.0022 23.1361C69.1837 22.7367 69.3652 22.3374 69.5649 21.9381C69.6738 21.9744 69.7827 21.9925 69.8916 22.0289C69.8916 23.5717 69.8916 25.1326 69.8916 26.9114C69.6193 26.6391 69.3833 26.4758 69.2382 26.258C68.8388 25.6227 68.5666 24.8967 68.1128 24.3159C66.0436 21.7203 61.8871 21.8655 60.0902 24.6426C59.4913 25.5682 59.1101 26.7299 58.9105 27.8189C58.5474 29.8518 58.6019 31.9028 59.2916 33.8994C59.9813 35.9504 61.27 37.348 63.557 37.5295C65.9711 37.7292 67.8406 36.7127 68.9296 34.6073C69.1111 34.2624 69.22 33.8812 69.4015 33.5364C69.4922 33.3549 69.6919 33.246 69.8371 33.1008C69.8553 33.1371 69.9279 33.1734 70.0005 33.2278Z" fill="white"/>
<path d="M59.7272 20.2318C61.2337 20.2318 62.7221 20.377 64.1741 20.1592C64.8094 20.0684 65.481 19.3243 65.844 18.7072C66.2978 17.9267 66.443 16.9466 66.7516 16.0754C66.8242 15.8575 67.0056 15.6579 67.2961 15.549C67.2961 17.3096 67.2961 19.0702 67.2961 20.9034C63.194 20.9034 59.2009 20.9034 55.2077 20.9034C55.244 20.5223 55.244 20.5223 57.2769 20.2137C57.2769 15.1859 57.2769 10.1582 57.2769 5.02157C56.569 5.02157 55.8793 5.02157 55.2077 5.02157C55.1714 4.91266 55.117 4.80376 55.0807 4.69486C55.2803 4.5678 55.48 4.34999 55.6978 4.34999C57.6399 4.33184 59.5639 4.33184 61.506 4.34999C61.6694 4.34999 61.8509 4.5678 62.0142 4.6767C61.8327 4.78561 61.6694 4.96711 61.4878 4.98527C60.9252 5.02157 60.3625 5.00342 59.7272 5.00342C59.7272 10.1219 59.7272 15.1496 59.7272 20.2318Z" fill="white"/>
<path d="M48.6009 34.0264C47.167 35.0792 45.4609 34.9703 44.6986 33.8449C43.7728 32.4655 44.1177 30.3963 45.4609 29.5977C46.4954 31.0497 47.53 32.5018 48.6009 34.0264Z" fill="white"/>
<path d="M46.5142 28.545C45.8608 27.6011 45.6611 26.5302 46.1875 26.0765C46.5142 25.8042 47.1676 25.6408 47.5488 25.7679C47.8573 25.8768 48.1659 26.4758 48.2022 26.8751C48.293 27.6556 47.5488 28.2908 46.5142 28.545Z" fill="white"/>
</svg>
