<svg width="76" height="66" viewBox="0 0 76 66" fill="none" xmlns="http://www.w3.org/2000/svg">
<g opacity="0.1">
<path fill-rule="evenodd" clip-rule="evenodd" d="M75.0978 10.308C63.8498 16.0347 58.2259 22.7635 58.2259 30.4946C63.0201 31.0672 66.9845 33.0954 70.1192 36.5792C73.2539 40.0629 74.8212 44.0954 74.8212 48.6768C74.8212 53.5445 73.3 57.6486 70.2575 60.9892C67.215 64.3297 63.3889 66 58.7791 66C53.6161 66 49.1446 63.8287 45.3646 59.4859C41.5845 55.1431 39.6945 49.8699 39.6945 43.6659C39.6945 25.0541 49.7438 10.499 69.8426 0L75.0978 10.308ZM35.4032 10.308C24.0631 16.0347 18.3931 22.7635 18.3931 30.4946C23.2795 31.0672 27.29 33.0954 30.4247 36.5792C33.5593 40.0629 35.1266 44.0954 35.1266 48.6768C35.1266 53.5445 33.5824 57.6486 30.4938 60.9892C27.4052 64.3297 23.5561 66 18.9463 66C13.7833 66 9.33486 63.8287 5.6009 59.4859C1.86695 55.1431 0 49.8699 0 43.6659C0 25.0541 10.0032 10.499 30.0098 0L35.4032 10.308Z" fill="#001897"/>
</g>
</svg>
