<svg width="122" height="30" viewBox="0 0 122 30" fill="none" xmlns="http://www.w3.org/2000/svg">
<path d="M0.3284 28.9297V22.5414H3.13791C3.7218 22.4969 4.30394 22.6479 4.7942 22.971C4.97777 23.1139 5.12482 23.2991 5.2231 23.511C5.32138 23.7229 5.36804 23.9554 5.3592 24.1893C5.3642 24.4826 5.28923 24.7716 5.14249 25.0249C4.961 25.298 4.68499 25.493 4.36852 25.5716C4.77478 25.6403 5.14442 25.8503 5.41337 26.1651C5.63139 26.4598 5.74333 26.8206 5.7307 27.1881C5.74771 27.4366 5.70279 27.6854 5.60005 27.9118C5.4973 28.1383 5.34 28.3352 5.14249 28.4845C4.64164 28.8316 4.03768 28.9944 3.43202 28.9453H0.336141L0.3284 28.9297ZM3.02956 23.6114H1.61319V25.1733H3.08373C3.35671 25.206 3.63212 25.1366 3.8577 24.978C3.94147 24.9054 4.00691 24.8137 4.04862 24.7105C4.09034 24.6073 4.10714 24.4955 4.09763 24.3845C4.06667 23.8847 3.72613 23.6114 3.02956 23.6114ZM3.32366 26.2822H1.61319V27.8441H3.2927C4.02023 27.8441 4.36852 27.5708 4.36852 27.0632C4.37646 26.9516 4.35818 26.8396 4.31514 26.7365C4.2721 26.6333 4.20553 26.5419 4.12085 26.4697C3.87479 26.3119 3.58195 26.2457 3.2927 26.2822H3.32366Z" fill="#FCFCFC"/>
<path d="M11.1949 29.0702C10.6929 29.0847 10.1952 28.972 9.74757 28.7422C9.35494 28.5309 9.03814 28.2003 8.84203 27.7973C8.61788 27.3639 8.50605 26.8803 8.51696 26.3915V22.5414H9.8327V26.3994C9.80938 26.8036 9.94259 27.2012 10.2042 27.5083C10.3348 27.6471 10.494 27.7554 10.6705 27.8255C10.8469 27.8957 11.0365 27.926 11.2258 27.9144H11.3574C11.5453 27.9228 11.7327 27.891 11.9075 27.821C12.0822 27.751 12.2403 27.6444 12.3713 27.5083C12.6357 27.2024 12.7718 26.8047 12.7506 26.3994V22.5414H14.0353V26.3994C14.0463 26.8881 13.9344 27.3717 13.7103 27.8051C13.504 28.2008 13.1898 28.5287 12.8047 28.75C12.3571 28.9798 11.8594 29.0925 11.3574 29.078L11.1949 29.0702Z" fill="#FCFCFC"/>
<path d="M19.4918 29.0702C18.9303 29.0817 18.3731 28.9698 17.8588 28.7422C17.4109 28.5436 17.0236 28.2282 16.7365 27.8285L17.5647 26.9851C17.7935 27.2772 18.088 27.5101 18.4238 27.6645C18.7621 27.8074 19.125 27.8817 19.4918 27.8832H19.6312C20.4593 27.8832 20.8618 27.6333 20.8618 27.1803C20.867 27.1046 20.8551 27.0287 20.8269 26.9583C20.7988 26.888 20.7551 26.825 20.6992 26.7742C20.588 26.6599 20.4494 26.5764 20.2968 26.5321C20.1401 26.4745 19.9798 26.4275 19.8169 26.3915L18.8494 26.2041C18.6397 26.175 18.4344 26.1199 18.238 26.0401C18.013 25.9573 17.7976 25.8499 17.5956 25.7199C17.4047 25.571 17.2421 25.3885 17.1158 25.1811C16.9808 24.9439 16.9138 24.6735 16.9223 24.4001C16.8924 24.0161 16.9994 23.6339 17.2241 23.3224C17.4532 23.0227 17.7579 22.7907 18.1064 22.6508C18.5211 22.4796 18.9665 22.3971 19.4144 22.4087H19.546C20.0336 22.4055 20.5163 22.5067 20.9624 22.7054C21.3819 22.9042 21.7481 23.2014 22.0305 23.5723L21.2565 24.3533C21.0566 24.0807 20.7899 23.8654 20.4825 23.7285C20.1888 23.5953 19.8674 23.5363 19.546 23.5567H19.4067C19.1012 23.538 18.7965 23.6028 18.5244 23.7441C18.4304 23.7933 18.3514 23.8671 18.2955 23.9578C18.2397 24.0485 18.2091 24.1528 18.207 24.2595C18.1999 24.3573 18.221 24.455 18.2677 24.5409C18.3144 24.6268 18.3847 24.6973 18.4702 24.7437C18.6816 24.8524 18.909 24.9263 19.1436 24.9624L20.1033 25.1498C20.2658 25.1498 20.4516 25.2357 20.6992 25.2826C20.9337 25.3497 21.1578 25.4496 21.3648 25.5794C21.588 25.7205 21.7718 25.9167 21.8989 26.1494C22.0484 26.4327 22.1231 26.7501 22.1156 27.071C22.1288 27.3512 22.0745 27.6305 21.9572 27.8849C21.8399 28.1392 21.6632 28.3611 21.4422 28.5314C20.8998 28.8994 20.2527 29.0777 19.6002 29.039H19.4609L19.4918 29.0702Z" fill="#FCFCFC"/>
<path d="M25.1418 28.9297V22.5414H26.4575V28.9687L25.1418 28.9297Z" fill="#FCFCFC"/>
<path d="M29.8552 28.9297V22.5414H31.2716L34.0889 27.1647V22.5414H35.3427V28.9687H33.9264L31.1555 24.3142V28.9297H29.8552Z" fill="#FCFCFC"/>
<path d="M38.7946 28.9297V22.5414H43.539V23.7051H40.0794V25.1654H42.8657V26.3213H40.0794V27.7816H43.6164V28.9453H38.7946V28.9297Z" fill="#FCFCFC"/>
<path d="M48.9568 29.0702C48.3951 29.0843 47.8373 28.9723 47.3237 28.7422C46.8723 28.5461 46.4818 28.2303 46.1938 27.8285L47.0296 26.9851C47.2547 27.2777 47.5469 27.5109 47.881 27.6645C48.2219 27.808 48.5875 27.8823 48.9568 27.8832H49.0884C49.9165 27.8832 50.319 27.6333 50.319 27.1803C50.3242 27.1046 50.3123 27.0287 50.2842 26.9583C50.256 26.888 50.2123 26.825 50.1565 26.7742C50.0452 26.6599 49.9066 26.5764 49.754 26.5321C49.5977 26.4734 49.4373 26.4265 49.2741 26.3915L48.3144 26.2041C48.102 26.176 47.894 26.1209 47.6953 26.0401C47.4709 25.9556 47.2557 25.8484 47.0529 25.7199C46.862 25.571 46.6994 25.3885 46.573 25.1811C46.4447 24.9415 46.3806 24.6723 46.3872 24.4001C46.3722 24.0299 46.4843 23.6657 46.7046 23.3692C46.9336 23.0695 47.2384 22.8375 47.5869 22.6976C48.0043 22.5264 48.4522 22.444 48.9026 22.4555H49.0342C49.5218 22.4524 50.0045 22.5535 50.4506 22.7523C50.8724 22.9508 51.2412 23.248 51.5264 23.6191L50.7524 24.4001C50.5526 24.1276 50.2858 23.9122 49.9785 23.7753C49.703 23.6439 49.4007 23.5797 49.0961 23.5879H48.9568C48.6512 23.5673 48.3459 23.6321 48.0745 23.7753C47.9791 23.8234 47.8984 23.8968 47.8412 23.9876C47.7839 24.0784 47.7522 24.1832 47.7494 24.2908C47.742 24.3895 47.7638 24.4882 47.812 24.5744C47.8602 24.6606 47.9327 24.7304 48.0203 24.7749C48.229 24.8837 48.4538 24.9576 48.6859 24.9936L49.6534 25.1811L50.2416 25.3138C50.4766 25.3795 50.7008 25.4795 50.9072 25.6106C51.1304 25.7517 51.3142 25.9479 51.4413 26.1807C51.5943 26.4626 51.6691 26.781 51.658 27.1022C51.6708 27.3816 51.6171 27.66 51.5012 27.9141C51.3854 28.1682 51.2109 28.3906 50.9924 28.5626C50.4463 28.9291 49.7973 29.1072 49.1426 29.0702H48.9568Z" fill="#FCFCFC"/>
<path d="M56.8126 29.0701C56.2511 29.0817 55.6938 28.9698 55.1795 28.7422C54.729 28.5479 54.3406 28.2317 54.0573 27.8284L54.8854 26.985C55.1118 27.2796 55.4069 27.513 55.7445 27.6644C56.0824 27.8088 56.4456 27.8831 56.8126 27.8831H56.9442C57.78 27.8831 58.1825 27.6332 58.1825 27.1802C58.1877 27.1045 58.1758 27.0286 58.1477 26.9583C58.1195 26.8879 58.0758 26.825 58.02 26.7742C57.9087 26.6598 57.7701 26.5764 57.6175 26.532C57.4605 26.4755 57.3003 26.4285 57.1376 26.3915L56.1702 26.2041C55.9603 26.1759 55.7548 26.1208 55.5587 26.0401C55.3337 25.9572 55.1183 25.8498 54.9164 25.7199C54.723 25.5713 54.5578 25.3888 54.4288 25.181C54.3004 24.9415 54.2364 24.6723 54.243 24.4C54.2308 24.029 54.3456 23.6649 54.5681 23.3692C54.7937 23.066 55.0995 22.8332 55.4504 22.6976C55.8649 22.5257 56.3104 22.4432 56.7584 22.4555H56.8977C57.3852 22.4533 57.8677 22.5544 58.3141 22.7522C58.7336 22.951 59.0998 23.2482 59.3822 23.6191L58.6082 24.4C58.4088 24.127 58.142 23.9116 57.8342 23.7753C57.5583 23.6452 57.2564 23.5811 56.9519 23.5878H56.8126C56.5071 23.5692 56.2023 23.6339 55.9303 23.7753C55.8352 23.8231 55.7552 23.8966 55.6992 23.9876C55.6431 24.0786 55.6133 24.1835 55.6129 24.2907C55.6058 24.3884 55.6268 24.4862 55.6735 24.5721C55.7202 24.658 55.7906 24.7284 55.8761 24.7749C56.087 24.8848 56.3146 24.9587 56.5494 24.9936L57.5091 25.181L58.0974 25.3138C58.3349 25.3793 58.5617 25.4793 58.7707 25.6105C58.9916 25.7544 59.1748 25.95 59.3048 26.1806C59.4543 26.4639 59.529 26.7813 59.5215 27.1021C59.5347 27.3824 59.4803 27.6617 59.3631 27.916C59.2458 28.1704 59.0691 28.3922 58.8481 28.5625C58.3026 28.9301 57.6532 29.1082 56.9983 29.0701H56.8668H56.8126Z" fill="#FCFCFC"/>
<path d="M66.1853 28.9296V22.5414H68.9639C69.2958 22.5114 69.6304 22.5484 69.948 22.6503C70.2656 22.7522 70.5599 22.917 70.8136 23.135C71.0208 23.3491 71.1825 23.6035 71.289 23.8828C71.3955 24.1621 71.4444 24.4604 71.4328 24.7594C71.4438 25.0571 71.3945 25.354 71.2881 25.6319C71.1816 25.9099 71.0202 26.163 70.8136 26.3759C70.5599 26.5939 70.2656 26.7587 69.948 26.8606C69.6304 26.9625 69.2958 26.9995 68.9639 26.9695H67.4701V28.9999H66.1853V28.9296ZM68.8323 23.6894H67.532V25.7746H68.871C69.2155 25.803 69.5586 25.706 69.8384 25.5013C69.943 25.4022 70.0239 25.2804 70.0749 25.145C70.1258 25.0097 70.1455 24.8645 70.1326 24.7203C70.1398 24.5767 70.1174 24.4331 70.0667 24.2987C70.0161 24.1643 69.9384 24.0419 69.8384 23.9394C69.5431 23.7382 69.1864 23.6496 68.8323 23.6894Z" fill="#FCFCFC"/>
<path d="M73.3832 28.9297C73.569 28.2268 73.7857 27.5005 74.0566 26.7742C74.3275 26.0479 74.5597 25.3138 74.8306 24.5875C75.1014 23.8613 75.3956 23.1818 75.6897 22.5336H77.2376C77.5317 23.1818 77.8258 23.8847 78.0967 24.5875C78.3676 25.2904 78.6307 26.0401 78.8707 26.7742C79.1106 27.5083 79.3196 28.2268 79.5363 28.9297H78.1431C78.089 28.6876 78.0116 28.4455 77.9574 28.1487C77.9032 27.8519 77.8258 27.6333 77.7407 27.3677H75.0937C75.0163 27.6333 74.9312 27.8754 74.877 28.1487C74.8228 28.422 74.7454 28.6563 74.6912 28.9297H73.3832ZM75.4962 26.2822H77.4233C77.2685 25.8293 77.1292 25.3685 76.9435 24.9077C76.7577 24.447 76.6262 24.0175 76.4404 23.5879C76.2779 24.0175 76.0921 24.447 75.9296 24.9077C75.8143 25.3748 75.6696 25.8339 75.4962 26.2822Z" fill="#FCFCFC"/>
<path d="M82.4619 28.9297V22.5415H85.3333C86.009 22.4859 86.6806 22.6895 87.214 23.1116C87.4228 23.301 87.5863 23.5358 87.6922 23.7982C87.7981 24.0606 87.8437 24.3439 87.8255 24.6266C87.8353 25.0449 87.7251 25.4571 87.5081 25.8137C87.2638 26.1568 86.9164 26.4114 86.5175 26.5399C86.7806 26.9226 87.0515 27.3209 87.2914 27.727C87.5314 28.1331 87.8023 28.5704 88.0112 28.9999H86.5794C86.3704 28.5939 86.1537 28.219 85.9138 27.8129C85.6738 27.4068 85.4571 27.0319 85.2404 26.7274H83.7854V28.9999H82.4619V28.9297ZM85.163 23.6348H83.7854V25.5559H85.2017C85.5491 25.5845 85.8964 25.4996 86.1924 25.3138C86.3012 25.2287 86.3877 25.118 86.4444 24.9915C86.501 24.8649 86.5261 24.7262 86.5175 24.5876C86.5267 24.4477 86.502 24.3077 86.4453 24.1798C86.3886 24.0518 86.3018 23.9398 86.1924 23.8535C85.8766 23.6841 85.5197 23.6083 85.163 23.6348Z" fill="#FCFCFC"/>
<path d="M92.4151 28.9297V23.6894H90.3564V22.5414H95.7741V23.7285H93.7076V28.9687L92.4151 28.9297Z" fill="#FCFCFC"/>
<path d="M98.5526 28.9297V22.5414H99.969L102.779 27.1647V22.5414H104.04V28.9687H102.616L99.8065 24.3533V28.9687L98.5526 28.9297Z" fill="#FCFCFC"/>
<path d="M107.492 28.9297V22.5414H112.229V23.7051H108.777V25.1654H111.563V26.3213H108.777V27.7816H112.306V28.9453H107.492V28.9297Z" fill="#FCFCFC"/>
<path d="M115.472 28.9296V22.5414H118.304C118.978 22.4855 119.647 22.6893 120.177 23.1115C120.389 23.2992 120.555 23.5334 120.662 23.7961C120.77 24.0589 120.816 24.343 120.797 24.6266C120.807 25.046 120.694 25.4592 120.471 25.8136C120.23 26.16 119.882 26.4156 119.481 26.5399C119.752 26.9226 120.023 27.3209 120.255 27.727C120.487 28.1331 120.758 28.5704 120.975 28.9999H119.535C119.326 28.5938 119.109 28.219 118.869 27.8129C118.629 27.4068 118.413 27.0319 118.196 26.7273H116.702V28.9999H115.472V28.9296ZM118.173 23.6348H116.756V25.5559H118.173C118.52 25.5845 118.867 25.4996 119.163 25.3138C119.264 25.2209 119.344 25.1081 119.398 24.9824C119.453 24.8567 119.481 24.7209 119.481 24.5836C119.481 24.4463 119.453 24.3106 119.398 24.1849C119.344 24.0592 119.264 23.9463 119.163 23.8534C118.859 23.6911 118.517 23.6155 118.173 23.6348Z" fill="#FCFCFC"/>
<path d="M9.91009 0.432591V2.13507C9.91118 2.15998 9.90713 2.18485 9.89818 2.20809C9.88924 2.23133 9.8756 2.25244 9.85812 2.27007C9.84065 2.2877 9.81973 2.30146 9.79669 2.31049C9.77366 2.31952 9.74902 2.32361 9.72433 2.3225H2.51873V5.78212H8.48599C8.51103 5.78107 8.53601 5.78514 8.55945 5.79409C8.58289 5.80304 8.60429 5.81668 8.62237 5.83419C8.64045 5.8517 8.65483 5.87272 8.66464 5.89599C8.67446 5.91925 8.6795 5.94427 8.67948 5.96956V7.70328C8.6795 7.72856 8.67446 7.75359 8.66464 7.77685C8.65483 7.80012 8.64045 7.82114 8.62237 7.83865C8.60429 7.85616 8.58289 7.8698 8.55945 7.87875C8.53601 7.88769 8.51103 7.89177 8.48599 7.89071H2.51873V13.0294C2.51873 13.0791 2.49916 13.1268 2.46432 13.1619C2.42949 13.1971 2.38225 13.2168 2.33298 13.2168H0.51417C0.464166 13.2169 0.416083 13.1974 0.380011 13.1624C0.343939 13.1275 0.322679 13.0798 0.320679 13.0294V0.432591C0.320657 0.407307 0.325703 0.382272 0.335518 0.359007C0.345333 0.335743 0.359714 0.314731 0.377791 0.297221C0.395867 0.27971 0.417264 0.266068 0.440701 0.257122C0.464139 0.248176 0.489133 0.244104 0.51417 0.245158H9.71659C9.83269 0.245158 9.91009 0.323258 9.91009 0.432591Z" fill="white"/>
<path d="M24.6387 13.1699H22.6419C22.5931 13.175 22.5442 13.162 22.5043 13.1332C22.4644 13.1044 22.4363 13.062 22.4252 13.0138C22.1543 11.9595 21.837 10.8193 21.4577 9.71813H15.3589C14.9796 10.8505 14.6623 11.9595 14.4224 13.0138C14.4099 13.0612 14.3814 13.1027 14.3418 13.1312C14.3023 13.1597 14.2541 13.1734 14.2056 13.1699H12.2785C12.1469 13.1699 12.0617 13.0919 12.1159 12.9591C13.3607 8.67923 14.9287 4.50191 16.8062 0.463813C16.8306 0.392487 16.8766 0.330725 16.9377 0.287271C16.9988 0.243816 17.072 0.220877 17.1467 0.221719H19.7473C19.8244 0.213513 19.9019 0.233401 19.9658 0.277797C20.0296 0.322194 20.0757 0.38817 20.0955 0.463813C21.9661 4.49947 23.5188 8.67747 24.7394 12.9591C24.8245 13.0762 24.7703 13.1699 24.6387 13.1699ZM20.7689 7.70327C20.0955 5.83678 19.3525 3.9703 18.6018 2.23658H18.1684C17.3944 3.93906 16.6746 5.80555 16.0012 7.70327H20.7689Z" fill="white"/>
<path d="M27.8972 6.81296C27.8972 2.81447 30.5209 0.00302708 34.2437 0.00302708H34.5146C35.5588 -0.0312036 36.5923 0.225434 37.5016 0.744789C38.4109 1.26414 39.1608 2.02616 39.6692 2.94723C39.7156 3.05657 39.7156 3.16589 39.615 3.22056L38.0051 4.00151C37.9795 4.01832 37.9507 4.02965 37.9205 4.03482C37.8904 4.03999 37.8595 4.03888 37.8298 4.03157C37.8001 4.02425 37.7721 4.01089 37.7477 3.99229C37.7233 3.9737 37.7029 3.95026 37.6878 3.92343C37.3845 3.34461 36.9227 2.86602 36.3573 2.54477C35.7919 2.22351 35.1468 2.07315 34.4991 2.1116H34.2282C31.9063 2.1116 30.2655 4.00151 30.2655 6.73486C30.2655 9.4682 31.8134 11.2956 34.2282 11.2956H34.4991C35.0817 11.3379 35.666 11.2403 36.2041 11.0109C36.7422 10.7815 37.2188 10.4268 37.5949 9.97583C37.6105 9.95249 37.6305 9.93251 37.6538 9.91708C37.6771 9.90165 37.7032 9.89109 37.7306 9.88599C37.758 9.8809 37.7861 9.88138 37.8133 9.88742C37.8406 9.89346 37.8663 9.90493 37.8891 9.92116L39.5531 10.7021C39.5774 10.7142 39.5977 10.7333 39.6114 10.7568C39.6251 10.7804 39.6318 10.8075 39.6305 10.8349C39.6305 10.8895 39.6305 10.913 39.5763 10.9676C38.9907 11.7544 38.2235 12.3849 37.3413 12.8041C36.459 13.2234 35.4887 13.4186 34.5146 13.373H34.2514C30.4203 13.4042 27.8972 10.7802 27.8972 6.81296Z" fill="white"/>
<path d="M54.1888 11.2644V12.9669C54.1899 12.9918 54.1859 13.0167 54.1769 13.0399C54.168 13.0631 54.1543 13.0842 54.1369 13.1019C54.1194 13.1195 54.0985 13.1333 54.0754 13.1423C54.0524 13.1513 54.0278 13.1554 54.0031 13.1543H44.4213C44.3963 13.1554 44.3713 13.1513 44.3478 13.1423C44.3244 13.1334 44.303 13.1198 44.2849 13.1023C44.2668 13.0847 44.2525 13.0637 44.2427 13.0405C44.2328 13.0172 44.2278 12.9922 44.2278 12.9669V0.432545C44.2278 0.40726 44.2328 0.382226 44.2427 0.358961C44.2525 0.335697 44.2668 0.314685 44.2849 0.297175C44.303 0.279664 44.3244 0.266022 44.3478 0.257076C44.3713 0.248129 44.3963 0.244058 44.4213 0.245112H53.8405C53.8652 0.244003 53.8899 0.248096 53.9129 0.257123C53.9359 0.26615 53.9569 0.279913 53.9743 0.297544C53.9918 0.315174 54.0054 0.336279 54.0144 0.359521C54.0233 0.382763 54.0274 0.407637 54.0263 0.432545V2.13502C54.0274 2.15993 54.0233 2.1848 54.0144 2.20805C54.0054 2.23129 53.9918 2.25239 53.9743 2.27002C53.9569 2.28765 53.9359 2.30142 53.9129 2.31044C53.8899 2.31947 53.8652 2.32356 53.8405 2.32246H46.4027V5.67275H52.4474C52.4974 5.67271 52.5455 5.69221 52.5815 5.72715C52.6176 5.76209 52.6389 5.80977 52.6409 5.86018V7.53923C52.6409 7.56452 52.6359 7.58955 52.626 7.61282C52.6162 7.63608 52.6018 7.6571 52.5838 7.67461C52.5657 7.69213 52.5443 7.70576 52.5209 7.7147C52.4974 7.72365 52.4724 7.72772 52.4474 7.72667H46.4027V11.077H54.0031C54.0278 11.0759 54.0524 11.0799 54.0754 11.089C54.0985 11.098 54.1194 11.1118 54.1369 11.1294C54.1543 11.147 54.168 11.1681 54.1769 11.1914C54.1859 11.2146 54.1899 11.2395 54.1888 11.2644Z" fill="white"/>
<path d="M70.7053 9.61658C70.7053 11.8892 68.9949 13.1543 65.9454 13.1543H59.6531C59.6284 13.1554 59.6037 13.1513 59.5807 13.1423C59.5577 13.1333 59.5367 13.1195 59.5193 13.1019C59.5018 13.0842 59.4882 13.0631 59.4792 13.0399C59.4703 13.0167 59.4662 12.9918 59.4673 12.9669V0.432545C59.4662 0.407637 59.4703 0.382763 59.4792 0.359521C59.4882 0.336279 59.5018 0.315174 59.5193 0.297544C59.5367 0.279913 59.5577 0.26615 59.5807 0.257123C59.6037 0.248096 59.6284 0.244003 59.6531 0.245112H65.3804C68.3215 0.245112 69.9314 1.43217 69.9314 3.59542C69.9633 4.24465 69.7615 4.88365 69.3633 5.39458C68.965 5.90552 68.3971 6.25394 67.7642 6.37562C69.854 6.81295 70.7053 8.02343 70.7053 9.61658ZM65.3572 2.23655H61.6576V5.69618H65.3572C67.0135 5.69618 67.7642 5.15733 67.7642 3.96247C67.7642 2.76761 67.0135 2.23655 65.3572 2.23655ZM68.4531 9.42134C68.4531 8.23429 67.6791 7.66419 65.9377 7.66419H61.6267V11.1238H65.9841C67.7101 11.1551 68.484 10.6162 68.484 9.42915L68.4531 9.42134Z" fill="white"/>
<path d="M74.5365 6.70365C74.5365 2.79887 77.106 0.00305176 81.1229 0.00305176H81.3861C85.4029 0.00305176 87.9725 2.81449 87.9725 6.70365C87.9725 10.5928 85.4029 13.4042 81.3861 13.4042H81.1229C77.106 13.4042 74.5365 10.5928 74.5365 6.70365ZM81.3861 11.2957C84.0098 11.2957 85.6738 9.48385 85.6738 6.70365C85.6738 3.92345 84.0098 2.11163 81.3861 2.11163H81.1229C78.4992 2.11163 76.8351 3.91564 76.8351 6.70365C76.8351 9.49166 78.4992 11.2957 81.1229 11.2957H81.3861Z" fill="white"/>
<path d="M91.6721 6.70365C91.6721 2.79887 94.2417 0.00305176 98.2586 0.00305176H98.4907C102.508 0.00305176 105.077 2.81449 105.077 6.70365C105.077 10.5928 102.539 13.4042 98.4907 13.4042H98.2586C94.2417 13.4042 91.6721 10.5928 91.6721 6.70365ZM98.5527 11.2957C101.176 11.2957 102.833 9.48385 102.833 6.70365C102.833 3.92345 101.176 2.11163 98.5527 2.11163H98.2818C95.658 2.11163 94.0017 3.91564 94.0017 6.70365C94.0017 9.49166 95.658 11.2957 98.2818 11.2957H98.5527Z" fill="white"/>
<path d="M120.874 13.1699H118.552C118.489 13.1781 118.424 13.1677 118.367 13.14C118.309 13.1123 118.261 13.0685 118.227 13.0137C116.608 11.0971 114.846 9.30861 112.956 7.66415H111.857V12.9825C111.857 13.0092 111.852 13.0356 111.841 13.06C111.83 13.0845 111.815 13.1063 111.795 13.124C111.775 13.1418 111.752 13.155 111.726 13.163C111.701 13.1709 111.674 13.1732 111.648 13.1699H109.876C109.851 13.1709 109.826 13.1669 109.802 13.1579C109.779 13.149 109.758 13.1353 109.739 13.1178C109.721 13.1003 109.707 13.0793 109.697 13.056C109.687 13.0328 109.682 13.0077 109.682 12.9825V0.432506C109.682 0.407221 109.687 0.382186 109.697 0.358922C109.707 0.335657 109.721 0.314645 109.739 0.297135C109.758 0.279624 109.779 0.265982 109.802 0.257036C109.826 0.24809 109.851 0.244018 109.876 0.245072H111.695C111.719 0.243963 111.744 0.248057 111.767 0.257084C111.79 0.266111 111.811 0.279874 111.828 0.297504C111.846 0.315135 111.86 0.33624 111.868 0.359482C111.877 0.382724 111.881 0.407597 111.88 0.432506V5.51652H112.948C114.689 3.95321 116.285 2.23321 117.716 0.377833C117.746 0.333712 117.786 0.298233 117.834 0.274935C117.882 0.251636 117.934 0.241336 117.987 0.245072H120.208C120.317 0.245072 120.371 0.299737 120.371 0.377833C120.359 0.426962 120.341 0.474263 120.317 0.518411C118.596 2.68502 116.687 4.69223 114.613 6.51615C116.908 8.4772 119.039 10.627 120.982 12.9434C121.091 13.0528 121.036 13.1699 120.874 13.1699Z" fill="white"/>
<path d="M1.10236 18.5195H120.495" stroke="white"/>
</svg>
