<svg width="236" height="26" viewBox="0 0 236 26" fill="none" xmlns="http://www.w3.org/2000/svg">
<path d="M17.3639 19.7929C17.274 19.6884 17.1703 19.5979 17.0585 19.5175C15.2783 18.2246 14.3602 15.9303 14.9191 13.6521C15.0667 13.0489 15.3082 12.4939 15.6196 11.9972C15.6295 11.9811 15.6136 11.963 15.5976 11.9711L9.61033 14.3176C9.56443 14.3357 9.52252 14.3538 9.48061 14.3719C9.47262 14.376 9.46464 14.378 9.45666 14.382C9.3888 14.4122 9.32693 14.4443 9.26905 14.4765C9.02956 14.6032 8.79806 14.754 8.58651 14.943C7.14557 16.2118 6.99788 18.4176 8.2572 19.8694L12.1948 24.4418C13.4542 25.8936 15.6435 26.0424 17.0845 24.7736C18.5254 23.5048 18.6731 21.299 17.4138 19.8472C17.4118 19.8492 17.3918 19.8251 17.3639 19.7929Z" fill="#A871FF"/>
<path d="M20.4985 13.2964C19.5705 13.0651 18.6325 13.6362 18.403 14.5712C18.1735 15.5062 18.7403 16.4513 19.6683 16.6825C20.5963 16.9137 21.5343 16.3427 21.7639 15.4077C21.9934 14.4727 21.4266 13.5276 20.4985 13.2964Z" fill="#A871FF"/>
<path d="M21.0521 2.48236C20.4673 0.481658 18.2939 -0.501603 16.362 0.254443L2.2041 5.80012C2.18015 5.81017 2.1582 5.82224 2.13425 5.83229C2.08037 5.85441 2.02648 5.87854 1.97459 5.90468C1.91871 5.93082 1.86283 5.95897 1.80894 5.98913C1.76903 6.01125 1.72911 6.03538 1.6892 6.0595C1.62334 6.09771 1.55947 6.13993 1.4976 6.18216C1.46966 6.20026 1.44372 6.22037 1.41777 6.24047C1.34593 6.29275 1.27807 6.34704 1.21021 6.40535C1.20024 6.4134 1.19026 6.41943 1.18028 6.42747C1.1703 6.43753 1.16032 6.44758 1.15034 6.45764C1.08448 6.51796 1.02062 6.58029 0.958748 6.64464C0.936794 6.66675 0.916837 6.68887 0.896879 6.71099C0.842994 6.77131 0.791104 6.83365 0.74121 6.89598C0.717261 6.92614 0.693312 6.9563 0.671358 6.98848C0.629447 7.04679 0.589533 7.1051 0.551613 7.16542C0.527664 7.20363 0.503715 7.24183 0.479766 7.28004C0.445838 7.33634 0.415901 7.39465 0.385965 7.45296C0.364011 7.49519 0.342058 7.53741 0.3221 7.58165C0.29416 7.64197 0.270211 7.7023 0.244266 7.76262C0.2283 7.80484 0.210338 7.84506 0.196367 7.8893C0.172418 7.95565 0.152461 8.02402 0.132503 8.09238C0.122524 8.12858 0.11055 8.16678 0.102567 8.20297C0.0826095 8.27938 0.0686389 8.35579 0.0546685 8.4322C0.0486813 8.46236 0.0426944 8.49453 0.0387029 8.5247C0.0267283 8.60714 0.0167489 8.68958 0.0107616 8.77403C0.00876582 8.80017 0.0067703 8.82832 0.00477454 8.85446C0.000783022 8.93891 -0.00121283 9.02337 0.00078293 9.10782C0.00078293 9.13597 0.000783356 9.16613 0.00277912 9.19428C0.00677064 9.27471 0.0127579 9.35313 0.020741 9.43356C0.0247325 9.46975 0.0287235 9.50595 0.0327151 9.54214C0.0426939 9.61252 0.0546685 9.68289 0.0686388 9.75327C0.0786176 9.80153 0.0885964 9.84778 0.100571 9.89402C0.114541 9.95234 0.130508 10.0127 0.14847 10.071C0.164436 10.1273 0.184393 10.1836 0.204351 10.2399C0.214329 10.268 0.222312 10.2962 0.232291 10.3243C0.24227 10.3485 0.254244 10.3706 0.264223 10.3947C0.286177 10.451 0.312122 10.5053 0.338067 10.5596C0.364012 10.6139 0.389956 10.6682 0.417897 10.7204C0.441846 10.7647 0.467791 10.8089 0.49174 10.8511C0.527663 10.9135 0.565584 10.9718 0.605499 11.0321C0.627452 11.0643 0.651401 11.0965 0.673354 11.1286C0.721252 11.195 0.771146 11.2573 0.823036 11.3197C0.833015 11.3317 0.842994 11.3458 0.852973 11.3579L4.40742 15.5C4.4174 15.5101 4.43536 15.5081 4.43935 15.494C4.9363 13.5415 6.30539 11.6977 8.29516 10.9195L18.9845 6.72708C20.6729 6.0575 21.557 4.20357 21.0521 2.48236Z" fill="white"/>
<path d="M57.5776 7.01331C51.5575 7.01331 47.0284 11.6103 47.0284 17.7095C47.0284 22.1371 50.0104 24.8817 54.8198 24.8817C57.5439 24.8817 59.573 24.1814 60.9968 22.7357C61.7143 22.0467 61.9721 21.5159 61.9721 20.7252C61.9721 19.72 61.1986 19.1327 60.4699 18.9068C60.2905 18.8503 59.8197 18.7034 59.6067 19.031C58.4184 20.6236 56.9161 21.3577 54.8758 21.3577C52.3983 21.3577 50.9746 19.9911 50.9746 17.5966V17.4949C52.3647 17.5853 53.3736 17.6304 54.3153 17.6304C61.064 17.6304 64.0685 15.8684 64.0685 11.9265C64.0573 8.95601 61.5125 7.01331 57.5776 7.01331ZM60.1112 12.0508C60.1112 13.9935 56.7928 14.4001 54.0126 14.4001C53.4745 14.4001 52.6898 14.3888 51.7257 14.2985C52.8803 11.9266 55.0552 10.4243 57.4094 10.4243C59.2704 10.4243 60.1112 11.2376 60.1112 12.0508Z" fill="white"/>
<path d="M86.5567 10.7632C88.81 10.7632 90.3122 11.9492 90.6598 14.0048C90.6598 14.0274 90.671 14.05 90.6822 14.0726C90.8391 14.5357 91.4894 14.5018 91.8593 14.434C92.801 14.2759 93.8099 13.6208 93.8099 12.2089C93.8099 11.1811 93.283 10.0742 92.3862 9.20451C91.0297 7.79265 88.9221 7.01331 86.4558 7.01331C81.2541 7.01331 76.8708 11.5764 76.8708 16.9753C76.8708 21.7079 80.1779 24.893 85.0881 24.893C87.319 24.893 89.4939 24.0685 90.9064 22.6792C91.6799 21.8999 92.1059 21.0754 92.1059 20.3751C92.1059 19.3473 91.31 18.7374 90.5589 18.5002C90.0656 18.3533 89.7517 18.3872 89.5836 18.647C88.5522 20.3073 87.1397 21.1431 85.3796 21.1431C82.6891 21.1431 81.0075 19.4602 81.0075 16.7382C81.0187 13.8693 83.1375 10.7632 86.5567 10.7632Z" fill="white"/>
<path d="M220.142 7.01331C214.122 7.01331 209.593 11.6103 209.593 17.7095C209.593 22.1371 212.575 24.8817 217.384 24.8817C220.108 24.8817 222.137 24.1814 223.561 22.7357C224.278 22.0467 224.536 21.5159 224.536 20.7252C224.536 19.72 223.763 19.1327 223.034 18.9068C222.855 18.8503 222.384 18.7147 222.171 19.031C220.982 20.6236 219.48 21.3577 217.44 21.3577C214.962 21.3577 213.539 19.9911 213.539 17.5966V17.4949C214.929 17.5853 215.938 17.6304 216.879 17.6304C223.628 17.6304 226.633 15.8684 226.633 11.9265C226.621 8.95601 224.077 7.01331 220.142 7.01331ZM222.675 12.0508C222.675 13.9935 219.357 14.4001 216.577 14.4001C216.039 14.4001 215.254 14.3888 214.29 14.2985C215.444 11.9266 217.619 10.4243 219.974 10.4243C221.834 10.4243 222.675 11.2376 222.675 12.0508Z" fill="white"/>
<path d="M111.231 12.819C111.231 9.35153 108.877 7.0135 105.379 7.0135C103.72 7.0135 102.151 7.65731 100.929 8.79808L102.229 2.64242C102.24 2.59724 102.24 2.55206 102.24 2.51818L102.521 1.06114C102.543 0.925604 102.509 0.778776 102.42 0.677123C102.33 0.57547 102.207 0.50769 102.061 0.50769H99.9311C98.5297 0.50769 98.1486 1.62588 97.9804 2.4504L93.754 22.4648C93.6307 23.1086 93.7316 23.6394 94.0455 24.0235C94.3706 24.4188 94.9087 24.6334 95.6038 24.6334H97.1845C97.3975 24.6334 97.588 24.4866 97.6329 24.2719L99.8638 13.7791C101.075 11.7234 102.308 10.8876 104.124 10.8876C105.873 10.8876 106.826 11.8816 106.826 13.6774C106.826 14.3664 106.545 15.6992 106.041 17.4499C105.548 19.3474 105.189 20.7593 105.189 21.7306C105.189 23.662 106.343 24.8141 108.283 24.8141C109.382 24.8141 109.998 24.3623 110.323 23.9783C110.671 23.5717 110.828 23.0634 110.828 22.7471C110.828 22.3744 110.581 22.2276 110.39 22.205C109.572 22.1146 109.438 21.8549 109.438 21.324C109.438 20.6576 109.886 19.0086 110.222 17.8226C110.738 16.0606 111.231 14.1066 111.231 12.819Z" fill="white"/>
<path d="M45.6046 11.8138H43.979C43.9678 11.8138 43.923 11.8138 43.9118 11.8138H37.0846L38.3177 5.8614H48.1045C48.8332 5.8614 49.3713 5.77105 49.7413 5.34185C50.0439 5.003 50.2233 4.47213 50.313 4.14458C50.3242 4.1107 50.3354 4.07682 50.3466 4.04293L50.3803 3.85092C50.3915 3.80575 50.4027 3.74928 50.4027 3.71539L50.6605 2.3939C50.6829 2.25837 50.6493 2.11152 50.5596 2.00987C50.4699 1.90822 50.3466 1.84045 50.2009 1.84045H37.0173C35.5151 1.84045 34.5622 2.67627 34.338 4.15589L30.4703 22.3405C30.291 23.2215 30.5152 23.741 30.7506 24.0234C30.9636 24.2945 31.3784 24.6107 32.1631 24.6107H34.0801C34.2931 24.6107 34.4837 24.4639 34.5285 24.2493L34.9209 22.4308C34.9209 22.4083 34.9321 22.3857 34.9321 22.3744L36.3334 15.6879H43.5194C44.2032 15.6879 44.7414 15.5975 45.1113 15.1796C45.3916 14.9085 45.5709 14.5019 45.6718 14.1631C45.7055 14.1179 45.7279 14.0614 45.7391 14.0049L46.0642 12.3559C46.0866 12.2204 46.053 12.0735 45.9633 11.9719C45.8624 11.8815 45.7391 11.8138 45.6046 11.8138Z" fill="white"/>
<path d="M152.688 11.8138H151.062C151.051 11.8138 151.006 11.8138 150.995 11.8138H144.168L145.401 5.8614H155.188C155.917 5.8614 156.455 5.77105 156.825 5.34185C157.127 5.003 157.307 4.47213 157.396 4.14458C157.408 4.1107 157.419 4.07682 157.43 4.04293L157.475 3.82833C157.486 3.78315 157.497 3.73798 157.497 3.71539L157.755 2.3939C157.777 2.25837 157.744 2.11152 157.654 2.00987C157.564 1.90822 157.441 1.84045 157.295 1.84045H144.089C142.587 1.84045 141.634 2.67627 141.41 4.15589L137.542 22.3405C137.363 23.2215 137.587 23.741 137.823 24.0234C138.036 24.2945 138.45 24.6107 139.235 24.6107H141.152C141.365 24.6107 141.556 24.4639 141.601 24.2493L141.993 22.4308C141.993 22.4083 142.004 22.3857 142.004 22.3744L143.406 15.6879H150.592C151.275 15.6879 151.802 15.5975 152.183 15.1796C152.464 14.9085 152.643 14.5019 152.744 14.1631C152.778 14.1179 152.8 14.0614 152.811 14.0049L153.136 12.3559C153.159 12.2204 153.125 12.0735 153.035 11.9719C152.957 11.8815 152.822 11.8138 152.688 11.8138Z" fill="white"/>
<path d="M171.723 7.28448H169.616C168.517 7.28448 167.923 7.87182 167.665 9.22719L165.782 18.1388C164.526 20.1945 163.271 21.0416 161.488 21.0416C160.546 21.0416 159.851 20.7592 159.403 20.1945C158.854 19.5055 158.719 18.3986 159.011 17.0771L160.614 9.43051C160.625 9.39662 160.625 9.36273 160.625 9.35144L160.916 7.84923C160.939 7.71369 160.905 7.56686 160.815 7.46521C160.726 7.36355 160.602 7.29579 160.457 7.29579H158.36C157.262 7.29579 156.679 7.86053 156.376 9.2385L154.773 16.919C154.235 19.4377 154.571 21.5385 155.726 22.9843C156.735 24.238 158.304 24.9044 160.277 24.9044C162.262 24.9044 164.01 24.0912 165.322 22.6003C165.389 22.9504 165.501 23.2441 165.647 23.4813C166.185 24.351 167.138 24.8027 168.405 24.8027C169.492 24.8027 170.098 24.3622 170.412 24.0008C170.759 23.5942 170.883 23.1198 170.883 22.8374C170.883 22.4534 170.602 22.3066 170.457 22.3066C169.974 22.2614 169.683 22.1485 169.548 21.979C169.38 21.7531 169.38 21.2449 169.56 20.4542L171.824 9.59992C171.835 9.56604 171.847 9.54345 171.858 9.50956L172.172 7.86053C172.194 7.72499 172.161 7.57817 172.071 7.47651C171.981 7.35227 171.858 7.28448 171.723 7.28448Z" fill="white"/>
<path d="M235.892 0.677123C235.803 0.57547 235.679 0.50769 235.534 0.50769H233.426C232.036 0.50769 231.655 1.54681 231.475 2.4504L227.709 20.2058C227.372 21.7645 227.529 22.9505 228.168 23.7411C228.729 24.4414 229.626 24.7915 230.825 24.7915C231.957 24.7915 232.585 24.351 232.91 23.9896C233.269 23.583 233.404 23.0973 233.404 22.8149C233.404 22.4309 233.123 22.2841 232.966 22.2841C232.428 22.2502 232.092 22.1373 231.957 21.9453C231.789 21.7194 231.789 21.2224 231.957 20.4204L235.679 2.65371C235.679 2.63113 235.691 2.63112 235.691 2.60853L235.993 1.06114C236.016 0.925605 235.982 0.778776 235.892 0.677123Z" fill="white"/>
<path d="M189.817 12.8189C189.817 9.35134 187.452 7.01331 183.932 7.01331C182.048 7.01331 180.356 7.77005 179.044 9.15932C179.022 9.05766 178.999 8.95602 178.977 8.86566C178.696 7.86042 177.878 7.28437 176.735 7.28437C176.264 7.28437 175.658 7.36344 175.49 7.71358C175.468 7.74746 175.457 7.78136 175.457 7.82654L172.363 22.4646C172.239 23.1084 172.34 23.6393 172.654 24.0233C172.979 24.4186 173.506 24.6219 174.223 24.6332C174.235 24.6332 174.246 24.6332 174.257 24.6332H175.804C176.017 24.6332 176.208 24.4864 176.253 24.2718L176.555 22.8487L176.566 22.7922C176.578 22.747 176.589 22.7018 176.6 22.6566L178.483 13.7676C179.694 11.712 180.927 10.8761 182.743 10.8761C184.492 10.8761 185.445 11.8701 185.445 13.666C185.445 14.3549 185.165 15.6877 184.66 17.4384C184.167 19.336 183.808 20.7478 183.808 21.7192C183.808 23.6506 184.963 24.8027 186.903 24.8027C188.001 24.8027 188.618 24.3509 188.943 23.9668C189.29 23.5602 189.447 23.052 189.447 22.7357C189.447 22.363 189.201 22.2162 189.01 22.1936C188.192 22.1032 188.057 21.8434 188.057 21.3126C188.057 20.6462 188.506 18.9971 188.842 17.8112C189.324 16.0605 189.817 14.1065 189.817 12.8189Z" fill="white"/>
<path d="M208.404 12.8189C208.404 9.35134 206.039 7.01331 202.519 7.01331C200.635 7.01331 198.942 7.77005 197.631 9.15932C197.608 9.05766 197.586 8.95602 197.563 8.86566C197.283 7.86042 196.465 7.28437 195.321 7.28437C194.851 7.28437 194.245 7.36344 194.077 7.71358C194.055 7.74746 194.043 7.78136 194.043 7.82654L190.938 22.4646C190.815 23.1084 190.916 23.6393 191.23 24.0233C191.555 24.4186 192.082 24.6219 192.799 24.6332C192.81 24.6332 192.821 24.6332 192.833 24.6332H194.38C194.593 24.6332 194.783 24.4864 194.828 24.2718L195.153 22.7357C195.164 22.7131 195.164 22.6792 195.176 22.6566L197.059 13.7676C198.27 11.712 199.503 10.8761 201.319 10.8761C203.09 10.8761 204.021 11.8362 204.021 13.666C204.021 14.3549 203.741 15.6877 203.236 17.4384C202.72 19.3924 202.384 20.7478 202.384 21.7192C202.384 23.6506 203.539 24.8027 205.478 24.8027C206.577 24.8027 207.193 24.3509 207.518 23.9668C207.866 23.5602 208.023 23.052 208.023 22.7357C208.023 22.363 207.776 22.2162 207.586 22.1936C206.767 22.1032 206.633 21.8434 206.633 21.3126C206.633 20.6575 207.081 18.9971 207.418 17.8112C207.911 16.0605 208.404 14.1065 208.404 12.8189Z" fill="white"/>
<path d="M76.9492 9.30618L77.2071 7.97338C77.2295 7.83784 77.1959 7.69102 77.1062 7.58936C77.0165 7.48771 76.8932 7.41995 76.7475 7.41995H75.2789C75.2677 7.41995 75.234 7.41995 75.2228 7.41995H72.3978L73.048 4.32516C73.0704 4.18962 73.0368 4.0202 72.9583 3.91855C72.7341 3.61359 72.0278 3.36511 71.3328 3.36511C69.6848 3.36511 68.788 4.30258 68.3507 6.48247L68.1602 7.41995H67.2745C66.658 7.41995 66.1759 7.499 65.7947 7.87173C65.2791 8.34611 65.1109 9.32876 65.1109 9.72408C65.1109 10.3905 65.5705 11.0908 66.871 11.0908H67.3979L65.8844 18.3533C65.436 20.4654 65.6826 22.1936 66.6131 23.3456C67.4427 24.3735 68.788 24.9156 70.5032 24.9156C71.8933 24.9156 73.0928 24.509 73.7991 23.8087C74.326 23.2779 74.5614 22.7131 74.5614 22.0354C74.5614 21.2222 74.1018 20.6123 73.7654 20.4316C73.4964 20.2847 73.2834 20.3864 73.2049 20.4429C73.1713 20.4655 73.1489 20.488 73.1264 20.5106C72.7677 20.906 72.0839 21.3013 71.3664 21.3013C70.8059 21.3013 70.4247 21.1657 70.1893 20.8721C69.8418 20.4429 69.7857 19.607 70.0211 18.4776L71.6018 11.0908H74.8641C75.5591 11.0908 76.0076 10.9439 76.3663 10.5712C76.6914 10.2098 76.8596 9.65631 76.9268 9.37394C76.938 9.36265 76.9492 9.32877 76.9492 9.30618Z" fill="white"/>
<path d="M135.177 12.2314C135.098 12.0733 134.941 11.9716 134.762 11.9716H132.688C131.881 11.9716 131.107 12.367 130.637 13.0334L128.484 16.0717L125.782 12.5477C126.175 12.3331 126.567 12.0846 126.971 11.8361C127.554 11.4634 128.092 11.0342 128.563 10.5598C129.045 10.0741 129.471 9.53197 129.807 8.93335C130.154 8.32343 130.379 7.65704 130.48 6.92288C130.603 6.04188 130.558 5.25124 130.334 4.58485C130.11 3.90716 129.762 3.33113 129.28 2.87934C128.809 2.42755 128.226 2.08871 127.554 1.86282C126.22 1.42232 124.605 1.42232 123.182 1.8967C122.453 2.13389 121.78 2.48402 121.197 2.94711C120.603 3.41019 120.087 3.98624 119.673 4.65263C119.258 5.33032 118.989 6.12094 118.865 7.00193C118.809 7.56667 118.809 8.09753 118.888 8.58321C118.955 9.06889 119.09 9.53197 119.258 9.96118C119.426 10.3904 119.65 10.8083 119.908 11.2036C120.054 11.4295 120.2 11.6441 120.356 11.87C119.863 12.1298 119.37 12.4121 118.899 12.7284C118.26 13.1463 117.677 13.632 117.173 14.1628C116.657 14.6937 116.22 15.3036 115.861 15.9587C115.502 16.6251 115.267 17.3706 115.166 18.1725C115.043 19.0196 115.065 19.8441 115.244 20.6347C115.424 21.448 115.771 22.1821 116.287 22.8146C116.803 23.4584 117.498 23.978 118.35 24.362C119.202 24.7461 120.244 24.9381 121.455 24.9381C122.901 24.9381 124.202 24.6218 125.3 24.0006C126.242 23.4697 127.184 22.7243 128.103 21.7868L129.269 23.3568C129.751 24.0119 130.524 24.3959 131.32 24.3959H133.966C134.145 24.3959 134.302 24.2943 134.381 24.1361C134.459 23.978 134.437 23.786 134.325 23.6505L130.58 18.9066L135.132 12.7397C135.244 12.5703 135.255 12.3895 135.177 12.2314ZM124.56 9.59973C124.28 9.76916 124.011 9.92728 123.753 10.0741C123.641 9.92728 123.529 9.78045 123.417 9.63362C123.226 9.39643 123.058 9.12536 122.912 8.84299C122.767 8.57191 122.666 8.30085 122.599 8.00718C122.531 7.73611 122.52 7.44243 122.554 7.14877C122.655 6.45979 122.935 5.95152 123.428 5.59008C123.944 5.20606 124.504 5.02534 125.132 5.02534C125.738 5.02534 126.186 5.18348 126.5 5.51103C126.803 5.82728 126.903 6.24518 126.836 6.80992C126.836 6.80992 126.836 6.80993 126.836 6.82123C126.791 7.22784 126.657 7.60057 126.455 7.91682C126.231 8.25567 125.962 8.57191 125.648 8.84299C125.3 9.11406 124.942 9.37384 124.56 9.59973ZM126.13 19.1438C125.906 19.381 125.67 19.6069 125.424 19.8215C125.076 20.1265 124.717 20.4088 124.336 20.646C123.966 20.8832 123.563 21.0752 123.148 21.2221C122.352 21.5045 121.433 21.527 120.682 21.1882C120.312 21.0188 119.998 20.7929 119.729 20.4992C119.471 20.2056 119.269 19.8554 119.135 19.4601C119 19.0648 118.966 18.6469 119.011 18.1951C119.078 17.7094 119.224 17.2689 119.448 16.8962C119.684 16.5009 119.975 16.1394 120.312 15.8232C120.659 15.4956 121.052 15.202 121.466 14.9309C121.78 14.7276 122.105 14.5356 122.419 14.3435L126.13 19.1438Z" fill="#A871FF"/>
</svg>
