<svg width="160" height="50" viewBox="0 0 160 50" fill="none" xmlns="http://www.w3.org/2000/svg">
<path d="M29.2692 24.7588C29.2645 26.8843 28.6348 28.9605 27.4599 30.7244C26.285 32.4882 24.6178 33.8603 22.6696 34.6667C20.7214 35.4732 18.5799 35.6777 16.5164 35.2543C14.4529 34.831 12.5604 33.7988 11.0787 32.2886C9.59695 30.7785 8.59269 28.8583 8.19317 26.7714C7.79366 24.6846 8.01688 22.525 8.83453 20.5663C9.65219 18.6076 11.0275 16.938 12.7861 15.7691C14.5448 14.6002 16.6076 13.9846 18.7132 14.0003C21.5261 14.015 24.218 15.1565 26.1975 17.1739C28.1769 19.1913 29.2817 21.9194 29.2692 24.7588ZM14.4452 27.5357V24.7508C14.4312 23.9446 14.6203 23.1479 14.9948 22.4356C15.3694 21.7233 15.917 21.1187 16.5864 20.6786C17.2558 20.2384 18.025 19.9771 18.8218 19.9192C19.6186 19.8613 20.417 20.0087 21.1419 20.3475C21.3375 20.4601 21.5546 20.5289 21.7788 20.5494C22.0029 20.57 22.2288 20.5417 22.4412 20.4664C22.6536 20.3912 22.8475 20.2708 23.0099 20.1134C23.1721 19.956 23.299 19.7653 23.382 19.5541C23.4652 19.3451 23.5033 19.1206 23.4938 18.8956C23.4843 18.6706 23.4275 18.4502 23.3271 18.2491C23.2268 18.048 23.0851 17.8707 22.9116 17.7291C22.7381 17.5875 22.5368 17.4848 22.3209 17.4278C21.0302 16.8509 19.6074 16.6428 18.2076 16.8261C16.8077 17.0094 15.4845 17.577 14.3823 18.4671C13.4592 19.1925 12.7082 20.1168 12.184 21.1725C11.6598 22.2282 11.3756 23.3887 11.3523 24.5693C11.3289 25.7499 11.567 26.9209 12.049 27.9969C12.5311 29.0728 13.245 30.0266 14.1387 30.7886C14.2094 30.8442 14.2723 30.9473 14.3666 30.9156C14.4609 30.8839 14.4452 30.7331 14.4452 30.6379V27.5357ZM23.9401 27.623C23.9401 26.655 23.9401 25.6792 23.9401 24.7112C23.9475 24.4982 23.9123 24.2858 23.8366 24.0869C23.7609 23.8879 23.6463 23.7064 23.4996 23.5531C23.3528 23.3998 23.1771 23.2779 22.9827 23.1947C22.7883 23.1116 22.5793 23.0687 22.3681 23.0689C21.2991 23.0689 20.2223 23.0689 19.1534 23.0689C18.7648 23.0755 18.3917 23.2237 18.1028 23.4861C17.8139 23.7486 17.6287 24.1076 17.5814 24.497C17.5276 24.8989 17.6209 25.3066 17.8437 25.644C18.0666 25.9814 18.4037 26.2253 18.7918 26.3297C19.1076 26.3904 19.4297 26.4117 19.7507 26.3932C19.9384 26.3879 20.1252 26.4207 20.3 26.4898C20.4748 26.5589 20.6341 26.6628 20.7684 26.7953C20.9026 26.9278 21.009 27.0863 21.0813 27.2612C21.1536 27.436 21.1902 27.6239 21.1891 27.8134C21.1924 28.0029 21.1575 28.191 21.0865 28.3664C21.0154 28.5418 20.9098 28.7007 20.776 28.8336C20.6421 28.9665 20.4829 29.0704 20.308 29.1392C20.1331 29.2079 19.9461 29.2401 19.7586 29.2336C19.1298 29.2336 18.501 29.2336 17.8722 29.2336C17.6206 29.2336 17.5185 29.3208 17.5185 29.5826C17.5185 30.4343 17.5185 31.2832 17.5185 32.1295C17.5185 32.3993 17.6206 32.5262 17.8879 32.5421C18.1552 32.558 18.5874 32.6294 18.9333 32.6373C20.2084 32.6683 21.4779 32.4556 22.6746 32.0104C23.083 31.9137 23.4408 31.6664 23.6778 31.317C23.9149 30.9677 24.014 30.5415 23.9558 30.1222L23.9401 27.623Z" fill="white"/>
<path d="M84.8705 30.1857C84.2706 30.9967 83.4519 31.6165 82.513 31.9708C81.7826 32.2326 81.0035 32.3229 80.2339 32.2348C79.4643 32.1468 78.7247 31.8827 78.0715 31.4627C77.4182 31.0427 76.8684 30.4779 76.464 29.8112C76.0594 29.1444 75.8109 28.3933 75.7373 27.6151C75.5758 26.6637 75.6626 25.6863 75.9892 24.7792C76.3159 23.8721 76.8711 23.0666 77.6001 22.442C79.408 20.8552 82.9684 20.7362 84.6745 23.291C84.6745 23.3386 84.7526 23.3783 84.8234 23.4656C84.8882 23.083 84.9066 22.6941 84.8786 22.3071C84.8786 21.6883 85.0518 21.5138 85.6643 21.5138C86.2774 21.5138 86.4506 21.6804 86.4506 22.3071V31.7646C86.5361 32.985 86.1521 34.1916 85.3798 35.1341C84.6067 36.0766 83.5042 36.6827 82.3007 36.8264C80.5801 37.1667 78.7958 36.8501 77.2936 35.9379C76.6098 35.5332 76.767 35.1445 77.215 34.5732C77.4351 34.3193 77.6945 34.5256 77.9145 34.6684C79.1136 35.4235 80.5465 35.7059 81.9389 35.4618C82.7274 35.3706 83.457 34.9955 83.9943 34.4054C84.5315 33.8152 84.8396 33.0495 84.8632 32.2485C84.9022 31.5424 84.8705 30.8601 84.8705 30.1857ZM84.8705 27.0756C84.9199 26.5007 84.8506 25.9217 84.6664 25.3754C84.4822 24.8291 84.1881 24.3273 83.8019 23.9019C83.4364 23.5277 83.0009 23.2305 82.5204 23.0277C82.0398 22.8249 81.524 22.7204 81.0036 22.7204C80.4829 22.7204 79.9673 22.8249 79.487 23.0277C79.0066 23.2305 78.571 23.5277 78.2054 23.9019C76.7041 25.5919 76.9163 28.7179 78.6612 30.0191C79.2366 30.4684 79.9281 30.741 80.6529 30.8044C81.3773 30.8677 82.1054 30.719 82.7488 30.3761C83.3878 30.098 83.9331 29.6376 84.3171 29.0514C84.701 28.4651 84.9074 27.7784 84.9103 27.0756H84.8705Z" fill="white"/>
<path d="M43.9667 24.8383H46.0811C46.6155 24.8383 46.7806 25.0049 46.7885 25.5206C46.7885 26.9249 46.7885 28.3372 46.7885 29.7415C46.7856 29.9498 46.7291 30.1538 46.6243 30.3333C46.5195 30.5127 46.3702 30.6616 46.1911 30.765C44.719 31.8364 42.925 32.3606 41.1135 32.2487C39.1269 32.2434 37.2237 31.4417 35.8226 30.02C34.4216 28.5983 33.6374 26.673 33.6426 24.6677C33.6478 22.6623 34.442 20.7413 35.8504 19.327C37.2589 17.9127 39.1662 17.1212 41.1528 17.1264C42.7953 17.0391 44.4291 17.4184 45.8688 18.2213C46.3404 18.499 46.4111 18.7132 46.199 19.1655C45.916 19.7764 45.7431 19.824 45.1378 19.5066C44.2643 19.0141 43.2983 18.7117 42.302 18.6188C41.3056 18.5259 40.301 18.6445 39.3529 18.9671C38.0445 19.4459 36.9425 20.3703 36.2367 21.581C35.5309 22.7916 35.2653 24.2129 35.4858 25.6C35.6559 27.0139 36.3308 28.3168 37.3841 29.2646C38.4374 30.2124 39.7968 30.7402 41.2079 30.7491C42.5128 30.8234 43.8114 30.5177 44.9492 29.8685C45.0657 29.8144 45.1624 29.7249 45.2259 29.6125C45.2893 29.5 45.3162 29.3703 45.3029 29.2416C45.3029 28.3927 45.3029 27.5438 45.3029 26.6948C45.3029 26.314 45.1772 26.2347 44.8313 26.2426C43.8331 26.2426 42.8349 26.2426 41.8366 26.2426C41.2786 26.2426 41.1056 26.0681 41.1056 25.5444C41.1056 25.0208 41.2864 24.8621 41.8523 24.8542L43.9667 24.8383Z" fill="white"/>
<path d="M141.777 29.7092C141.974 29.5982 141.966 29.4236 142.013 29.2887C142.744 27.0752 143.467 24.8616 144.198 22.648C144.426 21.9578 144.749 21.7833 145.456 21.9261C145.794 21.9895 145.92 22.2355 146.014 22.529L148.286 29.384C148.325 29.495 148.372 29.614 148.419 29.7251C148.592 29.6378 148.584 29.4633 148.639 29.3284C149.52 26.9376 150.398 24.5575 151.272 22.1879C151.331 22.0483 151.419 21.9228 151.53 21.8197C151.639 21.7166 151.771 21.6382 151.913 21.5895C152.055 21.5408 152.206 21.5231 152.356 21.5373C152.505 21.5516 152.651 21.5975 152.782 21.6722C152.83 21.6963 152.872 21.7302 152.908 21.7717C152.942 21.8133 152.968 21.8616 152.984 21.9137C152.999 21.9657 153.004 22.0205 152.998 22.0745C152.991 22.1285 152.974 22.1806 152.947 22.2276C151.783 25.3218 150.589 28.408 149.465 31.5023C149.252 32.0576 148.836 32.0418 148.38 32.0497C148.189 32.0678 147.998 32.0149 147.843 31.9009C147.689 31.7869 147.58 31.6198 147.539 31.4309C146.816 29.2332 146.077 27.0434 145.338 24.8537C145.283 24.695 145.283 24.5125 145.086 24.3618L144.725 25.4091C144.073 27.3846 143.405 29.376 142.768 31.3436C142.733 31.5576 142.618 31.75 142.447 31.8813C142.276 32.0126 142.062 32.0728 141.848 32.0497C141.11 32.0497 140.999 31.9942 140.771 31.3674C139.679 28.4398 138.578 25.5043 137.494 22.5687C137.376 22.2434 137.093 21.8467 137.612 21.6246C137.731 21.5631 137.861 21.5267 137.995 21.5175C138.128 21.5082 138.262 21.5264 138.389 21.5709C138.515 21.6154 138.631 21.6853 138.73 21.7764C138.829 21.8674 138.908 21.9777 138.964 22.1006C139.75 24.3142 140.591 26.5357 141.408 28.7492C141.526 29.0745 141.629 29.3681 141.777 29.7092Z" fill="white"/>
<path d="M71.516 23.3548V19.2448C71.516 18.8085 71.516 18.38 71.516 17.9436C71.516 17.5073 71.6889 17.2613 72.302 17.2613C72.9151 17.2613 73.088 17.3962 73.088 17.9357C73.088 19.6495 73.088 21.3713 73.088 23.085V31.1938C73.088 31.4636 73.1509 31.7889 72.8287 31.9237C72.6602 31.9985 72.4782 32.0371 72.2941 32.0371C72.1101 32.0371 71.9282 31.9985 71.7597 31.9237C71.5317 31.8285 71.5003 31.5985 71.5003 31.3684C71.5003 30.9716 71.5003 30.5749 71.5003 30.2021C71.3981 30.1386 71.351 30.2021 71.3274 30.2021C69.6296 33.0425 64.945 32.9314 63.0901 29.8688C62.401 28.6899 62.1379 27.3064 62.3458 25.9538C62.5535 24.6012 63.2194 23.3631 64.2297 22.4503C66.1319 20.8634 69.6453 20.8634 71.3038 23.2437C71.3431 23.3072 71.3746 23.3786 71.4138 23.45L71.516 23.3548ZM71.516 26.584C71.5178 26.0144 71.3922 25.4517 71.1487 24.9379C70.905 24.4241 70.5497 23.9725 70.1091 23.6166C69.5381 23.1364 68.8414 22.8336 68.1035 22.745C67.3655 22.6562 66.6179 22.7854 65.9511 23.1168C65.2997 23.4254 64.7531 23.9214 64.3797 24.5425C64.0064 25.1635 63.8229 25.882 63.8525 26.6078C63.7633 27.463 63.9623 28.3235 64.4172 29.0506C64.8721 29.7775 65.5565 30.3285 66.3599 30.6146C69.0558 31.4557 71.5396 29.6387 71.5553 26.584H71.516Z" fill="white"/>
<path d="M58.132 23.3628C58.132 22.9819 58.132 22.5693 58.132 22.2202C58.132 21.6807 58.3206 21.5379 58.918 21.5458C59.5154 21.5537 59.7039 21.6965 59.7039 22.2044C59.7039 25.2511 59.7039 28.29 59.7039 31.3368C59.7039 31.8683 59.5232 32.0192 58.918 32.0112C58.3128 32.0033 58.132 31.8763 58.132 31.313C58.132 30.9718 58.132 30.6385 58.132 30.2974C58.132 30.2974 58.132 30.2498 58.132 30.218C58.132 30.1863 57.9905 30.218 57.9512 30.3212C56.1277 33.1458 50.9951 32.9791 49.4388 29.1787C48.9695 28.1701 48.8035 27.0447 48.9613 25.9419C49.1193 24.8391 49.594 23.8072 50.3269 22.974C52.1269 20.8079 56.0962 20.5937 57.8962 23.1962C57.9512 23.2676 58.0141 23.331 58.0691 23.3945L58.132 23.3628ZM54.2569 22.7281C52.0326 22.7281 50.4999 24.3546 50.4842 26.6952C50.4684 29.0358 52.0561 30.7496 54.2648 30.7417C54.7827 30.755 55.2978 30.6612 55.7784 30.4661C56.2591 30.2709 56.695 29.9785 57.0595 29.6069C57.4239 29.2352 57.7092 28.7922 57.8977 28.3051C58.0862 27.818 58.1739 27.2972 58.1556 26.7745C58.1828 26.2453 58.1014 25.7162 57.9166 25.2201C57.7317 24.7241 57.4474 24.2721 57.0814 23.8921C56.7154 23.5123 56.2756 23.2128 55.7895 23.0124C55.3036 22.8121 54.7818 22.7153 54.2569 22.7281Z" fill="white"/>
<path d="M95.0816 26.7663C93.73 26.7663 92.3858 26.7663 91.0335 26.7663C90.6724 26.7663 90.5861 26.8853 90.6097 27.2265C90.6613 28.0991 91.0128 28.9262 91.6039 29.565C92.1949 30.2038 92.9886 30.6142 93.848 30.7253C94.526 30.8583 95.2246 30.8509 95.8997 30.7036C96.5755 30.5563 97.2144 30.2722 97.7775 29.8685C98.1076 29.6384 98.3987 29.5511 98.7208 29.8685C99.0436 30.1858 99.1143 30.5667 98.7208 30.9158C97.7951 31.7135 96.6352 32.1819 95.4199 32.2487C93.282 32.3994 91.3717 31.8599 90.0437 30.0589C89.4357 29.2689 89.0672 28.3183 88.9818 27.3218C88.897 26.3251 89.0989 25.3249 89.564 24.4417C89.9656 23.5451 90.6112 22.7817 91.4248 22.2397C92.2384 21.6978 93.1876 21.3994 94.1619 21.3791C95.0794 21.2714 96.008 21.4264 96.8415 21.8262C97.6758 22.2261 98.3818 22.8548 98.8785 23.6403C99.3273 24.3575 99.5978 25.1745 99.6641 26.0205C99.7267 26.6552 99.6169 26.8139 98.9728 26.8139C97.9897 26.8139 97.0073 26.8139 96.025 26.8139L95.0816 26.7663ZM94.4213 25.5286C95.5297 25.5286 96.6381 25.5286 97.7384 25.5286C98.0605 25.5286 98.1076 25.4175 98.0133 25.1398C97.818 24.508 97.4473 23.9462 96.9447 23.5213C96.4598 23.1693 95.9048 22.9295 95.3175 22.8187C94.7308 22.708 94.1273 22.7291 93.5495 22.8806C92.9717 23.0321 92.4337 23.3102 91.9746 23.6952C91.5154 24.0802 91.1462 24.5626 90.8927 25.1081C90.7748 25.4096 90.8058 25.5206 91.1595 25.5127C92.2443 25.5206 93.3365 25.5286 94.4213 25.5286Z" fill="white"/>
<path d="M136.063 26.7663C136.072 27.8514 135.763 28.9151 135.174 29.8227C134.584 30.7305 133.742 31.4415 132.752 31.8662C131.763 32.2909 130.671 32.41 129.615 32.2087C128.559 32.0073 127.585 31.4945 126.817 30.7349C126.05 29.9753 125.522 29.0031 125.301 27.941C125.08 26.8789 125.176 25.7746 125.576 24.7675C125.977 23.7605 126.665 22.8958 127.551 22.2828C128.439 21.6698 129.486 21.3359 130.561 21.3233C131.277 21.3139 131.987 21.4475 132.652 21.7163C133.317 21.9851 133.922 22.3839 134.433 22.8897C134.945 23.3956 135.352 23.9985 135.632 24.6637C135.912 25.3291 136.058 26.0436 136.063 26.7663ZM130.624 30.8048C131.423 30.8397 132.213 30.6316 132.894 30.2076C133.575 29.7836 134.113 29.1632 134.44 28.4266C134.767 27.6901 134.867 26.8715 134.728 26.0766C134.589 25.2818 134.217 24.5474 133.659 23.9687C133.102 23.3899 132.386 22.9933 131.603 22.8304C130.819 22.6674 130.006 22.7455 129.267 23.0547C128.529 23.3637 127.899 23.8896 127.46 24.564C127.021 25.2386 126.792 26.0306 126.804 26.8377C126.803 27.8709 127.202 28.8634 127.915 29.6043C128.629 30.3452 129.601 30.7759 130.624 30.8048Z" fill="white"/>
<path d="M109.402 24.6795V18.1893C109.402 17.4831 109.535 17.3403 110.227 17.3403H117.726C118.307 17.3403 118.457 17.4911 118.457 18.0306C118.457 18.5701 118.316 18.6971 117.804 18.705H113.796C113.009 18.705 112.224 18.705 111.437 18.705C111.186 18.705 111.084 18.7843 111.084 19.0462C111.084 20.633 111.084 22.2199 111.084 23.8067C111.084 24.1558 111.249 24.1716 111.508 24.1716H116.845C117.396 24.1716 117.568 24.3621 117.561 24.8937C117.553 25.4252 117.372 25.5681 116.845 25.576C115.093 25.576 113.348 25.576 111.595 25.576C111.202 25.576 111.068 25.6554 111.076 26.0759C111.076 27.7897 111.076 29.5035 111.076 31.2252C111.076 31.5108 111.131 31.8599 110.793 32.0186C110.618 32.0988 110.428 32.1403 110.235 32.1403C110.042 32.1403 109.852 32.0988 109.677 32.0186C109.402 31.8837 109.426 31.5901 109.426 31.3204L109.402 24.6795Z" fill="white"/>
<path d="M102.493 27.29C102.493 25.9492 102.493 24.6004 102.493 23.2596C102.493 22.9422 102.414 22.7994 102.084 22.8391C101.888 22.8391 101.683 22.8391 101.487 22.8391C100.803 22.8391 100.512 22.4186 100.772 21.768C100.842 21.5776 100.999 21.5459 101.181 21.5459H102.195C102.43 21.5459 102.509 21.4665 102.532 21.2285C102.603 20.4907 102.689 19.7528 102.792 19.0229C102.854 18.5152 103.059 18.3724 103.578 18.4041C104.097 18.4358 104.112 18.7135 104.104 19.1023C104.104 19.7687 104.104 20.4351 104.104 21.0937C104.104 21.4745 104.222 21.5855 104.576 21.5538C104.93 21.5221 105.126 21.5538 105.362 21.5538C105.81 21.5538 105.841 21.8315 105.834 22.1726C105.826 22.5138 105.896 22.8629 105.386 22.847H105.244C104.073 22.847 104.073 22.847 104.073 24.0688C104.073 26.449 104.073 28.7895 104.073 31.1537C104.073 31.4473 104.128 31.7884 103.798 31.9471C103.622 32.0273 103.432 32.0688 103.24 32.0688C103.047 32.0688 102.857 32.0273 102.682 31.9471C102.406 31.8202 102.422 31.5187 102.422 31.2569V27.29H102.493Z" fill="white"/>
<path d="M122.599 24.6557V31.1855C122.599 31.4633 122.638 31.7806 122.348 31.9234C122.178 31.9998 121.995 32.0393 121.809 32.0393C121.624 32.0393 121.44 31.9998 121.271 31.9234C120.996 31.7886 121.012 31.495 121.012 31.2331V18.1736C120.993 18.0118 121.022 17.8483 121.094 17.7025C121.165 17.5567 121.277 17.4347 121.415 17.3511C121.554 17.2675 121.713 17.2258 121.874 17.231C122.035 17.2361 122.191 17.2879 122.324 17.3801C122.599 17.5309 122.607 17.7927 122.607 18.0625C122.596 20.2735 122.594 22.4712 122.599 24.6557Z" fill="white"/>
</svg>
