<svg width="64" height="42" viewBox="0 0 64 42" fill="none" xmlns="http://www.w3.org/2000/svg">
<g clip-path="url(#clip0_170_547)">
<path d="M25.295 15.5719C25.4214 15.9323 25.5724 16.2835 25.747 16.6232C26.5337 18.1954 27.831 19.4537 29.4264 20.1922C30.0914 20.5042 30.8006 20.7117 31.529 20.8072C32.156 20.878 32.789 20.878 33.416 20.8072C34.2998 20.7276 35.1636 20.4983 35.9705 20.1291C36.265 19.9881 36.5511 19.8301 36.8273 19.656L36.9062 19.6035L37.3897 19.9872L39.3451 21.5063L41.0429 22.8203C40.8082 23.0447 40.5608 23.2553 40.3017 23.4511C39.037 24.4271 37.5837 25.1305 36.0336 25.5168C35.3694 25.6886 34.6928 25.8081 34.0099 25.8743C33.7103 25.9058 33.4055 25.9268 33.1006 25.9373C32.9588 25.9295 32.8167 25.9295 32.6748 25.9373H32.3963C32.2667 25.9295 32.1368 25.9295 32.0073 25.9373C31.5336 25.9207 31.0614 25.8751 30.5933 25.8007C28.5838 25.5138 26.6728 24.7476 25.0217 23.5667C23.3392 22.3579 21.9741 20.7601 21.0426 18.9097L21.4264 18.6153L24.2174 16.4497L25.295 15.5719Z" fill="white"/>
<path d="M21.0269 7.33526C21.1857 6.99739 21.3611 6.66759 21.5525 6.34707C22.5008 4.80679 23.7635 3.48394 25.258 2.46497C26.7525 1.446 28.4451 0.753845 30.2254 0.433732C31.199 0.252551 32.1902 0.183768 33.1794 0.228736C34.3276 0.285728 35.4628 0.497908 36.554 0.859492C38.243 1.41769 39.7907 2.33591 41.0902 3.55072C41.1217 3.58226 41.127 3.59803 41.0902 3.62956L37.5001 7.21962C37.4633 7.26167 37.4423 7.21962 37.4108 7.21962C36.8126 6.65326 36.1161 6.20081 35.3555 5.88452C34.7497 5.62949 34.1109 5.46138 33.458 5.38517C32.9453 5.32213 32.4275 5.31157 31.9127 5.35363C31.0196 5.41966 30.1473 5.65513 29.3423 6.04746C28.3921 6.49828 27.5433 7.13749 26.8475 7.9263C26.1518 8.71511 25.6236 9.63707 25.295 10.6362L23.7181 9.40624L21.0269 7.33526Z" fill="white"/>
<path d="M41.0324 22.8624L39.3346 21.5483L37.3792 20.0292L36.8956 19.6455C37.0638 19.5246 37.2373 19.4037 37.395 19.2671C38.4534 18.4072 39.1815 17.2074 39.4555 15.8715C39.4555 15.8189 39.4555 15.8032 39.3976 15.8032H32.6012C32.5119 15.8032 32.5224 15.8032 32.5224 15.7243V11.0357C32.5224 10.9779 32.5224 10.9621 32.596 10.9621H44.5856C44.6382 10.9621 44.654 10.9621 44.6645 11.0252C44.7328 11.493 44.7906 11.9661 44.8222 12.4391C44.8511 12.9538 44.8511 13.4698 44.8222 13.9845C44.8222 14.405 44.7801 14.8202 44.7275 15.2355C44.6201 16.1441 44.4247 17.0401 44.1441 17.9109C43.6898 19.3104 42.9766 20.612 42.0416 21.748C41.7425 22.1323 41.4157 22.4942 41.0639 22.8308L41.0324 22.8624Z" fill="#FBFBFB"/>
<path d="M21.0269 7.33527L23.6918 9.40099L25.2687 10.631C24.9632 11.5249 24.826 12.4676 24.864 13.4116C24.8941 14.1367 25.0286 14.8536 25.2634 15.5404L24.1701 16.3919L21.379 18.5575L20.9953 18.8518C20.7769 18.4256 20.5838 17.9868 20.4171 17.5378C19.8017 15.8904 19.534 14.1335 19.6308 12.3777C19.7276 10.6218 20.1868 8.90498 20.9796 7.33527H21.0269Z" fill="#FBFBFB"/>
<path d="M34.8772 39.3199H34.0257V32.7232H36.2754C36.8131 32.7183 37.3323 32.9196 37.7261 33.2857C37.9201 33.4644 38.075 33.6813 38.1809 33.9229C38.2868 34.1644 38.3415 34.4253 38.3415 34.6891C38.3415 34.9528 38.2868 35.2137 38.1809 35.4553C38.075 35.6969 37.9201 35.9138 37.7261 36.0925C37.3315 36.4567 36.8124 36.6561 36.2754 36.6497H34.8772V39.3199ZM34.8772 35.8402H36.2964C36.4558 35.8464 36.6147 35.8176 36.7618 35.7558C36.9089 35.6941 37.0407 35.6009 37.1479 35.4828C37.3534 35.2718 37.4684 34.9889 37.4684 34.6943C37.4684 34.3998 37.3534 34.1169 37.1479 33.9059C37.0407 33.7878 36.9089 33.6946 36.7618 33.6329C36.6147 33.5711 36.4558 33.5423 36.2964 33.5485H34.8772V35.8402Z" fill="white"/>
<path d="M40.3175 39.4671C39.8813 39.4818 39.4549 39.3359 39.1191 39.0571C38.9602 38.9124 38.8349 38.7348 38.7517 38.5367C38.6686 38.3386 38.6297 38.1248 38.6377 37.9101C38.6457 37.6954 38.7004 37.485 38.7981 37.2937C38.8958 37.1023 39.034 36.9346 39.2032 36.8021C39.6166 36.5128 40.1127 36.3652 40.6171 36.3816C41.0427 36.366 41.4649 36.462 41.8418 36.6602V36.5288C41.8472 36.3795 41.8193 36.2308 41.7602 36.0935C41.7012 35.9563 41.6123 35.8339 41.5002 35.7351C41.2673 35.5334 40.9671 35.4265 40.6592 35.4355C40.4252 35.4331 40.1948 35.493 39.9916 35.609C39.8023 35.7144 39.6569 35.8841 39.5816 36.0873L38.8089 35.7561C38.9409 35.4538 39.1537 35.1937 39.4239 35.0045C39.7823 34.7606 40.2105 34.6406 40.6434 34.6628C41.1707 34.6518 41.6829 34.8395 42.0784 35.1885C42.2735 35.3697 42.4261 35.5918 42.5252 35.839C42.6243 36.0862 42.6673 36.3523 42.6513 36.6182V39.3409H41.8418V38.6944H41.805C41.6471 38.9428 41.4263 39.145 41.1651 39.2807C40.9039 39.4164 40.6115 39.4807 40.3175 39.4671ZM40.4594 38.6944C40.8145 38.6908 41.1549 38.5516 41.4108 38.3054C41.5447 38.1911 41.6524 38.0493 41.7268 37.8897C41.8012 37.7301 41.8404 37.5564 41.8418 37.3803C41.5348 37.1662 41.1642 37.0624 40.7906 37.086C40.4589 37.0588 40.1286 37.1521 39.8602 37.3488C39.7632 37.4231 39.6843 37.5185 39.6297 37.6278C39.575 37.737 39.546 37.8574 39.5448 37.9795C39.5415 38.0844 39.566 38.1883 39.6159 38.2806C39.6657 38.373 39.7391 38.4504 39.8287 38.5052C40.0153 38.6298 40.235 38.6957 40.4594 38.6944Z" fill="white"/>
<path d="M44.4174 34.81V35.5459H44.4542C44.5511 35.2825 44.7371 35.0612 44.9798 34.9204C45.2515 34.7703 45.5578 34.6941 45.8682 34.6996H46.173V35.5301C46.0593 35.5224 45.9451 35.5224 45.8314 35.5301C45.465 35.5173 45.1077 35.6452 44.8327 35.8876C44.6996 36.0108 44.5953 36.1618 44.5272 36.3298C44.459 36.4979 44.4287 36.6789 44.4384 36.86V39.3252H43.6079V34.81H44.4174ZM49.064 39.3935C48.866 39.4083 48.6671 39.3828 48.4792 39.3187C48.2913 39.2545 48.1183 39.1531 47.9707 39.0203C47.8419 38.8786 47.7426 38.7126 47.6786 38.5321C47.6145 38.3517 47.5869 38.1603 47.5975 37.9691V35.6037H46.8143V34.81H47.608V33.4276H48.4543V34.81H49.5476V35.5827H48.4437V37.885C48.4437 38.3738 48.6487 38.6208 49.0535 38.6208C49.1854 38.6266 49.3168 38.6014 49.4372 38.5473L49.7315 39.2779C49.5189 39.3602 49.292 39.3995 49.064 39.3935Z" fill="white"/>
<path d="M51.2296 34.81V35.446H51.2664C51.4076 35.2214 51.6076 35.0396 51.8446 34.9204C52.1012 34.7578 52.3976 34.6687 52.7014 34.6628C52.941 34.6469 53.1812 34.6861 53.4035 34.7771C53.6257 34.8682 53.8243 35.0089 53.9839 35.1884C54.2947 35.58 54.4517 36.0716 54.4254 36.5708V39.3304H53.5792V36.7022C53.5792 35.8665 53.206 35.4512 52.4648 35.4512C52.299 35.4488 52.1349 35.4856 51.986 35.5587C51.8371 35.6318 51.7075 35.739 51.608 35.8718C51.3885 36.1458 51.2714 36.4878 51.2769 36.8389V39.3357H50.4149V34.81H51.2296Z" fill="white"/>
<path d="M57.432 39.4671C57.1229 39.4783 56.815 39.4236 56.5286 39.3067C56.2422 39.1898 55.984 39.0133 55.771 38.789C55.3395 38.3206 55.1092 37.7015 55.1298 37.0649C55.1187 36.4416 55.3398 35.8365 55.75 35.3671C55.9451 35.1412 56.1875 34.961 56.46 34.8393C56.7325 34.7176 57.0285 34.6573 57.3269 34.6628C57.6259 34.6507 57.9241 34.7026 58.2015 34.815C58.4789 34.9274 58.7291 35.0977 58.9353 35.3146C59.3523 35.7995 59.5669 36.4262 59.5345 37.0649V37.2226H55.9655C55.9707 37.6279 56.135 38.0148 56.4228 38.3002C56.6858 38.5558 57.039 38.6975 57.4057 38.6944C57.6675 38.7165 57.9294 38.6532 58.1521 38.5139C58.3748 38.3746 58.5464 38.1668 58.641 37.9217L59.3926 38.2371C59.2494 38.5925 59.0089 38.9003 58.6988 39.1254C58.3238 39.3715 57.8799 39.4912 57.432 39.4671ZM58.6515 36.5235C58.6214 36.2426 58.4951 35.9808 58.2941 35.7824C58.1654 35.6595 58.0123 35.5651 57.8448 35.5054C57.6773 35.4456 57.499 35.4218 57.3216 35.4355C57.0229 35.4291 56.7325 35.534 56.5069 35.7298C56.2687 35.9372 56.1029 36.2153 56.0338 36.5235H58.6515Z" fill="white"/>
<path d="M61.1955 39.3199H60.3493V34.81H61.1587V35.5459H61.1955C61.2921 35.2862 61.4786 35.0699 61.7212 34.9362C61.9544 34.7886 62.2232 34.7068 62.4991 34.6996C62.7164 34.6935 62.9326 34.731 63.1351 34.81L62.8092 35.5984C62.6652 35.5512 62.5139 35.5298 62.3624 35.5354C62.2081 35.5357 62.0555 35.5682 61.9144 35.6306C61.7732 35.693 61.6466 35.7841 61.5425 35.8981C61.4227 36.0259 61.3299 36.1764 61.2694 36.3407C61.2089 36.505 61.182 36.6798 61.1903 36.8547L61.1955 39.3199Z" fill="white"/>
<path d="M4.45899 39.6037C3.96752 39.6037 3.48086 39.5069 3.0268 39.3188C2.57274 39.1307 2.16017 38.8551 1.81265 38.5076C1.46513 38.16 1.18946 37.7475 1.00138 37.2934C0.813305 36.8393 0.716503 36.3527 0.716503 35.8612C0.716503 35.3697 0.813305 34.8831 1.00138 34.429C1.18946 33.975 1.46513 33.5624 1.81265 33.2149C2.16017 32.8674 2.57274 32.5917 3.0268 32.4036C3.48086 32.2155 3.96752 32.1187 4.45899 32.1187C4.93509 32.1137 5.40737 32.2042 5.84794 32.3847C6.2885 32.5653 6.68842 32.8323 7.02407 33.17L6.30395 33.8691C5.80807 33.3938 5.14583 33.1315 4.45899 33.1385C4.1004 33.1385 3.74531 33.2091 3.41402 33.3463C3.08272 33.4835 2.7817 33.6847 2.52813 33.9382C2.01603 34.4503 1.72834 35.1449 1.72834 35.8691C1.72834 36.5933 2.01603 37.2879 2.52813 37.8C3.04023 38.3121 3.73478 38.5997 4.45899 38.5997C4.80889 38.6132 5.15777 38.5537 5.4835 38.4253C5.80924 38.2968 6.10473 38.102 6.35126 37.8534C6.67442 37.4976 6.87038 37.0447 6.90843 36.5656H4.45374V35.5143H7.90187C7.93965 35.7348 7.95724 35.9582 7.95443 36.1819C7.98245 37.0636 7.66567 37.9215 7.07137 38.5735C6.73318 38.9197 6.32559 39.1904 5.87536 39.368C5.42514 39.5455 4.94246 39.6259 4.45899 39.6037Z" fill="white"/>
<path d="M13.4157 37.1911C13.4178 37.6698 13.2778 38.1383 13.0134 38.5373C12.749 38.9363 12.3721 39.2478 11.9304 39.4324C11.4888 39.6171 11.0023 39.6665 10.5326 39.5743C10.0629 39.4822 9.63108 39.2528 9.29187 38.9151C8.95267 38.5773 8.72134 38.1465 8.62719 37.6772C8.53304 37.2079 8.58031 36.7212 8.763 36.2788C8.94569 35.8364 9.25559 35.4581 9.65344 35.192C10.0513 34.9258 10.5192 34.7837 10.9978 34.7837C11.3158 34.7788 11.6316 34.8376 11.9265 34.9567C12.2214 35.0758 12.4894 35.2528 12.7148 35.4772C12.9402 35.7016 13.1183 35.9689 13.2387 36.2632C13.3591 36.5576 13.4193 36.8731 13.4157 37.1911ZM12.3645 37.1911C12.345 36.927 12.249 36.6743 12.0881 36.4639C11.9272 36.2535 11.7084 36.0947 11.4586 36.0068C11.2087 35.9189 10.9387 35.9058 10.6815 35.969C10.4244 36.0323 10.1912 36.1692 10.0107 36.363C9.83015 36.5568 9.71005 36.799 9.66512 37.06C9.62018 37.321 9.65235 37.5895 9.75769 37.8325C9.86302 38.0754 10.0369 38.2824 10.2582 38.4281C10.4794 38.5737 10.7382 38.6517 11.0031 38.6524C11.189 38.6484 11.3722 38.6071 11.5419 38.531C11.7115 38.4548 11.8642 38.3453 11.9907 38.209C12.1172 38.0727 12.215 37.9123 12.2783 37.7375C12.3416 37.5626 12.3691 37.3768 12.3592 37.1911H12.3645Z" fill="white"/>
<path d="M18.8928 37.1911C18.8949 37.6698 18.7549 38.1383 18.4904 38.5373C18.226 38.9363 17.8491 39.2478 17.4075 39.4324C16.9659 39.6171 16.4794 39.6665 16.0097 39.5743C15.54 39.4822 15.1081 39.2528 14.7689 38.9151C14.4297 38.5773 14.1984 38.1465 14.1043 37.6772C14.0101 37.2079 14.0574 36.7212 14.2401 36.2788C14.4228 35.8364 14.7327 35.4581 15.1305 35.192C15.5284 34.9258 15.9962 34.7837 16.4749 34.7837C16.7929 34.7788 17.1087 34.8376 17.4036 34.9567C17.6985 35.0758 17.9665 35.2528 18.1919 35.4772C18.4172 35.7016 18.5954 35.9689 18.7158 36.2632C18.8362 36.5576 18.8964 36.8731 18.8928 37.1911ZM17.8415 37.1911C17.8231 36.9254 17.7274 36.6709 17.5663 36.4588C17.4051 36.2468 17.1855 36.0864 16.9344 35.9975C16.6834 35.9086 16.4118 35.895 16.1531 35.9583C15.8944 36.0217 15.6598 36.1593 15.4783 36.3542C15.2967 36.549 15.176 36.7927 15.1311 37.0553C15.0862 37.3178 15.119 37.5877 15.2254 37.8319C15.3319 38.076 15.5073 38.2838 15.7302 38.4295C15.9532 38.5753 16.2138 38.6528 16.4802 38.6524C16.6661 38.6484 16.8493 38.6071 17.019 38.531C17.1886 38.4548 17.3412 38.3453 17.4677 38.209C17.5942 38.0727 17.692 37.9123 17.7554 37.7375C17.8187 37.5626 17.8462 37.3768 17.8363 37.1911H17.8415Z" fill="white"/>
<path d="M24.1281 34.9203V39.2463C24.1281 41.0229 23.0768 41.7535 21.8363 41.7535C21.3791 41.7561 20.9316 41.6218 20.5513 41.368C20.171 41.1141 19.8753 40.7523 19.7023 40.3291L20.6379 39.9559C20.7318 40.2039 20.8974 40.4184 21.1137 40.5719C21.3299 40.7254 21.587 40.8111 21.8521 40.8179C22.6458 40.8179 23.1399 40.3238 23.1399 39.3987V39.0518H23.1031C22.9426 39.2259 22.7462 39.3631 22.5275 39.4539C22.3088 39.5446 22.073 39.5868 21.8363 39.5774C21.2166 39.5485 20.6319 39.2819 20.2036 38.8331C19.7752 38.3843 19.5363 37.7878 19.5363 37.1674C19.5363 36.547 19.7752 35.9505 20.2036 35.5017C20.6319 35.0529 21.2166 34.7863 21.8363 34.7574C22.0727 34.7498 22.308 34.7927 22.5265 34.8834C22.745 34.974 22.9416 35.1103 23.1031 35.283H23.1399V34.9203H24.1281ZM23.1977 37.1911C23.2127 37.0093 23.1911 36.8263 23.134 36.653C23.0769 36.4798 22.9856 36.3197 22.8655 36.1825C22.7454 36.0452 22.5989 35.9334 22.4347 35.8539C22.2706 35.7743 22.0921 35.7285 21.9099 35.7193C21.5438 35.7504 21.2026 35.9178 20.954 36.1884C20.7054 36.459 20.5675 36.8131 20.5675 37.1806C20.5675 37.548 20.7054 37.9021 20.954 38.1727C21.2026 38.4433 21.5438 38.6107 21.9099 38.6418C22.09 38.6345 22.2667 38.5911 22.4297 38.5143C22.5926 38.4374 22.7385 38.3285 22.8586 38.1942C22.9787 38.0599 23.0706 37.9028 23.1289 37.7323C23.1871 37.5618 23.2105 37.3813 23.1977 37.2016V37.1911Z" fill="white"/>
<path d="M26.2096 32.3711V39.4566H25.1583V32.3711H26.2096Z" fill="white"/>
<path d="M30.525 37.9848L31.345 38.5104C31.1233 38.838 30.8239 39.1055 30.4735 39.289C30.1231 39.4725 29.7326 39.5662 29.3371 39.5617C29.0236 39.5659 28.7125 39.5076 28.4218 39.3902C28.1311 39.2728 27.8667 39.0987 27.6441 38.878C27.4214 38.6573 27.245 38.3945 27.125 38.1048C27.0051 37.8152 26.944 37.5046 26.9455 37.1911C26.9298 36.8819 26.977 36.5727 27.0842 36.2822C27.1914 35.9917 27.3563 35.726 27.569 35.501C27.7817 35.276 28.0378 35.0964 28.3218 34.9732C28.6058 34.8499 28.9118 34.7854 29.2214 34.7837C29.6809 34.7971 30.1251 34.9516 30.4937 35.2262C30.8623 35.5008 31.1375 35.8822 31.2819 36.3185L31.3923 36.5919L28.1702 37.9217C28.2691 38.1464 28.4332 38.3362 28.6413 38.4665C28.8493 38.5968 29.0918 38.6615 29.3371 38.6523C29.5762 38.6547 29.8117 38.5943 30.0202 38.4772C30.2286 38.36 30.4027 38.1903 30.525 37.9848ZM27.9967 37.1175L30.1518 36.2239C30.0704 36.0576 29.9416 35.9189 29.7817 35.8254C29.6218 35.7319 29.4379 35.6877 29.253 35.6983C29.0764 35.7062 28.9031 35.7496 28.7436 35.8258C28.5841 35.902 28.4415 36.0094 28.3243 36.1418C28.2071 36.2742 28.1177 36.4288 28.0614 36.5964C28.0052 36.764 27.9832 36.9412 27.9967 37.1175Z" fill="white"/>
</g>
<defs>
<clipPath id="clip0_170_547">
<rect width="62.4764" height="41.5353" fill="white" transform="translate(0.66394 0.22876)"/>
</clipPath>
</defs>
</svg>
