<svg width="242" height="27" viewBox="0 0 242 27" fill="none" xmlns="http://www.w3.org/2000/svg">
<path d="M17.8054 20.2962C17.7133 20.189 17.6069 20.0962 17.4923 20.0137C15.6668 18.6879 14.7254 16.3353 15.2984 13.9992C15.4499 13.3806 15.6975 12.8116 16.0167 12.3023C16.027 12.2858 16.0106 12.2672 15.9942 12.2755L9.85472 14.6817C9.80765 14.7002 9.76468 14.7188 9.7217 14.7373C9.71351 14.7415 9.70533 14.7435 9.69714 14.7477C9.62756 14.7786 9.56412 14.8116 9.50477 14.8446C9.25919 14.9745 9.0218 15.1291 8.80487 15.3229C7.3273 16.624 7.17585 18.8859 8.4672 20.3745L12.5049 25.0632C13.7963 26.5519 16.0413 26.7045 17.5189 25.4035C18.9964 24.1024 19.1479 21.8405 17.8565 20.3518C17.8545 20.3539 17.834 20.3292 17.8054 20.2962Z" fill="#A871FF"/>
<path d="M21.0197 13.6342C20.0681 13.3971 19.1062 13.9827 18.8709 14.9415C18.6356 15.9002 19.2168 16.8693 20.1684 17.1064C21.12 17.3436 22.0819 16.758 22.3172 15.7992C22.5526 14.8404 21.9713 13.8713 21.0197 13.6342Z" fill="#A871FF"/>
<path d="M21.5873 2.54547C20.9877 0.493904 18.759 -0.514355 16.778 0.260912L2.26014 5.94758C2.23558 5.95789 2.21307 5.97026 2.18851 5.98057C2.13326 6.00325 2.078 6.02799 2.02479 6.05479C1.96749 6.0816 1.91019 6.11047 1.85493 6.14139C1.814 6.16407 1.77307 6.18882 1.73214 6.21356C1.66461 6.25273 1.59912 6.29603 1.53568 6.33933C1.50703 6.35789 1.48042 6.37851 1.45382 6.39913C1.38014 6.45274 1.31056 6.50841 1.24098 6.5682C1.23075 6.57645 1.22052 6.58264 1.21028 6.59088C1.20005 6.60119 1.18982 6.6115 1.17959 6.62181C1.11205 6.68367 1.04656 6.74759 0.983122 6.81357C0.960611 6.83625 0.940146 6.85893 0.919681 6.88161C0.864426 6.94347 0.811216 7.00738 0.760054 7.0713C0.735496 7.10223 0.710938 7.13316 0.688427 7.16615C0.64545 7.22594 0.604521 7.28574 0.565637 7.34759C0.541079 7.38677 0.516521 7.42595 0.491963 7.46512C0.457173 7.52285 0.426475 7.58265 0.395777 7.64244C0.373266 7.68574 0.350754 7.72904 0.330289 7.7744C0.301638 7.83626 0.277081 7.89812 0.250476 7.95997C0.234104 8.00327 0.215685 8.04451 0.20136 8.08987C0.176802 8.15791 0.156337 8.22802 0.135872 8.29812C0.125639 8.33523 0.113361 8.37441 0.105175 8.41152C0.0847097 8.48988 0.0703839 8.56823 0.0560584 8.64658C0.0499189 8.67751 0.0437798 8.7105 0.0396868 8.74142C0.0274078 8.82596 0.0171747 8.9105 0.0110352 8.9971C0.00898868 9.0239 0.00694243 9.05277 0.00489593 9.07957C0.000802929 9.16617 -0.00124366 9.25277 0.000802835 9.33937C0.000802835 9.36824 0.000803272 9.39917 0.00284977 9.42803C0.00694277 9.51051 0.0130823 9.59092 0.0212683 9.6734C0.0253613 9.71051 0.0294538 9.74762 0.0335468 9.78474C0.0437793 9.8569 0.0560584 9.92907 0.0703839 10.0012C0.0806163 10.0507 0.0908488 10.0981 0.103128 10.1456C0.117453 10.2054 0.133826 10.2672 0.152244 10.327C0.168616 10.3847 0.189081 10.4425 0.209546 10.5002C0.219778 10.5291 0.227964 10.5579 0.238197 10.5868C0.248429 10.6116 0.260708 10.6342 0.270941 10.659C0.293452 10.7167 0.320057 10.7724 0.346662 10.828C0.373266 10.8837 0.39987 10.9394 0.428521 10.993C0.453079 11.0384 0.479684 11.0837 0.504242 11.127C0.541079 11.1909 0.579963 11.2507 0.620893 11.3126C0.643404 11.3456 0.667961 11.3786 0.690473 11.4116C0.739589 11.4796 0.790751 11.5435 0.84396 11.6074C0.854193 11.6198 0.864426 11.6342 0.874658 11.6466L4.51947 15.8941C4.52971 15.9044 4.54813 15.9023 4.55222 15.8879C5.0618 13.8858 6.46569 11.9951 8.50605 11.1971L19.4671 6.8981C21.1984 6.2115 22.105 4.31044 21.5873 2.54547Z" fill="#0E054D"/>
<path d="M59.0414 7.19141C52.8683 7.19141 48.2241 11.9053 48.2241 18.1595C48.2241 22.6997 51.2819 25.5141 56.2135 25.5141C59.0069 25.5141 61.0876 24.796 62.5475 23.3135C63.2832 22.607 63.5476 22.0627 63.5476 21.2519C63.5476 20.2211 62.7544 19.6189 62.0072 19.3872C61.8233 19.3293 61.3405 19.1788 61.1221 19.5146C59.9036 21.1477 58.3631 21.9005 56.271 21.9005C53.7304 21.9005 52.2705 20.4991 52.2705 18.0437V17.9395C53.6959 18.0321 54.7305 18.0785 55.6962 18.0785C62.6165 18.0785 65.6973 16.2717 65.6973 12.2296C65.6858 9.1835 63.0763 7.19141 59.0414 7.19141ZM61.6394 12.357C61.6394 14.3491 58.2367 14.766 55.3858 14.766C54.834 14.766 54.0293 14.7544 53.0407 14.6618C54.2247 12.2296 56.4549 10.6892 58.8689 10.6892C60.7772 10.6892 61.6394 11.5231 61.6394 12.357Z" fill="#0E054D"/>
<path d="M88.7573 11.0366C91.0679 11.0366 92.6083 12.2527 92.9646 14.3607C92.9646 14.3838 92.9761 14.407 92.9876 14.4302C93.1486 14.905 93.8153 14.8703 94.1947 14.8008C95.1603 14.6386 96.1949 13.9669 96.1949 12.5191C96.1949 11.4652 95.6546 10.3301 94.7349 9.43832C93.344 7.99057 91.1828 7.19141 88.6538 7.19141C83.3198 7.19141 78.8251 11.8705 78.8251 17.4067C78.8251 22.2596 82.2163 25.5257 87.2513 25.5257C89.5389 25.5257 91.7691 24.6802 93.2175 23.2556C94.0107 22.4565 94.4476 21.611 94.4476 20.8929C94.4476 19.839 93.6314 19.2135 92.8612 18.9703C92.3554 18.8197 92.0335 18.8545 91.8611 19.1209C90.8035 20.8234 89.355 21.6805 87.5502 21.6805C84.7913 21.6805 83.0669 19.9548 83.0669 17.1635C83.0784 14.2217 85.2511 11.0366 88.7573 11.0366Z" fill="#0E054D"/>
<path d="M225.738 7.19141C219.565 7.19141 214.921 11.9053 214.921 18.1595C214.921 22.6997 217.979 25.5141 222.911 25.5141C225.704 25.5141 227.785 24.796 229.245 23.3135C229.98 22.607 230.245 22.0627 230.245 21.2519C230.245 20.2211 229.451 19.6189 228.704 19.3872C228.52 19.3293 228.038 19.1903 227.819 19.5146C226.601 21.1477 225.06 21.9005 222.968 21.9005C220.427 21.9005 218.968 20.4991 218.968 18.0437V17.9395C220.393 18.0321 221.428 18.0785 222.393 18.0785C229.314 18.0785 232.394 16.2717 232.394 12.2296C232.383 9.1835 229.773 7.19141 225.738 7.19141ZM228.336 12.357C228.336 14.3491 224.934 14.766 222.083 14.766C221.531 14.766 220.726 14.7544 219.738 14.6618C220.922 12.2296 223.152 10.6892 225.566 10.6892C227.474 10.6892 228.336 11.5231 228.336 12.357Z" fill="#0E054D"/>
<path d="M114.059 13.1448C114.059 9.58919 111.645 7.19172 108.058 7.19172C106.357 7.19172 104.748 7.8519 103.495 9.02167L104.828 2.70951C104.84 2.66319 104.84 2.61686 104.84 2.58211L105.127 1.08803C105.15 0.949046 105.116 0.798485 105.024 0.694248C104.932 0.59001 104.805 0.520508 104.656 0.520508H102.472C101.035 0.520508 100.644 1.66712 100.471 2.5126L96.1375 23.0358C96.011 23.696 96.1145 24.2404 96.4364 24.6341C96.7697 25.0395 97.3215 25.2596 98.0343 25.2596H99.6551C99.8735 25.2596 100.069 25.109 100.115 24.8889L102.403 14.1293C103.644 12.0214 104.909 11.1643 106.771 11.1643C108.564 11.1643 109.541 12.1835 109.541 14.0251C109.541 14.7316 109.254 16.0982 108.737 17.8934C108.231 19.8392 107.863 21.287 107.863 22.283C107.863 24.2635 109.047 25.4449 111.036 25.4449C112.162 25.4449 112.795 24.9816 113.128 24.5878C113.484 24.1709 113.645 23.6497 113.645 23.3254C113.645 22.9432 113.392 22.7926 113.197 22.7694C112.358 22.6768 112.22 22.4104 112.22 21.8661C112.22 21.1827 112.68 19.4917 113.024 18.2756C113.553 16.4689 114.059 14.4652 114.059 13.1448Z" fill="#0E054D"/>
<path d="M46.7641 12.1141H45.0972C45.0857 12.1141 45.0397 12.1141 45.0282 12.1141H38.0274L39.2919 6.01038H49.3276C50.0748 6.01038 50.6266 5.91773 51.0059 5.47762C51.3163 5.13016 51.5002 4.58579 51.5922 4.24992C51.6037 4.21517 51.6152 4.18043 51.6267 4.14568L51.6612 3.94879C51.6727 3.90246 51.6842 3.84456 51.6842 3.80981L51.9485 2.45473C51.9715 2.31575 51.9371 2.16517 51.8451 2.06093C51.7531 1.95669 51.6267 1.88721 51.4772 1.88721H37.9585C36.4181 1.88721 35.4409 2.74427 35.211 4.26151L31.2451 22.9084C31.0611 23.8118 31.291 24.3446 31.5324 24.6341C31.7509 24.9121 32.1762 25.2364 32.9809 25.2364H34.9466C35.165 25.2364 35.3605 25.0858 35.4064 24.8658L35.8088 23.0011C35.8088 22.9779 35.8203 22.9547 35.8203 22.9432L37.2572 16.0867H44.6259C45.3271 16.0867 45.8789 15.994 46.2583 15.5655C46.5456 15.2875 46.7296 14.8706 46.833 14.5231C46.8675 14.4768 46.8905 14.4189 46.902 14.361L47.2354 12.67C47.2584 12.531 47.2239 12.3804 47.1319 12.2762C47.0285 12.1836 46.902 12.1141 46.7641 12.1141Z" fill="#0E054D"/>
<path d="M156.57 12.1141H154.903C154.891 12.1141 154.845 12.1141 154.834 12.1141H147.833L149.097 6.01038H159.133C159.88 6.01038 160.432 5.91773 160.811 5.47762C161.122 5.13016 161.306 4.58579 161.398 4.24992C161.409 4.21517 161.421 4.18043 161.432 4.14568L161.478 3.92562C161.49 3.87929 161.501 3.83298 161.501 3.80981L161.766 2.45473C161.789 2.31575 161.754 2.16517 161.662 2.06093C161.57 1.95669 161.444 1.88721 161.294 1.88721H147.752C146.212 1.88721 145.235 2.74427 145.005 4.26151L141.039 22.9084C140.855 23.8118 141.085 24.3446 141.326 24.6341C141.545 24.9121 141.97 25.2364 142.775 25.2364H144.741C144.959 25.2364 145.154 25.0858 145.2 24.8658L145.603 23.0011C145.603 22.9779 145.614 22.9547 145.614 22.9432L147.051 16.0867H154.42C155.121 16.0867 155.661 15.994 156.052 15.5655C156.34 15.2875 156.524 14.8706 156.627 14.5231C156.662 14.4768 156.685 14.4189 156.696 14.361L157.029 12.67C157.052 12.531 157.018 12.3804 156.926 12.2762C156.845 12.1836 156.708 12.1141 156.57 12.1141Z" fill="#0E054D"/>
<path d="M176.089 7.46973H173.928C172.801 7.46973 172.192 8.07199 171.928 9.46183L169.996 18.6C168.709 20.7079 167.421 21.5766 165.594 21.5766C164.628 21.5766 163.915 21.287 163.456 20.7079C162.892 20.0014 162.754 18.8664 163.053 17.5113L164.697 9.67031C164.709 9.63556 164.709 9.60081 164.709 9.58923L165.007 8.04882C165.03 7.90984 164.996 7.75928 164.904 7.65504C164.812 7.5508 164.686 7.48132 164.536 7.48132H162.386C161.26 7.48132 160.662 8.06042 160.352 9.47342L158.708 17.3492C158.156 19.9319 158.501 22.0862 159.685 23.5687C160.72 24.8543 162.329 25.5376 164.352 25.5376C166.387 25.5376 168.18 24.7037 169.525 23.1749C169.594 23.5339 169.709 23.8351 169.859 24.0783C170.41 24.9701 171.387 25.4334 172.686 25.4334C173.802 25.4334 174.422 24.9817 174.744 24.611C175.101 24.1941 175.227 23.7076 175.227 23.4181C175.227 23.0243 174.94 22.8737 174.79 22.8737C174.296 22.8274 173.997 22.7116 173.859 22.5379C173.687 22.3062 173.687 21.785 173.87 20.9743L176.193 9.84403C176.204 9.80929 176.216 9.78612 176.227 9.75137L176.549 8.06042C176.572 7.92143 176.537 7.77087 176.445 7.66664C176.354 7.53923 176.227 7.46973 176.089 7.46973Z" fill="#0E054D"/>
<path d="M241.89 0.694248C241.798 0.59001 241.671 0.520508 241.522 0.520508H239.361C237.935 0.520508 237.544 1.58605 237.36 2.51261L233.498 20.7195C233.153 22.3178 233.314 23.5339 233.969 24.3446C234.544 25.0627 235.464 25.4217 236.694 25.4217C237.855 25.4217 238.498 24.97 238.832 24.5994C239.2 24.1825 239.338 23.6844 239.338 23.3949C239.338 23.0011 239.05 22.8506 238.889 22.8506C238.337 22.8158 237.993 22.7 237.855 22.5031C237.682 22.2715 237.682 21.7618 237.855 20.9395L241.671 2.72109C241.671 2.69793 241.683 2.69792 241.683 2.67475L241.993 1.08803C242.016 0.949047 241.982 0.798486 241.89 0.694248Z" fill="#0E054D"/>
<path d="M194.643 13.1445C194.643 9.58888 192.217 7.19141 188.608 7.19141C186.677 7.19141 184.941 7.96739 183.596 9.39198C183.573 9.28774 183.55 9.18351 183.527 9.09085C183.239 8.06005 182.4 7.46936 181.228 7.46936C180.745 7.46936 180.124 7.55044 179.952 7.90948C179.929 7.94423 179.917 7.97898 179.917 8.02531L176.744 23.0356C176.618 23.6957 176.721 24.2401 177.043 24.6339C177.377 25.0393 177.917 25.2477 178.653 25.2593C178.664 25.2593 178.676 25.2593 178.687 25.2593H180.274C180.492 25.2593 180.687 25.1087 180.733 24.8887L181.044 23.4294L181.055 23.3715C181.067 23.3251 181.078 23.2788 181.09 23.2325L183.021 14.1174C184.263 12.0095 185.527 11.1524 187.389 11.1524C189.183 11.1524 190.16 12.1717 190.16 14.0132C190.16 14.7197 189.872 16.0864 189.355 17.8816C188.849 19.8274 188.481 21.2751 188.481 22.2712C188.481 24.2517 189.665 25.433 191.654 25.433C192.781 25.433 193.413 24.9698 193.746 24.576C194.103 24.159 194.264 23.6378 194.264 23.3135C194.264 22.9313 194.011 22.7808 193.815 22.7576C192.976 22.665 192.838 22.3986 192.838 21.8542C192.838 21.1709 193.298 19.4799 193.643 18.2638C194.137 16.4686 194.643 14.4649 194.643 13.1445Z" fill="#0E054D"/>
<path d="M213.702 13.1445C213.702 9.58888 211.277 7.19141 207.667 7.19141C205.736 7.19141 204 7.96739 202.655 9.39198C202.632 9.28774 202.609 9.18351 202.586 9.09085C202.299 8.06005 201.46 7.46936 200.287 7.46936C199.804 7.46936 199.184 7.55044 199.011 7.90948C198.988 7.94423 198.977 7.97898 198.977 8.02531L195.792 23.0356C195.666 23.6957 195.769 24.2401 196.091 24.6339C196.425 25.0393 196.965 25.2477 197.701 25.2593C197.712 25.2593 197.724 25.2593 197.735 25.2593H199.322C199.54 25.2593 199.735 25.1087 199.781 24.8887L200.115 23.3135C200.126 23.2904 200.126 23.2556 200.138 23.2325L202.069 14.1174C203.31 12.0095 204.575 11.1524 206.437 11.1524C208.254 11.1524 209.208 12.1369 209.208 14.0132C209.208 14.7197 208.92 16.0864 208.403 17.8816C207.874 19.8853 207.529 21.2751 207.529 22.2712C207.529 24.2517 208.713 25.433 210.702 25.433C211.829 25.433 212.461 24.9698 212.794 24.576C213.151 24.159 213.312 23.6378 213.312 23.3135C213.312 22.9313 213.059 22.7808 212.863 22.7576C212.024 22.665 211.886 22.3986 211.886 21.8542C211.886 21.1825 212.346 19.4799 212.691 18.2638C213.197 16.4686 213.702 14.4649 213.702 13.1445Z" fill="#0E054D"/>
<path d="M78.9057 9.54279L79.1701 8.17611C79.1931 8.03713 79.1586 7.88657 79.0666 7.78233C78.9746 7.67809 78.8482 7.60861 78.6988 7.60861H77.1928C77.1813 7.60861 77.1469 7.60861 77.1354 7.60861H74.2385L74.9052 4.43514C74.9282 4.29616 74.8937 4.12243 74.8133 4.01819C74.5833 3.70548 73.8591 3.45068 73.1464 3.45068C71.4565 3.45068 70.5369 4.41198 70.0886 6.6473L69.8932 7.60861H68.985C68.3527 7.60861 67.8584 7.68967 67.4676 8.07188C66.9388 8.55832 66.7664 9.56595 66.7664 9.97132C66.7664 10.6547 67.2377 11.3727 68.5712 11.3727H69.1115L67.5595 18.8199C67.0997 20.9858 67.3526 22.7578 68.3068 23.9392C69.1574 24.9931 70.5369 25.5491 72.2957 25.5491C73.7212 25.5491 74.9512 25.1321 75.6754 24.414C76.2157 23.8697 76.4571 23.2906 76.4571 22.5957C76.4571 21.7618 75.9858 21.1364 75.6409 20.951C75.365 20.8005 75.1466 20.9047 75.0662 20.9626C75.0317 20.9858 75.0087 21.0089 74.9857 21.0321C74.6178 21.4375 73.9166 21.8428 73.1809 21.8428C72.6061 21.8428 72.2153 21.7039 71.9738 21.4027C71.6175 20.9626 71.56 20.1055 71.8014 18.9473L73.4223 11.3727H76.7675C77.4802 11.3727 77.94 11.2222 78.3079 10.84C78.6413 10.4693 78.8137 9.90183 78.8827 9.61228C78.8942 9.6007 78.9057 9.56596 78.9057 9.54279Z" fill="#0E054D"/>
<path d="M138.614 12.5424C138.533 12.3803 138.372 12.2761 138.188 12.2761H136.062C135.234 12.2761 134.441 12.6814 133.958 13.3648L131.751 16.4803L128.98 12.8667C129.383 12.6467 129.785 12.3919 130.199 12.1371C130.797 11.7549 131.348 11.3148 131.831 10.8283C132.325 10.3303 132.762 9.77437 133.107 9.16052C133.464 8.5351 133.693 7.85177 133.797 7.09894C133.923 6.19555 133.877 5.3848 133.647 4.70147C133.418 4.00655 133.061 3.41588 132.567 2.9526C132.084 2.48932 131.486 2.14187 130.797 1.91023C129.429 1.45854 127.773 1.45854 126.313 1.94498C125.566 2.1882 124.876 2.54723 124.279 3.02209C123.669 3.49695 123.141 4.08764 122.715 4.77098C122.29 5.46589 122.014 6.27661 121.888 7.18C121.83 7.7591 121.83 8.30346 121.911 8.80149C121.979 9.29951 122.117 9.77437 122.29 10.2145C122.462 10.6546 122.692 11.0831 122.957 11.4885C123.106 11.7201 123.255 11.9402 123.416 12.1718C122.911 12.4382 122.405 12.7278 121.922 13.0521C121.267 13.4806 120.669 13.9786 120.152 14.523C119.623 15.0673 119.175 15.6927 118.807 16.3645C118.439 17.0478 118.197 17.8122 118.094 18.6346C117.968 19.5032 117.991 20.3487 118.174 21.1594C118.358 21.9933 118.715 22.7461 119.244 23.3947C119.772 24.0549 120.485 24.5877 121.359 24.9815C122.232 25.3752 123.301 25.5721 124.543 25.5721C126.026 25.5721 127.359 25.2478 128.486 24.6108C129.452 24.0665 130.417 23.3021 131.36 22.3408L132.555 23.9507C133.05 24.6224 133.843 25.0162 134.659 25.0162H137.372C137.556 25.0162 137.717 24.912 137.797 24.7498C137.878 24.5877 137.855 24.3908 137.74 24.2518L133.9 19.3874L138.568 13.0636C138.683 12.8899 138.694 12.7046 138.614 12.5424ZM127.727 9.84385C127.44 10.0176 127.164 10.1797 126.9 10.3303C126.785 10.1797 126.67 10.0292 126.555 9.8786C126.359 9.63538 126.187 9.35742 126.037 9.06787C125.888 8.7899 125.785 8.51194 125.716 8.21081C125.647 7.93285 125.635 7.63171 125.67 7.33057C125.773 6.62408 126.06 6.10288 126.566 5.73226C127.095 5.33847 127.67 5.15316 128.314 5.15316C128.934 5.15316 129.394 5.31532 129.716 5.6512C130.026 5.97549 130.13 6.40402 130.061 6.98311C130.061 6.98311 130.061 6.98312 130.061 6.99471C130.015 7.41166 129.877 7.79386 129.67 8.11816C129.44 8.46561 129.164 8.7899 128.842 9.06787C128.486 9.34583 128.118 9.61222 127.727 9.84385ZM129.337 19.6306C129.107 19.8738 128.865 20.1055 128.612 20.3255C128.256 20.6382 127.888 20.9278 127.497 21.171C127.118 21.4142 126.704 21.6111 126.279 21.7617C125.463 22.0512 124.52 22.0744 123.75 21.7269C123.37 21.5532 123.049 21.3216 122.773 21.0204C122.508 20.7193 122.301 20.3603 122.163 19.9549C122.025 19.5495 121.991 19.121 122.037 18.6577C122.106 18.1597 122.255 17.708 122.485 17.3258C122.727 16.9204 123.026 16.5498 123.37 16.2255C123.727 15.8896 124.129 15.5885 124.554 15.3105C124.876 15.1021 125.21 14.9052 125.532 14.7083L129.337 19.6306Z" fill="#A871FF"/>
</svg>
