<svg width="160" height="50" viewBox="0 0 160 50" fill="none" xmlns="http://www.w3.org/2000/svg">
<path d="M76.4414 18.7474C76.3916 18.7797 76.3342 18.7975 76.2753 18.7986H76.2255C76.1795 18.7884 76.1382 18.7626 76.1082 18.7255C76.0781 18.6884 76.0609 18.642 76.0594 18.5936V18.5424C76.0731 18.4941 76.1014 18.4515 76.1402 18.4208C76.179 18.3901 76.2264 18.3728 76.2753 18.3716H76.3268C76.4971 18.1069 76.653 17.8326 76.7936 17.55C76.8791 17.3865 76.9791 17.2316 77.0925 17.0871C77.1114 17.06 77.1363 17.0379 77.1652 17.0227C77.1941 17.0076 77.2261 16.9998 77.2586 17H77.3084C77.325 17 77.3417 17.0171 77.3583 17.0171C77.4017 17.0354 77.4389 17.0663 77.4655 17.106C77.492 17.1458 77.5067 17.1926 77.5077 17.2408C77.5228 17.2664 77.5287 17.2967 77.5244 17.3262C77.527 17.3613 77.5213 17.3965 77.5077 17.4287C77.4579 17.8233 77.2918 17.8233 77.2071 18.112C76.3078 21.0177 75.7377 24.0204 75.508 27.0606C75.4581 27.8156 75.4232 28.5176 75.4232 29.153C75.4232 30.9534 75.6408 32.1695 76.0411 32.4104C76.674 32.1354 77.6406 30.7125 78.7585 29.0506C79.8082 27.5133 81.0091 25.7403 82.2598 24.4558C82.2784 24.4339 82.3014 24.4163 82.3272 24.4042C82.353 24.3921 82.3809 24.3859 82.4093 24.3858C82.4657 24.3898 82.5188 24.4146 82.5588 24.4557C82.5988 24.4969 82.623 24.5515 82.6269 24.6095C82.6295 24.639 82.6245 24.6687 82.6126 24.6957C82.6007 24.7226 82.5821 24.7459 82.5588 24.7633C81.343 26.0324 80.1587 27.7644 79.1089 29.3068C77.9463 31.0388 76.9413 32.5128 76.1408 32.8391C76.1224 32.8571 76.0993 32.869 76.0743 32.8733C75.9974 32.8919 75.9191 32.9034 75.8402 32.9074C75.0911 32.9074 74.6575 31.7237 74.6575 28.5347C74.6575 26.5807 74.9731 24.4199 75.39 22.5171C75.6601 21.2383 76.0114 19.979 76.4414 18.7474V18.7474ZM89.2608 30.0207C89.2214 30.0222 89.182 30.0164 89.1445 30.0037C88.7941 29.9336 88.4801 29.2316 88.2277 28.2956C87.9796 27.2849 87.8015 26.2575 87.6945 25.221C87.6313 24.6808 87.598 24.1373 87.5948 23.5932V23.3848C86.8108 24.1227 85.4439 24.5515 84.2729 24.7052C84.3204 24.8779 84.3428 25.0569 84.3393 25.2364L84.3227 25.5285C84.3055 25.6915 84.2721 25.8524 84.2231 26.0085C84.0238 26.7293 83.6235 27.088 83.2065 27.1751L82.9724 27.2092C82.7493 27.2026 82.5338 27.1243 82.3561 26.9855C82.0915 26.7781 81.9082 26.4799 81.8396 26.1451C81.8066 26.0105 81.7898 25.8723 81.7897 25.7335C81.8063 25.2517 81.9536 24.7843 82.215 24.3841C82.162 24.316 82.1323 24.232 82.1302 24.1449V24.0766C82.1484 23.8785 82.2365 23.694 82.3779 23.5581C82.5193 23.4221 82.7042 23.3441 82.8976 23.3387L83.1484 23.3729C83.2035 23.3712 83.2583 23.381 83.3097 23.4015C83.361 23.422 83.4079 23.453 83.4474 23.4924L83.464 23.5283C83.7299 23.6808 83.9495 23.9061 84.0985 24.1791L84.1483 24.2816C85.4771 24.1278 87.1829 23.5625 87.6829 22.6025C87.7091 22.525 87.758 22.4577 87.8228 22.4097C87.8875 22.3617 87.9652 22.3354 88.045 22.3344C88.0895 22.3341 88.1336 22.3435 88.1744 22.362C88.2151 22.3805 88.2516 22.4077 88.2814 22.4417C88.3112 22.4758 88.3337 22.5159 88.3473 22.5595C88.361 22.6031 88.3655 22.6492 88.3606 22.6948V23.1064C88.3629 24.1471 88.458 25.1854 88.6446 26.2083C88.8124 27.2745 89.0862 28.3202 89.4618 29.329C89.8122 28.7636 90.2923 27.2554 90.7457 25.9008C91.1626 24.5634 91.6127 23.1406 91.9615 23.1406H92.028C92.1791 23.1406 92.2788 23.2601 92.3452 23.5181C92.4078 23.7373 92.5219 23.9373 92.6774 24.1005C93.0455 24.4522 93.4922 24.705 93.978 24.8367C94.3177 24.9468 94.6715 25.0043 95.0277 25.0075C95.258 25.0034 95.4874 24.9747 95.712 24.9221C96.2433 24.8145 96.7311 24.5456 97.1122 24.1501C97.1484 24.1159 97.196 24.0975 97.2451 24.0988C97.2759 24.0976 97.3066 24.103 97.3352 24.1148C97.3639 24.1265 97.3897 24.1444 97.4112 24.1671C97.4496 24.2092 97.4731 24.2634 97.4776 24.3209C97.4698 24.378 97.4469 24.4318 97.4112 24.4763C96.9697 24.9192 96.4141 25.2227 95.81 25.3508C95.5476 25.413 95.2787 25.4417 95.0094 25.4362C94.0384 25.4411 93.0999 25.076 92.3751 24.4114C92.1774 24.217 92.0287 23.976 91.9416 23.7094C91.7921 24.051 91.4749 25.0126 91.1427 26.0409C90.558 27.8412 89.892 29.8978 89.2907 30.019L89.2608 30.0207ZM83.8095 25.8889C83.8529 25.7555 83.8807 25.6173 83.8925 25.4772L83.9091 25.2022C83.9098 25.0465 83.8931 24.8912 83.8593 24.7393H83.5437C83.2807 24.7475 83.0177 24.7246 82.7598 24.671C82.6204 24.9498 82.5298 25.2516 82.4923 25.5626L82.4757 25.7847C82.4745 25.9929 82.52 26.1987 82.6086 26.3859C82.6495 26.4791 82.7119 26.5607 82.7903 26.6235C82.8687 26.6863 82.9609 26.7284 83.0587 26.7463H83.1268C83.3926 26.6934 83.66 26.4201 83.8095 25.8889ZM83.66 24.2935C83.6027 24.2108 83.5351 24.1362 83.459 24.0715C83.3909 24.1752 83.2918 24.2531 83.1767 24.2935L83.4092 24.3106L83.66 24.2935ZM95.9628 25.0827C95.9712 25.0252 95.9996 24.9728 96.0426 24.9351C96.0857 24.8974 96.1405 24.8771 96.197 24.8777C96.3133 24.8777 96.4296 24.8948 96.5475 24.8948C96.7161 24.617 96.9054 24.3531 97.1139 24.1056C97.4311 23.7282 97.7467 23.5744 97.9975 23.5744C98.0474 23.5744 98.0806 23.5915 98.1138 23.5915C98.234 23.6023 98.348 23.6509 98.4404 23.7307C98.5328 23.8104 98.5991 23.9175 98.6304 24.0373C98.6441 24.0873 98.6496 24.1392 98.6469 24.191C98.6432 24.4033 98.5599 24.6058 98.4144 24.7564C98.1968 25.0143 97.7799 25.2364 97.1139 25.3047C97.064 25.426 97.0142 25.5456 96.981 25.6463C96.9218 25.7869 96.8929 25.939 96.8963 26.0921V26.1946C96.9116 26.2715 96.9417 26.3445 96.9848 26.4093C97.0278 26.4741 97.083 26.5295 97.1471 26.5721C97.3387 26.688 97.5577 26.7471 97.7799 26.7429C98.2633 26.7429 98.931 26.5721 99.7648 26.1929L99.7814 26.1758C100.673 25.7028 101.479 25.0766 102.165 24.3243C102.186 24.3013 102.212 24.2832 102.241 24.2714C102.269 24.2596 102.3 24.2544 102.331 24.256C102.38 24.2547 102.428 24.273 102.464 24.3072C102.486 24.3291 102.504 24.3556 102.515 24.3851C102.527 24.4146 102.532 24.4463 102.53 24.478C102.529 24.5332 102.512 24.5868 102.48 24.6317C101.753 25.409 100.912 26.0643 99.9874 26.5738C99.9784 26.5831 99.9667 26.5891 99.9542 26.5909L99.9375 26.608C99.237 26.986 98.4735 27.2248 97.6869 27.3117H97.5706C97.2549 27.3215 96.9413 27.2567 96.6538 27.1221C96.5076 27.0502 96.3809 26.9422 96.285 26.8078C96.1891 26.6734 96.127 26.5168 96.104 26.3518V26.2134C96.1142 25.9039 96.1877 25.6001 96.3199 25.3218H96.1705C96.1133 25.3151 96.0606 25.287 96.0223 25.2429C95.984 25.1988 95.9629 25.1418 95.9628 25.0827V25.0827ZM98.0972 24.4661C98.1699 24.392 98.2166 24.2953 98.23 24.191C98.2308 24.1819 98.2296 24.1727 98.2266 24.164C98.2235 24.1554 98.2186 24.1475 98.2123 24.141C98.206 24.1345 98.1983 24.1295 98.1899 24.1263C98.1815 24.1232 98.1725 24.1219 98.1636 24.1227C98.1034 24.1399 98.047 24.1689 97.9975 24.2081C97.7986 24.3677 97.6196 24.5519 97.4644 24.7564C97.4311 24.7735 97.4311 24.8077 97.4145 24.8247C97.6718 24.7779 97.9096 24.653 98.0972 24.4661V24.4661ZM100.931 33.6897C100.851 33.6291 100.787 33.5482 100.746 33.4548C100.706 33.3614 100.689 33.2587 100.698 33.1568C100.698 32.6939 100.982 31.9611 101.695 30.8953C102.143 30.2869 102.621 29.703 103.128 29.1462C102.563 28.5984 102.149 27.9057 101.929 27.1392C101.739 26.4084 101.78 25.6344 102.045 24.9289H102.029C101.993 24.9127 101.963 24.886 101.943 24.8523C101.922 24.8185 101.911 24.7792 101.912 24.7393C101.91 24.7043 101.916 24.6691 101.929 24.6369C102.195 24.0886 102.562 23.8477 102.829 23.7828L102.962 23.7657L103.128 23.7999C103.184 23.8228 103.234 23.8602 103.272 23.9083C103.31 23.9564 103.335 24.0138 103.346 24.0749V24.1091C103.333 24.2496 103.267 24.3792 103.162 24.4695L103.062 24.589C102.702 25.057 102.508 25.6373 102.512 26.2339C102.528 27.1649 102.878 28.057 103.495 28.738C103.912 28.2751 104.379 27.778 104.846 27.3151C106.263 25.8581 107.681 24.5378 108.148 24.314C108.185 24.2988 108.224 24.2929 108.264 24.2969C108.303 24.296 108.341 24.3068 108.373 24.3281C108.406 24.3494 108.431 24.3802 108.447 24.4165L108.463 24.5036C108.463 24.5475 108.451 24.5903 108.427 24.6268C108.403 24.6633 108.37 24.6917 108.33 24.7086C107.914 24.9153 106.53 26.1998 105.146 27.6226L103.779 29.0642C103.865 29.1639 103.96 29.2554 104.062 29.3375C104.092 29.3706 104.126 29.3993 104.163 29.4229C104.34 29.5389 104.486 29.6985 104.588 29.8873C104.69 30.0762 104.744 30.2882 104.746 30.5041C104.72 30.9444 104.57 31.3672 104.313 31.7203C103.854 32.3786 103.27 32.9332 102.595 33.3498C102.219 33.6121 101.781 33.766 101.328 33.7956C101.189 33.7985 101.051 33.7619 100.931 33.6897V33.6897ZM102.382 32.9518C103.007 32.5828 103.547 32.0801 103.965 31.4777C104.172 31.2007 104.294 30.8665 104.316 30.5178C104.317 30.4011 104.293 30.2856 104.247 30.179C104.201 30.0724 104.133 29.9771 104.048 29.8995L103.449 29.4366C102.948 29.9756 102.48 30.546 102.049 31.1447C101.348 32.19 101.082 32.8083 101.082 33.1158C101.078 33.1546 101.083 33.1939 101.098 33.23C101.112 33.2661 101.135 33.2979 101.165 33.3225C101.219 33.3595 101.283 33.3775 101.348 33.3737C101.582 33.3806 101.966 33.2097 102.382 32.9518V32.9518ZM4.07779 28.7551C3.87343 29.0353 3.60068 29.2551 3.28716 29.3922C2.94094 29.5507 2.56481 29.6283 2.18592 29.6193C2.01736 29.6197 1.8496 29.5956 1.68763 29.5476C1.62783 29.5271 1.56805 29.4964 1.49829 29.4759C1.42853 29.4554 1.39863 29.4144 1 29.2077L1.60956 28.7653C1.7849 28.8494 1.96952 28.9114 2.15936 28.9498C2.40311 28.9572 2.64054 28.8693 2.82375 28.7038C2.99693 28.5453 3.11382 28.3319 3.15594 28.0974C3.22361 27.6414 3.25362 27.1803 3.24564 26.719V21.7502H4.51627V26.719C4.5163 27.1107 4.49246 27.5021 4.44486 27.8908C4.38562 28.2031 4.2603 28.4981 4.07779 28.7551V28.7551ZM14.8309 29.6193C13.6682 29.6193 12.9391 29.2487 12.1999 28.5296C11.4608 27.8105 11.0688 26.8215 11.0688 25.6258C11.0688 24.4746 11.4492 23.5164 12.2199 22.8075C12.9906 22.0986 13.6799 21.7485 14.821 21.7485C15.962 21.7485 16.6812 22.0901 17.4403 22.787C18.221 23.5061 18.6113 24.4746 18.6113 25.6668C18.6113 26.83 18.2409 27.7866 17.4918 28.5176C16.7427 29.2487 16.0302 29.6193 14.8309 29.6193V29.6193ZM14.821 22.4693C14.0702 22.4693 13.7197 22.717 13.3095 23.2516C12.8992 23.7862 12.6899 24.5685 12.6899 25.6685C12.6899 26.7686 12.9092 27.5918 13.3095 28.1077C13.7097 28.6235 14.0901 28.8883 14.9007 28.8883C15.2046 28.9016 15.5071 28.8373 15.781 28.7011C16.0549 28.5648 16.2917 28.361 16.4703 28.1077C16.8606 27.5953 16.9802 26.8215 16.9802 25.6788C16.9802 24.5685 16.8706 23.7999 16.4703 23.2721C16.07 22.7443 15.5999 22.4693 14.821 22.4693V22.4693ZM30.1019 29.6193V25.8445H26.7002V29.6193H25.2203V21.7502H26.7002V25.1339H30.1019V21.7502H31.5818V29.6193H30.1019ZM43.6953 29.6193L38.9831 23.2414V29.4349H38.2938V21.7485H39.7239L43.4744 26.9018V21.7502H44.2252V29.6193H43.6953ZM56.3287 29.6193L51.6165 23.2414V29.4349H50.9272V21.7485H52.3573L56.1078 26.9018V21.7502H56.8585V29.6193H56.3287ZM67.5718 26.5123V29.6193H66.0902V26.5841L63.1603 21.7502H65.0006L67.2114 25.6788L69.4122 21.7502H70.3822L67.5718 26.5123ZM115.318 26.842C115.318 26.842 115.868 27.6021 116.659 29.6193H115.33C115.21 29.1069 114.25 26.1007 112.42 26.1007L112.34 26.0904V29.6193H110.868V21.7502H112.659C113.234 21.7286 113.809 21.786 114.37 21.921C114.801 22.0288 115.193 22.2604 115.501 22.5889C115.796 22.9199 115.957 23.3543 115.951 23.8033C115.955 24.0655 115.906 24.3256 115.806 24.5667C115.706 24.8078 115.557 25.0244 115.37 25.2022C115.075 25.4841 114.723 25.6953 114.34 25.8206C114.715 26.1051 115.043 26.45 115.312 26.842H115.318ZM112.558 22.5205L112.338 22.5103V25.3918H112.943C113.055 25.3848 113.166 25.3676 113.275 25.3406C113.395 25.3081 113.504 25.2671 113.607 25.2364C113.764 25.1741 113.904 25.0759 114.018 24.9494C114.129 24.842 114.211 24.7074 114.258 24.5583C114.33 24.3499 114.363 24.13 114.358 23.9092C114.375 23.5253 114.262 23.1472 114.038 22.84C113.852 22.635 113.401 22.5205 112.551 22.5205H112.558ZM126.051 29.6193C124.88 29.6193 124.161 29.2487 123.42 28.5296C122.68 27.8105 122.291 26.8215 122.291 25.6258C122.291 24.4746 122.67 23.5164 123.44 22.8075C124.211 22.0986 124.9 21.7485 126.041 21.7485C127.183 21.7485 127.902 22.0901 128.662 22.787C129.443 23.5061 129.833 24.4746 129.833 25.6668C129.833 26.83 129.463 27.7866 128.712 28.5176C127.961 29.2487 127.246 29.6193 126.045 29.6193H126.051ZM126.041 22.4693C125.291 22.4693 124.942 22.717 124.532 23.2516C124.121 23.7862 123.91 24.5685 123.91 25.6685C123.91 26.7686 124.131 27.5918 124.532 28.1077C124.932 28.6235 125.311 28.8883 126.121 28.8883C126.425 28.9019 126.728 28.8377 127.002 28.7015C127.277 28.5652 127.514 28.3612 127.692 28.1077C128.083 27.5953 128.202 26.8215 128.202 25.6788C128.202 24.5685 128.093 23.7999 127.692 23.2721C127.292 22.7443 126.815 22.4693 126.035 22.4693H126.041ZM138.035 29.6091C137.295 29.5271 136.374 28.9498 135.854 28.0718L136.353 27.515C137.017 28.5142 137.383 28.7807 138.024 28.8815C138.197 28.917 138.376 28.9134 138.548 28.8709C138.72 28.8284 138.881 28.7481 139.02 28.6355C139.137 28.5466 139.234 28.434 139.306 28.3047C139.379 28.1754 139.424 28.0322 139.44 27.8839C139.458 27.7489 139.449 27.6114 139.413 27.4803C139.376 27.3492 139.314 27.2272 139.23 27.1221C139.05 26.8967 138.69 26.6182 138.1 26.28C137.679 26.0449 137.275 25.7801 136.889 25.4875C136.607 25.2565 136.387 24.9556 136.25 24.6129C136.101 24.2785 136.044 23.909 136.084 23.5437C136.105 23.2759 136.182 23.0158 136.307 22.7804C136.433 22.5449 136.606 22.3394 136.814 22.1772C137.243 21.8478 137.779 21.7038 138.309 21.7758C138.615 21.8075 138.913 21.8942 139.19 22.032C139.48 22.1772 139.751 22.4437 140.12 22.9681L139.54 23.4617C139.452 23.2971 139.348 23.142 139.23 22.9988C139.116 22.8538 138.975 22.7337 138.815 22.6457C138.655 22.5577 138.48 22.5035 138.299 22.4864C137.929 22.4454 137.69 22.5274 137.54 22.6726C137.376 22.8152 137.272 23.0179 137.25 23.2379C137.234 23.3614 137.246 23.4869 137.284 23.6051C137.322 23.7234 137.385 23.8314 137.469 23.9212C137.649 24.1489 138.03 24.437 138.61 24.7855C139.18 25.1271 139.59 25.4038 139.851 25.5985C140.133 25.8166 140.353 26.1078 140.49 26.4423C140.642 26.8082 140.7 27.2084 140.656 27.6038C140.632 27.9097 140.545 28.207 140.402 28.4764C140.259 28.7459 140.063 28.9816 139.826 29.1684C139.329 29.5579 138.728 29.6911 138.024 29.6091H138.035ZM147.257 29.6193V21.7502H148.737V29.6193H147.257ZM157.57 22.459H156.839V25.1339H158.91V25.8445H156.839V28.8985H159.982V29.6091H155.349V21.7399H160V22.459H157.57Z" fill="white"/>
</svg>
