<svg width="160" height="50" viewBox="0 0 160 50" fill="none" xmlns="http://www.w3.org/2000/svg">
<path d="M22.2419 16.034C21.9116 15.966 21.5812 16.0243 21.2509 16.0049C21.2217 16.0049 21.1926 16.0049 21.1634 16.0049C20.7457 16.0243 20.3182 16.0146 19.9101 16.1506C17.5394 16.9376 16.1209 18.5699 15.6546 21.0085C15.5769 21.4166 15.402 21.572 15.0133 21.6303C13.7309 21.8441 12.6233 22.3979 11.7003 23.3112C10.6995 24.2925 10.0777 25.4486 10 26.8671C10 27.4501 10 28.0233 10 28.6063C10.0874 28.6451 10.0777 28.7326 10.0972 28.8103C10.6898 31.6084 12.9925 33.571 15.8586 33.6196C19.0065 33.6682 22.1642 33.6488 25.3218 33.639C26.7694 33.6293 27.7605 32.5897 27.7605 31.1324C27.7702 28.0913 27.7702 25.0503 27.7605 22.0093C27.741 18.8613 25.3898 16.3255 22.2419 16.034ZM15.2465 29.5293C15.2465 29.9179 15.2368 30.2968 15.2465 30.6855C15.2562 30.9186 15.1494 30.9575 14.9551 30.8798C13.7794 30.4231 13.0119 29.5973 12.6816 28.3731C12.6135 28.1302 12.7204 28.1011 12.9147 28.1011C13.5948 28.1011 14.2749 28.1108 14.9453 28.1011C15.1882 28.1011 15.2465 28.1982 15.2368 28.4217C15.2368 28.7909 15.2465 29.1601 15.2465 29.5293ZM18.0155 31.1032C17.5006 31.0838 16.9856 31.0741 16.4707 31.1032C16.1209 31.1227 15.9849 31.0352 16.0044 30.6563C16.0335 29.8693 16.0141 29.0823 16.0141 28.2954C16.0141 27.489 16.0238 26.6923 16.0044 25.8859C15.9946 25.5944 16.0627 25.4486 16.4027 25.4681C16.9468 25.4972 17.5006 25.4875 18.0447 25.4681C18.3264 25.4584 18.443 25.5361 18.443 25.847C18.4333 27.4695 18.4236 29.0921 18.443 30.7146C18.443 31.0546 18.3167 31.1129 18.0155 31.1032ZM21.7464 28.82C21.7464 29.4613 21.7367 30.1025 21.7561 30.7535C21.7658 31.0255 21.6687 31.1129 21.3966 31.1032C20.8428 31.0838 20.2987 31.0741 19.7449 31.1032C19.4049 31.1227 19.3077 31.0158 19.3077 30.6757C19.3272 29.0823 19.3174 27.489 19.3174 25.8956C19.3174 24.3313 19.3272 22.7768 19.3077 21.2126C19.3077 20.8725 19.3952 20.7656 19.7449 20.7851C20.2599 20.8142 20.7845 20.8142 21.2995 20.7851C21.6687 20.7656 21.7561 20.8725 21.7561 21.2417C21.7367 23.7678 21.7464 26.2939 21.7464 28.82ZM25.1275 30.4328C25.1275 30.9186 24.9234 31.0838 24.4279 31.0935C23.9616 31.1032 23.4855 31.0741 23.0192 31.1032C22.6791 31.1227 22.6208 30.9769 22.6208 30.6855C22.6305 29.4321 22.6305 28.1788 22.6305 26.9254C22.6305 25.6915 22.6402 24.4479 22.6208 23.214C22.6208 22.9031 22.6888 22.7865 23.0192 22.8059C23.6118 22.8351 24.2142 22.8254 24.8166 22.8059C25.04 22.8059 25.1275 22.874 25.1275 23.1071C25.1275 25.5555 25.1372 27.9942 25.1275 30.4328Z" fill="white"/>
<path d="M91.9259 25.9239C91.6442 22.9703 89.2055 21.3477 86.3199 22.1153C85.1735 22.4262 84.3282 23.0966 83.7258 24.1265C82.3267 21.3089 78.0324 21.2409 76.575 23.8738C76.575 23.3783 76.5556 22.9703 76.5847 22.5622C76.6041 22.2707 76.507 22.1639 76.2058 22.1736C75.4771 22.193 74.7484 22.193 74.0197 22.1736C73.7283 22.1639 73.6797 22.2902 73.6797 22.5428C73.6894 26.1279 73.6894 29.713 73.6797 33.2982C73.6797 33.6382 73.806 33.6965 74.1072 33.6868C74.7873 33.6674 75.4674 33.6576 76.1475 33.6868C76.5264 33.7062 76.6041 33.5605 76.6041 33.2107C76.5847 31.3744 76.6041 29.5479 76.5944 27.7116C76.5944 27.2064 76.643 26.7206 76.8276 26.2445C77.2259 25.2049 78.2267 24.6317 79.48 24.7288C80.403 24.7968 81.122 25.4867 81.3357 26.5457C81.394 26.8274 81.4037 27.1189 81.4037 27.4104C81.4135 29.3438 81.4134 31.2676 81.394 33.201C81.394 33.5896 81.5106 33.6965 81.8895 33.6868C82.5211 33.6576 83.1526 33.6576 83.7841 33.6868C84.1727 33.7062 84.3088 33.6091 84.3088 33.1913C84.2893 31.5882 84.2796 29.9754 84.3088 28.3625C84.3185 27.5173 84.3088 26.6526 84.7654 25.8753C85.5524 24.5345 87.5247 24.2819 88.5448 25.4089C89.0986 26.0307 89.1764 26.7983 89.1764 27.5756C89.1764 29.4604 89.1764 31.3356 89.1764 33.2204C89.1764 33.4439 89.1278 33.6771 89.497 33.6674C90.2548 33.6479 91.0126 33.6576 91.7802 33.6674C91.9939 33.6674 92.0619 33.5799 92.0522 33.3759C91.9842 30.9081 92.1688 28.4111 91.9259 25.9239Z" fill="white"/>
<path d="M41.6753 27.5284C41.4615 27.2855 41.4324 27.1495 41.6655 26.9066C42.8217 25.7019 43.9682 24.468 45.1147 23.2438C45.4158 22.9232 45.717 22.5928 46.0959 22.175C44.9106 22.175 43.8516 22.1848 42.7926 22.1653C42.4428 22.1556 42.2291 22.2819 42.0056 22.5345C41.0535 23.6033 40.0916 24.6623 39.0423 25.8282C39.0423 25.5561 39.0423 25.4104 39.0423 25.2647C39.0423 22.3402 39.0326 19.406 39.052 16.4816C39.052 16.1513 38.9743 16.0347 38.6245 16.0444C37.9638 16.0735 37.2934 16.0735 36.6328 16.0444C36.2636 16.025 36.1373 16.1221 36.1373 16.5205C36.1567 18.4636 36.147 20.4165 36.147 22.3596C36.147 25.9448 36.1567 29.5299 36.1373 33.115C36.1373 33.5328 36.2053 33.7271 36.6911 33.6882C37.3226 33.6397 37.9541 33.6591 38.5856 33.6882C38.9451 33.7077 39.0617 33.6008 39.052 33.2316C39.0326 31.8131 39.0423 30.4043 39.0423 28.9858C39.0423 28.8789 38.9646 28.7332 39.1394 28.636C39.256 28.7623 39.3726 28.8984 39.4892 29.0247C40.7426 30.4723 42.0056 31.92 43.2492 33.3773C43.4338 33.6008 43.6184 33.6882 43.9099 33.6785C44.8523 33.6688 45.785 33.6785 46.7275 33.6688C46.8441 33.6688 46.9898 33.7368 47.0772 33.5619C47.0189 33.4939 46.9607 33.4162 46.8926 33.3482C45.1535 31.4148 43.4241 29.4619 41.6753 27.5284Z" fill="white"/>
<path d="M100.347 21.9906C97.8697 21.6505 95.3339 22.8164 94.168 24.915C92.9633 27.1011 93.2256 30.113 94.8481 31.9201C96.5192 33.7758 98.6567 34.213 101.037 33.7564C102.426 33.4941 103.602 32.814 104.486 31.6869C104.681 31.444 104.671 31.2983 104.408 31.1137C103.932 30.7736 103.476 30.4142 103.019 30.0644C102.864 29.9478 102.766 29.9284 102.621 30.0935C101.698 31.104 100.512 31.4149 99.1911 31.308C97.9572 31.2011 97.0148 30.6376 96.5484 29.4329C96.4124 29.0734 96.4804 28.9568 96.8884 28.9568C98.2292 28.9762 99.57 28.9665 100.911 28.9665C102.252 28.9665 103.592 28.9568 104.933 28.9762C105.215 28.9762 105.312 28.9082 105.351 28.607C105.73 25.5271 104 22.4958 100.347 21.9906ZM102.135 26.9553C101.251 26.9359 100.357 26.9456 99.4729 26.9456C98.5887 26.9456 97.6949 26.9262 96.8107 26.9553C96.4415 26.9651 96.4221 26.8387 96.5095 26.5473C96.937 25.1191 98.3555 24.2641 99.9198 24.4972C101.338 24.711 102.174 25.4202 102.446 26.5861C102.533 26.9165 102.426 26.9553 102.135 26.9553Z" fill="white"/>
<path d="M68.9481 26.9556C68.1902 26.7515 67.3935 26.6252 66.6746 26.3046C66.0042 26.0034 65.8196 25.401 66.1888 24.8472C66.7523 23.9922 68.5011 24.0505 68.8509 25.0027C69.0646 25.5953 69.3755 25.6051 69.8419 25.5759C70.0168 25.5662 70.2014 25.5759 70.3763 25.5759C70.7163 25.5759 71.0564 25.5662 71.3964 25.5759C71.6879 25.5856 71.7948 25.4885 71.7656 25.1776C71.6976 24.2449 71.309 23.487 70.5706 22.9041C69.0452 21.7188 66.4317 21.6119 64.7508 22.6515C62.4968 24.0603 62.5648 26.9847 64.8966 28.2672C65.3338 28.5101 65.8001 28.685 66.2859 28.8113C67.034 29.0056 67.7822 29.1999 68.5206 29.4234C68.9286 29.5497 69.2298 29.812 69.2492 30.2881C69.2687 30.7641 69.0355 31.0945 68.6371 31.2985C67.889 31.6774 67.1215 31.7066 66.3539 31.3471C65.9362 31.1528 65.635 30.8224 65.5572 30.3658C65.5087 30.0743 65.3726 30.0549 65.1395 30.0549C64.4885 30.0646 63.8473 30.084 63.1963 30.0549C62.8077 30.0355 62.7688 30.2103 62.8174 30.5213C62.9631 31.3957 63.342 32.1341 64.0221 32.717C65.839 34.291 69.1424 34.3201 70.9884 32.785C72.4749 31.5414 72.5623 29.4039 71.173 28.0632C70.5512 27.4608 69.7642 27.179 68.9481 26.9556Z" fill="white"/>
<path d="M149.985 30.0439C149.869 28.6254 149.004 27.7801 147.761 27.2749C147.226 27.0612 146.653 26.9446 146.099 26.7794C145.574 26.624 145.021 26.5462 144.525 26.3131C143.865 26.0021 143.68 25.3998 144.059 24.846C144.642 23.991 146.361 24.0493 146.711 25.0209C146.935 25.6232 147.255 25.6038 147.712 25.5844C147.877 25.5747 148.033 25.5844 148.198 25.5844C148.557 25.5844 148.907 25.5747 149.266 25.5844C149.568 25.5941 149.645 25.4678 149.626 25.1763C149.558 24.263 149.179 23.5052 148.46 22.932C146.779 21.5912 143.797 21.63 142.135 23.0097C140.483 24.3893 140.6 26.8474 142.388 28.0522C142.912 28.4117 143.495 28.6448 144.107 28.81C144.885 29.0238 145.662 29.2278 146.439 29.461C146.838 29.5873 147.1 29.8593 147.119 30.3062C147.139 30.7532 146.925 31.0835 146.546 31.2875C145.973 31.5984 145.361 31.6762 144.72 31.5304C144.049 31.375 143.563 31.0155 143.418 30.3257C143.359 30.0731 143.233 30.0731 143.048 30.0731C142.388 30.0731 141.717 30.0925 141.057 30.0633C140.697 30.0439 140.649 30.1994 140.687 30.4908C140.804 31.239 141.096 31.9093 141.62 32.4631C143.136 34.0565 146.06 34.416 148.139 33.2696C149.403 32.5603 150.112 31.5304 149.985 30.0439Z" fill="white"/>
<path d="M60.5908 27.8203C60.0176 27.3831 59.3472 27.1596 58.6574 26.9653C57.8801 26.7515 57.0737 26.635 56.345 26.2949C55.5872 25.9354 55.49 25.0804 56.141 24.5849C56.996 23.934 58.5116 24.274 58.6865 25.3039C58.7254 25.5176 58.8323 25.5857 59.046 25.5857C59.7456 25.5759 60.4354 25.5662 61.1349 25.5857C61.4167 25.5954 61.4944 25.4885 61.475 25.2165C61.407 24.3226 61.0669 23.5648 60.3674 22.9915C58.774 21.6896 56.0147 21.5827 54.3144 22.7486C52.2158 24.1866 52.3227 26.9653 54.5282 28.2381C54.9751 28.5004 55.4609 28.6753 55.9564 28.8113C56.7239 29.0153 57.4915 29.2096 58.2396 29.4428C58.638 29.5691 58.9391 29.8315 58.9489 30.3172C58.9586 30.7933 58.7157 31.1237 58.3173 31.318C57.5886 31.6872 56.8308 31.7066 56.073 31.3763C55.7524 31.2305 55.422 31.0168 55.3734 30.6864C55.2666 30.0063 54.8294 30.0355 54.3339 30.0743C54.1881 30.0841 54.0424 30.0743 53.8966 30.0743C53.5372 30.0743 53.1874 30.0841 52.8279 30.0743C52.5656 30.0646 52.4879 30.1715 52.517 30.4144C52.5947 31.1917 52.8959 31.8718 53.4303 32.445C55.1986 34.3104 58.7643 34.4464 60.7463 32.7462C62.2814 31.4054 62.2036 29.0445 60.5908 27.8203Z" fill="white"/>
<path d="M139.629 31.4535C139.124 31.0843 138.619 30.6956 138.143 30.2973C137.909 30.0933 137.773 30.1127 137.55 30.3264C136.423 31.3952 134.577 31.5312 133.246 30.6568C131.993 29.8406 131.487 28.1987 132.031 26.7316C132.818 24.5844 135.704 23.9237 137.521 25.488C137.822 25.7503 137.977 25.7017 138.23 25.488C138.648 25.1382 139.075 24.7884 139.532 24.4775C139.872 24.2444 139.882 24.0889 139.59 23.7974C138.084 22.2623 136.258 21.7571 134.149 22.0292C131.089 22.4372 128.922 24.8662 128.922 27.9266C128.922 30.4819 130.37 32.5611 132.76 33.4549C135.286 34.4071 138.065 33.7853 139.697 31.9295C139.891 31.7158 139.843 31.6089 139.629 31.4535Z" fill="white"/>
<path d="M112.849 22.1742C112.315 22.1936 111.781 22.1645 111.246 22.1839C110.906 22.2033 110.809 22.077 110.809 21.7467C110.829 20.6391 110.799 19.5315 110.829 18.4239C110.838 18.0547 110.712 17.9575 110.362 17.977C109.702 18.0061 109.041 18.0061 108.37 17.977C108.03 17.9672 107.933 18.0644 107.933 18.4044C107.953 19.512 107.924 20.6196 107.953 21.7272C107.962 22.077 107.885 22.2228 107.506 22.1936C107.069 22.1547 106.631 22.1936 106.194 22.1839C105.951 22.1742 105.835 22.2519 105.844 22.5142C105.854 23.0777 105.854 23.6413 105.844 24.2048C105.835 24.4574 105.942 24.5448 106.194 24.5351C106.651 24.5254 107.098 24.5545 107.554 24.5254C107.885 24.506 107.962 24.6226 107.962 24.9335C107.953 26.3131 107.953 27.7025 107.953 29.0821C107.953 30.5006 107.962 31.9094 107.943 33.3279C107.943 33.6291 108.03 33.7165 108.322 33.7068C108.924 33.6874 109.517 33.7068 110.119 33.6971C110.906 33.6971 110.819 33.7845 110.819 33.0073C110.819 30.3549 110.829 27.7025 110.809 25.05C110.809 24.6128 110.935 24.4962 111.353 24.5254C111.868 24.5643 112.383 24.5254 112.908 24.5351C113.17 24.5448 113.287 24.4574 113.277 24.1756C113.257 23.6413 113.248 23.1166 113.277 22.5822C113.296 22.2228 113.151 22.1645 112.849 22.1742Z" fill="white"/>
<path d="M122.653 22.2134C121.322 21.7957 120.04 21.7762 118.903 22.7284C118.388 23.1656 118.077 23.7485 117.747 24.3509C117.747 23.7583 117.727 23.1656 117.756 22.5729C117.776 22.2426 117.65 22.1649 117.339 22.1746C116.639 22.194 115.949 22.194 115.25 22.1746C114.939 22.1649 114.832 22.262 114.832 22.5826C114.842 26.1483 114.842 29.7237 114.832 33.2894C114.832 33.6295 114.958 33.6975 115.26 33.6878C115.959 33.6781 116.649 33.6684 117.348 33.6878C117.659 33.6975 117.766 33.6101 117.766 33.2797C117.747 32.0944 117.737 30.8994 117.766 29.714C117.795 28.5093 117.863 27.3045 118.407 26.1872C119.02 24.9242 120.069 24.4286 121.439 24.7396C121.662 24.7881 121.876 24.8561 122.08 24.9436C122.294 25.031 122.381 25.031 122.43 24.7687C122.556 24.0594 122.721 23.3599 122.877 22.6507C122.935 22.4369 122.906 22.2815 122.653 22.2134Z" fill="white"/>
<path d="M50.866 27.9263C50.866 26.1386 50.866 24.3607 50.866 22.5729C50.866 22.3592 50.8951 22.1552 50.5648 22.1649C49.8069 22.1843 49.0491 22.1746 48.2816 22.1649C48.0192 22.1649 47.9609 22.2815 47.9609 22.5147C47.9707 26.1192 47.9707 29.714 47.9609 33.3186C47.9609 33.6004 48.0678 33.6781 48.3301 33.6781C49.0297 33.6684 49.7195 33.6587 50.419 33.6781C50.7785 33.6975 50.8854 33.5809 50.8757 33.2214C50.8562 31.4629 50.866 29.6946 50.866 27.9263Z" fill="white"/>
<path d="M127.292 22.5236C127.292 22.2516 127.205 22.1544 126.932 22.1642C126.252 22.1836 125.572 22.1933 124.892 22.1642C124.533 22.1447 124.426 22.2613 124.426 22.6208C124.445 24.3696 124.436 26.1282 124.436 27.877C124.436 29.6745 124.445 31.4816 124.426 33.279C124.426 33.5996 124.523 33.6968 124.834 33.6871C125.524 33.6676 126.223 33.6676 126.923 33.6871C127.195 33.6968 127.282 33.6093 127.282 33.3276C127.282 29.7327 127.282 26.1282 127.292 22.5236Z" fill="white"/>
<path d="M125.87 16.3824C124.821 16.3727 123.966 17.1791 123.966 18.1701C123.976 19.1223 124.84 19.919 125.86 19.9092C126.89 19.9092 127.745 19.1028 127.736 18.1507C127.726 17.1694 126.91 16.3921 125.87 16.3824Z" fill="white"/>
<path d="M49.4074 16.4033C48.3581 16.413 47.5323 17.1709 47.5225 18.1424C47.5128 19.1043 48.3872 19.9107 49.4463 19.9107C50.4859 19.9107 51.2825 19.1335 51.2728 18.1327C51.2631 17.132 50.4761 16.4033 49.4074 16.4033Z" fill="white"/>
</svg>
