<svg width="176" height="19" viewBox="0 0 176 19" fill="none" xmlns="http://www.w3.org/2000/svg">
<path d="M69.5454 17.2528C68.6122 17.2624 67.6864 17.0852 66.8214 16.7317C65.9563 16.3783 65.1693 15.8554 64.5057 15.1933C63.8421 14.5312 63.315 13.743 62.9549 12.8742C62.5948 12.0055 62.4088 11.0734 62.4076 10.1317C62.3911 9.18931 62.5599 8.25299 62.9043 7.37686C63.2486 6.50072 63.7617 5.70218 64.4139 5.0274C65.066 4.35262 65.8443 3.81499 66.7037 3.44563C67.563 3.07626 68.4865 2.88248 69.4205 2.87548C70.368 2.85498 71.31 3.02652 72.1906 3.37996C73.0713 3.73339 73.8726 4.26153 74.5474 4.9331C75.2221 5.60467 75.7564 6.40601 76.1186 7.28969C76.4809 8.17336 76.6638 9.1214 76.6564 10.0777C76.6599 11.0209 76.4784 11.9556 76.1223 12.8277C75.7662 13.6999 75.2426 14.4923 74.5816 15.1592C73.9205 15.8262 73.1352 16.3546 72.2708 16.7139C71.4065 17.0733 70.4802 17.2564 69.5454 17.2528ZM69.5454 5.63932C68.96 5.61841 68.3766 5.71813 67.8307 5.93239C67.2848 6.14665 66.7879 6.47096 66.3704 6.88549C65.9529 7.30003 65.6235 7.7961 65.4024 8.3434C65.1813 8.8907 65.073 9.47774 65.0843 10.0687C65.0724 11.2323 65.5186 12.3532 66.3248 13.1853C67.1311 14.0174 68.2316 14.4928 69.3848 14.507C70.568 14.507 71.7026 14.0328 72.5393 13.1886C73.3759 12.3444 73.8459 11.1995 73.8459 10.0056C73.8325 8.86418 73.3821 7.7722 72.5888 6.95832C71.7955 6.14444 70.7209 5.67179 69.59 5.63932H69.5454Z" fill="white"/>
<path d="M146.214 10.5278C146.214 12.4274 146.08 14.336 146.16 16.2266C146.214 17.577 145.375 17.2709 144.643 17.3069C143.912 17.3429 143.287 17.3789 143.305 16.2266C143.376 12.1933 143.305 8.1241 143.305 4.12689C143.305 3.77579 143.091 3.28964 143.608 3.11859C144.126 2.94753 144.304 3.37066 144.554 3.66775C146.58 6.03547 148.605 8.42119 150.951 11.185C150.951 8.88033 150.951 6.98075 150.951 5.08118C150.951 4.09988 150.8 3.28063 152.325 3.28063C153.708 3.28063 153.815 3.8298 153.798 4.95514C153.735 8.64626 153.798 12.3464 153.753 16.0375C153.753 16.5327 154.137 17.2709 153.414 17.4959C152.691 17.721 152.522 16.9828 152.138 16.5957C150.229 14.48 148.346 12.3464 146.446 10.2127C146.312 10.1227 146.16 10.0237 146.053 10.2127C146.062 10.3208 146.169 10.4288 146.214 10.5278Z" fill="white"/>
<path d="M130.52 17.1718C127.486 17.4689 127.486 17.4689 126.246 15.0921C125.809 14.2549 125.354 13.4266 124.943 12.5714C124.856 12.364 124.695 12.1973 124.492 12.1039C124.289 12.0106 124.058 11.9975 123.846 12.0672C123.266 12.1572 123.409 12.6344 123.409 12.9675C123.337 13.9745 123.337 14.9854 123.409 15.9924C123.569 17.2978 122.855 17.2978 121.928 17.2888C121 17.2798 120.491 17.2888 120.518 16.0914C120.607 12.2203 120.58 8.34909 120.518 4.47792C120.518 3.57764 120.777 3.30756 121.651 3.34357C123.096 3.40659 124.551 3.34357 126.005 3.34357C126.847 3.31497 127.675 3.56281 128.365 4.04984C129.055 4.53687 129.57 5.23678 129.833 6.04439C130.176 6.91322 130.22 7.87362 129.956 8.77044C129.692 9.66726 129.136 10.4481 128.378 10.9869C127.397 11.5811 127.566 11.9862 128.039 12.7874C128.923 14.1919 129.681 15.6323 130.52 17.1718ZM124.97 6.25146C124.078 6.16143 123.186 6.09841 123.373 7.53885C123.498 8.43912 123.141 9.47444 124.729 9.33939C125.898 9.22236 127.129 9.3394 127.129 7.73691C127.129 6.35949 126.112 6.14342 124.97 6.25146Z" fill="white"/>
<path d="M175.291 17.1267C173.016 17.7299 171.651 17.1267 170.991 15.0111C170.643 14.1904 170.238 13.3961 169.777 12.6344C169.68 12.3991 169.498 12.2099 169.268 12.1047C169.038 11.9994 168.777 11.986 168.537 12.0672C167.948 12.1842 168.18 12.6794 168.171 13.0215C168.1 14.0285 168.1 15.0394 168.171 16.0464C168.332 17.3608 167.582 17.2798 166.681 17.3248C165.78 17.3698 165.334 17.1177 165.352 16.0374C165.423 12.2382 165.405 8.43008 165.352 4.62192C165.352 3.72165 165.495 3.29852 166.521 3.36154C167.957 3.45156 169.411 3.36154 170.857 3.36154C171.727 3.33857 172.58 3.61084 173.279 4.13476C173.977 4.65869 174.482 5.404 174.711 6.25142C175.004 7.10835 175.013 8.03816 174.736 8.90051C174.459 9.76286 173.912 10.5109 173.177 11.0319C172.347 11.554 172.284 11.9321 172.793 12.6794C173.676 14.1198 174.435 15.5963 175.291 17.1267ZM169.67 6.26042C168.778 6.10737 167.966 6.08936 168.127 7.59282C168.234 8.55611 167.993 9.4744 169.519 9.30334C170.643 9.17731 171.883 9.35736 171.901 7.74587C171.928 6.36845 170.946 6.16139 169.67 6.26042Z" fill="white"/>
<path d="M3.87812 8.25911C4.77034 6.82768 5.55547 5.36924 6.47446 3.97382C7.39344 2.5784 8.72287 3.64972 10.1683 3.19958C8.74071 5.45027 7.49161 7.43086 6.21573 9.33944C5.9962 9.57627 5.87407 9.88843 5.87407 10.2127C5.87407 10.537 5.9962 10.8491 6.21573 11.086C7.6076 13.0216 8.89238 15.0022 10.3289 17.0368C8.20537 17.5319 6.55476 17.3339 5.58224 15.1732C5.04346 14.1423 4.31352 13.2254 3.43201 12.4724C3.43201 13.6968 3.35171 14.9301 3.43201 16.1545C3.51231 17.3789 2.70932 17.2438 1.94201 17.2618C1.1747 17.2798 0.487662 17.3519 0.514429 16.1005C0.609599 12.2353 0.609599 8.36715 0.514429 4.49598C0.514429 3.19959 1.20145 3.37964 1.97768 3.36163C2.75392 3.34363 3.46771 3.2626 3.44987 4.51398C3.43203 5.76536 3.06622 7.2148 3.67292 8.44817H3.80673L3.87812 8.25911Z" fill="white"/>
<path d="M102.138 3.38862C102.745 3.38862 103.361 3.38862 103.976 3.38862C104.551 3.34544 105.129 3.42814 105.67 3.63107C106.211 3.834 106.701 4.15236 107.109 4.56439C107.516 4.97643 107.831 5.4724 108.031 6.0184C108.231 6.5644 108.312 7.14754 108.268 7.72794C108.309 8.30447 108.226 8.88313 108.027 9.42489C107.827 9.96665 107.515 10.4589 107.11 10.8685C106.706 11.278 106.22 11.5953 105.684 11.799C105.148 12.0027 104.574 12.0881 104.003 12.0493C103.614 12.0763 103.223 12.0763 102.834 12.0493C101.942 11.9412 101.505 12.2293 101.603 13.2286C101.701 14.2279 101.549 15.0292 101.603 15.9294C101.71 16.9918 101.424 17.3969 100.265 17.3789C99.1046 17.3609 98.7477 17.1268 98.7745 15.9024C98.8637 12.3013 98.8637 8.70024 98.7745 5.16216C98.7745 3.81175 99.0422 3.18156 100.479 3.36162C101.03 3.41078 101.585 3.4198 102.138 3.38862ZM103.03 9.25841C104.262 9.36644 105.332 9.17738 105.341 7.74595C105.35 6.31451 104.226 6.2875 103.111 6.20648C101.995 6.12545 101.505 6.47656 101.54 7.75495C101.576 9.03334 101.799 9.52849 103.021 9.25841H103.03Z" fill="white"/>
<path d="M21.5262 17.3158C23.5248 12.3373 25.4252 7.61983 27.5219 2.41626L33.4998 17.2347C32.1169 16.9466 30.5911 18.135 29.7881 16.0374C29.5026 15.2902 25.4698 15.8393 24.9969 16.5685C24.1047 17.955 22.8289 16.9286 21.5262 17.3158ZM28.7711 13.0395L27.5487 9.70846L26.371 13.0395H28.7711Z" fill="white"/>
<path d="M156.278 10.2577C156.278 8.45717 156.358 6.5576 156.278 4.72105C156.216 3.55969 156.644 3.28961 157.697 3.36163C158.964 3.45166 160.248 3.36163 161.533 3.36163C163.13 3.36163 163.701 4.18988 163.219 5.73835C163.086 6.16148 162.836 6.2245 162.479 6.21549C161.872 6.21549 161.257 6.21549 160.641 6.21549C159.668 6.14347 159.062 6.2155 159.017 7.5389C158.972 9.05136 159.713 8.90731 160.712 9.00634C161.426 9.06936 162.639 8.18709 162.773 9.98764C162.898 11.5901 162.283 11.8782 160.909 11.7882C160.123 11.7252 158.999 11.239 159.035 12.9675C159.035 14.2369 159.374 14.6871 160.614 14.489C161 14.4575 161.388 14.4575 161.774 14.489C163.344 14.489 163.951 15.3893 163.46 16.8657C163.282 17.4149 162.889 17.2979 162.568 17.3069C160.784 17.3069 158.999 17.3069 157.215 17.3069C156.412 17.3069 156.323 16.9558 156.323 16.2896C156.296 14.2819 156.278 12.2743 156.278 10.2577Z" fill="white"/>
<path d="M113.407 2.9024L119.224 17.3068C117.85 16.9467 116.449 18.09 115.468 16.1184C115.04 15.2181 113.621 15.8843 112.648 15.8033C111.676 15.7223 110.864 15.5512 110.57 16.8386C110.489 17.1987 107.893 17.4778 107.599 17.2168C107.304 16.9557 107.491 16.7216 107.599 16.4605L113.005 3.10947C113.032 3.06446 113.184 3.02844 113.407 2.9024ZM113.264 9.69047L112.033 13.1115H114.272C114.21 11.9862 113.621 11.0589 113.264 9.69047Z" fill="white"/>
<path d="M31.4477 3.50551C31.5349 3.46701 31.6242 3.43394 31.7154 3.40648C34.4991 3.21742 34.4991 3.21742 35.4448 5.81921C36.0337 7.4397 36.6404 9.04219 37.3542 10.9598L39.1386 5.88223C40.0933 3.23543 40.0933 3.23543 43.2161 3.45149L37.3274 18.144C35.2664 12.9944 33.3214 8.24995 31.4477 3.50551Z" fill="white"/>
<path d="M50.2735 3.5776C54.4045 2.08315 54.5919 5.94532 56.3228 7.99794C56.804 7.30516 57.2278 6.57345 57.5897 5.81028C58.4016 3.63162 59.8916 2.84838 62.372 3.55059C61.7386 4.66959 61.0477 5.7544 60.302 6.80058C59.234 8.01457 58.4412 9.44899 57.979 11.0038C57.5167 12.5587 57.396 14.1966 57.6254 15.8033C57.8038 16.9557 57.3845 17.2888 56.1978 17.3068C55.0112 17.3248 54.6721 16.8386 54.8327 15.7583C55.0735 14.1554 54.9635 12.5188 54.5103 10.9635C54.0572 9.40815 53.2718 7.97186 52.2096 6.75556C51.4981 5.73875 50.8514 4.67729 50.2735 3.5776Z" fill="white"/>
<path d="M137.907 11.7702C137.907 13.2827 137.836 14.8042 137.907 16.2716C137.979 17.532 137.158 17.2619 136.489 17.2529C135.819 17.2439 135.007 17.577 135.034 16.2986C135.106 13.4988 134.972 10.6899 135.097 7.89906C135.159 6.44961 134.686 5.94546 133.312 6.21554C131.706 6.53064 131.465 5.72039 131.528 4.35197C131.581 3.50572 131.867 3.32566 132.625 3.33467C135.132 3.33467 137.648 3.41569 140.147 3.33467C141.458 3.33467 141.191 4.08189 141.244 4.83812C141.298 5.59435 141.244 6.28756 140.057 6.26056C137.827 6.26056 137.827 6.26055 137.827 8.55625L137.907 11.7702Z" fill="white"/>
<path d="M87.8983 17.2978C86.4351 17.5859 86.1139 17.1357 86.5422 15.6143C87.8805 10.9508 89.1385 6.25142 90.2627 1.53399C90.6107 0.0755448 91.3066 0.453654 92.1542 0.705731C93.0018 0.957807 94.019 0.885788 93.5639 2.45226C92.2613 6.95363 91.0925 11.455 89.9951 16.0464C89.656 17.2978 88.9601 17.4778 87.8983 17.2978Z" fill="#F2F2F2"/>
<path d="M12.3899 10.2306C12.3899 8.32207 12.4791 6.4135 12.3899 4.52292C12.3185 3.27154 13.0055 3.33456 13.8353 3.35256C14.665 3.37057 15.3431 3.19052 15.2896 4.48691C15.1825 7.33177 15.2896 10.1946 15.2004 13.0485C15.2004 14.0838 15.3699 14.642 16.5476 14.4619C17.0294 14.3809 17.5558 14.516 18.0466 14.4619C19.483 14.2009 19.6704 14.9391 19.6347 16.1544C19.6347 17.0547 19.376 17.3248 18.5105 17.2888C16.8421 17.2348 15.1647 17.2348 13.4963 17.2888C12.604 17.2888 12.372 16.9737 12.3988 16.1184C12.4345 14.1468 12.3899 12.2293 12.3899 10.2306Z" fill="white"/>
<path d="M82.9733 17.2888C81.4744 17.5859 81.1086 17.1628 81.5636 15.6233C82.6878 11.8242 83.687 7.97999 84.615 4.11782C84.9362 2.78541 85.5697 2.92946 86.5422 3.21754C87.5147 3.50563 88.3266 3.54164 87.9251 5.01809C86.8723 8.55916 85.9206 12.1242 85.07 15.7133C84.7666 16.9917 84.2938 17.6309 82.9733 17.2888Z" fill="#F2F2F2"/>
<path d="M48.1322 10.3478C48.1322 12.3104 48.0608 14.282 48.1322 16.2356C48.1857 17.3249 47.6147 17.3339 46.9098 17.2349C46.205 17.1358 45.2414 17.757 45.2503 16.3346C45.2503 12.3014 45.2503 8.23212 45.2503 4.2169C45.2503 2.89349 46.2139 3.46067 46.8117 3.39765C47.4095 3.33463 48.159 3.16358 48.1144 4.29792C48.0787 6.30554 48.1322 8.33115 48.1322 10.3478Z" fill="white"/>
<path d="M3.87813 8.25897V8.39403H3.74426C3.74809 8.35954 3.76346 8.32739 3.78778 8.30285C3.8121 8.27831 3.84395 8.26284 3.87813 8.25897Z" fill="white"/>
</svg>
