<svg width="138" height="24" viewBox="0 0 138 24" fill="none" xmlns="http://www.w3.org/2000/svg">
<path d="M35.0669 4.06H36.522C36.6767 4.06 36.7774 4.06 36.7928 4.25524C36.9018 4.98308 36.7387 5.72579 36.3354 6.33915C35.9321 6.9525 35.3172 7.39272 34.6103 7.5743C32.0717 8.35526 29.5253 6.63715 29.5872 4.20838C29.6337 2.41999 31.4989 0.889317 33.4957 0.983031C34.2879 1.01087 35.0524 1.28347 35.6861 1.76399C35.8486 1.88113 35.8563 1.96703 35.6861 2.09199C35.5158 2.21694 35.3842 2.44342 35.183 2.5137C34.9818 2.58399 34.8347 2.32627 34.6489 2.23256C34.0137 1.89741 33.2752 1.82073 32.5856 2.0183C31.896 2.21587 31.3076 2.67266 30.9417 3.29466C30.7855 3.60753 30.6987 3.95095 30.6873 4.30107C30.6759 4.6512 30.7402 4.99962 30.8757 5.32215C31.0112 5.64467 31.2147 5.93356 31.472 6.16874C31.7293 6.40391 32.0343 6.57974 32.3658 6.684C32.8644 6.86174 33.4019 6.89746 33.9194 6.78725C34.4368 6.67705 34.9142 6.42517 35.2991 6.05924C35.3639 5.99803 35.4188 5.92686 35.4616 5.84838C35.6164 5.59848 35.8099 5.2939 35.6938 5.06743C35.5777 4.84095 35.2294 5.02057 34.9818 5.02057C34.5329 5.02057 34.084 5.02057 33.6351 5.02057C33.4183 5.02057 33.341 5.02057 33.3332 4.77067C33.3332 4.09123 33.3332 4.09123 34.0685 4.09123L35.0669 4.06Z" fill="white"/>
<path d="M64.617 5.10641L66.7918 1.66239C66.9276 1.5543 67.0861 1.47909 67.2551 1.44253C67.4242 1.40598 67.5993 1.40906 67.767 1.45154C67.8599 1.51401 67.829 1.61554 67.829 1.70144V7.21498C67.829 7.38679 67.829 7.46489 67.5736 7.46489C66.9544 7.46489 66.9544 7.46489 66.9544 6.92603V3.02126C66.7996 3.07592 66.7686 3.20088 66.7067 3.29459L65.0659 5.90298C65.0209 5.98076 64.9565 6.04529 64.8791 6.09013C64.8017 6.13497 64.714 6.15857 64.6248 6.15857C64.5355 6.15857 64.4478 6.13497 64.3704 6.09013C64.293 6.04529 64.2286 5.98076 64.1836 5.90298L62.3493 2.9744C62.2255 3.03687 62.2874 3.13059 62.2874 3.20868C62.2874 4.52069 62.2874 5.82488 62.3261 7.11346C62.3261 7.36336 62.2564 7.45708 61.9855 7.41803C61.8881 7.4024 61.7889 7.4024 61.6914 7.41803C61.467 7.41803 61.4128 7.35555 61.4128 7.16031C61.4128 5.31726 61.4128 3.48202 61.4128 1.63896C61.4128 1.41249 61.5057 1.37344 61.7224 1.35001C61.8926 1.31378 62.0699 1.33645 62.2258 1.41438C62.3817 1.49231 62.507 1.62094 62.5815 1.77954C63.2161 2.93535 63.905 3.98964 64.617 5.10641Z" fill="white"/>
<path d="M51.1345 3.8648C51.0494 3.5368 51.2197 3.51337 51.4596 3.51337C52.0943 3.51337 52.0943 3.51337 52.0943 4.10689C52.0943 5.1768 52.0943 6.24671 52.0943 7.31661C52.1072 7.6026 52.0812 7.88902 52.0169 8.16785C51.9189 8.60297 51.6801 8.99276 51.3381 9.27561C50.9961 9.55847 50.5704 9.71827 50.1284 9.72976C49.6877 9.79337 49.2382 9.72782 48.8333 9.5409C48.4285 9.35398 48.0855 9.05357 47.8452 8.67547C47.7446 8.51147 47.7445 8.41776 47.9535 8.36309C48.0245 8.34883 48.0926 8.32242 48.1548 8.285C48.4643 8.09757 48.6656 8.10538 48.89 8.43338C49.0482 8.63396 49.2646 8.77949 49.5089 8.84953C49.7533 8.91957 50.0132 8.91059 50.2522 8.82386C50.4676 8.78268 50.6641 8.67213 50.812 8.5088C50.9599 8.34547 51.0513 8.13815 51.0726 7.91795C51.0726 7.73052 51.1113 7.54309 51.1345 7.27757C50.896 7.49217 50.6093 7.64486 50.2991 7.72243C49.9889 7.79999 49.6646 7.80009 49.3544 7.72271C49.0604 7.66652 48.7804 7.55199 48.5306 7.38576C48.2808 7.21953 48.0663 7.0049 47.8993 6.75433C47.6005 6.31494 47.4805 5.77648 47.564 5.2503C47.6476 4.72412 47.9283 4.25046 48.3482 3.92727C48.7365 3.59893 49.224 3.41383 49.7305 3.40247C50.237 3.39112 50.7322 3.55418 51.1345 3.8648ZM49.8962 6.88709C50.0667 6.89246 50.2365 6.86266 50.3952 6.79951C50.5539 6.73636 50.6982 6.64119 50.8192 6.51984C50.9402 6.39848 51.0354 6.25348 51.0989 6.09372C51.1625 5.93396 51.193 5.7628 51.1887 5.59071C51.1928 5.41711 51.1627 5.24441 51.1002 5.08263C51.0377 4.92085 50.9439 4.77321 50.8244 4.64826C50.7049 4.52331 50.562 4.42355 50.404 4.35475C50.246 4.28595 50.076 4.24948 49.9039 4.24746C49.555 4.24746 49.2203 4.38734 48.9736 4.63632C48.7268 4.88529 48.5882 5.22298 48.5882 5.57508C48.585 5.74892 48.6167 5.92162 48.6814 6.08277C48.7461 6.24391 48.8425 6.39018 48.9647 6.51276C49.0869 6.63534 49.2324 6.7317 49.3925 6.79603C49.5526 6.86036 49.7239 6.89133 49.8962 6.88709Z" fill="white"/>
<path d="M119.391 5.80153C119.391 5.30952 119.391 4.80971 119.391 4.31771C119.391 4.1459 119.329 4.09124 119.143 4.08343C118.601 4.08343 118.052 4.08343 117.51 4.08343C117.363 4.08343 117.324 4.15371 117.332 4.27086C117.332 4.9581 117.332 5.65314 117.332 6.34819C117.332 6.67619 117.611 6.8402 118.021 6.81677C118.129 6.81677 118.269 6.71524 118.338 6.87144C118.424 7.05143 118.499 7.2366 118.563 7.42591C118.563 7.47277 118.501 7.48058 118.454 7.48839C118.189 7.56567 117.91 7.58544 117.637 7.54641C117.364 7.50738 117.101 7.41043 116.868 7.26191C116.726 7.15808 116.612 7.02012 116.536 6.86055C116.46 6.70098 116.425 6.52487 116.434 6.34819C116.434 5.7 116.434 5.05181 116.434 4.40362C116.434 4.1459 116.334 4.08343 116.086 4.07562C115.838 4.06781 115.699 4.12248 115.653 3.99752C115.598 3.80614 115.598 3.60319 115.653 3.41181C115.653 3.24781 115.885 3.31809 115.993 3.3259C116.365 3.37276 116.496 3.24 116.442 2.912C116.442 2.748 116.442 2.58399 116.442 2.41999C116.442 2.25599 116.527 2.06076 116.829 2.07638C117.417 2.07638 117.324 2.02952 117.324 2.53714C117.324 3.31809 117.324 3.31809 118.191 3.31809C118.524 3.31809 118.849 3.31809 119.174 3.31809C119.344 3.31809 119.422 3.27124 119.406 3.10724C119.399 2.99804 119.399 2.88843 119.406 2.77923C119.445 1.5297 120.668 1.21732 121.535 1.4438C121.674 1.4438 121.728 1.51409 121.674 1.64685C121.55 1.92018 121.519 2.20914 121.008 2.15447C120.876 2.1443 120.744 2.16841 120.624 2.22451C120.504 2.28061 120.4 2.36682 120.323 2.47491C120.245 2.583 120.196 2.70937 120.181 2.84194C120.165 2.97452 120.184 3.10887 120.234 3.23219C120.273 3.31028 120.343 3.31028 120.405 3.31028C120.636 3.32977 120.869 3.32977 121.101 3.31028C121.535 3.2478 121.411 3.53676 121.442 3.732C121.473 3.92723 121.442 4.05219 121.124 4.05219C120.227 4.05219 120.219 4.05219 120.227 4.83314C120.234 5.6141 120.227 6.34819 120.227 7.10572C120.227 7.37905 120.134 7.46496 119.855 7.42591H119.638C119.368 7.42591 119.313 7.34781 119.321 7.12915C119.321 6.66838 119.321 6.19981 119.321 5.73905L119.391 5.80153Z" fill="white"/>
<path d="M131.325 3.85691C131.534 3.62206 131.795 3.44177 132.088 3.33158C132.38 3.22138 132.695 3.18458 133.005 3.22433C133.189 3.23499 133.368 3.28426 133.532 3.36898C133.696 3.4537 133.841 3.57201 133.957 3.71634C134.135 3.95844 134.228 3.88034 134.398 3.71634C134.589 3.53284 134.818 3.39319 135.068 3.30693C135.317 3.22067 135.583 3.18984 135.845 3.21653C136.034 3.20601 136.223 3.23329 136.401 3.2968C136.579 3.36032 136.743 3.4588 136.884 3.58658C137.024 3.71435 137.138 3.8689 137.219 4.04129C137.299 4.21368 137.346 4.40051 137.355 4.59101C137.463 5.48911 137.393 6.39502 137.416 7.29312C137.416 7.43369 137.362 7.48055 137.207 7.48836C136.526 7.53522 136.495 7.48836 136.511 6.8714C136.539 6.13429 136.521 5.3961 136.457 4.6613C136.379 3.93501 135.404 3.73196 134.87 4.15367C134.702 4.28493 134.567 4.45468 134.477 4.64887C134.387 4.84307 134.344 5.05613 134.352 5.27044C134.352 5.91083 134.352 6.55121 134.352 7.19159C134.352 7.42588 134.266 7.48836 134.019 7.48055C133.477 7.48055 133.485 7.48055 133.477 6.99635C133.503 6.25948 133.49 5.52174 133.438 4.78625C133.369 4.27082 133.183 4.05996 132.742 4.00529C132.528 3.95139 132.304 3.96438 132.097 4.0425C131.891 4.12062 131.714 4.26019 131.588 4.44263C131.402 4.70934 131.307 5.03014 131.318 5.35635C131.318 5.98111 131.318 6.61369 131.318 7.23845C131.318 7.46493 131.263 7.53521 131 7.53521C130.42 7.53521 130.42 7.53522 130.42 6.98855C130.42 5.91083 130.42 4.8253 130.42 3.74758C130.42 3.38834 130.598 3.37272 130.915 3.3571C131.232 3.34148 131.31 3.50548 131.287 3.74758C131.294 3.73977 131.31 3.77101 131.325 3.85691Z" fill="white"/>
<path d="M100.134 7.00419C98.78 7.83981 97.7584 7.78514 96.9457 6.9339C96.5572 6.4993 96.354 5.92781 96.3801 5.34315C96.4062 4.75848 96.6594 4.20771 97.085 3.81008C97.9364 3.02913 98.958 3.02913 100.057 3.81008C100.089 3.78987 100.113 3.76013 100.127 3.72509C100.141 3.69004 100.143 3.65146 100.134 3.61484C100.134 3.38837 100.204 3.3337 100.444 3.3337C100.955 3.3337 100.955 3.3337 100.955 3.79446C100.955 5.0518 100.955 6.30133 100.955 7.55866C100.928 8.02667 100.736 8.46948 100.413 8.80737C100.091 9.14525 99.6603 9.35601 99.1979 9.40171C98.7371 9.52444 98.25 9.50108 97.8027 9.33482C97.3555 9.16856 96.9698 8.86745 96.698 8.47238C96.5819 8.28495 96.5974 8.21466 96.8296 8.12095C97.0618 8.02724 97.3868 7.96476 97.6423 8.29276C97.8159 8.49577 98.0463 8.64098 98.3033 8.70928C98.5602 8.77759 98.8316 8.76578 99.0818 8.67543C99.3331 8.63218 99.5648 8.51128 99.7451 8.32942C99.9253 8.14756 100.045 7.91371 100.088 7.66018C100.111 7.44933 100.119 7.25409 100.134 7.00419ZM98.6948 3.95846C98.5026 3.95523 98.3117 3.99131 98.1336 4.06454C97.9555 4.13777 97.794 4.24664 97.6588 4.38456C97.5235 4.52248 97.4174 4.68661 97.3467 4.86705C97.276 5.0475 97.2423 5.24051 97.2475 5.43447C97.2433 5.62572 97.2774 5.81586 97.3478 5.9935C97.4182 6.17113 97.5234 6.33259 97.6571 6.46823C97.7908 6.60386 97.9502 6.71087 98.1259 6.78283C98.3016 6.8548 98.4898 6.89024 98.6794 6.88704C98.8714 6.89578 99.0632 6.86431 99.2426 6.79461C99.4221 6.72491 99.5852 6.61849 99.7219 6.48204C99.8586 6.3456 99.9658 6.1821 100.037 6.00181C100.108 5.82152 100.141 5.62835 100.134 5.43447C100.144 5.24003 100.114 5.04566 100.045 4.86369C99.9767 4.68171 99.8714 4.51609 99.736 4.37733C99.6007 4.23857 99.4382 4.12968 99.259 4.05758C99.0798 3.98548 98.8877 3.95172 98.6948 3.95846Z" fill="white"/>
<path d="M104.236 4.45834C104.236 3.54462 104.236 2.63091 104.236 1.71719C104.236 1.52195 104.236 1.43604 104.531 1.44385C105.305 1.44385 106.009 1.38919 106.744 1.44385C107.226 1.44845 107.688 1.63573 108.04 1.96849C108.391 2.30125 108.605 2.75515 108.64 3.24005C108.605 3.73234 108.384 4.19214 108.022 4.52482C107.661 4.8575 107.187 5.03774 106.698 5.02844C106.295 5.02844 105.924 5.02844 105.498 5.02844C105.227 5.02844 105.134 5.09092 105.142 5.34082C105.142 5.94216 105.142 6.55131 105.142 7.15264C105.142 7.39474 105.08 7.51188 104.801 7.46502C104.73 7.45335 104.657 7.45335 104.585 7.46502C104.306 7.46502 104.213 7.41817 104.213 7.14483C104.252 6.27016 104.236 5.36425 104.236 4.45834ZM105.947 4.30996C106.237 4.32169 106.527 4.306 106.814 4.2631C107.064 4.22658 107.293 4.1025 107.461 3.91261C107.63 3.72272 107.727 3.4791 107.735 3.22443C107.707 2.97034 107.594 2.73362 107.413 2.55431C107.233 2.375 106.996 2.26412 106.744 2.24043C106.295 2.18576 105.846 2.24043 105.397 2.24043C105.181 2.24043 105.142 2.32634 105.142 2.49815C105.142 2.8652 105.142 3.24005 105.142 3.61491C105.15 4.32558 105.15 4.32558 105.947 4.32558V4.30996Z" fill="white"/>
<path d="M44.7183 7.75403C44.4179 7.76667 44.118 7.71784 43.8368 7.61049C43.5555 7.50313 43.2987 7.33946 43.0818 7.12934C42.8648 6.91921 42.6923 6.66698 42.5745 6.3878C42.4568 6.10863 42.3962 5.80829 42.3964 5.50488C42.4131 5.2055 42.4887 4.91247 42.6189 4.64291C42.749 4.37336 42.9311 4.13267 43.1544 3.93491C43.3778 3.73715 43.638 3.58629 43.9198 3.49113C44.2016 3.39597 44.4994 3.35842 44.7957 3.38068C45.0985 3.36275 45.4017 3.40671 45.6873 3.50992C45.9728 3.61313 46.2348 3.77347 46.4574 3.98132C46.68 4.18917 46.8587 4.44025 46.9828 4.7195C47.1069 4.99875 47.1738 5.30042 47.1795 5.6064C47.162 5.91205 47.0839 6.21104 46.9499 6.48568C46.8158 6.76032 46.6284 7.00503 46.3989 7.20529C46.1694 7.40555 45.9024 7.5573 45.6138 7.65156C45.3251 7.74582 45.0206 7.78066 44.7183 7.75403ZM46.0805 5.58297C46.0851 5.40301 46.0526 5.22406 45.9852 5.05737C45.9179 4.89068 45.817 4.73986 45.6891 4.61442C45.5611 4.48897 45.4088 4.39162 45.2418 4.32848C45.0747 4.26533 44.8965 4.23778 44.7183 4.24754C44.3692 4.24118 44.0315 4.37352 43.7781 4.61602C43.5248 4.85852 43.376 5.19177 43.3639 5.54392C43.3638 5.72365 43.3995 5.90157 43.4688 6.06714C43.5381 6.23271 43.6396 6.38256 43.7674 6.50782C43.8951 6.63307 44.0465 6.73118 44.2125 6.79634C44.3785 6.86151 44.5557 6.89239 44.7338 6.88717C44.9058 6.89135 45.0768 6.86065 45.2368 6.79689C45.3968 6.73312 45.5424 6.63759 45.6651 6.51596C45.7878 6.39433 45.8851 6.24908 45.9512 6.08881C46.0172 5.92855 46.0506 5.75653 46.0496 5.58297H46.0805Z" fill="white"/>
<path d="M37.1411 5.54376C37.149 5.24665 37.2158 4.95413 37.3375 4.68347C37.4592 4.4128 37.6334 4.16948 37.8498 3.96785C38.0662 3.76622 38.3205 3.61037 38.5975 3.5095C38.8746 3.40862 39.1689 3.36477 39.4631 3.38051C39.7659 3.35597 40.0705 3.39414 40.3582 3.49269C40.6458 3.59124 40.9105 3.74809 41.1359 3.9536C41.3614 4.15911 41.5428 4.40896 41.669 4.68778C41.7953 4.9666 41.8637 5.26852 41.8701 5.575C41.8612 5.87246 41.7938 6.16516 41.6719 6.43616C41.55 6.70715 41.3761 6.95104 41.1601 7.1537C40.9441 7.35637 40.6905 7.51377 40.4138 7.6168C40.1371 7.71982 39.8429 7.76641 39.5482 7.75387C39.2439 7.77966 38.9375 7.74184 38.6483 7.64278C38.3591 7.54372 38.0932 7.38553 37.8673 7.17812C37.6414 6.97071 37.4604 6.71853 37.3354 6.43732C37.2105 6.15611 37.1443 5.85192 37.1411 5.54376ZM38.1783 5.54376C38.1752 5.72007 38.2069 5.89523 38.2717 6.05902C38.3364 6.22281 38.4329 6.37195 38.5553 6.49772C38.6778 6.6235 38.8239 6.72338 38.9851 6.79156C39.1463 6.85974 39.3193 6.89485 39.494 6.89482C39.6665 6.90321 39.8388 6.87706 40.0012 6.8179C40.1636 6.75875 40.3128 6.66774 40.4401 6.55012C40.5675 6.43251 40.6705 6.29063 40.7432 6.13265C40.816 5.97467 40.857 5.80372 40.8639 5.62967C40.8701 5.45337 40.8415 5.2776 40.7796 5.11262C40.7177 4.94764 40.6238 4.79676 40.5035 4.66879C40.3831 4.54082 40.2387 4.43834 40.0787 4.36733C39.9187 4.29631 39.7462 4.25819 39.5714 4.25519C39.3963 4.24574 39.2211 4.27149 39.0559 4.33095C38.8908 4.39042 38.739 4.4824 38.6094 4.60156C38.4797 4.72073 38.3749 4.8647 38.3009 5.0251C38.2269 5.18551 38.1852 5.35916 38.1783 5.53596V5.54376Z" fill="white"/>
<path d="M71.8459 7.09006C71.8079 7.0859 71.7695 7.0916 71.7342 7.10664C71.699 7.12167 71.6682 7.14554 71.6447 7.17597C71.3666 7.41151 71.0304 7.56643 70.6719 7.6242C70.3134 7.68197 69.9461 7.64041 69.6091 7.50397C69.3497 7.44441 69.1169 7.30061 68.9463 7.09464C68.7758 6.88867 68.6769 6.63191 68.6649 6.36377C68.6357 6.10887 68.6856 5.85113 68.8075 5.62597C68.9295 5.40082 69.1176 5.21932 69.346 5.10643C69.9783 4.78678 70.7032 4.70642 71.3893 4.87996C71.5441 4.87996 71.6911 4.95024 71.8459 4.98148C71.8716 4.78358 71.8275 4.58288 71.7214 4.41443C71.6153 4.24599 71.4539 4.12052 71.2654 4.05995C71.0303 3.95312 70.7692 3.91836 70.5146 3.96002C70.2601 4.00167 70.0232 4.11789 69.8336 4.29424C69.7708 4.38594 69.6751 4.44943 69.5668 4.47129C69.4585 4.49315 69.346 4.47167 69.2531 4.41138C68.7578 4.1771 68.7036 4.27862 69.106 3.82567C69.392 3.54687 69.746 3.34943 70.1321 3.25341C70.5182 3.1574 70.9225 3.16623 71.3041 3.279C71.6159 3.32042 71.9094 3.45138 72.1495 3.6563C72.3896 3.86121 72.5664 4.13144 72.6586 4.43481C72.7345 4.74622 72.7606 5.06786 72.736 5.38758C72.736 5.94987 72.736 6.51215 72.736 7.07444C72.736 7.63673 72.7979 7.4493 72.2639 7.49616C71.8769 7.5274 71.8459 7.33997 71.8459 7.09006ZM70.4837 6.89482C70.7867 6.90319 71.0845 6.81379 71.3336 6.63962C71.5828 6.46546 71.7704 6.21561 71.8691 5.92644C71.9078 5.77806 71.8691 5.68434 71.7144 5.61406C71.2498 5.43525 70.7425 5.40257 70.2593 5.52034C70.0619 5.5531 69.8848 5.66166 69.7651 5.82326C69.6453 5.98486 69.5922 6.18696 69.6169 6.3872C69.6633 6.66835 70.0193 6.88701 70.4837 6.89482Z" fill="white"/>
<path d="M77.999 5.10648L79.5082 3.74762C80.0191 3.28685 80.1429 3.25561 80.9942 3.39618C80.6059 3.83765 80.1813 4.2452 79.7249 4.61448C79.2683 5.02058 79.2683 5.02057 79.632 5.49696C80.1274 6.14515 80.615 6.79334 81.18 7.51963H80.2435C80.0655 7.51963 80.019 7.4103 79.9494 7.30877C79.5701 6.80896 79.1754 6.31696 78.8271 5.80934C78.7188 5.65315 78.6491 5.64534 78.4711 5.76248C78.2698 5.91232 78.1178 6.11984 78.035 6.35801C77.9522 6.59619 77.9423 6.85401 78.0067 7.09792C78.0067 7.23068 78.0996 7.44154 77.9371 7.48058C77.6807 7.52177 77.4195 7.52177 77.1631 7.48058C77.078 7.48058 77.1166 7.32439 77.1166 7.23849C77.1166 5.40324 77.1166 3.568 77.1166 1.72494C77.1166 1.52189 77.1863 1.47503 77.403 1.46722C78.0454 1.46722 78.0454 1.46723 78.0454 2.0139V5.13772L77.999 5.10648Z" fill="white"/>
<path d="M54.3309 5.84066C54.29 5.4579 54.3471 5.07094 54.4968 4.71681C54.6464 4.36269 54.8837 4.05326 55.1858 3.81816C55.488 3.58305 55.8449 3.43013 56.2223 3.37404C56.5998 3.31795 56.9852 3.36056 57.3417 3.4978C57.6335 3.6209 57.8973 3.80285 58.1169 4.03249C58.3365 4.26213 58.5073 4.53461 58.6188 4.83323C58.7039 5.01285 58.5414 5.03627 58.4253 5.07532C57.5584 5.41894 56.6993 5.76256 55.8247 6.08275C55.5229 6.19208 55.5229 6.29361 55.7086 6.49665C55.9646 6.73541 56.3004 6.86801 56.649 6.86801C56.9976 6.86801 57.3334 6.73541 57.5894 6.49665C57.8216 6.27018 57.9532 6.30142 58.2009 6.49665C58.6962 6.82466 58.7194 6.82466 58.2473 7.19951C57.9047 7.48705 57.4907 7.67467 57.0501 7.74212C56.6095 7.80956 56.159 7.75425 55.7473 7.58218C55.364 7.4711 55.0233 7.24504 54.7703 6.93399C54.5173 6.62295 54.3641 6.24163 54.3309 5.84066ZM56.6529 4.27875C56.3492 4.25579 56.0473 4.34312 55.8017 4.52499C55.5562 4.70686 55.3832 4.97129 55.3139 5.27056C55.3139 5.48142 55.3139 5.53608 55.5538 5.44237C56.026 5.25494 56.5136 5.07532 56.9857 4.88008C57.125 4.82541 57.3572 4.8176 57.3572 4.67703C57.3572 4.53646 57.1405 4.4037 56.9625 4.34122C56.8734 4.29759 56.78 4.26357 56.6838 4.2397L56.6529 4.27875Z" fill="white"/>
<path d="M114.182 6.98079C113.977 7.20468 113.724 7.37814 113.442 7.48781C113.16 7.59748 112.857 7.64043 112.557 7.61336C112.204 7.63552 111.855 7.53077 111.571 7.31772C111.288 7.10467 111.089 6.79712 111.009 6.44974C110.987 6.25081 111.007 6.04955 111.066 5.85859C111.125 5.66764 111.223 5.4911 111.353 5.34006C111.483 5.18901 111.643 5.06671 111.822 4.98083C112.001 4.89495 112.196 4.84733 112.394 4.84097C112.993 4.74593 113.605 4.79408 114.182 4.98154C114.208 4.77528 114.16 4.56637 114.046 4.3929C113.933 4.21943 113.761 4.09297 113.563 4.03659C113.333 3.94779 113.084 3.92125 112.841 3.95961C112.598 3.99798 112.369 4.09991 112.177 4.25526C112.069 4.34897 112.03 4.55202 111.759 4.46611C111.102 4.26307 111.055 4.15373 111.566 3.68516C111.886 3.42237 112.27 3.25055 112.679 3.1874C113.087 3.12426 113.504 3.17208 113.888 3.32592C114.245 3.41725 114.561 3.63029 114.781 3.92908C115.001 4.22786 115.112 4.59409 115.095 4.96592C115.095 5.74688 115.095 6.48098 115.095 7.2385C115.095 7.41031 115.041 7.4884 114.848 7.46498H114.739C114.221 7.4884 114.221 7.48841 114.182 6.98079ZM112.75 6.88707C113.061 6.91167 113.371 6.83041 113.63 6.65626C113.89 6.48212 114.084 6.22517 114.182 5.9265C114.182 5.82498 114.259 5.72345 114.112 5.63755C113.821 5.51075 113.508 5.44535 113.191 5.44535C112.874 5.44535 112.561 5.51075 112.27 5.63755C112.148 5.69851 112.048 5.79531 111.981 5.9152C111.915 6.0351 111.886 6.17245 111.899 6.30917C111.932 6.44639 112.007 6.57 112.112 6.66348C112.217 6.75697 112.348 6.8159 112.487 6.8324L112.75 6.88707Z" fill="white"/>
<path d="M82.0545 5.56723C82.0695 5.79158 82.1362 6.00932 82.2492 6.2031C82.3623 6.39688 82.5186 6.56137 82.7057 6.68346C82.8929 6.80556 83.1056 6.88189 83.3272 6.90639C83.5487 6.93088 83.7728 6.90286 83.9817 6.82457C84.2299 6.75515 84.4478 6.60395 84.6009 6.39504C84.7325 6.23104 85.1427 6.24666 85.3749 6.39504C85.6071 6.54343 85.3749 6.66057 85.282 6.75428C85.0059 7.10353 84.6345 7.36359 84.2136 7.50236C83.7928 7.64114 83.3409 7.65257 82.9137 7.53524C82.5023 7.46619 82.1203 7.27584 81.8159 6.98817C81.5116 6.7005 81.2984 6.32837 81.2032 5.91866C81.0706 5.35013 81.1592 4.75194 81.4509 4.24742C81.7219 3.81474 82.1259 3.48353 82.6011 3.30443C83.0763 3.12532 83.5966 3.10817 84.0823 3.2556C84.5374 3.37 84.9397 3.6389 85.2216 4.01717C85.5034 4.39543 85.6477 4.86002 85.6303 5.33294C85.6303 5.56723 85.4755 5.53599 85.3207 5.53599H82.0313L82.0545 5.56723ZM84.686 4.89561C84.6305 4.61255 84.4752 4.35935 84.249 4.18278C84.0228 4.00621 83.7409 3.91821 83.4554 3.93503C83.1614 3.91543 82.8699 4.00097 82.6321 4.17663C82.3943 4.35228 82.2255 4.60684 82.1552 4.89561H84.686Z" fill="white"/>
<path d="M123.988 7.62112C123.686 7.64183 123.384 7.59884 123.099 7.49489C122.815 7.39094 122.556 7.22832 122.337 7.01741C122.119 6.80649 121.946 6.55192 121.831 6.26995C121.715 5.98798 121.659 5.6848 121.666 5.37978C121.672 5.07379 121.741 4.77237 121.868 4.49447C121.995 4.21657 122.178 3.96822 122.404 3.76503C122.631 3.56184 122.897 3.40822 123.186 3.31382C123.474 3.21943 123.779 3.1863 124.081 3.21654C124.383 3.19696 124.686 3.241 124.97 3.34585C125.254 3.4507 125.514 3.61407 125.732 3.82559C125.951 4.03711 126.123 4.29215 126.239 4.5745C126.354 4.85685 126.41 5.16034 126.403 5.46568C126.398 5.77175 126.33 6.07346 126.203 6.35156C126.077 6.62966 125.894 6.87805 125.667 7.08086C125.439 7.28368 125.173 7.43647 124.884 7.52949C124.595 7.62251 124.29 7.65372 123.988 7.62112ZM122.556 5.42664C122.55 5.62053 122.583 5.81369 122.653 5.99423C122.724 6.17477 122.83 6.33886 122.965 6.4764C123.101 6.61395 123.263 6.72203 123.442 6.79399C123.62 6.86595 123.811 6.90027 124.004 6.89483C124.2 6.90233 124.395 6.86927 124.578 6.79766C124.762 6.72605 124.928 6.61741 125.068 6.47844C125.208 6.33946 125.318 6.17307 125.392 5.9895C125.466 5.80594 125.502 5.60907 125.497 5.41102C125.491 5.01813 125.332 4.64355 125.053 4.36865C124.775 4.09374 124.401 3.94072 124.011 3.94282C123.819 3.94281 123.628 3.9813 123.451 4.05606C123.273 4.13082 123.112 4.24036 122.977 4.37835C122.842 4.51634 122.735 4.68005 122.663 4.85998C122.59 5.03992 122.554 5.23252 122.556 5.42664Z" fill="white"/>
<path d="M92.5651 3.84133C92.7515 3.64331 92.976 3.48576 93.2249 3.37833C93.4737 3.2709 93.7417 3.21586 94.0124 3.21657C94.3998 3.17445 94.7887 3.28132 95.1015 3.51583C95.4143 3.75035 95.6279 4.09526 95.6997 4.48171C95.7848 5.42408 95.8081 6.37111 95.7693 7.31658C95.7693 7.44934 95.6919 7.46496 95.5681 7.48058C94.9489 7.55867 94.887 7.52743 94.8715 6.97296C94.856 6.41848 94.8715 5.67657 94.8715 5.02838C94.8878 4.87942 94.8705 4.72865 94.8208 4.58741C94.7712 4.44617 94.6904 4.31813 94.5846 4.21291C94.4789 4.10769 94.3508 4.02802 94.2102 3.97989C94.0695 3.93177 93.9198 3.91643 93.7725 3.93505C93.4655 3.94277 93.173 4.0682 92.9544 4.28581C92.7359 4.50343 92.6077 4.79689 92.596 5.10648C92.596 5.7781 92.596 6.44972 92.596 7.12134C92.596 7.44153 92.4876 7.53524 92.1703 7.48839C91.8298 7.54305 91.7214 7.43372 91.7291 7.10572C91.7291 5.96552 91.7291 4.81753 91.7291 3.66953C91.7291 3.41962 91.7988 3.3259 92.0929 3.34152C92.5186 3.35714 92.5186 3.34152 92.5651 3.84133Z" fill="white"/>
<path d="M86.8068 5.36421C86.8068 5.04402 86.8068 4.72383 86.8068 4.40363C86.8068 4.08344 86.7216 4.09126 86.4585 4.08345C85.9554 4.08345 85.9786 4.08344 85.9941 3.59925C85.9941 3.34935 86.1257 3.32592 86.3269 3.34935C86.6984 3.3962 86.8687 3.27906 86.8068 2.92763C86.8068 2.78706 86.8068 2.63868 86.8068 2.49811C86.7526 2.1623 86.8919 2.0842 87.2556 2.07639C87.6194 2.06858 87.7278 2.19353 87.7046 2.50591C87.6813 2.8183 87.6117 3.09163 87.751 3.28687C87.8903 3.48211 88.2695 3.34154 88.5249 3.34935C88.7803 3.35716 88.7726 3.41964 88.7803 3.58364C88.7803 4.09907 88.7803 4.09906 88.2541 4.09906C88.182 4.10687 88.1094 4.10687 88.0373 4.09906C87.7587 4.09906 87.6658 4.16154 87.6736 4.42706C87.6736 4.99716 87.6736 5.56726 87.6736 6.14517C87.6736 6.72307 87.8052 6.80897 88.4475 6.82459C88.672 6.82459 89.028 7.26193 88.9584 7.44936C88.9584 7.51964 88.8423 7.51964 88.7803 7.52745C87.8129 7.69926 86.7681 7.42593 86.8222 6.20764C86.8145 5.88745 86.8068 5.63755 86.8068 5.36421Z" fill="white"/>
<path d="M52.8063 4.41937C52.8063 3.43537 52.8063 2.45917 52.8063 1.48298C52.8063 1.24869 52.8837 1.18622 53.1314 1.18622C53.8511 1.18622 53.8511 1.18622 53.8511 1.84222C53.8511 3.65403 53.8511 5.47365 53.8511 7.3089C53.8511 7.54318 53.8512 7.66033 53.5029 7.65252C52.8063 7.65252 52.8063 7.65252 52.8063 7.01214V4.41937Z" fill="white"/>
<path d="M127.897 3.85697C128.067 3.81792 128.121 3.70077 128.222 3.62268C128.423 3.45813 128.659 3.34286 128.911 3.28594C129.164 3.22903 129.426 3.23202 129.677 3.29468C129.847 3.29468 129.901 3.38058 129.816 3.53677C129.762 3.6452 129.715 3.75743 129.677 3.87258C129.638 4.02877 129.537 4.07563 129.367 4.06782C128.415 4.06782 127.951 4.4583 127.943 5.31735C127.943 5.94211 127.943 6.56688 127.943 7.19945C127.943 7.44936 127.873 7.54307 127.603 7.50402H127.27C127.099 7.50402 127.038 7.44936 127.038 7.29317C127.038 6.04885 127.038 4.80713 127.038 3.56801C127.038 3.38058 127.123 3.32591 127.301 3.34153C127.372 3.3532 127.446 3.3532 127.517 3.34153C127.835 3.29468 127.935 3.42744 127.881 3.69297C127.883 3.74791 127.888 3.8027 127.897 3.85697Z" fill="white"/>
<path d="M74.5161 3.89603C74.7021 3.65909 74.9467 3.47585 75.2252 3.36478C75.5038 3.25372 75.8065 3.21876 76.1027 3.26346C76.3581 3.26346 76.4897 3.31812 76.3581 3.61488C76.3196 3.76277 76.2274 3.89065 76.0998 3.97312C75.9722 4.05559 75.8185 4.08661 75.6693 4.06003C75.5222 4.05051 75.3747 4.07117 75.2357 4.12075C75.0967 4.17034 74.9691 4.24783 74.8606 4.34855C74.7521 4.44927 74.665 4.57113 74.6044 4.70677C74.5439 4.84241 74.5112 4.98902 74.5084 5.13775C74.5084 5.81458 74.5084 6.49401 74.5084 7.17604C74.5084 7.42595 74.4542 7.52748 74.1756 7.48843C74.0649 7.47671 73.9534 7.47671 73.8428 7.48843C73.6725 7.48843 73.6183 7.44157 73.6183 7.28538C73.6183 6.04366 73.5641 4.80194 73.6183 3.56022C73.6183 3.41183 73.6648 3.33374 73.8428 3.33374C74.0208 3.33374 74.2684 3.25565 74.4 3.3806C74.5316 3.50555 74.4697 3.68517 74.5161 3.89603Z" fill="white"/>
<path d="M110.204 4.44272C110.204 5.35644 110.204 6.27016 110.204 7.18388C110.204 7.44159 110.119 7.5275 109.856 7.48845H109.678C109.399 7.48845 109.314 7.43378 109.314 7.16825C109.314 5.36164 109.314 3.55763 109.314 1.75622C109.314 1.35013 109.585 1.45946 109.809 1.44384C110.034 1.42822 110.212 1.44384 110.204 1.74061C110.181 2.63871 110.204 3.54462 110.204 4.44272Z" fill="white"/>
<path d="M89.6936 5.3798C89.6936 4.78628 89.6936 4.19275 89.6936 3.59923C89.6936 3.38056 89.771 3.31808 90.0032 3.32589C90.545 3.32589 90.545 3.32589 90.545 3.83351C90.545 4.95028 90.545 6.07485 90.545 7.19943C90.545 7.51181 90.3902 7.504 90.158 7.48838C89.9258 7.47276 89.6626 7.5899 89.6859 7.19943C89.7168 6.59028 89.6936 5.98894 89.6936 5.3798Z" fill="white"/>
<path d="M90.1116 2.46679C89.7246 2.46679 89.5001 2.25593 89.5079 1.91231C89.5106 1.83693 89.5287 1.76294 89.5611 1.69498C89.5936 1.62702 89.6396 1.56657 89.6963 1.51742C89.753 1.46828 89.8192 1.4315 89.8906 1.40941C89.9621 1.38732 90.0373 1.38039 90.1116 1.38906C90.1887 1.38157 90.2665 1.38994 90.3403 1.41366C90.4141 1.43738 90.4824 1.47596 90.541 1.52706C90.5996 1.57816 90.6473 1.64072 90.6812 1.71097C90.7152 1.78121 90.7347 1.85768 90.7385 1.93574C90.736 2.01363 90.7173 2.09012 90.6835 2.16021C90.6498 2.23031 90.6017 2.29244 90.5426 2.34255C90.4834 2.39266 90.4145 2.42962 90.3402 2.45103C90.266 2.47243 90.188 2.47781 90.1116 2.46679Z" fill="white"/>
<path d="M21.8708 4.7005C22.7588 5.5234 23.4246 6.56077 23.8057 7.71498C25.5703 12.4007 24.5797 16.5085 21.0968 20.1478C20.8553 20.3504 20.5963 20.5307 20.3228 20.6866C20.2447 20.7478 20.1619 20.8026 20.0752 20.8506C19.918 20.839 19.7602 20.839 19.603 20.8506C19.2116 20.9567 18.803 20.9824 18.4015 20.9261C18.0001 20.8697 17.6139 20.7326 17.266 20.5229C16.918 20.3131 16.6154 20.0349 16.376 19.7049C16.1366 19.3748 15.9654 18.9996 15.8725 18.6015C15.7761 17.854 15.9141 17.0947 16.2672 16.4304C17.1512 15.735 17.8133 14.7929 18.171 13.721C18.5288 12.6491 18.5665 11.4948 18.2796 10.4015C18.0029 9.68822 17.6797 8.99425 17.3121 8.32413C17.3791 8.31973 17.4463 8.31973 17.5133 8.32413C18.0597 8.58638 18.6696 8.68387 19.2695 8.60491C19.8695 8.52594 20.4341 8.27388 20.8956 7.87899C21.3562 7.54373 21.6899 7.06021 21.8418 6.50803C21.9938 5.95586 21.9548 5.36794 21.7314 4.84107C21.7237 4.80983 21.7856 4.74736 21.8708 4.7005Z" fill="#F2F2F2"/>
<path d="M16.2982 16.4537C15.9459 17.1212 15.808 17.8826 15.9035 18.6326C15.9964 19.0307 16.1676 19.4059 16.407 19.736C16.6463 20.066 16.949 20.3442 17.2969 20.554C17.6448 20.7637 18.031 20.9009 18.4325 20.9572C18.834 21.0135 19.2425 20.9878 19.634 20.8817C19.7912 20.8701 19.949 20.8701 20.1061 20.8817C19.6252 21.4058 19.0396 21.821 18.3879 22.1C16.2823 23.2039 13.9169 23.7039 11.5493 23.5456C9.18161 23.3872 6.90235 22.5766 4.95956 21.2019C4.8512 21.116 4.54935 20.8505 4.2475 20.6162C4.37907 20.6162 5.02146 20.3351 5.13756 20.3585C7.0183 20.7724 7.71488 20.0696 8.04768 18.289C8.1021 17.6263 8.1021 16.9602 8.04768 16.2975C8.08638 16.2975 8.82165 16.7036 8.82165 16.7193C9.94482 17.4529 11.2642 17.8209 12.6013 17.7734C13.9385 17.7259 15.2289 17.2653 16.2982 16.4537Z" fill="white"/>
<path d="M21.7624 4.90352C21.7624 4.80981 21.7624 4.74733 21.8708 4.70048C21.6379 4.36296 21.3791 4.04439 21.0968 3.74771C19.6335 2.39032 17.8736 1.40009 15.9601 0.857337C14.0465 0.314589 12.0331 0.234611 10.0832 0.623888C8.22648 0.901975 6.46941 1.64875 4.97504 2.79494C4.28355 3.202 3.67013 3.73103 3.16396 4.35685C2.99242 4.49766 2.82958 4.64893 2.67636 4.80981C0.803577 7.09723 -0.0952409 10.0399 0.176456 12.9942C0.383044 15.4226 1.41045 17.7055 3.08656 19.4605C2.87133 18.9236 2.79672 18.3398 2.86992 17.7653C2.94312 17.1908 3.16167 16.6451 3.50451 16.1805C4.03263 15.7817 4.62051 15.4706 5.24593 15.259C6.09012 15.2011 6.93375 15.3795 7.68392 15.7744C6.13599 13.8064 5.74901 11.6432 6.90996 9.38621C7.60236 8.09539 8.72305 7.09176 10.0755 6.55134C11.6632 5.99504 13.3979 6.04505 14.9515 6.69191C15.8942 7.14872 16.7405 7.78517 17.4437 8.5662C17.5443 8.5662 19.8197 9.04259 20.8181 8.18354C21.2987 7.80748 21.6488 7.28757 21.8184 6.69834C21.9881 6.1091 21.9684 5.48081 21.7624 4.90352Z" fill="white"/>
<path d="M3.05565 19.3667C2.88301 19.0321 2.78026 18.6653 2.75379 18.289C2.71629 17.8538 2.77923 17.4158 2.93769 17.0093C3.09615 16.6028 3.3458 16.2389 3.66706 15.9461C4.4382 15.3952 5.38247 15.148 6.32179 15.2511C6.80673 15.297 7.27274 15.4638 7.67801 15.7365C8.08328 16.0091 8.41511 16.379 8.6437 16.813C8.87056 17.3555 8.92727 17.9551 8.80622 18.5311C8.70399 19.1165 8.43506 19.6592 8.03225 20.093C7.57204 20.5085 7.00192 20.7798 6.39145 20.8739C5.5528 21.0245 4.6888 20.8457 3.97665 20.3741C3.59113 20.1211 3.27452 19.7748 3.05565 19.3667Z" fill="#F2F2F2"/>
<path d="M40.4615 12.9629C40.0423 12.4664 39.5116 12.0781 38.9135 11.8306C38.2893 11.5738 37.6218 11.4412 36.9477 11.4401C36.1816 11.4285 35.4211 11.5719 34.7109 11.8618C34.0651 12.123 33.4801 12.5166 32.9927 13.0176C32.515 13.511 32.1389 14.0949 31.8859 14.7357C31.6255 15.4101 31.4942 16.1283 31.499 16.8521C31.4965 17.5337 31.6226 18.2095 31.8705 18.8435C32.1134 19.4595 32.4766 20.0199 32.9385 20.4913C33.4312 20.98 34.0152 21.365 34.6567 21.6237C35.3967 21.9126 36.1854 22.0532 36.9786 22.0376C37.7433 22.0559 38.5015 21.8928 39.1922 21.5613C39.8197 21.2517 40.37 20.8032 40.802 20.2493L42.4738 21.3973C42.2931 21.6075 42.0992 21.8057 41.8933 21.9908C41.5586 22.2901 41.1927 22.552 40.802 22.7717C40.2804 23.0561 39.7304 23.2838 39.1612 23.4512C38.4386 23.6557 37.6903 23.753 36.9399 23.7401C35.8656 23.7549 34.7994 23.5503 33.8054 23.1388C32.925 22.7741 32.1214 22.2441 31.437 21.5769C30.7964 20.9478 30.286 20.1965 29.9355 19.3668C29.5998 18.5823 29.4235 17.7378 29.417 16.8833C29.4071 15.9047 29.5968 14.9344 29.9742 14.0328C30.3319 13.1817 30.8587 12.4135 31.5222 11.7759C32.2163 11.1252 33.0356 10.6254 33.9292 10.3077C34.9213 9.94498 35.9699 9.76511 37.0251 9.77664C37.9939 9.77848 38.955 9.95024 39.8655 10.2843C40.7502 10.5918 41.5381 11.1308 42.1487 11.8462L40.4615 12.9629Z" fill="white"/>
<path d="M46.1657 19.5541C46.1612 19.9271 46.2576 20.2943 46.4443 20.6162C46.6338 20.9246 46.884 21.1905 47.1796 21.3972C47.4998 21.6283 47.8554 21.805 48.2322 21.9204C48.6331 22.0459 49.0507 22.1091 49.4705 22.1079C49.9965 22.1189 50.5165 21.9925 50.9797 21.7408C51.4219 21.4853 51.8193 21.1581 52.1561 20.7724L53.557 21.7486C53.0168 22.3619 52.3467 22.8446 51.5964 23.161C50.8461 23.4773 50.0349 23.6192 49.2228 23.576C48.508 23.5835 47.7977 23.4619 47.1254 23.2168C46.5348 23.0029 45.9946 22.6678 45.5387 22.2328C45.1017 21.8168 44.7586 21.3107 44.5326 20.749C44.2969 20.1612 44.1786 19.5322 44.1843 18.8981C44.1775 18.2608 44.3068 17.6296 44.5635 17.0473C44.8101 16.4852 45.1683 15.9801 45.6161 15.5634C46.0823 15.1324 46.6262 14.7957 47.2183 14.5716C47.8651 14.3325 48.5495 14.2135 49.2383 14.2202C49.9946 14.1954 50.7472 14.3366 51.4441 14.6341C52.0063 14.8808 52.5082 15.2487 52.9146 15.7118C53.2952 16.1477 53.5824 16.6582 53.7583 17.2113C53.9273 17.7627 54.0134 18.3366 54.0137 18.9137V19.5151L46.1657 19.5541ZM52.0323 18.2031C52.0192 17.8484 51.9513 17.498 51.8311 17.1644C51.715 16.868 51.5353 16.6013 51.3048 16.3835C51.0553 16.1403 50.7571 15.9539 50.4302 15.8368C50.035 15.6976 49.6181 15.6315 49.1996 15.6415C48.773 15.6364 48.3496 15.716 47.9535 15.8758C47.598 16.0152 47.2722 16.222 46.9938 16.485C46.7411 16.7235 46.5339 17.0067 46.3824 17.3206C46.2414 17.6043 46.1672 17.917 46.1657 18.2343L52.0323 18.2031Z" fill="white"/>
<path d="M56.6529 14.478H58.5182V15.8525H58.5569C58.6847 15.6099 58.8522 15.3908 59.0522 15.2043C59.2602 15.0093 59.4916 14.8414 59.741 14.7045C60.008 14.5672 60.2881 14.4573 60.5769 14.3765C60.8754 14.2996 61.1822 14.2603 61.4902 14.2594C61.7701 14.2536 62.0493 14.2905 62.3183 14.3687L62.2332 16.1883L61.7766 16.0946C61.6272 16.083 61.4771 16.083 61.3277 16.0946C60.5675 16.0389 59.8163 16.2887 59.238 16.7897C58.9778 17.0798 58.7796 17.421 58.6558 17.7918C58.5319 18.1626 58.4851 18.5552 58.5182 18.9451V23.42H56.6529V14.478Z" fill="white"/>
<path d="M69.9575 15.9461H67.295V19.9837C67.295 20.2336 67.295 20.4835 67.295 20.7256C67.3071 20.9544 67.3595 21.1792 67.4498 21.3894C67.5457 21.5801 67.6899 21.7418 67.8677 21.858C68.1173 21.9916 68.3983 22.0537 68.6804 22.0376C68.9088 22.0358 69.1366 22.0149 69.3615 21.9751C69.5857 21.9455 69.8031 21.8768 70.0039 21.7721V23.334C69.7343 23.4649 69.443 23.5444 69.1448 23.5683C68.8756 23.6087 68.6042 23.6321 68.3321 23.6385C67.7647 23.6638 67.1983 23.5707 66.6681 23.3652C66.319 23.2185 66.0184 22.9747 65.8012 22.6624C65.6166 22.3703 65.5026 22.0386 65.4684 21.694C65.4684 21.3347 65.422 20.9755 65.422 20.6084V15.9696H63.2936V14.4779H65.4452V11.9789H67.3027V14.4779H69.9652L69.9575 15.9461Z" fill="white"/>
<path d="M72.4728 11.2839C72.4735 11.1179 72.5107 10.954 72.5816 10.8041C72.6525 10.6542 72.7555 10.522 72.883 10.4171C73.1428 10.1724 73.4875 10.0406 73.8428 10.05C74.1979 10.0414 74.5422 10.1732 74.8025 10.4171C74.9278 10.5235 75.0288 10.6561 75.0982 10.8058C75.1677 10.9555 75.2042 11.1187 75.205 11.2839C75.2048 11.4505 75.1686 11.6149 75.0991 11.766C75.0296 11.917 74.9284 12.051 74.8025 12.1586C74.5422 12.4025 74.1979 12.5342 73.8428 12.5257C73.4875 12.5351 73.1428 12.4033 72.883 12.1586C72.7549 12.0524 72.6516 11.919 72.5807 11.7677C72.5097 11.6165 72.4729 11.4513 72.4728 11.2839ZM72.914 14.478H74.7715V23.3887H72.914V14.478Z" fill="white"/>
<path d="M78.8581 15.9461H76.7529V14.4779H78.8581V12.4865C78.7911 11.5363 79.0659 10.5936 79.632 9.83126C79.9768 9.50641 80.3868 9.26017 80.8341 9.10925C81.2815 8.95834 81.7558 8.90627 82.2248 8.95659H82.875C83.136 8.96576 83.3954 9.0024 83.6489 9.06592L83.4168 10.5732C83.2509 10.515 83.0798 10.4731 82.9059 10.4482C82.7257 10.4319 82.5444 10.4319 82.3642 10.4482C82.084 10.4366 81.8045 10.4845 81.5437 10.5888C81.3451 10.6726 81.1754 10.8139 81.0562 10.9949C80.9335 11.1823 80.8565 11.3964 80.8317 11.6196C80.7921 11.8963 80.7739 12.1757 80.7775 12.4553V14.4779H82.9833V15.9461H80.7543V23.3886H78.8968L78.8581 15.9461Z" fill="white"/>
<path d="M85.135 11.2839C85.1358 11.1187 85.1722 10.9555 85.2417 10.8058C85.3112 10.6561 85.4121 10.5235 85.5374 10.4171C85.7977 10.1732 86.1421 10.0414 86.4972 10.05C86.8524 10.0406 87.1971 10.1724 87.4569 10.4171C87.5834 10.5224 87.6852 10.6549 87.7548 10.8048C87.8244 10.9547 87.8601 11.1184 87.8593 11.2839C87.8613 11.4508 87.8261 11.616 87.7565 11.7674C87.6868 11.9187 87.5845 12.0524 87.4569 12.1586C87.1971 12.4033 86.8524 12.5351 86.4972 12.5257C86.1421 12.5342 85.7977 12.4025 85.5374 12.1586C85.4115 12.051 85.3103 11.917 85.2408 11.766C85.1713 11.6149 85.1352 11.4505 85.135 11.2839ZM85.5684 14.478H87.4259V23.3887H85.5684V14.478Z" fill="white"/>
<path d="M92.2013 19.5542C92.1969 19.9272 92.2932 20.2944 92.4799 20.6163C92.6806 20.9286 92.9443 21.1947 93.2539 21.3973C93.5742 21.6284 93.9297 21.8051 94.3065 21.9205C94.7075 22.046 95.125 22.1092 95.5448 22.1079C96.0706 22.1169 96.59 21.9906 97.0541 21.7409C97.4962 21.4854 97.8937 21.1582 98.2305 20.7725L99.6314 21.7487C99.0912 22.362 98.4211 22.8447 97.6708 23.161C96.9205 23.4774 96.1092 23.6193 95.2972 23.5761C94.5824 23.5836 93.872 23.462 93.1997 23.2169C92.6077 23.0013 92.0652 22.6665 91.6053 22.2329C91.1731 21.8144 90.8329 21.3088 90.6069 20.7491C90.3713 20.1613 90.2529 19.5323 90.2586 18.8982C90.2518 18.2609 90.3811 17.6296 90.6379 17.0473C90.8844 16.4853 91.2427 15.9802 91.6905 15.5635C92.1566 15.1325 92.7005 14.7958 93.2926 14.5717C93.9394 14.3326 94.6238 14.2136 95.3126 14.2203C96.0689 14.1962 96.8214 14.3374 97.5184 14.6342C98.0807 14.8809 98.5826 15.2487 98.989 15.7119C99.37 16.1462 99.6549 16.6573 99.8249 17.2113C100 17.7615 100.089 18.336 100.088 18.9138V19.5152L92.2013 19.5542ZM98.068 18.2032C98.0548 17.8485 97.9869 17.4981 97.8667 17.1645C97.7507 16.8681 97.5709 16.6014 97.3404 16.3835C97.0909 16.1404 96.7927 15.954 96.4658 15.8369C96.0704 15.6984 95.6537 15.6322 95.2352 15.6416C94.8087 15.6365 94.3853 15.7161 93.9892 15.8759C93.6336 16.0153 93.3079 16.2221 93.0294 16.4851C92.7768 16.7236 92.5695 17.0068 92.418 17.3207C92.277 17.6044 92.2029 17.9171 92.2013 18.2344L98.068 18.2032Z" fill="white"/>
<path d="M112.502 23.3888H110.645V22.108H110.598C110.216 22.6042 109.708 22.9873 109.128 23.2169C108.516 23.4796 107.858 23.6151 107.193 23.6152C106.493 23.6229 105.798 23.5011 105.142 23.256C104.563 23.0339 104.036 22.6935 103.594 22.2564C103.162 21.8361 102.82 21.3312 102.588 20.7725C102.351 20.1906 102.232 19.5664 102.24 18.9373C102.234 18.3032 102.352 17.6743 102.588 17.0864C102.818 16.5267 103.16 16.0214 103.594 15.6026C104.041 15.173 104.567 14.836 105.142 14.6108C105.799 14.3683 106.494 14.2492 107.193 14.2594C107.873 14.2547 108.548 14.3902 109.174 14.6577C109.74 14.8869 110.232 15.2677 110.598 15.7588H110.645V9.18317H112.502V23.3888ZM107.425 22.0377C107.883 22.0454 108.338 21.9631 108.764 21.7956C109.14 21.6543 109.485 21.4393 109.778 21.163C110.055 20.8863 110.272 20.5537 110.413 20.1868C110.57 19.7895 110.649 19.3651 110.645 18.9373C110.649 18.5095 110.571 18.0849 110.413 17.6878C110.274 17.3199 110.057 16.9869 109.778 16.7116C109.487 16.4301 109.142 16.2121 108.764 16.0712C108.336 15.91 107.882 15.8305 107.425 15.8369C106.966 15.8298 106.509 15.9092 106.079 16.0712C105.701 16.2121 105.355 16.4301 105.065 16.7116C104.786 16.9869 104.569 17.3199 104.43 17.6878C104.272 18.0849 104.193 18.5095 104.198 18.9373C104.194 19.3651 104.273 19.7895 104.43 20.1868C104.571 20.5537 104.787 20.8863 105.065 21.163C105.358 21.4393 105.703 21.6543 106.079 21.7956C106.503 21.962 106.955 22.0442 107.41 22.0377H107.425Z" fill="white"/>
</svg>
