<svg width="164" height="29" viewBox="0 0 164 29" fill="none" xmlns="http://www.w3.org/2000/svg">
<path d="M15.9635 27.3846C11.1533 26.7545 6.42747 25.6305 1.61724 24.8301C0.916802 24.7109 0.89152 24.3021 0.967471 23.7401C1.58352 18.9887 2.21642 14.2372 2.79027 9.47721C2.78123 9.26177 2.81455 9.04666 2.88824 8.84426C2.96193 8.64186 3.07458 8.45616 3.21969 8.29787C3.3648 8.13958 3.53949 8.01182 3.73374 7.92194C3.92799 7.83206 4.13796 7.78184 4.35152 7.77417C4.94774 7.73528 5.51109 7.48487 5.94197 7.06724C6.37285 6.64961 6.6435 6.09167 6.70598 5.49211C6.96905 4.56945 7.39815 3.70351 7.97183 2.93756C10.1997 -0.46851 13.6682 0.57885 15.5669 3.18449C15.7241 3.45059 15.9522 3.66675 16.2253 3.80828C16.4984 3.94981 16.8054 4.01102 17.1113 3.98492C17.1113 5.24517 16.9087 6.53947 16.8665 7.74863C16.7231 14.3138 16.3433 20.8535 15.9635 27.3846ZM5.12789 19.5677C5.12789 20.4958 4.07301 21.2707 4.85784 22.2415C6.08149 23.7401 9.53306 23.8849 10.9424 22.5735C11.3454 22.1969 11.6707 21.7437 11.8995 21.2398C12.1283 20.7359 12.2562 20.1914 12.2758 19.6375C12.2954 19.0836 12.2064 18.5312 12.0137 18.0122C11.8211 17.4931 11.5287 17.0176 11.1534 16.6129C10.5947 16.1066 10.0087 15.6319 9.39802 15.1909C8.97608 14.8333 8.5541 14.4501 8.79039 13.7859C8.89555 13.5241 9.0854 13.3059 9.329 13.1668C9.57261 13.0277 9.85567 12.9758 10.1322 13.0195C10.5818 12.9804 11.0346 13.0296 11.4656 13.1643C12.1998 13.4708 12.453 13.1132 12.6302 12.5086C12.7325 12.0626 12.8737 11.6267 13.0521 11.2058C13.4066 10.4309 13.1449 10.1329 12.3517 10.0051C10.9598 9.73678 9.51873 9.95609 8.26718 10.6268C7.60961 10.9441 7.04252 11.4244 6.61883 12.0229C6.19514 12.6214 5.9287 13.3184 5.84441 14.049C5.76013 14.7795 5.86076 15.5197 6.13687 16.2004C6.41298 16.8811 6.85554 17.48 7.42328 17.9413C7.72003 18.1482 8.00203 18.3758 8.26718 18.6225C8.68913 19.0994 8.97609 19.6528 8.52039 20.2574C8.35169 20.4853 8.10309 20.6395 7.82545 20.6886C7.5478 20.7376 7.26207 20.6778 7.02667 20.5214C6.4275 20.2148 5.84521 19.8828 5.12789 19.5677ZM11.5078 1.91573C9.44022 2.11158 8.57942 3.71244 7.84523 5.42399C7.68489 5.79014 7.20389 6.27551 7.71867 6.6076C8.0056 6.76939 8.56257 6.47136 8.98452 6.34363C9.40647 6.2159 9.44023 5.81569 9.51618 5.49211C9.83952 4.13709 10.5289 2.89908 11.5078 1.91573ZM10.6132 5.85826L12.4698 5.24516C13.2715 5.00674 12.9171 4.39365 12.934 3.86571C12.934 3.5251 12.934 3.01419 12.5795 2.95458C12.0901 2.83537 11.8116 3.30371 11.5415 3.65283C11.0069 4.26927 10.6817 5.04203 10.6132 5.85826ZM13.6851 2.45219C13.9973 3.38034 13.5585 4.15522 14.3095 4.6491C14.4361 4.72574 14.9171 4.52989 14.934 4.41068C15.0353 3.56768 14.5711 3.06528 13.6851 2.43515V2.45219Z" fill="#F2F2F2"/>
<path d="M15.9635 27.3846C16.3432 20.8534 16.7146 14.3138 16.9171 7.79966C16.9171 6.55644 17.1703 5.2962 17.1619 4.03595C18.3349 4.7938 19.2969 5.97742 20.9341 5.7986C21.4911 5.73899 21.4236 6.35207 21.4742 6.71822C22.38 12.7981 23.2773 18.8836 24.1662 24.9748C24.2169 25.375 24.3603 25.7667 23.7443 25.8859C21.1451 26.3287 18.6133 27.1632 15.9635 27.3846Z" fill="white"/>
<path d="M64.9181 12.3553C66.2177 11.1717 67.6946 10.6523 69.3318 11.5038C70.9689 12.3553 71.1292 13.8029 71.1377 15.3782C71.186 16.5945 70.9693 17.8068 70.5027 18.9294C70.0361 20.052 69.331 21.0576 68.4372 21.8752C67.808 22.4659 67.0402 22.8852 66.2061 23.0938C65.3719 23.3024 64.4989 23.2933 63.6692 23.0674C63.0447 22.9226 62.9012 23.0674 62.8253 23.5953C62.6987 24.2936 62.5552 24.9833 62.4286 25.673C62.0657 27.5549 61.0784 28.1509 59.2724 27.6571C58.4707 27.4357 58.9265 26.9588 58.994 26.5927C59.7451 22.4202 60.5214 18.2478 61.2809 14.0839C61.3569 13.6837 61.4075 13.2834 61.4582 12.8832C61.51 12.5576 61.6405 12.2498 61.8381 11.987C62.0357 11.7243 62.2944 11.5147 62.5913 11.3767C62.8882 11.2387 63.2141 11.1765 63.5405 11.1957C63.8668 11.2149 64.1835 11.3148 64.4624 11.4867C64.5806 11.5634 64.5552 11.8614 64.589 12.0658C64.4793 12.2787 64.3865 12.5086 64.589 12.6789C64.6396 12.6533 64.8253 12.449 64.9181 12.3553ZM67.7368 15.821C67.6861 15.0546 67.6946 14.2201 66.7832 13.9647C65.8718 13.7092 65.357 14.2627 64.9013 14.8928C64.1999 16.0608 63.7969 17.3862 63.7283 18.7502C63.6354 19.3292 63.1037 20.036 63.9645 20.4532C64.3269 20.6441 64.7457 20.6959 65.143 20.5988C65.5404 20.5017 65.8892 20.2624 66.1249 19.9253C67.1028 18.778 67.6704 17.3326 67.7368 15.821Z" fill="white"/>
<path d="M42.04 12.2189C43.1202 11.8273 43.9472 11.112 45.0443 11.0609C46.7321 10.9842 47.9051 11.9124 47.9557 13.5729C48.0486 16.5872 47.2131 19.4824 46.5548 22.3605C46.2679 23.5867 44.7067 22.8714 43.7615 22.8629C42.8164 22.8544 43.3987 22.0114 43.4662 21.5516C43.7616 19.7123 44.192 17.8901 44.4873 16.0508C44.6139 15.3014 44.9515 14.3477 43.9472 13.9305C42.943 13.5133 42.3607 14.3307 41.9219 15.0886C40.867 16.9278 40.8332 19.0481 40.4029 21.0492C40.3622 21.4172 40.2353 21.7702 40.0326 22.0789C39.83 22.3876 39.5574 22.6432 39.2375 22.8246C38.9175 23.006 38.5594 23.1079 38.1927 23.122C37.826 23.136 37.4612 23.0618 37.1285 22.9055C36.5969 22.7011 36.8163 22.352 36.8754 22.054C37.7924 17.1492 38.7207 12.2417 39.6602 7.33124C40.04 5.3472 41.5674 6.39457 42.521 6.36903C43.6941 6.32645 42.9177 7.28867 42.8417 7.79106C42.597 9.25567 42.3016 10.6607 42.04 12.2189Z" fill="white"/>
<path d="M89.906 18.2222C90.5558 16.5192 91.3068 14.8161 91.8385 13.045C92.2436 11.6655 92.9187 11.0184 94.3702 11.2909C94.8054 11.3291 95.243 11.3291 95.6782 11.2909C95.9398 11.8018 95.636 12.1424 95.4673 12.483C93.7795 16.0168 92.3533 19.6953 90.3364 23.0759C89.2224 24.9492 87.965 26.7374 85.8974 27.6741C85.4249 27.8869 84.6063 28.7129 84.4038 27.5293C84.2603 26.6778 82.8257 25.673 84.5556 24.9747C85.2398 24.6614 85.8585 24.2192 86.3785 23.6719C86.7361 23.3652 86.9998 22.9621 87.1388 22.5097C87.2778 22.0574 87.2863 21.5744 87.1633 21.1174C86.5388 18.3584 86.1337 15.557 85.5852 12.781C85.3911 11.7592 85.4164 11.2227 86.7329 11.2994C88.8005 11.4186 88.8173 11.2994 89.0621 13.4367C89.1533 15.032 89.3507 16.6194 89.6528 18.1881C89.6528 18.1881 89.7372 18.1796 89.906 18.2222Z" fill="white"/>
<path d="M48.7321 18.4524C48.7743 14.5099 51.2639 11.4274 54.7154 11.1123C55.7972 10.9269 56.9077 11.181 57.8043 11.8193C58.7009 12.4575 59.3107 13.4279 59.5003 14.5184C60.4793 18.6397 57.4243 23.0336 53.5171 23.1868C50.479 23.289 48.7068 21.4923 48.7321 18.4524ZM56.2766 15.8978C56.2766 14.9612 56.1247 14.0756 55.1205 13.7861C54.1162 13.4966 53.5846 14.1522 53.1626 14.8505C52.3863 16.0967 52.0365 17.5654 52.1668 19.0314C52.1656 19.3896 52.2816 19.7381 52.4967 20.0229C52.7119 20.3078 53.0142 20.513 53.3567 20.6067C53.6847 20.6683 54.0236 20.6251 54.3262 20.4832C54.6287 20.3412 54.8798 20.1076 55.0445 19.8148C55.8055 18.6331 56.2316 17.2638 56.2766 15.8553V15.8978Z" fill="white"/>
<path d="M79.0788 22.9567C77.1462 22.9567 77.1547 22.9567 77.5091 21.1259C77.9142 18.9971 78.3024 16.8683 78.699 14.7225C78.7581 14.416 79.0366 14.0243 78.4543 13.871C77.9986 13.7603 77.1547 14.0328 77.5513 13.0195C77.8129 12.3468 77.3319 11.1035 78.8003 11.2568C79.5935 11.342 79.4248 10.6608 79.5513 10.218C80.3952 7.23766 82.083 5.86672 84.9607 6.05405C85.4755 6.05405 86.4207 5.8582 86.1253 6.85448C85.9228 7.54421 86.446 8.89812 84.9185 8.78743C84.5185 8.73196 84.1117 8.8167 83.7661 9.02747C83.4205 9.23825 83.157 9.5623 83.0198 9.94549C82.6147 10.797 82.5472 11.376 83.7961 11.2909C84.1168 11.2909 84.9101 10.9418 84.7244 11.7592C84.5388 12.5767 85.0451 13.8454 83.7708 13.7518C82.159 13.6411 82.0239 14.5096 81.8467 15.6932C81.5514 17.5836 81.0028 19.4484 80.8003 21.3473C80.6568 22.6757 80.218 23.2888 79.0788 22.9567Z" fill="white"/>
<path d="M30.9006 23.1526C30.4391 23.1235 29.9798 23.0666 29.5251 22.9823C27.9216 22.6247 27.5925 21.6369 28.5799 20.3256C28.7234 20.1383 28.8499 20.0446 29.0525 20.0957C29.255 20.1468 29.4154 20.283 29.601 20.3256C30.6475 20.5811 31.9386 21.2793 32.5631 19.985C33.1876 18.6907 31.7192 18.3841 30.985 17.8392C28.5715 16.1361 28.7402 13.0707 31.3732 11.7253C32.8467 11.0545 34.5056 10.9221 36.0653 11.3506C36.6729 11.4783 37.002 11.8615 36.6054 12.4235C36.2087 12.9855 36.7151 14.1266 35.4155 13.837C35.0791 13.741 34.7343 13.6783 34.3859 13.6497C33.7277 13.6497 33.0019 13.5731 32.6981 14.3224C32.3943 15.0717 33.0948 15.4634 33.618 15.8211C35.8796 17.3368 36.5125 18.4608 36.0231 20.1723C35.483 22.0882 33.7277 23.1697 30.9006 23.1526Z" fill="white"/>
<path d="M108.193 15.1568C108.151 17.32 107.346 19.3971 105.923 21.0153C104.59 22.5651 102.944 23.391 100.86 22.8461C100.1 22.6417 99.6868 22.7268 99.6108 23.6976C99.5349 24.6683 99.2311 25.7838 99.0707 26.8312C99.0706 26.9336 99.0463 27.0345 99 27.1257C98.9536 27.2168 98.8865 27.2955 98.8041 27.3554C98.7217 27.4153 98.6264 27.4545 98.5261 27.47C98.4257 27.4854 98.3231 27.4766 98.2268 27.4443C97.6361 27.3591 97.8893 26.9078 97.9399 26.5927C98.7838 21.671 99.7205 16.7577 100.59 11.8359C100.666 11.3846 100.851 11.2314 101.273 11.2569C101.695 11.2824 101.704 11.5294 101.653 11.8785C101.484 13.1047 101.974 12.8067 102.564 12.2617L102.674 12.168C103.847 11.2143 105.155 10.7204 106.581 11.4187C108.008 12.1169 108.202 13.4708 108.193 15.1568ZM107.062 14.944C107.003 13.8625 106.919 12.7471 105.788 12.2362C104.657 11.7252 103.653 12.3043 102.826 13.0877C102.265 13.6632 101.805 14.3314 101.467 15.0632C100.881 16.5101 100.495 18.0315 100.32 19.5847C99.9568 21.4325 100.894 22.267 102.767 21.7902C103.594 21.5635 104.333 21.0883 104.885 20.4277C106.202 18.8994 106.969 16.9671 107.062 14.944ZM101.577 12.8833L101.67 13.0706C101.67 13.0706 101.763 12.994 101.754 12.977C101.737 12.9075 101.708 12.8413 101.67 12.7811L101.577 12.8833Z" fill="white"/>
<path d="M72.8339 22.9143C71.2305 23.3741 71.1461 22.5226 71.4499 21.2623C72.0575 18.3075 72.6145 15.3017 73.1377 12.3725C73.509 10.3458 75.045 11.4188 75.9986 11.3677C77.1041 11.3166 76.4627 12.3639 76.3783 12.8408C75.8804 15.7104 75.1969 18.5545 74.7749 21.4411C74.5977 22.761 74.1082 23.2123 72.8339 22.9143Z" fill="white"/>
<path d="M115.459 21.0153C114.615 21.7305 113.966 22.6161 112.818 22.8716C111.046 23.2718 109.847 22.6842 109.265 21.0068C107.577 16.1276 112.43 10.3032 117.459 11.1462C118.261 11.2824 118.447 11.5634 118.303 12.3128C117.696 15.5826 116.759 18.8098 116.818 22.1733C116.818 22.5906 116.742 22.8545 116.261 22.8631C115.78 22.8716 115.662 22.6502 115.662 22.2159C115.662 21.7816 115.814 21.424 115.459 21.0153ZM110.176 19.2611C110.176 20.1127 110.176 21.2792 111.4 21.7476C112.624 22.2159 113.4 21.441 114.185 20.7087C114.462 20.4153 114.711 20.096 114.928 19.755C116.236 17.9243 116.48 15.7444 116.86 13.6156C117.155 11.9892 117.012 11.8529 115.324 12.0914C112.565 12.4916 110.244 15.6252 110.193 19.2611H110.176Z" fill="white"/>
<path d="M134.869 13.0704C135.907 12.1678 136.725 11.3673 137.932 11.163C139.671 10.9075 140.987 11.8187 141.004 13.5813C141.004 16.5786 140.093 19.4482 139.662 22.386C139.595 22.8628 139.249 22.9224 138.877 22.8543C138.312 22.7521 138.565 22.2923 138.616 22.0028C138.937 20.1635 139.308 18.3328 139.637 16.502C139.781 15.7574 139.871 15.0033 139.907 14.2455C139.907 12.304 138.565 11.5206 136.886 12.5424C136.14 13.0147 135.505 13.6444 135.025 14.3883C134.544 15.1322 134.229 15.9724 134.101 16.8511C133.763 18.5542 133.476 20.2572 133.198 21.9602C133.114 22.4882 133.088 23.0757 132.354 22.9054C131.62 22.7351 132.05 22.1135 132.118 21.7048C132.649 18.5627 133.206 15.4376 133.747 12.2955C133.831 11.8101 133.747 11.18 134.514 11.3333C135.282 11.4866 134.725 12.0571 134.785 12.4317C134.785 12.5084 134.793 12.6531 134.869 13.0704Z" fill="white"/>
<path d="M142.464 17.5496C142.552 16.3937 142.893 15.2716 143.46 14.2634C144.027 13.2552 144.808 12.3857 145.747 11.7168C146.258 11.299 146.883 11.0457 147.539 10.9895C148.194 10.9333 148.852 11.0769 149.426 11.4017C149.845 11.6401 150.18 12.0044 150.385 12.444C150.589 12.8836 150.652 13.3765 150.565 13.8541C150.43 15.3612 149.426 16.1446 148.143 16.63C147.059 17.0145 145.917 17.2047 144.768 17.192C143.924 17.192 143.578 17.4645 143.595 18.4182C143.645 21.3304 145.097 22.4203 147.89 21.5007C148.304 21.373 148.734 20.9472 148.979 21.6455C149.224 22.3437 148.565 22.2926 148.262 22.4033C145.063 23.5784 142.346 22.4374 142.464 17.5496ZM145.088 16.1702C146.221 16.2116 147.344 15.9532 148.346 15.4209C148.577 15.3191 148.784 15.1704 148.955 14.9842C149.126 14.7979 149.257 14.5781 149.341 14.3384C149.424 14.0986 149.457 13.8442 149.438 13.5909C149.42 13.3377 149.349 13.091 149.232 12.8663C148.709 11.8189 147.637 11.8871 146.7 12.3043C145.392 12.9004 144.742 14.1095 144.169 15.3698C143.797 16.2043 144.152 16.3235 145.105 16.1702H145.088Z" fill="white"/>
<path d="M129.949 8.69385C129.789 9.67309 129.687 10.3969 129.544 11.2484C130.194 11.2484 130.81 11.2484 131.434 11.2484C131.704 11.2484 132.093 11.1547 132.008 11.6657C131.966 11.9807 131.873 12.3213 131.477 12.2276C129.046 11.6486 129.046 13.4027 128.793 14.9866C128.54 16.5704 128.177 18.3926 127.898 20.0531C127.738 21.0238 127.738 21.952 129.139 21.8498C129.417 21.8498 129.662 21.8498 129.679 22.1989C129.696 22.548 129.519 22.7184 129.164 22.812C128.879 22.9153 128.573 22.9449 128.274 22.8981C127.974 22.8514 127.691 22.7298 127.451 22.5444C127.21 22.359 127.019 22.1157 126.895 21.8367C126.771 21.5577 126.719 21.2519 126.742 20.9472C126.742 18.5033 127.527 16.1702 127.898 13.7859C128 13.0792 128.548 12.0829 127.054 12.2191C126.759 12.2191 126.641 12.0318 126.7 11.7167C126.759 11.4017 126.869 11.1973 127.173 11.2569C128.379 11.4868 128.607 10.7715 128.649 9.7923C128.666 9.13663 129.257 9.10258 129.949 8.69385Z" fill="white"/>
<path d="M158.844 22.812C158.216 22.8482 157.591 22.7067 157.038 22.4033C156.751 22.2756 156.574 22.0797 156.793 21.6965C157.013 21.3134 157.08 21.1941 157.46 21.4155C157.727 21.5576 158.011 21.6663 158.304 21.7391C158.83 21.9298 159.407 21.9209 159.927 21.7141C160.447 21.5073 160.875 21.1167 161.131 20.6151C161.421 20.132 161.525 19.5583 161.424 19.0028C161.323 18.4472 161.024 17.9484 160.583 17.6007C160.11 17.1494 159.528 16.8173 159.089 16.349C158.557 15.8353 158.236 15.1389 158.189 14.3977C158.142 13.6565 158.373 12.9246 158.836 12.3469C159.341 11.7467 160.018 11.3201 160.774 11.1263C161.53 10.9325 162.328 10.9811 163.055 11.2654C163.325 11.4102 163.587 11.5379 163.418 11.9381C163.249 12.3384 163.072 12.4576 162.625 12.2702C162.259 12.0982 161.857 12.0191 161.454 12.0399C161.051 12.0607 160.659 12.1807 160.312 12.3894C158.928 13.241 159.03 14.944 160.591 16.1021C161.848 17.0728 162.844 18.1372 162.532 19.8998C162.22 21.6625 160.929 22.812 158.844 22.812Z" fill="white"/>
<path d="M157.384 11.64C157.291 11.8955 157.274 12.1509 156.962 12.2276C154.431 12.8407 153.865 15.0035 153.342 17.1068C152.937 18.7161 152.701 20.3681 152.43 22.0115C152.346 22.5054 152.287 22.9311 151.654 22.863C150.81 22.7608 151.283 22.1988 151.342 21.8327C151.89 18.5543 152.481 15.2845 153.03 11.9977C153.106 11.5549 153.114 11.1461 153.688 11.2568C154.262 11.3675 153.806 11.7933 153.924 12.0488C154.042 12.3042 153.798 12.5767 154.11 12.7044C154.422 12.8322 154.65 12.5171 154.836 12.3042C155.077 11.9821 155.384 11.7164 155.737 11.5254C156.089 11.3343 156.478 11.2224 156.878 11.1972C157.182 11.1887 157.511 11.1802 157.384 11.64Z" fill="white"/>
<path d="M121.772 13.1899C122.692 12.6023 123.097 11.5975 124.033 11.3421C124.438 11.2314 125.071 10.7971 125.282 11.5379C125.493 12.2788 124.86 12.134 124.438 12.2958C122.599 13.0025 121.907 14.6545 121.426 16.366C120.945 18.0776 120.801 19.7721 120.438 21.4155C120.312 21.9605 120.556 22.9908 119.594 22.8205C118.632 22.6502 119.316 21.7902 119.383 21.3389C119.856 18.299 120.413 15.2676 120.97 12.2447C121.046 11.8274 120.852 11.027 121.687 11.2825C122.346 11.4783 121.983 11.9296 121.755 12.3384C121.637 12.5087 121.746 12.7897 121.772 13.1899Z" fill="white"/>
<path d="M75.4162 10.0478C75.2045 10.0565 74.9934 10.0203 74.7964 9.94174C74.5993 9.86315 74.4208 9.74384 74.2722 9.59147C74.1235 9.4391 74.0081 9.25705 73.9334 9.05701C73.8587 8.85697 73.8262 8.64337 73.8382 8.42992C73.8208 8.17674 73.8553 7.92266 73.9395 7.68352C74.0237 7.44438 74.1558 7.2253 74.3276 7.03995C74.4994 6.85461 74.7072 6.70696 74.9381 6.60622C75.169 6.50547 75.4179 6.45379 75.6694 6.45439C75.8976 6.42701 76.129 6.45221 76.3461 6.52812C76.5632 6.60402 76.7604 6.72865 76.9229 6.8926C77.0854 7.05655 77.2089 7.25556 77.2841 7.47465C77.3594 7.69374 77.3843 7.92719 77.3572 8.15743C77.3648 8.4136 77.3192 8.66854 77.2235 8.90591C77.1277 9.14328 76.9839 9.35783 76.8011 9.53582C76.6184 9.7138 76.4008 9.8513 76.1623 9.93946C75.9238 10.0276 75.6697 10.0645 75.4162 10.0478Z" fill="white"/>
</svg>
