<svg width="60" height="61" viewBox="0 0 60 61" fill="none" xmlns="http://www.w3.org/2000/svg">
<path d="M27.5864 5.19885C27.5864 5.38809 27.5864 5.64671 27.9052 5.60256C28.224 5.5584 28.099 5.29347 28.0928 5.11685C28.0865 4.94022 27.949 4.67529 28.1803 4.41666C28.3991 4.74468 28.6116 5.04746 28.8054 5.36285C28.8558 5.43688 28.9262 5.4947 29.0082 5.52938C29.0903 5.56406 29.1805 5.57414 29.2681 5.5584C29.4369 5.5584 29.4869 5.45117 29.4744 5.30608C29.4369 4.67529 29.3931 4.08234 29.3431 3.46417C29.3431 3.31278 29.2431 3.2497 29.0868 3.26231C28.9305 3.27493 28.8555 3.32539 28.868 3.4894C28.8805 3.6534 28.9055 4.51128 28.9117 4.68791C29.0555 4.90868 29.1368 4.46713 28.9117 4.68791L28.7367 4.47344C28.5304 4.14542 28.3366 3.84264 28.1115 3.49571C28.0573 3.42276 27.9805 3.37014 27.8933 3.34615C27.8062 3.32216 27.7135 3.32817 27.6301 3.36324C27.4176 3.4137 27.4676 3.59032 27.4738 3.73541C27.5239 4.22743 27.5489 4.71314 27.5864 5.19885Z" fill="white"/>
<path d="M25.3983 4.97189C25.5921 5.00973 25.8422 5.00973 25.8297 5.29359C25.8172 5.57744 25.6171 5.49544 25.4733 5.47021C25.3295 5.44498 25.0232 5.39451 25.0295 5.69729C25.0357 6.00007 25.3546 6.00638 25.5484 6.00007C25.986 6.00007 26.3298 5.7856 26.3486 5.27466C26.3673 4.76373 26.0172 4.64388 25.6234 4.53033C25.4733 4.53033 25.2795 4.48618 25.292 4.29064C25.2945 4.2517 25.3064 4.21396 25.3266 4.1807C25.3468 4.14743 25.3747 4.11965 25.408 4.09976C25.4413 4.07987 25.4788 4.06847 25.5175 4.06656C25.5561 4.06465 25.5946 4.07227 25.6296 4.08878C25.9047 4.17709 26.0485 4.03201 26.0235 3.80493C25.9985 3.57784 25.7734 3.58415 25.5921 3.58415C25.4119 3.56265 25.2302 3.60948 25.0824 3.71556C24.9345 3.82164 24.831 3.97939 24.7919 4.15817C24.7634 4.25308 24.7575 4.35345 24.7746 4.45111C24.7917 4.54877 24.8314 4.64098 24.8905 4.72025C24.9496 4.79952 25.0264 4.86362 25.1146 4.90734C25.2028 4.95106 25.3 4.97318 25.3983 4.97189Z" fill="white"/>
<path d="M16.6401 7.27423C17.0651 7.67794 17.4965 8.07533 17.9278 8.47273C18.0404 8.57996 18.1404 8.66197 18.3217 8.57366C18.4048 8.54361 18.473 8.48187 18.5116 8.40168C18.5502 8.32149 18.556 8.22924 18.528 8.14472C18.4342 7.58963 18.3654 7.02822 18.2529 6.47944C18.2529 6.34697 18.2967 6.06312 17.9779 6.15774C17.9346 6.16431 17.8933 6.18057 17.857 6.20532C17.8208 6.23006 17.7904 6.26267 17.7683 6.30076C17.7461 6.33885 17.7326 6.38146 17.7289 6.42547C17.7251 6.46948 17.7312 6.51378 17.7465 6.55513C17.8278 6.92099 17.9028 7.29316 17.9779 7.65901L17.709 7.87348C17.4715 7.55178 17.2402 7.24269 16.9901 6.90837C16.8651 6.75699 16.7213 6.82637 16.5838 6.90837C16.4462 6.99038 16.54 7.19223 16.6401 7.27423Z" fill="white"/>
<path d="M20.6222 6.41628C20.7847 6.70014 20.7034 7.28678 21.116 7.23001C21.7099 7.148 20.9848 6.63075 21.2598 6.37213C21.9663 6.89569 21.9663 6.89569 22.4414 6.75691C22.1726 6.34059 21.5161 6.15766 21.8787 5.49533C21.9788 5.30609 21.7475 5.01592 21.4786 4.9213C21.041 4.7573 20.6847 5.02223 20.3283 5.17993C20.097 5.28086 20.3283 5.53948 20.3596 5.72241C20.4184 5.96374 20.5066 6.1968 20.6222 6.41628ZM21.1973 5.35024C21.2287 5.35064 21.2596 5.35849 21.2875 5.37318C21.3153 5.38786 21.3394 5.40896 21.3576 5.43476C21.3759 5.46056 21.3879 5.49034 21.3926 5.52168C21.3973 5.55303 21.3947 5.58506 21.3849 5.61518C21.3474 5.77918 21.2098 5.83595 21.066 5.8738C21.029 5.86782 20.9935 5.85426 20.9619 5.83395C20.9302 5.81363 20.903 5.787 20.8819 5.75569C20.8609 5.72437 20.8464 5.68904 20.8393 5.65186C20.8323 5.61468 20.8328 5.57643 20.841 5.53948C20.8597 5.37547 21.0473 5.34394 21.1786 5.35024H21.1973Z" fill="white"/>
<path d="M26.7425 5.29977C26.7425 5.48901 26.7425 5.76025 27.0425 5.71609C27.3426 5.67194 27.1926 5.4007 27.2176 5.18623C27.1613 4.73836 27.0988 4.25896 27.0425 3.77955C27.0425 3.60293 27.0425 3.39477 26.7612 3.43892C26.4799 3.48308 26.555 3.69124 26.5737 3.86156C26.6237 4.33676 26.68 4.81616 26.7425 5.29977Z" fill="white"/>
<path d="M19.0531 7.19231C19.4594 8.08805 19.4907 8.09436 20.3472 7.58972C20.4972 7.50141 20.7035 7.44463 20.5972 7.20493C20.4909 6.96523 20.3034 7.11031 20.1408 7.15447C19.9783 7.19862 19.7157 7.48879 19.572 7.15447C19.4282 6.82014 19.772 6.8643 19.9283 6.76337C20.0846 6.66244 20.2159 6.6309 20.1346 6.42274C20.0533 6.21458 19.8658 6.27135 19.7032 6.34074C19.6361 6.37398 19.5673 6.40346 19.4969 6.42905C19.3031 6.52367 19.2281 6.46059 19.2094 6.34704C19.1906 6.2335 19.2094 6.17042 19.2094 6.13888C19.3103 6.06011 19.4219 5.99638 19.5407 5.94964C19.697 5.86764 19.9095 5.81717 19.797 5.57116C19.6845 5.32515 19.5157 5.45131 19.3407 5.51439C18.4529 5.82979 18.4279 5.87395 18.8093 6.7066L19.0531 7.19231Z" fill="white"/>
<path d="M22.1914 4.9466C22.6415 4.74475 22.6227 5.12953 22.704 5.35662C22.7853 5.5837 22.8665 5.94956 22.9541 6.24603C23.0103 6.42896 23.0978 6.58035 23.3354 6.49204C23.573 6.40373 23.4667 6.25865 23.4229 6.11987C23.3481 5.90071 23.2854 5.67748 23.2354 5.45124C23.1854 5.12953 22.804 4.71952 23.4354 4.53659C23.4792 4.53659 23.5104 4.35366 23.4854 4.27165C23.4604 4.18965 23.3166 4.10765 23.1791 4.13288L22.0851 4.47982C21.9476 4.51766 21.8726 4.57443 21.9351 4.74475C21.9976 4.91506 22.0351 5.01599 22.1914 4.9466Z" fill="white"/>
<path d="M24.2294 5.97486C24.2731 6.15779 24.3731 6.23349 24.5544 6.17041C24.7357 6.10733 24.7232 5.94963 24.6857 5.79824C24.5544 5.28099 24.4294 4.75743 24.3044 4.24018C24.2731 4.0951 24.2731 3.92478 24.0481 3.94371C23.823 3.96263 23.7792 4.08248 23.823 4.27172C23.9543 4.83943 24.0918 5.40715 24.2294 5.97486Z" fill="white"/>
<path d="M50.6231 13.4118C50.917 13.765 50.6231 13.8912 50.4356 14.0425C50.2481 14.1939 49.9292 14.4652 49.6667 14.6733C49.5417 14.7806 49.4416 14.9004 49.5792 15.0518C49.6435 15.1236 49.7334 15.1667 49.8292 15.1717C49.923 15.1717 49.9855 15.0329 50.0793 15.0014C50.5731 14.8121 50.7857 13.8155 51.5859 14.4589C51.6421 14.4967 51.8047 14.3643 51.8172 14.1498C51.5111 13.7692 51.1856 13.4049 50.8419 13.0585C50.7732 13.0144 50.4481 13.1973 50.6231 13.4118Z" fill="white"/>
<path d="M50.8419 15.3925C50.1605 15.7016 50.2168 16.1053 50.6919 16.5343C50.8357 16.6794 50.8357 17.1651 51.217 16.8686C51.5984 16.5721 51.1795 16.4838 51.0983 16.3072C51.017 16.1306 50.8357 16.0233 51.0483 15.853C51.2608 15.6827 51.3483 15.853 51.4671 16.0107C51.5859 16.1684 51.6296 16.4523 51.911 16.2567C52.1923 16.0612 51.911 15.9035 51.8609 15.7395C51.8109 15.5755 51.6109 15.4935 51.7797 15.3484C51.9485 15.2033 52.0422 15.3989 52.136 15.5061C52.2298 15.6133 52.2735 15.7332 52.3736 15.8026C52.5736 15.9476 52.6861 15.8026 52.7799 15.5881C52.5881 15.2652 52.3639 14.9629 52.111 14.6861C51.8985 14.4905 51.7172 14.8059 51.5359 14.9194C51.314 15.0908 51.0823 15.2487 50.8419 15.3925Z" fill="white"/>
<path d="M46.916 12.2387C47.0973 12.4027 47.2098 12.2387 47.2786 12.1441C47.5286 11.7782 47.7474 11.8854 48.0663 12.081C48.174 12.1387 48.2947 12.1673 48.4167 12.164C48.5386 12.1607 48.6576 12.1255 48.7621 12.062C48.8666 11.9985 48.953 11.9088 49.0129 11.8015C49.0728 11.6943 49.1042 11.5733 49.104 11.4502C49.0541 11.2444 48.9583 11.0528 48.824 10.8899C48.6897 10.727 48.5203 10.5972 48.3288 10.5103C48.0725 10.3589 47.9537 10.7563 47.7912 10.9077C47.4974 11.1916 47.2473 11.5385 46.966 11.8097C46.8097 11.9485 46.7222 12.0684 46.916 12.2387ZM48.3226 11.1474C48.393 11.168 48.4565 11.2077 48.5062 11.2622C48.5558 11.3167 48.5896 11.3839 48.6039 11.4565C48.6016 11.4878 48.593 11.5182 48.5787 11.5461C48.5645 11.574 48.5448 11.5987 48.5209 11.6187C48.497 11.6387 48.4693 11.6536 48.4395 11.6626C48.4097 11.6716 48.3785 11.6744 48.3476 11.671C48.1975 11.671 48.0475 11.5763 48.0475 11.3997C48.0475 11.2231 48.1413 11.1159 48.3226 11.1537V11.1474Z" fill="white"/>
<path d="M48.5789 12.8126C48.0475 13.1595 48.1288 13.5191 48.5789 13.8597C48.7664 14.0111 48.8852 14.4905 49.2041 14.1814C49.5229 13.8723 49.0853 13.7714 48.979 13.5822C48.8727 13.3929 48.7289 13.3677 48.879 13.1974C49.029 13.0271 49.1666 13.1343 49.3103 13.2605C49.4541 13.3866 49.5854 13.7273 49.8417 13.4371C50.098 13.1469 49.7104 13.0586 49.6292 12.8757C49.5917 12.7874 49.5354 12.7054 49.4729 12.5918C49.529 12.5664 49.5877 12.5473 49.6479 12.5351C49.8667 12.5351 49.9355 12.718 50.0605 12.8252C50.1856 12.9325 50.3043 13.0965 50.4981 12.9009C50.6919 12.7054 50.4981 12.5855 50.3794 12.472C49.7542 11.6835 49.7542 11.6835 49.0353 12.3963C48.894 12.5467 48.7414 12.6859 48.5789 12.8126Z" fill="white"/>
<path d="M55.0242 23.6937C55.0242 23.8767 55.0242 24.1605 54.7366 24.1542C54.6979 24.1497 54.6606 24.1364 54.6275 24.1155C54.5944 24.0946 54.5664 24.0665 54.5454 24.0333C54.5245 24 54.5111 23.9625 54.5063 23.9234C54.5016 23.8843 54.5055 23.8446 54.5178 23.8073C54.5804 23.5865 54.6304 23.3657 54.3303 23.3531C54.0302 23.3405 54.0552 23.637 54.0115 23.864C54.0677 24.2677 54.199 24.621 54.6741 24.6651C55.1492 24.7093 55.3743 24.4822 55.4431 24.0344C55.4431 23.864 55.4056 23.5486 55.7056 23.5613C56.0057 23.5739 55.8932 23.8073 55.8807 23.9839C55.877 24.0227 55.8817 24.0618 55.8944 24.0985C55.907 24.1353 55.9274 24.1689 55.9541 24.1971C55.9808 24.2252 56.0132 24.2472 56.0491 24.2616C56.0849 24.2759 56.1234 24.2823 56.162 24.2804C56.3745 24.2804 56.387 24.0848 56.3933 23.9524C56.3933 23.536 56.3058 23.1639 55.8557 23.0629C55.4056 22.962 55.093 23.1828 55.0242 23.6937Z" fill="white"/>
<path d="M52.7362 19.1774C52.6611 19.3112 52.6146 19.4595 52.5996 19.6125C52.5846 19.7656 52.6015 19.9202 52.6492 20.0663C52.6969 20.2124 52.7743 20.3468 52.8764 20.4609C52.9786 20.5751 53.1033 20.6664 53.2425 20.7291C53.4926 20.5399 53.5426 20.3633 53.2425 20.1425C53.141 20.0627 53.0748 19.9457 53.0584 19.8169C53.042 19.6881 53.0767 19.558 53.155 19.4549C53.2338 19.3245 53.3466 19.2184 53.4811 19.1483C53.6156 19.0782 53.7667 19.0468 53.9177 19.0575C54.0467 19.0506 54.1732 19.0949 54.2702 19.1809C54.3672 19.267 54.4269 19.388 54.4366 19.518C54.4366 19.846 54.5866 19.9722 54.9054 19.928C54.9459 19.7863 54.9577 19.6379 54.94 19.4915C54.9224 19.3452 54.8757 19.2039 54.8028 19.0762C54.7299 18.9484 54.6322 18.8368 54.5155 18.748C54.3989 18.6592 54.2657 18.5949 54.124 18.5592C53.8577 18.4748 53.5701 18.491 53.3148 18.6047C53.0594 18.7184 52.8538 18.922 52.7362 19.1774Z" fill="white"/>
<path d="M51.3421 17.5183C51.5046 17.7517 51.6422 17.6066 51.7922 17.5183C51.9422 17.43 52.2736 17.2407 52.7049 16.9884C52.3923 17.5309 52.1985 17.8905 51.9797 18.25C51.8422 18.4519 51.9797 18.5906 52.0423 18.742C52.186 18.9943 52.3486 18.8114 52.4861 18.742C52.93 18.4897 53.3676 18.2248 53.8052 17.9661C53.9552 17.8715 54.1365 17.7958 53.9802 17.5624C53.8239 17.329 53.6864 17.4741 53.5239 17.5624C53.3613 17.6507 53.1488 17.9346 52.7987 17.7832C52.98 17.4741 53.1488 17.1524 53.3301 16.8812C53.3764 16.8039 53.3967 16.7135 53.3876 16.6236C53.3786 16.5337 53.3409 16.4492 53.2801 16.3829C53.13 16.1495 52.9737 16.2882 52.8299 16.3829L51.5109 17.165C51.3483 17.2092 51.1858 17.2849 51.3421 17.5183Z" fill="white"/>
<path d="M42.0711 8.80699C42.2274 8.85115 42.4587 8.90792 42.5337 8.69345C42.6087 8.47898 42.4587 8.36544 42.2149 8.31497C41.6522 8.20774 41.6272 7.79772 41.8398 7.37509C42.0523 6.95245 42.3586 6.78214 42.765 7.11646C42.94 7.26154 43.1276 7.41924 43.2776 7.23C43.4277 7.04076 43.2026 6.82629 43.0401 6.68121C42.8614 6.53856 42.6425 6.45683 42.4149 6.44781C42.1067 6.46118 41.8143 6.58903 41.5939 6.80677C41.3735 7.02452 41.2406 7.31679 41.2209 7.6274C41.1977 7.76144 41.2016 7.89879 41.2321 8.0313C41.2626 8.16382 41.3192 8.2888 41.3985 8.39882C41.4778 8.50884 41.5782 8.60167 41.6937 8.67179C41.8093 8.7419 41.9376 8.78788 42.0711 8.80699Z" fill="white"/>
<path d="M35.8259 6.35333C36.1398 6.32791 36.4327 6.18385 36.646 5.94995C36.8592 5.71606 36.9771 5.40956 36.9761 5.09174C36.9849 4.93804 36.9618 4.78418 36.9085 4.63994C36.8551 4.49571 36.7726 4.36424 36.6662 4.2539C36.5598 4.14357 36.4318 4.05677 36.2904 3.99902C36.1489 3.94127 35.9971 3.91384 35.8446 3.91847C35.5286 3.95188 35.237 4.10545 35.0291 4.34799C34.8213 4.59053 34.7128 4.90383 34.7256 5.22421C34.7332 5.518 34.8511 5.79793 35.0553 6.0075C35.2595 6.21706 35.5349 6.34065 35.8259 6.35333ZM35.2882 5.04759C35.3508 4.6565 35.5508 4.34741 35.9759 4.4168C36.401 4.48618 36.476 4.79527 36.4385 5.16744C36.401 5.53961 36.1884 5.88024 35.7633 5.84239C35.3382 5.80454 35.2195 5.4513 35.2882 5.04759Z" fill="white"/>
<path d="M37.1574 6.61814C37.62 6.78846 37.4387 6.13243 37.7138 5.94319C38.1139 6.20813 37.6388 7.07232 38.4765 7.00924C38.5453 6.65599 38.1514 6.28382 38.539 5.99996C38.9266 5.71611 39.0829 5.50164 38.9141 5.10423C38.8098 4.91062 38.6521 4.75162 38.4602 4.6464C38.2683 4.54119 38.0503 4.49426 37.8326 4.51129C37.4137 4.51129 37.5138 4.997 37.3637 5.26193C37.267 5.41401 37.2071 5.58685 37.1887 5.76657C37.1824 6.06304 36.7073 6.45414 37.1574 6.61814ZM38.1452 5.06639C38.2952 5.10423 38.4327 5.16101 38.4327 5.35024C38.4327 5.53948 38.3077 5.59625 38.1389 5.58995C37.9701 5.58364 37.8513 5.53318 37.8701 5.35024C37.8888 5.16731 37.9139 5.00962 38.1452 5.06639Z" fill="white"/>
<path d="M34.0754 5.93065C34.2567 5.93065 34.4818 5.85495 34.4755 5.66571C34.4693 5.47648 34.288 5.39447 34.0692 5.43863C33.5128 5.54586 33.2877 5.21785 33.344 4.73214C33.4002 4.24643 33.6816 3.84272 34.288 4.13919C34.463 4.22119 34.588 4.20227 34.6756 4.05088C34.8069 3.79225 34.563 3.74179 34.4255 3.6724C34.2994 3.61814 34.1671 3.57999 34.0316 3.55886C33.8552 3.5454 33.6781 3.57229 33.5134 3.63753C33.3488 3.70278 33.2008 3.80469 33.0806 3.93567C32.9604 4.06665 32.8711 4.22332 32.8193 4.39399C32.7674 4.56466 32.7545 4.74494 32.7813 4.92138C32.7889 5.07806 32.83 5.23124 32.9019 5.37033C32.9738 5.50943 33.0747 5.63114 33.1977 5.72708C33.3207 5.82301 33.4629 5.89089 33.6144 5.92604C33.766 5.96118 33.9232 5.96276 34.0754 5.93065Z" fill="white"/>
<path d="M43.984 9.83534C44.3155 9.81505 44.6275 9.67053 44.8588 9.43014C45.0901 9.18974 45.224 8.87081 45.2343 8.53591C45.2209 8.25299 45.1044 7.98505 44.907 7.78361C44.7097 7.58216 44.4455 7.46144 44.1653 7.44464C43.8494 7.47699 43.5552 7.62167 43.3354 7.85279C43.1155 8.08391 42.9842 8.38642 42.9651 8.70622C42.9549 8.84869 42.9735 8.99177 43.0198 9.12675C43.0661 9.26173 43.1391 9.3858 43.2344 9.49142C43.3297 9.59703 43.4453 9.68198 43.5742 9.7411C43.7031 9.80023 43.8425 9.83229 43.984 9.83534ZM44.1528 7.94297C44.5092 7.8862 44.6905 8.15744 44.778 8.49806C44.6905 8.90808 44.5529 9.26132 44.0841 9.30547C44.0077 9.32134 43.9286 9.31848 43.8536 9.29715C43.7785 9.27581 43.7096 9.23662 43.6527 9.18286C43.5957 9.12911 43.5524 9.06235 43.5263 8.98819C43.5002 8.91404 43.4921 8.83465 43.5027 8.75669C43.4939 8.56434 43.5552 8.37541 43.6749 8.22551C43.7947 8.07561 43.9647 7.97511 44.1528 7.94297Z" fill="white"/>
<path d="M31.4373 5.53956C31.8186 5.43233 31.5936 5.04754 31.7061 4.82677C31.7061 4.68168 31.7061 4.54922 31.7061 4.42306C31.6748 4.17074 31.4748 4.18336 31.2997 4.18966C31.1247 4.19597 30.9684 4.12659 30.8872 4.30321C30.8059 4.47983 30.8371 4.59337 30.9809 4.63122C31.2747 4.70692 31.3122 4.87723 31.1372 5.06016C31.0619 5.13156 30.9624 5.17131 30.859 5.17131C30.7557 5.17131 30.6562 5.13156 30.5808 5.06016C30.4454 4.95956 30.3484 4.81493 30.3063 4.65063C30.2642 4.48633 30.2794 4.31239 30.3495 4.15813C30.3704 4.07609 30.4087 3.99964 30.462 3.93416C30.5152 3.86868 30.582 3.81575 30.6576 3.77908C30.7333 3.74241 30.816 3.7229 30.8999 3.72191C30.9839 3.72091 31.067 3.73847 31.1435 3.77334C31.356 3.84273 31.5561 3.91842 31.6248 3.64718C31.6936 3.37594 31.4123 3.33179 31.2372 3.30025C30.9932 3.21408 30.7262 3.22179 30.4874 3.32188C30.2487 3.42198 30.0549 3.60743 29.9432 3.84273C29.7982 4.08991 29.7451 4.38103 29.7932 4.66411C29.8413 4.94719 29.9875 5.20382 30.2058 5.38817C30.3802 5.51935 30.5856 5.60232 30.8016 5.62887C31.0176 5.65542 31.2367 5.62464 31.4373 5.53956Z" fill="white"/>
<path d="M39.5517 7.57068C39.7143 7.60853 39.9081 7.88607 40.0706 7.57068C40.2331 7.25528 39.9018 7.23005 39.7393 7.12281C39.5767 7.01558 39.2954 7.02819 39.4392 6.71911C39.583 6.41002 39.7518 6.64341 39.8956 6.71911C40.0394 6.7948 40.2769 6.91465 40.3644 6.64341C40.38 6.58862 40.3768 6.53011 40.3552 6.47742C40.3336 6.42473 40.295 6.38096 40.2456 6.35325C40.0644 6.22709 39.6205 6.27755 39.7893 5.90538C39.9581 5.53321 40.2144 5.90538 40.4144 5.95584C40.6145 6.00631 40.6332 5.95584 40.7145 5.84861C40.7958 5.74137 40.7145 5.6026 40.5707 5.50798C39.7455 4.97181 39.5455 5.02858 39.1704 5.95584C39.1249 6.10179 39.0663 6.24325 38.9954 6.37848C38.5453 7.07866 38.8766 7.41298 39.5517 7.57068Z" fill="white"/>
<path d="M44.7967 10.4662C45.2156 10.9014 45.2281 10.0877 45.5532 10.0498H45.6282C45.4969 11.1411 45.4969 11.1411 46.7347 10.6239C46.5347 10.8951 46.4284 11.0339 46.3346 11.179C46.2408 11.324 46.047 11.4439 46.2533 11.6331C46.4596 11.8224 46.6034 11.6331 46.7159 11.4691C47.0223 11.0906 47.3411 10.6996 47.6099 10.3148C47.7412 10.1445 47.885 9.98675 47.6099 9.80382C47.3349 9.62089 47.2723 9.51996 46.9848 9.72182C46.7775 9.95724 46.5018 10.1206 46.1971 10.1886C46.1221 9.82275 46.3534 9.55781 46.4471 9.24241C46.5409 8.92702 46.3784 8.87024 46.2158 8.73778C46.0533 8.60531 45.8532 8.69993 45.722 8.87655C45.5155 9.10418 45.3313 9.35133 45.1718 9.61458C45.0655 9.91106 44.4841 10.1445 44.7967 10.4662Z" fill="white"/>
<path d="M26.7362 26.299C26.6924 25.2582 26.061 24.4382 25.3358 24.4697C24.6107 24.5012 24.0856 25.2771 24.0856 26.3242C24.0856 27.3714 24.7107 28.286 25.4296 28.2797C26.1485 28.2734 26.8049 27.3777 26.7362 26.299Z" fill="white"/>
<path d="M38.1389 54.4072C36.8886 54.4072 36.6886 54.7289 37.0574 55.8517C37.1762 56.186 37.295 56.5267 37.4075 56.8673C37.4638 57.0439 37.5013 57.1953 37.7638 57.0944C38.1576 56.9954 38.5347 56.8381 38.8828 56.6276C39.1105 56.4786 39.2782 56.2527 39.3561 55.9904C39.434 55.7281 39.4169 55.4465 39.3079 55.1957C39.2382 54.9452 39.0821 54.7281 38.8677 54.5836C38.6534 54.439 38.3949 54.3764 38.1389 54.4072ZM38.0701 56.451C37.6325 56.2176 37.6638 55.7066 37.5388 55.3092C37.4137 54.9118 37.8513 54.9686 38.0389 54.9434C38.514 54.874 38.7453 55.2146 38.8016 55.6246C38.8578 56.0346 38.4952 56.2807 38.0576 56.451H38.0701Z" fill="white"/>
<path d="M33.9879 30.8533C32.8824 31.8806 31.437 32.455 29.9341 32.4643C28.4312 32.4737 26.9789 31.9172 25.8609 30.9037C25.5171 30.6136 25.1858 30.3234 24.8294 30.765C24.4731 31.2065 24.9232 31.4651 25.1983 31.7048C26.0187 32.4244 26.9897 32.9473 28.0388 33.2346C29.0878 33.5219 30.1876 33.5661 31.256 33.3638C31.531 33.4837 31.6248 33.7802 31.8124 33.9946C31.9584 34.2089 32.1666 34.3724 32.4083 34.4628C32.65 34.5531 32.9135 34.5659 33.1627 34.4993C33.6753 34.3542 33.8253 33.9315 33.9316 33.4521C34.0379 32.9727 34.2004 32.4681 34.3442 31.9761C34.4505 31.8689 34.5505 31.7553 34.663 31.6481C34.9444 31.3894 35.3382 31.1245 34.9819 30.7019C34.6255 30.2793 34.3067 30.5694 33.9879 30.8533Z" fill="white"/>
<path d="M31.8374 56.1104C31.9888 56.1095 32.1396 56.0926 32.2875 56.0599C32.319 56.0539 32.349 56.0416 32.3757 56.0236C32.4024 56.0056 32.4252 55.9824 32.4427 55.9552C32.4602 55.9281 32.4721 55.8977 32.4777 55.8658C32.4832 55.8339 32.4823 55.8013 32.475 55.7697C32.4757 55.7374 32.4692 55.7054 32.4559 55.676C32.4426 55.6466 32.4229 55.6207 32.3982 55.6C32.3736 55.5794 32.3446 55.5647 32.3135 55.5569C32.2825 55.5492 32.2501 55.5486 32.2187 55.5553C31.7681 55.5588 31.3201 55.6246 30.8871 55.7508C30.7809 55.7887 30.8871 56.3816 30.8871 56.6781C30.884 56.7032 30.884 56.7286 30.8871 56.7538H30.9184C30.9184 57.0881 30.9184 57.4224 30.9184 57.7504C30.9184 58.0785 30.9934 58.2046 31.3122 58.1731C31.6311 58.1415 31.5561 57.9334 31.5373 57.7315C31.5186 57.5297 31.456 57.1575 31.8999 57.1386C32.1124 57.1386 32.525 57.2458 32.45 56.8295C32.375 56.4131 32.0499 56.6718 31.8249 56.6276C31.5998 56.5835 31.4623 56.6276 31.4685 56.369C31.4748 56.1104 31.6623 56.123 31.8374 56.1104Z" fill="white"/>
<path d="M36.0571 57.0249C35.9321 57.0249 35.8071 57.0691 35.5258 57.1195C35.5258 57.1195 35.307 57.1826 35.2945 56.8987C35.2945 56.514 35.6133 56.6653 35.7821 56.5644C35.9509 56.4635 36.3134 56.5644 36.1884 56.1796C36.1009 55.8895 35.8633 56.0219 35.6758 56.0409C35.4882 56.0598 35.1319 56.3247 35.0506 55.8958C34.9694 55.4668 35.3882 55.6939 35.557 55.5867C35.6532 55.5509 35.7546 55.5317 35.8571 55.5299C36.0134 55.5299 36.0571 55.3975 36.0384 55.2524C36.0398 55.2202 36.0341 55.1881 36.0215 55.1585C36.009 55.1289 35.99 55.1025 35.966 55.0813C35.942 55.0601 35.9135 55.0446 35.8828 55.036C35.852 55.0274 35.8197 55.0259 35.7883 55.0316C35.3334 55.0651 34.8875 55.176 34.4692 55.3596C34.1567 55.5489 34.5255 55.9904 34.5193 56.2806C34.5232 56.3832 34.54 56.485 34.5693 56.5834C34.8506 57.8449 34.8506 57.8449 36.1134 57.5358C36.3009 57.4917 36.5572 57.498 36.501 57.1889C36.4447 56.8798 36.2509 56.9618 36.0571 57.0249Z" fill="white"/>
<path d="M36.4385 26.116C36.4948 25.7375 36.2822 25.5735 35.9071 25.5293C35.0719 25.419 34.2237 25.4682 33.4065 25.6744C34.513 24.7787 34.9069 24.6399 36.4135 24.621C36.6885 24.621 36.9574 24.621 36.9824 24.2741C36.9894 24.2031 36.9816 24.1315 36.9592 24.0639C36.9369 23.9963 36.9006 23.9342 36.8527 23.8818C36.8049 23.8293 36.7466 23.7877 36.6817 23.7596C36.6167 23.7316 36.5466 23.7177 36.476 23.719C34.513 23.555 32.4125 24.4507 31.8437 26.8729C31.7624 27.1946 31.7249 27.5731 32.0937 27.7623C32.2373 27.8211 32.3974 27.8239 32.5429 27.7703C32.6885 27.7167 32.8091 27.6104 32.8814 27.4722C33.5878 26.3809 34.6131 26.2106 35.7696 26.4314C36.0697 26.4188 36.376 26.4755 36.4385 26.116Z" fill="white"/>
<path d="M33.6816 55.7191C33.6816 55.5362 33.6816 55.3659 33.3752 55.4353C33.0689 55.5047 33.0501 55.5488 33.0877 55.7885C33.1814 56.4193 33.269 57.0501 33.344 57.6809C33.344 57.9017 33.4503 58.0026 33.6753 57.9774C33.9004 57.9522 33.9754 57.826 33.9379 57.6178C33.8191 56.9807 33.7316 56.3499 33.6816 55.7191Z" fill="white"/>
<path d="M54.0678 23.1514C54.3741 23.0504 54.1615 22.817 54.1553 22.6341C54.149 22.4512 53.8677 22.2619 54.1553 22.1232C54.4429 21.9844 54.5054 22.2998 54.5679 22.4827C54.6304 22.6656 54.7179 22.8233 54.9367 22.735C55.1555 22.6467 55.0305 22.4827 55.0055 22.3376C54.9805 22.1925 54.7429 21.9339 55.0555 21.833C55.3681 21.7321 55.3306 22.0412 55.4119 22.2115C55.4931 22.3818 55.5807 22.7729 55.837 22.4512C56.0933 22.1295 55.7369 21.8204 55.6682 21.5428C55.6307 21.3599 55.5806 21.1833 55.3306 21.2022L54.2553 21.5428C53.3301 21.8582 53.3238 21.8645 53.6864 22.8044C53.7802 22.9621 53.7552 23.2523 54.0678 23.1514Z" fill="white"/>
<path d="M41.1396 33.4775C41.8148 33.7866 42.1711 34.2029 41.7648 34.8715C41.7286 35.0124 41.7418 35.1617 41.8022 35.2939C41.8626 35.4261 41.9664 35.5332 42.0961 35.5969C42.2204 35.6691 42.3666 35.6928 42.5071 35.6638C42.6475 35.6348 42.7726 35.5549 42.8588 35.4392C42.9243 35.3239 43.0158 35.2257 43.126 35.1527C43.2362 35.0798 43.3618 35.0341 43.4928 35.0193C43.6237 35.0046 43.7563 35.0212 43.8797 35.0679C44.0031 35.1145 44.1138 35.1899 44.2029 35.2878C44.3178 35.3925 44.467 35.4504 44.6217 35.4504C44.7765 35.4504 44.9257 35.3925 45.0406 35.2878C45.1504 35.1955 45.2207 35.064 45.237 34.9207C45.2533 34.7774 45.2143 34.6333 45.1281 34.5183C44.7218 33.9253 44.8968 33.5153 45.447 33.1431C45.5717 33.0716 45.6634 32.9532 45.702 32.8138C45.7406 32.6744 45.7231 32.5252 45.6533 32.3988C45.6012 32.2639 45.5015 32.1532 45.3734 32.088C45.2453 32.0228 45.0978 32.0077 44.9593 32.0456C44.8315 32.1043 44.6916 32.1315 44.5512 32.1251C44.4109 32.1186 44.2741 32.0787 44.152 32.0085C44.0299 31.9383 43.9261 31.8399 43.8491 31.7213C43.7721 31.6027 43.7241 31.4674 43.709 31.3265C43.6775 31.1887 43.5956 31.0679 43.4797 30.9884C43.3638 30.9089 43.2225 30.8764 43.0839 30.8975C43.0124 30.8958 42.9414 30.9084 42.8748 30.9344C42.8081 30.9605 42.7472 30.9995 42.6956 31.0493C42.6439 31.0991 42.6025 31.1587 42.5736 31.2246C42.5448 31.2906 42.5291 31.3616 42.5275 31.4337C42.4837 32.1086 42.2086 32.4493 41.496 32.3862C41.3556 32.381 41.2177 32.4235 41.1043 32.5071C40.9909 32.5906 40.9086 32.7102 40.8708 32.8467C40.8328 32.9668 40.839 33.0968 40.8884 33.2127C40.9378 33.3286 41.027 33.4226 41.1396 33.4775ZM41.6585 32.7584C42.4024 32.7584 42.9088 32.525 42.9088 31.6482C42.9088 31.522 42.9088 31.3075 43.1026 31.276C43.2964 31.2445 43.4027 31.4463 43.4465 31.6103C43.4569 31.7706 43.5063 31.9259 43.5903 32.0624C43.6743 32.1988 43.7903 32.3123 43.9282 32.3928C44.066 32.4732 44.2213 32.5182 44.3805 32.5236C44.5396 32.5291 44.6976 32.4949 44.8406 32.424C45.0031 32.3736 45.2281 32.3294 45.2844 32.5628C45.3407 32.7962 45.1906 32.8088 45.0156 32.9854C44.8712 33.1478 44.6972 33.2806 44.503 33.3765C44.1904 33.8622 44.6843 34.165 44.7593 34.5624C44.7593 34.6823 44.8718 34.8084 44.7593 34.922C44.7346 34.9512 44.704 34.9747 44.6694 34.9909C44.6349 35.007 44.5973 35.0153 44.5592 35.0153C44.5212 35.0153 44.4836 35.007 44.449 34.9909C44.4145 34.9747 44.3838 34.9512 44.3592 34.922C44.2464 34.7931 44.1048 34.6934 43.946 34.631C43.7873 34.5686 43.6161 34.5453 43.4466 34.5632C43.2772 34.5811 43.1145 34.6396 42.972 34.7339C42.8295 34.8281 42.7114 34.9553 42.6275 35.1049C42.5337 35.2248 42.3649 35.3635 42.2524 35.2058C42.1399 35.0481 42.1836 34.7264 42.3212 34.4993C42.6275 33.6099 41.7585 33.5405 41.3772 33.1305C40.9958 32.7205 41.4835 32.7584 41.6585 32.7584Z" fill="white"/>
<path d="M57.7123 28.6392C57.3963 28.6624 57.0823 28.5728 56.8251 28.386C56.568 28.1992 56.3841 27.9271 56.3058 27.6173C56.1307 27.1253 55.7619 27.1127 55.5681 27.6173C55.4856 27.9235 55.3017 28.1919 55.0468 28.3779C54.792 28.5638 54.4818 28.6561 54.1677 28.6392C53.6864 28.6392 53.5051 28.9672 53.9239 29.3331C54.4428 29.7872 54.8242 30.254 54.4741 30.8596C54.3991 31.5661 54.6491 31.7364 55.0992 31.4147C55.3372 31.2259 55.6311 31.1233 55.9338 31.1233C56.2365 31.1233 56.5304 31.2259 56.7684 31.4147C57.2185 31.6985 57.4873 31.4967 57.3935 30.9921C57.2866 30.694 57.2822 30.3684 57.3808 30.0675C57.4795 29.7667 57.6755 29.508 57.9374 29.3331C58.3312 29.0681 58.225 28.677 57.7123 28.6392Z" fill="white"/>
<path d="M30.1495 0.638306C26.2363 0.637478 22.3612 1.41449 18.7456 2.92495C15.1301 4.43542 11.8448 6.64976 9.07744 9.44151C6.31008 12.2333 4.11487 15.5477 2.61715 19.1956C1.11944 22.8435 0.348572 26.7534 0.348572 30.7019C0.348572 34.6508 1.1194 38.5609 2.61704 42.2092C4.11468 45.8574 6.30979 49.1723 9.07706 51.9646C11.8443 54.7568 15.1296 56.9718 18.7452 58.4829C22.3608 59.9941 26.236 60.7719 30.1495 60.7719C34.0622 60.771 37.9364 59.9926 41.5509 58.481C45.1655 56.9694 48.4495 54.7542 51.2157 51.962C53.9818 49.1697 56.1757 45.8551 57.6723 42.2073C59.1689 38.5595 59.9387 34.6499 59.9379 30.7019C59.9379 22.7297 56.7997 15.0838 51.2134 9.44597C45.6272 3.80813 38.0504 0.639979 30.1495 0.638306ZM30.1495 60.1411C22.4141 60.1327 14.998 57.0284 9.52824 51.5093C4.05852 45.9902 0.981996 38.5071 0.973722 30.7019C0.981999 22.8973 4.05872 15.4149 9.52862 9.89677C14.9985 4.37867 22.4147 1.27578 30.1495 1.2691C37.8821 1.27912 45.2951 4.38349 50.7623 9.90122C56.2295 15.419 59.3045 22.8995 59.3127 30.7019C59.3045 38.5049 56.2297 45.9861 50.7626 51.5049C45.2956 57.0236 37.8827 60.1294 30.1495 60.1411Z" fill="white"/>
<path d="M29.8181 55.6434C29.6056 55.6434 29.4931 55.7002 29.4931 55.9399C29.4931 56.5707 29.4931 57.2015 29.4931 57.8323C29.4931 58.0594 29.5806 58.1477 29.8119 58.1414C30.0432 58.1351 30.1119 58.0026 30.1057 57.7944V56.905V55.9778C30.1119 55.7633 30.0682 55.6434 29.8181 55.6434Z" fill="white"/>
<path d="M52.5048 29.6295C52.2649 29.4027 52.1134 29.0966 52.0779 28.7668C52.0423 28.437 52.125 28.1053 52.311 27.8317C52.9987 26.5701 52.9362 26.1664 51.8109 25.2518C51.5345 25.0717 51.3297 24.7992 51.2325 24.482C51.1354 24.1648 51.152 23.8232 51.2795 23.5171C51.7171 22.1672 51.5484 21.7446 50.2855 21.1012C49.9666 20.9726 49.7047 20.7318 49.5483 20.4232C49.392 20.1147 49.3518 19.7594 49.4353 19.4232C49.5979 18.1617 49.3291 17.6886 48.1288 17.3795C47.7494 17.3263 47.4035 17.1317 47.1594 16.8339C46.9152 16.5362 46.7904 16.1569 46.8097 15.771C46.6972 14.5094 46.3158 14.175 45.0593 14.093C44.7387 14.1026 44.425 13.9978 44.1735 13.7971C43.9219 13.5963 43.7486 13.3125 43.684 12.9955C43.2589 11.5446 42.9838 11.3617 41.4834 11.4879C41.1608 11.549 40.8272 11.4933 40.5413 11.3306C40.2554 11.1679 40.0356 10.9086 39.9206 10.5984C39.2954 9.39363 38.8515 9.19809 37.5637 9.62072C37.2502 9.77253 36.892 9.80175 36.5583 9.70273C36.2247 9.60371 35.9392 9.38347 35.7571 9.08454C34.9194 8.02481 34.4567 7.93019 33.2565 8.61145C32.9734 8.81605 32.6254 8.90796 32.2792 8.86955C31.9331 8.83113 31.6132 8.66509 31.381 8.40329C30.3683 7.53279 29.8681 7.52648 28.8366 8.40329C28.605 8.65532 28.2892 8.81211 27.95 8.84355C27.6107 8.87498 27.272 8.77885 26.9987 8.5736C25.8547 7.90496 25.3358 8.0185 24.4981 9.09085C24.3138 9.38049 24.0323 9.59347 23.7051 9.69077C23.3779 9.78808 23.0269 9.76321 22.7164 9.62072C21.4661 9.20439 21.0098 9.39363 20.3784 10.6237C20.2563 10.9318 20.0316 11.1874 19.7429 11.3463C19.4542 11.5052 19.1196 11.5575 18.7967 11.4942C17.3214 11.368 17.015 11.5888 16.6087 13.027C16.5503 13.3292 16.3889 13.6013 16.1526 13.796C15.9162 13.9907 15.6198 14.0958 15.3146 14.093C13.8455 14.2255 13.5017 14.5535 13.4017 16.0422C13.3944 16.3464 13.2825 16.6386 13.0852 16.8687C12.8879 17.0989 12.6175 17.2527 12.3202 17.3038C10.9261 17.7327 10.6635 18.0923 10.8261 19.5305C10.8962 19.8388 10.8563 20.1622 10.7134 20.4438C10.5704 20.7253 10.3336 20.9469 10.0446 21.0696C8.79431 21.7383 8.57551 22.1672 9.00686 23.4856C9.15008 23.7997 9.17246 24.1564 9.06964 24.4863C8.96682 24.8162 8.74614 25.0958 8.45048 25.2707C7.43148 26.0592 7.3002 26.5954 7.95036 27.7182C8.16658 28.0182 8.264 28.3889 8.22352 28.7576C8.18305 29.1263 8.00761 29.4665 7.73156 29.7115C6.91886 30.664 6.91261 31.1812 7.73156 32.1464C8.00037 32.3982 8.16611 32.7423 8.19619 33.1112C8.22626 33.48 8.1185 33.8469 7.89409 34.1397C7.26894 35.1742 7.40023 35.7545 8.3442 36.4799C8.67279 36.6735 8.91857 36.9832 9.03404 37.349C9.14951 37.7149 9.12646 38.1109 8.96935 38.4606C8.58801 39.6465 8.79431 40.107 9.87582 40.6621C10.2222 40.7833 10.5121 41.0293 10.6898 41.353C10.8674 41.6766 10.9204 42.055 10.8386 42.4157C10.676 43.6773 10.9698 44.1314 12.1764 44.4594C12.545 44.5241 12.8769 44.7243 13.1078 45.0214C13.3387 45.3184 13.4523 45.6913 13.4267 46.068C13.5079 47.2665 13.9205 47.6702 15.1208 47.7333C15.487 47.7119 15.8478 47.8295 16.1324 48.063C16.4169 48.2964 16.6047 48.6288 16.6587 48.9949C17.0088 50.2564 17.4214 50.4646 18.8155 50.37C19.5657 50.0987 20.0658 50.5529 20.4221 51.3162C20.991 52.439 21.4474 52.6471 22.6664 52.2371C22.9981 52.0923 23.3705 52.0732 23.715 52.1833C24.0596 52.2934 24.3532 52.5253 24.5419 52.8364C25.2983 53.8141 25.8547 53.9277 26.9174 53.2842C27.2145 53.0667 27.5811 52.9682 27.9461 53.0078C28.311 53.0475 28.6485 53.2224 28.8929 53.4987C29.8119 54.2998 30.3558 54.3188 31.2497 53.4987C31.5007 53.2124 31.8479 53.0301 32.2243 52.987C32.6007 52.9439 32.9795 53.043 33.2877 53.2653C34.3692 53.8961 34.8818 53.7889 35.657 52.7733C35.8526 52.4598 36.1553 52.2295 36.5078 52.126C36.8604 52.0225 37.2383 52.0531 37.57 52.2119C38.739 52.5904 39.2329 52.3885 39.758 51.3099C39.8825 50.9489 40.1362 50.6478 40.4692 50.4658C40.8023 50.2837 41.1908 50.2338 41.5584 50.3258C42.765 50.4835 43.2088 50.1744 43.5214 49.0075C43.5728 48.6268 43.7651 48.2799 44.0597 48.0364C44.3543 47.793 44.7293 47.6712 45.1093 47.6954C46.2783 47.645 46.6722 47.2412 46.7472 46.0743C46.7393 45.659 46.8878 45.2561 47.1628 44.947C47.4378 44.6379 47.8188 44.4456 48.2288 44.409C49.3041 44.1314 49.6166 43.6268 49.4791 42.5166C49.3728 42.1475 49.4083 41.7515 49.5787 41.4077C49.749 41.064 50.0416 40.7977 50.3981 40.6621C51.5296 40.0944 51.7484 39.6023 51.3483 38.4164C51.1971 38.0854 51.1715 37.71 51.2763 37.3612C51.3812 37.0124 51.6092 36.7145 51.9172 36.5241C52.9299 35.7293 53.0112 35.2625 52.3485 34.064C52.1443 33.7798 52.0511 33.4296 52.0868 33.0804C52.1226 32.7312 52.2848 32.4076 52.5423 32.1716C53.38 31.1623 53.3738 30.6577 52.5048 29.6295ZM44.9343 46.9952C44.5386 46.9662 44.147 47.0913 43.84 47.3447C43.533 47.5982 43.334 47.9607 43.2839 48.3577C42.9775 49.5058 42.6587 49.7518 41.4647 49.6193C41.0837 49.5239 40.6812 49.5743 40.3349 49.7606C39.9886 49.947 39.7229 50.2562 39.5892 50.6286C39.0954 51.682 38.7265 51.8208 37.6513 51.4739C37.2683 51.2981 36.835 51.269 36.4324 51.3921C36.0297 51.5151 35.6852 51.7819 35.4632 52.1425C34.8006 53.0572 34.4817 53.1013 33.5315 52.5525C33.1781 52.2963 32.7453 52.1764 32.3117 52.2145C31.8782 52.2527 31.4725 52.4465 31.1684 52.7607C30.2932 53.5429 30.0244 53.5366 29.143 52.7607C28.8476 52.4566 28.4549 52.2681 28.0348 52.2289C27.6146 52.1896 27.1943 52.3021 26.8487 52.5462C25.8172 53.1076 25.5546 53.0824 24.8607 52.1425C24.6396 51.7984 24.3036 51.5456 23.9137 51.4299C23.5238 51.3142 23.1057 51.3432 22.7352 51.5117C21.6036 51.865 21.2973 51.764 20.7784 50.7043C20.6403 50.3171 20.3634 49.9961 20.0024 49.8046C19.6414 49.6132 19.2224 49.5651 18.828 49.6698C17.7215 49.8401 17.3651 49.6004 17.0651 48.4713C17.0002 48.0528 16.7815 47.6743 16.4524 47.4113C16.1234 47.1482 15.7082 47.02 15.2896 47.052C14.2269 47.0079 13.9018 46.5915 13.883 45.5507C13.883 45.393 13.8455 45.2416 13.8205 45.0902C13.8893 45.2669 13.9456 45.4372 13.883 45.5507C16.2383 43.9762 18.0496 41.701 19.0655 39.0409C19.3141 38.5055 19.3446 37.8931 19.1506 37.3352C18.9565 36.7774 18.5534 36.3185 18.0278 36.0573C17.4996 35.7468 16.9345 35.5052 16.3461 35.3382C15.7787 35.188 15.2355 34.9565 14.7332 34.6506C14.4144 34.4361 13.9143 34.228 14.1081 33.7296C14.2086 33.5168 14.3778 33.3448 14.5879 33.2416C14.798 33.1385 15.0366 33.1104 15.2646 33.1619C15.5611 33.2291 15.8502 33.3263 16.1273 33.4521C16.9779 33.8258 17.9316 33.8861 18.8217 33.6224C19.0581 33.572 19.2664 33.4321 19.4036 33.2314C19.5409 33.0308 19.5966 32.7847 19.5594 32.5438C19.4156 30.5441 19.3093 28.5382 19.3594 26.526C19.379 25.2739 19.6583 24.0399 20.1795 22.9035C20.7006 21.7671 21.452 20.7534 22.3851 19.9279C25.8484 16.7108 31.8436 16.1431 35.9446 18.6663C37.0819 19.3123 38.073 20.1908 38.8545 21.2455C39.636 22.3002 40.1908 23.5079 40.4832 24.7913C40.8458 26.3872 40.6645 28.0273 40.6895 29.6421C40.2706 29.9512 39.6017 29.5979 39.3267 29.9638C38.7953 30.6577 38.1139 30.4369 37.4512 30.5063C36.6573 30.5883 36.1571 31.0488 36.1634 31.7679C36.1947 34.4677 37.1324 36.9088 40.3832 37.6027C40.602 37.6532 40.8395 37.6721 40.8083 38.019C40.702 39.1355 41.3209 40.0187 41.821 40.9081C42.0648 41.337 42.0148 41.4443 41.6022 41.5956C41.1896 41.747 40.6332 41.8921 40.652 42.5292C40.6672 42.6788 40.6506 42.8299 40.6031 42.9724C40.5557 43.115 40.4786 43.2456 40.3769 43.3556C40.2826 43.495 40.2321 43.6598 40.2321 43.8287C40.2321 43.9975 40.2826 44.1623 40.3769 44.3017C40.527 44.6235 40.827 44.4216 41.0583 44.4027C42.0023 44.3207 42.9338 44.2261 43.8715 44.1251C43.9812 44.0932 44.0974 44.0922 44.2076 44.1222C44.3178 44.1523 44.4178 44.2122 44.4967 44.2954C45.1177 44.8897 45.7822 45.4358 46.4846 45.9292C46.4066 46.2712 46.2037 46.5709 45.9163 46.7685C45.6289 46.9661 45.2782 47.0471 44.9343 46.9952ZM46.022 29.5601C46.1291 29.53 46.2418 29.5264 46.3506 29.5494C46.4594 29.5725 46.5611 29.6216 46.6472 29.6926C46.7222 29.7746 46.7534 29.9007 46.8472 29.9638C46.9207 30.0007 47.0031 30.016 47.0848 30.008C47.5058 29.9552 47.9233 29.8773 48.3351 29.7746C48.5333 29.7245 48.7406 29.7242 48.939 29.7736C49.1373 29.8231 49.3206 29.9209 49.4729 30.0584C49.2916 30.1846 47.3098 30.5126 47.3098 30.6261C47.2259 30.6366 47.1483 30.6768 47.091 30.7397C47.057 30.8247 47.057 30.9197 47.091 31.0046C47.1848 31.6985 47.3848 32.3734 47.4786 33.0673C47.6127 33.7583 47.5409 34.4738 47.2723 35.1237C47.0788 35.5046 46.8207 35.8483 46.5096 36.1393C46.2533 36.4105 45.9783 36.6691 45.7407 36.953C45.4285 37.3013 45.1903 37.7105 45.0408 38.1553C44.8914 38.6001 44.8338 39.0711 44.8717 39.5393C44.9284 40.0017 45.129 40.434 45.4447 40.7741C45.7604 41.1141 46.1748 41.3444 46.6284 41.4316C46.8446 41.4351 47.0576 41.4846 47.2536 41.5767C47.4411 41.6966 47.5099 42.0246 47.3161 42.1255C47.2613 42.152 47.2017 42.167 47.141 42.1697L41.5147 42.7374C41.4392 42.7596 41.3589 42.7596 41.2834 42.7374C41.0958 42.6617 41.0896 42.3715 41.2209 42.2138C41.3671 42.074 41.5422 41.9684 41.7335 41.9047C42.0509 41.7526 42.333 41.5346 42.5614 41.2651C42.7898 40.9955 42.9593 40.6805 43.0588 40.3404C43.1555 39.9939 43.1777 39.6307 43.1237 39.2749C43.0698 38.9191 42.9411 38.5791 42.7462 38.2777C41.9961 37.117 40.4019 36.7322 39.683 35.5526C39.1391 34.6506 39.2391 33.5152 39.2892 32.4554C39.3164 32.31 39.3097 32.1602 39.2695 32.0179C39.2294 31.8755 39.1569 31.7446 39.0578 31.6354C38.9573 31.5638 38.8418 31.5163 38.7203 31.4966C38.357 31.4147 37.9817 31.4019 37.6137 31.4588C37.5208 31.465 37.4327 31.5028 37.3637 31.566C37.3122 31.6353 37.2837 31.7192 37.2824 31.8057C37.2077 32.5343 37.3104 33.2702 37.5817 33.9496C37.853 34.629 38.2846 35.2313 38.839 35.704C39.3318 36.0249 39.7726 36.4207 40.1456 36.8773C39.606 36.801 39.0897 36.6054 38.6336 36.3044C38.1776 36.0034 37.7931 35.6046 37.5075 35.1363C36.9343 34.185 36.6255 33.0956 36.6135 31.9823C36.5855 31.7497 36.6223 31.5138 36.7198 31.3011C36.8604 31.1209 37.0471 30.9829 37.2597 30.9017C37.4722 30.8206 37.7027 30.7995 37.9263 30.8406C38.3752 30.9135 38.8351 30.8194 39.2204 30.5757C39.3261 30.455 39.4434 30.3451 39.5705 30.2477C39.684 30.1932 39.8074 30.1631 39.9331 30.1594L46.022 29.5601ZM41.4959 29.5601C41.4959 29.5601 41.4959 29.5096 41.4959 29.4844C41.5104 29.5111 41.5271 29.5364 41.5459 29.5601H41.4959ZM48.0163 32.8718C48.2016 33.0961 48.2994 33.3809 48.2913 33.6729C48.2773 33.8217 48.2335 33.966 48.1626 34.0972C48.0917 34.2284 47.9951 34.3437 47.8787 34.4361C48.0106 33.9196 48.055 33.3843 48.01 32.8528L48.0163 32.8718ZM48.1725 34.9029L48.2788 34.8146L48.3726 34.6885C48.4976 34.4929 48.6164 34.2911 48.7227 34.0577C48.7463 33.991 48.7929 33.935 48.854 33.9C48.927 33.8843 49.0032 33.8978 49.0665 33.9378C49.1353 33.9757 49.2103 34.0514 49.1978 34.1334C49.1741 34.2399 49.134 34.3421 49.079 34.4361C49.0372 34.5236 48.9891 34.608 48.9352 34.6885L48.7852 34.8651C48.6852 34.9723 48.5851 35.0859 48.4976 35.1994C48.4101 35.3129 48.3538 35.4076 48.2726 35.5085C47.9536 35.8293 47.5698 36.0767 47.1473 36.2339C47.344 35.6904 47.6993 35.2198 48.1663 34.884L48.1725 34.9029ZM49.104 33.1178C48.5601 33.1178 48.2538 32.733 48.2663 32.0707C48.2788 31.4083 48.7727 30.6577 49.3978 30.7145C49.5903 30.7582 49.7602 30.8715 49.8754 31.0331C49.9906 31.1947 50.0431 31.3933 50.023 31.5913C50.0292 32.2347 49.5166 33.0989 49.0978 33.0989L49.104 33.1178ZM47.9475 42.9455C47.9475 43.3871 47.4474 43.1222 47.166 43.1852C46.9103 43.2964 46.6289 43.3335 46.3534 43.2925L45.6282 43.3366L45.5094 43.3808C45.2875 43.4523 45.0528 43.4738 44.8217 43.4439L44.0903 43.488L43.9903 43.5322C43.7643 43.6047 43.5262 43.6304 43.2901 43.6079L42.5837 43.652C42.3285 43.7485 42.0544 43.7831 41.7835 43.753C41.6358 43.7859 41.4846 43.8008 41.3334 43.7971C41.1271 43.7971 40.7833 44.1062 40.7082 43.6646C40.6332 43.2231 41.0958 43.4186 41.2771 43.3556C41.6247 43.2845 41.981 43.2674 42.3336 43.3051C42.3697 43.2822 42.4102 43.2672 42.4524 43.2609C42.6724 43.1905 42.9044 43.1669 43.1338 43.1916L43.8653 43.1474L43.984 43.1032C44.2038 43.0319 44.4365 43.0103 44.6654 43.0402C45.4844 42.9455 46.3033 42.832 47.1285 42.7626C47.4349 42.7185 47.9225 42.5166 47.9412 42.9266L47.9475 42.9455ZM41.5835 38.4228C41.5835 38.0254 41.5459 38.0127 41.6835 37.8487C41.821 37.6847 42.0086 37.9244 42.0586 38.019C42.6212 38.8769 42.9775 39.5203 42.64 40.3908C42.3192 40.1686 42.0555 39.8724 41.8707 39.5269C41.6859 39.1813 41.5853 38.7964 41.5772 38.4038L41.5835 38.4228ZM38.9516 35.0859C38.4552 34.6593 38.0852 34.1026 37.8826 33.4773C37.7182 33.0788 37.658 32.6445 37.7075 32.2157C37.7109 32.15 37.7296 32.086 37.7622 32.029C37.7948 31.972 37.8403 31.9235 37.8951 31.8877C37.9689 31.8688 38.0463 31.8688 38.1201 31.8877C38.2729 31.8856 38.425 31.909 38.5702 31.9571C39.0578 32.1527 38.8203 32.8465 38.814 33.2566C38.8038 33.8628 38.8478 34.4687 38.9453 35.0669L38.9516 35.0859ZM47.4224 43.917C47.0492 44.0935 46.7391 44.3821 46.5346 44.7433C46.4096 44.4973 45.7782 44.2639 45.6407 44.0053C46.059 44 46.4766 43.9684 46.891 43.9107C47.2473 43.7466 48.1413 43.589 48.5164 43.4502C48.3788 43.6646 47.6099 43.7782 47.4349 43.8854L47.4224 43.917ZM51.9172 31.7679C51.5373 32.0845 51.2961 32.5392 51.2458 33.0338C51.1955 33.5284 51.3401 34.023 51.6484 34.4109C51.7603 34.5357 51.841 34.6857 51.8837 34.8484C51.9264 35.0111 51.9298 35.1817 51.8937 35.346C51.8576 35.5103 51.783 35.6635 51.6761 35.7928C51.5692 35.922 51.4333 36.0235 51.2795 36.0888C50.881 36.3188 50.5846 36.6938 50.451 37.137C50.3173 37.5802 50.3565 38.0582 50.5606 38.4732C50.653 38.6208 50.7088 38.7886 50.7232 38.9626C50.7376 39.1365 50.7102 39.3114 50.6433 39.4724C50.5764 39.6333 50.4721 39.7756 50.339 39.8872C50.206 39.9988 50.0483 40.0763 49.8792 40.1133C49.4374 40.264 49.0689 40.5785 48.8483 40.9931C48.6278 41.4078 48.5717 41.8915 48.6914 42.3463C48.7477 42.7058 48.8915 43.0465 48.5476 43.3619C48.6352 42.7311 48.0538 42.4472 47.9225 41.9489C47.8797 41.6814 47.7445 41.4378 47.5409 41.2611C47.3372 41.0845 47.0782 40.9863 46.8097 40.9838C45.722 40.8135 45.3531 40.353 45.2718 39.1419C45.2031 38.0317 45.6594 37.2495 46.5909 36.9845C47.8118 36.6605 48.8606 35.8714 49.5166 34.7831C49.8042 34.3163 49.9042 33.7612 50.2168 33.2944C51.017 32.1148 50.967 31.4588 50.073 30.3549C50.0296 30.2956 49.9919 30.2322 49.9605 30.1657C49.4291 29.2069 49.2853 29.1501 48.1538 29.3393C47.8162 29.3961 47.3536 29.6547 47.1348 29.4276C46.5847 28.8662 45.997 29.1122 45.4156 29.169C44.1653 29.2762 42.8775 29.415 41.6085 29.5412C41.6085 28.5887 41.6085 27.6488 41.6085 26.69C41.6267 24.9939 41.2168 23.3211 40.4173 21.8291C39.6179 20.3371 38.4551 19.075 37.0386 18.1617C34.0129 16.0548 30.6058 15.7268 27.08 16.4207C22.2163 17.3732 18.3279 21.7004 18.4341 26.8035C18.4716 28.5256 18.4341 30.2477 18.6217 31.9571C18.6967 32.6699 18.3779 32.8024 17.809 32.7898C17.2224 32.7604 16.6479 32.6101 16.1211 32.3482C15.7298 32.1692 15.2969 32.1037 14.8708 32.159C14.4878 32.1918 14.1226 32.3363 13.8196 32.5749C13.5166 32.8134 13.2888 33.1357 13.1641 33.5026C12.9953 34.3415 13.4767 34.8525 14.1081 35.2751C14.6412 35.6245 15.2226 35.8923 15.8335 36.0699C16.4665 36.2339 17.0714 36.4933 17.6277 36.8395C17.9107 36.9768 18.1321 37.2165 18.2479 37.5111C18.3638 37.8056 18.3655 38.1333 18.2528 38.4291C17.6164 40.118 16.6465 41.6588 15.4021 42.9582C14.8833 43.4313 14.3269 43.8917 13.7205 44.3648C13.4046 44.0177 12.9772 43.7942 12.514 43.734C12.3541 43.7222 12.1992 43.6733 12.0613 43.5909C11.9234 43.5086 11.8062 43.3952 11.719 43.2595C11.6318 43.1239 11.5769 42.9697 11.5587 42.8091C11.5404 42.6484 11.5593 42.4857 11.6137 42.3337C11.6167 42.3085 11.6167 42.2831 11.6137 42.258C11.716 41.8169 11.6581 41.3534 11.4504 40.9517C11.2428 40.5501 10.8992 40.2369 10.4822 40.0691C9.44447 39.5519 9.41946 39.4951 9.78205 38.4038C9.95597 37.9857 9.97996 37.5194 9.84987 37.0854C9.71979 36.6513 9.44378 36.2766 9.06938 36.0257C8.17541 35.3066 8.15666 35.2436 8.7193 34.2532C8.98852 33.8701 9.10691 33.3996 9.05145 32.9332C8.99599 32.4669 8.77064 32.038 8.41922 31.73C8.28373 31.6326 8.17329 31.5039 8.09708 31.3547C8.02087 31.2055 7.9811 31.04 7.9811 30.8722C7.9811 30.7043 8.02087 30.5388 8.09708 30.3896C8.17329 30.2404 8.28373 30.1117 8.41922 30.0143C8.79171 29.6906 9.02335 29.2322 9.06428 28.7379C9.1052 28.2436 8.95213 27.7528 8.63802 27.3712C8.53307 27.2581 8.45647 27.1212 8.41463 26.9721C8.37279 26.823 8.36692 26.6659 8.39752 26.514C8.42811 26.3621 8.49428 26.2198 8.5905 26.099C8.68672 25.9782 8.81019 25.8823 8.9506 25.8195C9.17179 25.6998 9.36737 25.5371 9.52612 25.3409C9.68487 25.1447 9.80365 24.9188 9.87568 24.6762C9.9477 24.4336 9.97154 24.179 9.94582 23.927C9.92009 23.6751 9.84531 23.4307 9.72578 23.208C9.64555 23.0747 9.59811 22.9239 9.5874 22.7683C9.57669 22.6127 9.60303 22.4568 9.66422 22.3136C9.7254 22.1703 9.81966 22.0439 9.93912 21.945C10.0586 21.846 10.1998 21.7773 10.3509 21.7446C10.8319 21.5921 11.2334 21.2537 11.4677 20.8033C11.702 20.3529 11.75 19.8272 11.6012 19.3412C11.561 19.2043 11.5511 19.0601 11.5724 18.9189C11.5937 18.7777 11.6456 18.6429 11.7244 18.5242C11.8032 18.4056 11.907 18.3059 12.0283 18.2323C12.1497 18.1588 12.2856 18.1131 12.4264 18.0986C12.6817 18.0765 12.93 18.0034 13.1569 17.8835C13.3839 17.7637 13.585 17.5995 13.7484 17.4005C13.9119 17.2015 14.0345 16.9717 14.1091 16.7244C14.1838 16.4771 14.2089 16.2174 14.1831 15.9602C14.1831 15.2095 14.577 14.8878 15.3271 14.8437C16.6837 14.7554 16.9963 14.5031 17.3589 13.1784C17.5652 12.4277 17.984 12.0934 18.728 12.2385C18.968 12.3135 19.2206 12.3391 19.4706 12.3137C19.7207 12.2883 19.9631 12.2124 20.1836 12.0906C20.404 11.9688 20.5979 11.8036 20.7538 11.6047C20.9097 11.4058 21.0244 11.1773 21.091 10.9328C21.1232 10.784 21.1907 10.6454 21.2877 10.5289C21.3847 10.4123 21.5083 10.3212 21.6479 10.2635C21.7875 10.2058 21.9389 10.1832 22.0891 10.1976C22.2393 10.212 22.3838 10.2629 22.5101 10.3461C22.9691 10.5901 23.5049 10.6415 24.0012 10.4892C24.4976 10.3368 24.9142 9.99299 25.1607 9.53241C25.2242 9.39798 25.3181 9.28054 25.435 9.18965C25.5518 9.09876 25.6883 9.03697 25.8333 9.00931C25.9782 8.98165 26.1276 8.9889 26.2693 9.03047C26.411 9.07204 26.5409 9.14676 26.6486 9.24855C27.0515 9.57695 27.5667 9.73139 28.0819 9.67822C28.5971 9.62505 29.0706 9.36858 29.3993 8.96469C29.4855 8.84357 29.5991 8.7449 29.7307 8.67683C29.8622 8.60877 30.0079 8.57327 30.1557 8.57327C30.3035 8.57327 30.4492 8.60877 30.5808 8.67683C30.7123 8.7449 30.8259 8.84357 30.9121 8.96469C31.0734 9.1659 31.2724 9.33294 31.4979 9.45619C31.7233 9.57945 31.9707 9.65649 32.2258 9.68287C32.4809 9.70926 32.7386 9.68446 32.9842 9.60992C33.2297 9.53538 33.4582 9.41257 33.6565 9.24855C33.7636 9.14543 33.8935 9.06955 34.0354 9.02718C34.1774 8.98482 34.3273 8.97719 34.4727 9.00494C34.6182 9.03268 34.7549 9.09501 34.8718 9.18673C34.9886 9.27846 35.082 9.39696 35.1444 9.53241C35.3897 9.99255 35.8053 10.3363 36.3006 10.4887C36.7958 10.6411 37.3308 10.5898 37.7888 10.3461C37.915 10.2684 38.0576 10.2219 38.205 10.2104C38.3524 10.1989 38.5004 10.2227 38.6369 10.2799C38.7734 10.3371 38.8946 10.4261 38.9906 10.5395C39.0866 10.653 39.1546 10.7877 39.1891 10.9328C39.3355 11.4204 39.6658 11.8306 40.109 12.0748C40.5522 12.319 41.0727 12.3778 41.5584 12.2385C41.7092 12.185 41.8704 12.168 42.0289 12.1889C42.1874 12.2098 42.3388 12.2681 42.4708 12.359C42.6029 12.4499 42.7119 12.5708 42.7891 12.7121C42.8662 12.8533 42.9094 13.0109 42.915 13.1721C42.9397 13.4247 43.0145 13.6698 43.1349 13.8927C43.2554 14.1156 43.4191 14.3117 43.6162 14.4695C43.8134 14.6272 44.04 14.7433 44.2825 14.8108C44.5251 14.8784 44.7786 14.896 45.028 14.8626C45.6532 14.8626 46.0783 15.1528 46.0783 15.8782C46.0517 16.1502 46.0795 16.4249 46.16 16.6859C46.2405 16.9469 46.3721 17.189 46.547 17.3978C46.7218 17.6066 46.9364 17.7779 47.1781 17.9015C47.4197 18.0251 47.6835 18.0986 47.9537 18.1175C48.0867 18.1312 48.2147 18.1755 48.3281 18.2469C48.4415 18.3183 48.5371 18.4149 48.6077 18.5294C48.6783 18.6439 48.722 18.7732 48.7355 18.9073C48.7489 19.0415 48.7317 19.177 48.6852 19.3034C48.6033 19.5559 48.5724 19.8225 48.5944 20.0872C48.6164 20.352 48.6908 20.6096 48.8132 20.8449C48.9356 21.0801 49.1035 21.2882 49.307 21.4568C49.5105 21.6255 49.7455 21.7512 49.998 21.8266C50.1408 21.8638 50.273 21.9344 50.3839 22.0325C50.4949 22.1306 50.5815 22.2536 50.6368 22.3916C50.6921 22.5296 50.7146 22.6788 50.7024 22.8271C50.6903 22.9755 50.6439 23.1189 50.5669 23.2459C50.3267 23.6953 50.2727 24.2224 50.4168 24.7118C50.5609 25.2013 50.8914 25.6132 51.3358 25.8573C51.4765 25.9225 51.5999 26.0204 51.696 26.1429C51.7921 26.2655 51.858 26.4092 51.8885 26.5624C51.919 26.7155 51.9131 26.8738 51.8714 27.0243C51.8297 27.1747 51.7532 27.3131 51.6484 27.428C51.4864 27.6222 51.3647 27.8472 51.2907 28.0898C51.2166 28.3323 51.1917 28.5874 51.2174 28.8399C51.243 29.0924 51.3188 29.3371 51.4401 29.5594C51.5614 29.7817 51.7258 29.9772 51.9234 30.1341C52.048 30.227 52.149 30.3483 52.2182 30.4881C52.2874 30.6279 52.3229 30.7822 52.3217 30.9384C52.3204 31.0947 52.2826 31.2485 52.2112 31.3871C52.1398 31.5258 52.0369 31.6455 51.9109 31.7363L51.9172 31.7679Z" fill="white"/>
<path d="M55.0367 20.7858C55.5618 20.6218 55.368 20.401 55.1367 20.155C54.5417 20.476 53.9125 20.7278 53.2612 20.9057C53.1487 21.3283 53.2612 21.5049 53.7113 21.3283C54.1615 21.1517 54.5803 20.9309 55.0367 20.7858Z" fill="white"/>
<path d="M28.8054 55.6435L27.2925 55.511C27.1175 55.511 26.9987 55.5551 26.9737 55.7381C26.9487 55.921 27.0487 56.003 27.1863 55.9904C27.8114 55.9399 27.6364 56.3752 27.6239 56.7032C27.6114 57.0312 27.5551 57.334 27.5176 57.5989C27.4801 57.8638 27.3863 58.0846 27.7739 58.1288C28.1615 58.1729 28.1177 57.8765 28.1427 57.6431C28.1677 57.4097 28.224 57.088 28.2427 56.8041C28.2615 56.5203 28.1802 56.003 28.8054 56.1229C28.9491 56.1229 29.0179 56.0282 29.0242 55.8768C29.0304 55.7255 28.9617 55.6561 28.8054 55.6435Z" fill="white"/>
<path d="M8.67558 17.3353C8.93482 17.3426 9.18766 17.2534 9.38594 17.0847C9.58422 16.9161 9.71409 16.6797 9.75082 16.4207C9.75082 16.2819 9.81959 16.0737 9.64455 16.0359C9.60253 16.02 9.55723 16.015 9.51279 16.0213C9.46835 16.0276 9.42619 16.045 9.39014 16.072C9.35409 16.0989 9.32531 16.1346 9.30642 16.1757C9.28752 16.2167 9.27911 16.2619 9.28197 16.3071C9.28423 16.3787 9.27119 16.4499 9.24373 16.5159C9.21626 16.5819 9.17502 16.6412 9.12282 16.6897C9.07062 16.7381 9.00867 16.7747 8.9412 16.7969C8.87373 16.819 8.80233 16.8263 8.73184 16.8181C8.57779 16.8114 8.42828 16.7635 8.29865 16.6792C8.16901 16.595 8.06393 16.4774 7.99419 16.3387C7.9549 16.2795 7.92862 16.2126 7.91713 16.1423C7.90564 16.0721 7.9092 16.0002 7.92756 15.9315C7.94592 15.8627 7.97866 15.7988 8.02358 15.7439C8.06851 15.689 8.12456 15.6444 8.18798 15.6132C8.37552 15.4871 8.42553 15.3294 8.25674 15.178C8.08796 15.0266 7.96918 15.178 7.85666 15.26C7.67834 15.3868 7.54506 15.568 7.47642 15.7769C7.40777 15.9858 7.40739 16.2115 7.47532 16.4207C7.56843 16.6725 7.73082 16.8924 7.94342 17.0544C8.15602 17.2164 8.41001 17.3139 8.67558 17.3353Z" fill="white"/>
<path d="M8.00667 19.1772C8.11295 19.2339 8.18797 19.1772 8.24423 19.0636C8.30049 18.9501 8.39427 18.8113 8.24423 18.7482C7.76287 18.5842 7.71911 18.2814 7.91915 17.9408C7.95422 17.7648 7.9222 17.582 7.82949 17.4288C7.73678 17.2756 7.5902 17.1634 7.41905 17.1145C7.269 17.0434 7.09711 17.0354 6.94119 17.0921C6.78528 17.1489 6.65809 17.2659 6.58761 17.4172C6.44382 17.6569 6.08123 18.0039 6.31879 18.1931C6.8511 18.5714 7.41599 18.9008 8.00667 19.1772ZM7.18774 17.5749C7.21948 17.5757 7.25076 17.583 7.27969 17.5962C7.30863 17.6094 7.33465 17.6283 7.35621 17.6518C7.37778 17.6753 7.39444 17.703 7.40523 17.7331C7.41603 17.7632 7.42073 17.7953 7.41905 17.8273C7.41905 17.9976 7.35653 18.1237 7.16898 18.149C6.98144 18.1742 6.84391 18.0607 6.87517 17.8651C6.87966 17.7829 6.91404 17.7053 6.97171 17.6471C7.02938 17.5889 7.1063 17.5542 7.18774 17.5497V17.5749Z" fill="white"/>
<path d="M8.55684 14.8628C8.95693 15.1845 9.36328 15.4935 9.75712 15.8089C9.91341 15.9351 10.0509 16.0171 10.201 15.8089C10.351 15.6008 10.201 15.544 10.0885 15.4368C9.97592 15.3295 9.50707 15.1971 9.83215 14.7492C10.1572 14.3013 10.3198 14.5852 10.5511 14.7492C10.7824 14.9132 10.8449 14.9511 11.0012 14.7492C11.1575 14.5474 11.0012 14.4717 10.8699 14.3897C10.4323 14.0364 9.98218 13.7021 9.53833 13.3551C9.51371 13.326 9.48239 13.3035 9.44711 13.2895C9.41182 13.2755 9.37367 13.2704 9.336 13.2748C9.29834 13.2791 9.2623 13.2928 9.23109 13.3145C9.19987 13.3362 9.17442 13.3653 9.15699 13.3993C9.06321 13.5318 9.11322 13.639 9.2195 13.7336C9.32577 13.8282 9.52582 13.9923 9.69461 14.131C9.5748 14.3115 9.43877 14.4804 9.28826 14.6357C9.08196 14.8123 8.97569 14.56 8.85066 14.4717C8.72563 14.3833 8.53184 14.1941 8.3568 14.4717C8.18176 14.7492 8.43181 14.7618 8.55684 14.8628Z" fill="white"/>
<path d="M11.4575 11.6077C11.77 11.2482 11.9326 11.6077 12.1139 11.7591C12.2952 11.9105 12.539 12.2007 12.739 12.4214C12.9391 12.6422 13.0891 12.4719 13.2454 12.2701C13.0597 12.1058 12.892 11.9218 12.7453 11.7213C12.5765 11.4374 12.1201 11.3302 12.2264 10.8886C12.2827 10.7183 12.5327 10.5858 12.2702 10.4029C12.0076 10.22 11.9263 10.5038 11.7888 10.6174C11.6513 10.7309 11.3762 10.9959 11.1637 11.1851C10.9511 11.3743 10.9949 11.4311 11.1262 11.5699C11.2574 11.7087 11.3387 11.7591 11.4575 11.6077Z" fill="white"/>
<path d="M13.9268 10.9769C13.9893 11.1346 13.9268 11.4626 14.2081 11.4248C14.4894 11.3869 14.4832 11.2103 14.4644 10.9517C14.4269 10.4912 14.7832 10.4155 15.1208 10.3587C15.3646 10.548 15.5772 10.4723 15.6584 10.2704C15.7397 10.0686 15.4584 9.98026 15.3146 9.88564C14.8958 9.60178 14.4519 9.34947 14.0268 9.07192C13.9588 9.01608 13.8738 8.9856 13.7861 8.9856C13.6985 8.9856 13.6135 9.01608 13.5454 9.07192C13.4747 9.12796 13.4258 9.20745 13.4075 9.29634C13.3892 9.38522 13.4026 9.47777 13.4454 9.55763C13.6017 9.98657 13.7392 10.4849 13.9268 10.9769ZM14.4457 10.0686C14.4457 10.119 14.3269 10.2073 14.2769 10.1947C13.9768 10.138 14.0643 9.89195 13.9518 9.59548C14.2394 9.71533 14.4957 9.71533 14.4457 10.0433V10.0686Z" fill="white"/>
<path d="M11.0449 14.0867C11.1074 14.1939 11.1324 14.4336 11.3512 14.3012C11.4225 14.2741 11.4806 14.2202 11.5133 14.1508C11.5459 14.0813 11.5506 14.0018 11.5262 13.929C11.3762 13.3928 11.6575 13.1721 12.1514 13.191C12.2407 13.201 12.3308 13.1827 12.4092 13.1386C12.4877 13.0945 12.5505 13.0268 12.589 12.945C12.589 12.7873 12.4765 12.7557 12.3702 12.7116C11.8326 12.4845 11.2887 12.2763 10.7511 12.0808C10.576 12.0051 10.4322 11.942 10.2884 12.1376C10.232 12.2057 10.201 12.2916 10.201 12.3804C10.201 12.4692 10.232 12.5552 10.2884 12.6233C10.551 13.0901 10.776 13.5947 11.0449 14.0867ZM11.3887 12.926C11.3887 12.9576 11.2824 13.1216 11.2074 13.1342C10.9323 13.1721 10.9886 12.8504 10.701 12.7557C11.1199 12.6422 11.2887 12.7305 11.3887 12.926Z" fill="white"/>
<path d="M7.05648 21.3157H7.3503C7.25471 21.1458 7.19812 20.9564 7.1847 20.7615C7.17129 20.5667 7.20138 20.3712 7.27277 20.1896C7.34416 20.008 7.45503 19.8449 7.5972 19.7123C7.73937 19.5797 7.90923 19.4809 8.09425 19.4233C7.3253 19.3035 6.66888 19.2593 6.01246 19.2152C5.83742 19.2152 5.66237 19.1647 5.56859 19.3981C5.47482 19.6315 5.5686 19.7324 5.69988 19.8712L7.05648 21.3157ZM6.62512 19.8081C6.71889 19.8081 6.81266 19.8081 6.81891 19.9027C6.82516 19.9974 6.7439 20.1298 6.63762 20.0857C6.53134 20.0415 6.44382 19.9784 6.43132 19.909C6.41881 19.8397 6.55635 19.8081 6.62512 19.8081Z" fill="white"/>
<path d="M6.01241 28.6392C5.72974 28.6753 5.44397 28.6025 5.21219 28.4352C4.98041 28.268 4.81968 28.0187 4.76212 27.7371C4.69961 27.5227 4.58707 27.2767 4.30576 27.2956C4.02444 27.3145 3.97444 27.5353 3.91192 27.7182C3.85574 28.0014 3.69585 28.2528 3.46411 28.4224C3.23238 28.5919 2.94584 28.6671 2.66163 28.6329C2.43032 28.6329 2.17401 28.6707 2.09274 28.9357C2.01147 29.2006 2.21152 29.3267 2.36781 29.4403C2.61364 29.5997 2.79638 29.8409 2.88431 30.122C2.97225 30.4032 2.95981 30.7066 2.84916 30.9794C2.70538 31.4399 2.93669 31.7805 3.39305 31.4778C3.6601 31.2649 3.99046 31.1492 4.33077 31.1492C4.67107 31.1492 5.00144 31.2649 5.26849 31.4778C5.54355 31.667 5.80611 31.5282 5.77486 31.1308C5.68808 30.7848 5.66478 30.4256 5.70609 30.0711C5.80611 29.762 6.1687 29.5475 6.375 29.2574C6.8001 28.778 6.40001 28.6392 6.01241 28.6392Z" fill="white"/>
<path d="M5.28097 24.1732C5.406 24.0092 5.50602 23.6812 5.78734 23.902C6.06865 24.1227 5.81859 24.2741 5.67481 24.4192C5.53103 24.5643 5.67481 24.6904 5.73733 24.804C5.79984 24.9175 5.90611 24.886 5.98738 24.804C6.10551 24.7064 6.20011 24.5831 6.26401 24.4432C6.32791 24.3033 6.35944 24.1506 6.35621 23.9966C6.36105 23.8542 6.31795 23.7143 6.23395 23.5998C6.14995 23.4852 6.03 23.4027 5.89361 23.3658C5.76291 23.3082 5.61663 23.2975 5.47904 23.3353C5.34145 23.3732 5.22083 23.4574 5.13718 23.5739C4.99965 23.7316 4.91839 24.0786 4.64957 23.9524C4.38076 23.8263 4.64958 23.5802 4.71209 23.3216C4.67645 23.2401 4.6302 23.1637 4.57456 23.0945C4.44328 22.9747 4.34326 23.0945 4.26199 23.1829C4.18657 23.2526 4.12634 23.3374 4.08515 23.4319C4.04395 23.5263 4.02267 23.6284 4.02267 23.7316C4.02267 23.8349 4.04395 23.9369 4.08515 24.0314C4.12634 24.1259 4.18657 24.2107 4.26199 24.2804C4.32786 24.3571 4.41108 24.4166 4.50459 24.4539C4.5981 24.4911 4.69915 24.5051 4.79915 24.4946C4.89916 24.4841 4.99518 24.4494 5.07905 24.3934C5.16293 24.3375 5.2322 24.2619 5.28097 24.1732Z" fill="white"/>
<path d="M26.1798 55.4606C25.3733 54.9055 24.7544 55.1515 24.5857 56.0914C24.5182 56.2574 24.4841 56.4354 24.4856 56.6149C24.5607 56.9556 24.0043 57.4476 24.5794 57.6053C25.1545 57.763 24.7545 56.9745 25.2046 56.8042C25.9672 57.8261 25.9672 57.8261 26.2736 57.8261C26.061 57.1133 26.0798 57.1196 26.4361 56.4068C26.4843 56.3286 26.516 56.2412 26.5292 56.1501C26.5424 56.0589 26.5367 55.966 26.5127 55.8772C26.4886 55.7884 26.4466 55.7055 26.3893 55.6338C26.3321 55.5621 26.2607 55.5031 26.1798 55.4606ZM25.4796 56.3058C25.2671 56.3058 25.1483 56.2302 25.1983 55.9904C25.2483 55.7507 25.2546 55.6814 25.3546 55.7129C25.6547 55.8138 25.9172 55.8075 25.8922 56.0914C25.8672 56.3752 25.6359 56.3122 25.4546 56.3058H25.4796Z" fill="white"/>
<path d="M19.8345 53.8332C19.5665 53.9619 19.3499 54.1788 19.2204 54.4482C19.0909 54.7176 19.0561 55.0235 19.1218 55.3156C19.1778 55.6159 19.3309 55.889 19.5571 56.0922C19.7834 56.2954 20.07 56.4171 20.3721 56.4384C20.5847 56.3942 20.891 56.4825 20.916 56.1608C20.941 55.8391 20.716 55.8076 20.4471 55.8139C20.3599 55.8227 20.2719 55.813 20.1887 55.7853C20.1055 55.7575 20.0289 55.7125 19.9641 55.653C19.8993 55.5935 19.8475 55.521 19.8123 55.44C19.777 55.359 19.759 55.2715 19.7595 55.1831C19.7364 55.0157 19.7687 54.8454 19.8511 54.6983C19.9336 54.5512 20.0618 54.4356 20.2158 54.3694C20.3505 54.292 20.5089 54.2679 20.6602 54.3017C20.8115 54.3355 20.945 54.4248 21.0348 54.5523C21.2223 54.792 21.4161 54.6848 21.5599 54.5523C21.7037 54.4198 21.5599 54.2748 21.4786 54.1738C21.2803 53.9419 21.0114 53.7827 20.714 53.7211C20.4166 53.6595 20.1074 53.6989 19.8345 53.8332Z" fill="white"/>
<path d="M23.5979 54.7919C22.3476 54.2936 22.3476 54.2999 21.9976 55.593C21.9976 55.6435 21.9976 55.694 21.9976 55.7444C21.6725 56.8861 21.6662 56.8988 22.8352 57.2015C23.0165 57.2457 23.3166 57.5737 23.4291 57.088C23.5417 56.6023 23.1603 56.8231 23.004 56.7095C22.8478 56.596 22.3789 56.7095 22.4789 56.3058C22.5789 55.9021 22.8853 56.186 23.1041 56.1923C23.3229 56.1986 23.4854 56.4131 23.5979 56.0913C23.7104 55.7696 23.3979 55.7633 23.2228 55.6813C23.0478 55.5993 22.829 55.6119 22.7415 55.4038C22.7977 55.2713 22.7727 55.101 22.9728 55.1578C23.1728 55.2146 23.3166 55.2461 23.4854 55.3092C23.6542 55.3722 23.8855 55.3849 23.9542 55.1136C24.023 54.8424 23.7354 54.8487 23.5979 54.7919Z" fill="white"/>
<path d="M16.0524 9.96766C16.5025 10.1001 17.1276 9.17916 17.0839 8.64929C17.06 8.37076 16.9452 8.10811 16.7573 7.9026C16.5695 7.69708 16.3193 7.56034 16.0461 7.51385C15.6081 7.5586 15.196 7.74438 14.8708 8.04372C14.6082 8.24558 14.8708 8.41589 14.9458 8.56098C15.3084 9.04669 15.4522 9.79734 16.0524 9.96766ZM15.8773 8.03742C16.3524 8.03742 16.54 8.35912 16.59 8.76914C16.6213 9.053 16.44 9.24855 16.0774 9.39994C15.8356 9.0723 15.6262 8.72159 15.4522 8.35281C15.3647 8.11311 15.6773 8.04372 15.8773 8.03742Z" fill="white"/>
<path d="M6.86265 21.3535C6.33126 21.1769 5.79987 21.0066 5.27473 20.8174C5.09344 20.7543 5.01217 20.7732 4.9184 20.9498C4.82462 21.1265 4.96216 21.2274 5.09344 21.2778C5.37476 21.3914 5.66233 21.4797 5.94991 21.5806L5.9124 21.7131C5.54356 21.7888 5.17471 21.8708 4.80586 21.9276C4.58081 21.9654 4.51829 22.1042 4.48078 22.2934C4.44327 22.4827 4.61832 22.5836 4.78086 22.6404C5.26223 22.8107 5.74986 22.9747 6.22498 23.1513C6.43128 23.227 6.57507 23.1955 6.63759 22.9684C6.7001 22.7413 6.50631 22.7287 6.37502 22.6782C6.0937 22.5647 5.81238 22.47 5.49354 22.3565C5.88784 22.1774 6.31197 22.0747 6.74386 22.0537C6.84362 22.0287 6.933 21.9726 6.99924 21.8933C7.06548 21.814 7.10519 21.7156 7.11271 21.6122C7.11271 21.4671 6.98768 21.3914 6.86265 21.3535Z" fill="white"/>
</svg>
