<svg width="160" height="50" viewBox="0 0 160 50" fill="none" xmlns="http://www.w3.org/2000/svg">
<path d="M100.167 24.7943C100.265 24.7267 100.397 24.7374 100.483 24.8201C100.682 25.0123 100.863 25.2232 101.024 25.4498C101.03 25.4584 101.035 25.4674 101.04 25.4767C101.518 26.3741 102.019 27.2757 102.538 28.2094C102.762 28.6127 102.99 29.022 103.22 29.4395C103.97 28.0666 104.678 26.7735 105.404 25.4866C105.407 25.4818 105.41 25.4772 105.413 25.4727C105.566 25.2382 105.743 25.0205 105.941 24.8231C106.014 24.7493 106.126 24.7292 106.221 24.7727L106.454 24.8794C106.543 24.9201 106.6 25.0089 106.6 25.1067V27.5292V27.5346V27.54V27.5454V27.5508V27.5562V27.5616V27.567V27.5724V27.5778V27.5832V27.5886V27.594V27.5994V27.6048V27.6102V27.6156V27.621V27.6264V27.6318V27.6372V27.6426V27.648V27.6534V27.6588V27.6642V27.6696V27.675V27.6804V27.6858V27.6912V27.6966V27.702V27.7074V27.7128V27.7182V27.7236V27.729V27.7344V27.7398V27.7452V27.7506V27.756V27.7615V27.7669V27.7723V27.7777V27.7831V27.7885V27.7939V27.7993V27.8047V27.8101V27.8155V27.8209V27.8263V27.8317V27.8371V27.8425V27.8479V27.8533V27.8587V27.8641V27.8695V27.8749V27.8803V27.8857V27.8911V27.8965V27.9019V27.9073V27.9127V27.9181V27.9235V27.9289V27.9343V27.9397V27.9451V27.9505V27.9559V27.9613V27.9667V27.9721V27.9775V27.9829V27.9883V27.9937V27.9991V28.0045V28.0099V28.0153V28.0207V28.0261V28.0315V28.0369V28.0424V28.0478V28.0532V28.0586V28.064V28.0694V28.0748V28.0802V28.0856V28.091V28.0964V28.1018V28.1072V28.1126V28.118V28.1234V28.1288V28.1342V28.1396V28.145V28.1504V28.1558V28.1612V28.1666V28.172V28.1774V28.1828V28.1882V28.1936V28.199V28.2044V28.2099V28.2153V28.2207V28.2261V28.2315V28.2369V28.2423V28.2477V28.2531V28.2585V28.2639V28.2693V28.2747V28.2801V28.2855V28.2909V28.2963V28.3017V28.3071V28.3125V28.3179V28.3233V28.3287V28.3341V28.3396V28.345V28.3504V28.3558V28.3612V28.3666V28.372V28.3774V28.3828V28.3882V28.3936V28.399V28.4044V28.4098V28.4152V28.4206V28.426V28.4314V28.4369V28.4423V28.4477V28.4531V28.4585V28.4639V28.4693V28.4747V28.4801V28.4855V28.4909V28.4963V28.5017V28.5071V28.5125V28.5179V28.5234V28.5288V28.5342V28.5396V28.545V28.5504V28.5558V28.5612V28.5666V28.572V28.5774V28.5828V28.5882V28.5936V28.5991V28.6045V28.6099V28.6153V28.6207V28.6261V28.6315V28.6369V28.6423V28.6477V28.6531V28.6585V28.664V28.6694V28.6748V28.6802V28.6856V28.691V28.6964V28.7018V28.7072V28.7126V28.718V28.7235V28.7289V28.7343V28.7397V28.7451V28.7505V28.7559V28.7613V28.7667V28.7721V28.7776V28.783V28.7884V28.7938V28.7992V28.8046V28.81V28.8154V28.8208V28.8262V28.8317V28.8371V28.8425V28.8479V28.8533V28.8587V28.8641V28.8695V28.8749V28.8804V28.8858V28.8912V28.8966V28.902V28.9074V28.9128V28.9182V28.9237V28.9291V28.9345V28.9399V28.9453V28.9507V28.9561V28.9615V28.967V28.9724V28.9778V28.9832V28.9886V28.994V28.9994V29.0049V29.0103V29.0157V29.0211V29.0265V29.0319V29.0373V29.0428V29.0482V29.0536V29.059V29.0644V29.0698V29.0752V29.0807V29.0861V29.0915V29.0969V29.1023V29.1077V29.1131V29.1186V29.124V29.1294V29.1348V29.1402V29.1456V29.1511V29.1565V29.1619V29.1673V29.1727V29.1781V29.1836V29.189V29.1944V29.1998V29.2052V29.2106V29.2161V29.2215V29.2269V29.2323V29.2377V29.2432V29.2486V29.254V29.2594V29.2648V29.2702V29.2757V29.2811V29.2865V29.2919V29.2973V29.3028V29.3082V29.3136V29.319V29.3244V29.3299V29.3353V29.3407V29.3461V29.3515V29.357V29.3624V29.3678V29.3732V29.3786V29.3841V29.3895V29.3949V29.4003V29.4057V29.4112V29.4166V29.422V29.4274V29.4329V29.4383V29.4437V29.4491V29.4545V29.46V29.4654V29.4708V29.4762V29.4817V29.4871V29.4925V29.4979V29.5034V29.5088V29.5142V29.5196V29.5251V29.5305V29.5359V29.5413V29.5468V29.5522V29.5576V29.563V29.5685V29.5739V29.5793V29.5847V29.5902V29.5956V29.601V29.6064V29.6119V29.6173V29.6227V29.6281V29.6336V29.639V29.6444V29.6498V29.6553V29.6607V29.6661V29.6716V29.677V29.6824V29.6878V29.6933V29.6987V29.7041V29.7096V29.715V29.7204V29.7258V29.7313V29.7367V29.7421V29.7476V29.753V29.7584V29.7638V29.7693V29.7747V29.7801V29.7856V29.791V29.7964V29.8019V29.8073V29.8127V29.8182V29.8236V29.829V29.8345V29.8399V29.8453V29.8507V29.8562V29.8616V29.867V29.8725V29.8779V29.8833V29.8888V29.8942V29.8996V29.9051V29.9105V29.9159V29.9214V29.9268V29.9323V29.9377V29.9431V29.9486V29.954V29.9594V29.9649V29.9703V29.9757V29.9812V29.9866V29.992V29.9975V30.0029V30.0084V30.0138V30.0192V30.0247V30.0301V30.0355V30.041V30.0464V30.0519V30.0573V30.0627V30.0682V30.0736V30.079V30.0845V30.0899V30.0954V30.1008V30.1062V30.1117V30.1171V30.1226V30.128V30.1334V30.1389V30.1443V30.1498V30.1552V30.1606V30.1661V30.1715V30.177V30.1824V30.1879V30.1933V30.1987V30.2042V30.2096V30.2151V30.2205V30.226V30.2314V30.2368V30.2423V30.2477V30.2532V30.2586V30.2641V30.2695V30.2749V30.2804V30.2858V30.2913V30.2967V30.3022C106.6 30.4416 106.54 30.5635 106.498 30.6422C106.476 30.6832 106.458 30.7146 106.442 30.7419C106.419 30.782 106.401 30.8132 106.383 30.8529C106.345 30.9394 106.261 30.9968 106.167 31.0014C106.072 31.0059 105.983 30.9567 105.937 30.8743C105.913 30.8321 105.89 30.8003 105.862 30.7604C105.841 30.7314 105.817 30.6981 105.788 30.6533C105.733 30.5709 105.657 30.4438 105.65 30.291L105.649 30.2793H105.65C105.65 29.2401 105.649 28.2053 105.577 27.1451C105.49 27.2979 105.404 27.4529 105.318 27.6156L105.315 27.6206L105.315 27.6205C105.075 28.05 104.838 28.4835 104.599 28.9179L104.599 28.9182C104.361 29.3522 104.122 29.7871 103.882 30.2183L103.881 30.2188C103.789 30.3836 103.702 30.5249 103.617 30.6269C103.538 30.7204 103.413 30.8393 103.235 30.8407C103.055 30.8421 102.928 30.7227 102.85 30.628C102.765 30.5256 102.679 30.3834 102.589 30.2169M100.167 24.7943L102.808 30.0965M100.167 24.7943L99.9796 24.9238C99.912 24.9704 99.8716 25.0474 99.8716 25.1295V25.14V25.1505V25.161V25.1715V25.182V25.1924V25.2029V25.2134V25.2239V25.2344V25.2449V25.2554V25.2658V25.2763V25.2868V25.2973V25.3078V25.3183V25.3287V25.3392V25.3497V25.3602V25.3707V25.3812V25.3916V25.4021V25.4126V25.4231V25.4336V25.444V25.4545V25.465V25.4755V25.486V25.4964V25.5069V25.5174V25.5279V25.5383V25.5488V25.5593V25.5698V25.5802V25.5907V25.6012V25.6117V25.6221V25.6326V25.6431V25.6536V25.664V25.6745V25.685V25.6955V25.7059V25.7164V25.7269V25.7373V25.7478V25.7583V25.7687V25.7792V25.7897V25.8002V25.8106V25.8211V25.8316V25.842V25.8525V25.863V25.8734V25.8839V25.8943V25.9048V25.9153V25.9257V25.9362V25.9467V25.9571V25.9676V25.9781V25.9885V25.999V26.0094V26.0199V26.0304V26.0408V26.0513V26.0618V26.0722V26.0827V26.0931V26.1036V26.114V26.1245V26.135V26.1454V26.1559V26.1663V26.1768V26.1872V26.1977V26.2082V26.2186V26.2291V26.2395V26.25V26.2604V26.2709V26.2813V26.2918V26.3022V26.3127V26.3232V26.3336V26.3441V26.3545V26.365V26.3754V26.3859V26.3963V26.4068V26.4172V26.4277V26.4381V26.4486V26.459V26.4695V26.4799V26.4903V26.5008V26.5112V26.5217V26.5321V26.5426V26.553V26.5635V26.5739V26.5844V26.5948V26.6053V26.6157V26.6261V26.6366V26.647V26.6575V26.6679V26.6784V26.6888V26.6992V26.7097V26.7201V26.7306V26.741V26.7514V26.7619V26.7723V26.7828V26.7932V26.8036V26.8141V26.8245V26.8349V26.8454V26.8558V26.8663V26.8767V26.8871V26.8976V26.908V26.9184V26.9289V26.9393V26.9497V26.9602V26.9706V26.981V26.9915V27.0019V27.0123V27.0228V27.0332V27.0436V27.0541V27.0645V27.0749V27.0854V27.0958V27.1062V27.1166V27.1271V27.1375V27.1479V27.1584V27.1688V27.1792V27.1896V27.2001V27.2105V27.2209V27.2314V27.2418V27.2522V27.2626V27.2731V27.2835V27.2939V27.3043V27.3148V27.3252V27.3356V27.346V27.3565V27.3669V27.3773V27.3877V27.3981V27.4086V27.419V27.4294V27.4398V27.4503V27.4607V27.4711V27.4815V27.4919V27.5024V27.5128V27.5232V27.5336V27.544V27.5544V27.5649V27.5753V27.5857V27.5961V27.6065V27.617V27.6274V27.6378V27.6482V27.6586V27.669V27.6794V27.6899V27.7003V27.7107V27.7211V27.7315V27.7419V27.7523V27.7628V27.7732V27.7836V27.794V27.8044V27.8148V27.8252V27.8356V27.846V27.8565V27.8669V27.8773V27.8877V27.8981V27.9085V27.9189V27.9293V27.9397V27.9501V27.9605V27.971V27.9814V27.9918V28.0022V28.0126V28.023V28.0334V28.0438V28.0542V28.0646V28.075V28.0854V28.0958V28.1062V28.1166V28.127V28.1374V28.1478V28.1582V28.1687V28.1791V28.1895V28.1999V28.2103V28.2207V28.2311V28.2415V28.2519V28.2623V28.2727V28.2831V28.2935V28.3039V28.3143V28.3247V28.3351V28.3455V28.3559V28.3663V28.3767V28.3871V28.3974V28.4078V28.4182V28.4286V28.439V28.4494V28.4598V28.4702V28.4806V28.491V28.5014V28.5118V28.5222V28.5326V28.543V28.5534V28.5638V28.5742V28.5846V28.595V28.6053V28.6157V28.6261V28.6365V28.6469V28.6573V28.6677V28.6781V28.6885V28.6989V28.7093V28.7196V28.73V28.7404V28.7508V28.7612V28.7716V28.782V28.7924V28.8028V28.8131V28.8235V28.8339V28.8443V28.8547V28.8651V28.8755V28.8859V28.8962V28.9066V28.917V28.9274V28.9378V28.9482V28.9586V28.9689V28.9793V28.9897V29.0001V29.0105V29.0209V29.0312V29.0416V29.052V29.0624V29.0728V29.0832V29.0935V29.1039V29.1143V29.1247V29.1351V29.1454V29.1558V29.1662V29.1766V29.187V29.1973V29.2077V29.2181V29.2285V29.2389V29.2492V29.2596V29.27V29.2804V29.2908V29.3011V29.3115V29.3219V29.3323V29.3426V29.353V29.3634V29.3738V29.3841V29.3945V29.4049V29.4153V29.4256V29.436V29.4464V29.4568V29.4671V29.4775V29.4879V29.4983V29.5086V29.519V29.5294V29.5398V29.5501V29.5605V29.5709V29.5812V29.5916V29.602V29.6124V29.6227V29.6331V29.6435V29.6538V29.6642V29.6746V29.685V29.6953V29.7057V29.7161V29.7264V29.7368V29.7472V29.7575V29.7679V29.7783V29.7886V29.799V29.8094V29.8197V29.8301V29.8405V29.8508V29.8612V29.8716V29.8819V29.8923V29.9027V29.913V29.9234V29.9338V29.9441V29.9545V29.9649V29.9752V29.9856V29.996V30.0063V30.0167V30.0271V30.0374V30.0478V30.0581V30.0685V30.0789V30.0892V30.0996V30.11V30.1203V30.1307V30.141V30.1514V30.1618V30.1721V30.1825V30.1928V30.2032V30.2136V30.2239V30.2343V30.2446V30.255V30.2654V30.2757V30.2861V30.2964V30.3068V30.3172V30.3275V30.3379V30.3482V30.3586V30.3689V30.3793V30.3897V30.4V30.4104V30.4207V30.4311V30.4414V30.4518V30.4622C99.8716 30.5472 99.902 30.6163 99.9298 30.6634C99.9576 30.7105 99.9915 30.7502 100.019 30.7797C100.042 30.8042 100.067 30.8288 100.086 30.8482C100.09 30.8522 100.094 30.8559 100.098 30.8594C100.122 30.8832 100.136 30.8984 100.146 30.9103C100.196 30.9717 100.273 31.0055 100.353 31.0013C100.432 30.9971 100.505 30.9553 100.548 30.8889C100.559 30.8719 100.575 30.8515 100.599 30.8224C100.603 30.8176 100.607 30.8124 100.611 30.8069C100.631 30.7832 100.655 30.7541 100.676 30.7255C100.722 30.6638 100.807 30.5442 100.807 30.3936V30.3879V30.3823V30.3766V30.3709V30.3652V30.3596V30.3539V30.3482V30.3426V30.3369V30.3312V30.3256V30.3199V30.3142V30.3086V30.3029V30.2972V30.2916V30.2859V30.2802V30.2745V30.2689V30.2632V30.2575V30.2519V30.2462V30.2405V30.2349V30.2292V30.2235V30.2179V30.2122V30.2065V30.2008V30.1952V30.1895V30.1838V30.1782V30.1725V30.1668V30.1612V30.1555V30.1498V30.1442V30.1385V30.1328V30.1271V30.1215V30.1158V30.1101V30.1045V30.0988V30.0931V30.0875V30.0818V30.0761V30.0705V30.0648V30.0591V30.0534V30.0478V30.0421V30.0364V30.0308V30.0251V30.0194V30.0138V30.0081V30.0024V29.9967V29.9911V29.9854V29.9797V29.9741V29.9684V29.9627V29.9571V29.9514V29.9457V29.9401V29.9344V29.9287V29.923V29.9174V29.9117V29.906V29.9004V29.8947V29.889V29.8833V29.8777V29.872V29.8663V29.8607V29.855V29.8493V29.8437V29.838V29.8323V29.8266V29.821V29.8153V29.8096V29.804V29.7983V29.7926V29.7869V29.7813V29.7756V29.7699V29.7643V29.7586V29.7529V29.7473V29.7416V29.7359V29.7302V29.7246V29.7189V29.7132V29.7076V29.7019V29.6962V29.6905V29.6849V29.6792V29.6735V29.6679V29.6622V29.6565V29.6508V29.6452V29.6395V29.6338V29.6281V29.6225V29.6168V29.6111V29.6055V29.5998V29.5941V29.5884V29.5828V29.5771V29.5714V29.5658V29.5601V29.5544V29.5487V29.5431V29.5374V29.5317V29.526V29.5204V29.5147V29.509V29.5034V29.4977V29.492V29.4863V29.4807V29.475V29.4693V29.4636V29.458V29.4523V29.4466V29.4409V29.4353V29.4296V29.4239V29.4183V29.4126V29.4069V29.4012V29.3956V29.3899V29.3842V29.3785V29.3729V29.3672V29.3615V29.3558V29.3502V29.3445V29.3388V29.3331V29.3275V29.3218V29.3161V29.3104V29.3048V29.2991V29.2934V29.2877V29.2821V29.2764V29.2707V29.265V29.2594V29.2537V29.248V29.2423V29.2367V29.231V29.2253V29.2196V29.2139V29.2083V29.2026V29.1969V29.1912V29.1856V29.1799V29.1742V29.1685V29.1629V29.1572V29.1515V29.1458V29.1402V29.1345V29.1288V29.1231V29.1174V29.1118V29.1061V29.1004V29.0947V29.0891V29.0834V29.0777V29.072V29.0663V29.0607V29.055V29.0493V29.0436V29.0379V29.0323V29.0266V29.0209V29.0152V29.0096V29.0039V28.9982V28.9925V28.9868V28.9812V28.9755V28.9698V28.9641V28.9584V28.9528V28.9471V28.9414V28.9357V28.93V28.9244V28.9187V28.913V28.9073V28.9016V28.896V28.8903V28.8846V28.8789V28.8732V28.8675V28.8619V28.8562V28.8505V28.8448V28.8391V28.8335V28.8278V28.8221V28.8164V28.8107V28.8051V28.7994V28.7937V28.788V28.7823V28.7766V28.771V28.7653V28.7596V28.7539V28.7482V28.7425V28.7369V28.7312V28.7255V28.7198V28.7141V28.7084V28.7028V28.6971V28.6914V28.6857V28.68V28.6743V28.6686V28.663V28.6573V28.6516V28.6459V28.6402V28.6345V28.6289V28.6232V28.6175V28.6118V28.6061V28.6004V28.5947V28.5891V28.5834V28.5777V28.572V28.5663V28.5606V28.5549V28.5492V28.5436V28.5379V28.5322V28.5265V28.5208V28.5151V28.5094V28.5037V28.4981V28.4924V28.4867V28.481V28.4753V28.4696V28.4639V28.4582V28.4526V28.4469V28.4412V28.4355V28.4298V28.4241V28.4184V28.4127V28.407V28.4013V28.3957V28.39V28.3843V28.3786V28.3729V28.3672V28.3615V28.3558V28.3501V28.3444V28.3388V28.3331V28.3274V28.3217V28.316V28.3103V28.3046V28.2989V28.2932V28.2875V28.2818V28.2761V28.2704V28.2648V28.2591V28.2534V28.2477V28.242V28.2363V28.2306V28.2249V28.2192V28.2135V28.2078V28.2021V28.1964V28.1907V28.185V28.1793V28.1737V28.168V28.1623V28.1566V28.1509V28.1452V28.1395V28.1338V28.1281V28.1224V28.1167V28.111V28.1053V28.0996V28.0939V28.0882V28.0825V28.0768V28.0711V28.0654V28.0597V28.054V28.0483V28.0426V28.0369V28.0312V28.0255V28.0198V28.0141V28.0084V28.0027V27.997V27.9913V27.9856V27.9799V27.9742V27.9685V27.9628V27.9571V27.9514V27.9457V27.94V27.9343V27.9286V27.9229V27.9172V27.9115V27.9058V27.9001V27.8944V27.8887V27.883V27.8773V27.8716V27.8659V27.8602V27.8545V27.8488V27.8431V27.8374V27.8317V27.826V27.8203V27.8146V27.8089V27.8032V27.7975V27.7918V27.7861V27.7804V27.7747V27.769V27.7633V27.7575V27.7518V27.7461V27.7404V27.7347V27.729V27.7233V27.7176V27.7119V27.7062V27.7005V27.6948V27.6891V27.6834V27.6777V27.6719V27.6662V27.6605V27.6548V27.6491V27.6434V27.6377V27.632V27.6263V27.6206V27.6149V27.6091V27.6034V27.5977V27.592V27.5863V27.5806V27.5749V27.5692V27.5635V27.5578V27.552V27.5463V27.5406V27.5349V27.5292V27.5235V27.5178V27.5121V27.5063V27.5006V27.4949V27.4892V27.4835V27.155M100.167 24.7943L100.557 26.7757M102.589 30.2169C102.589 30.2165 102.589 30.2162 102.588 30.2159L102.808 30.0965M102.589 30.2169C102.589 30.2172 102.589 30.2175 102.589 30.2178L102.808 30.0965M102.589 30.2169C102.539 30.1265 102.489 30.0362 102.439 29.946C101.919 29.0083 101.404 28.0791 100.807 27.155M102.808 30.0965C102.757 30.0053 102.707 29.9141 102.656 29.8229C102.078 28.78 101.5 27.7374 100.807 26.6996V27.155M100.807 27.155C100.725 27.0285 100.642 26.902 100.557 26.7757M106.155 30.7516C106.177 30.7017 106.205 30.6518 106.234 30.6022C106.253 30.568 106.273 30.534 106.29 30.5002C106.32 30.5429 106.35 30.5889 106.373 30.629L106.155 30.7516ZM106.155 30.7516C106.126 30.7006 106.09 30.6503 106.055 30.6002C106.035 30.5717 106.015 30.5433 105.996 30.5149C105.974 30.5544 105.948 30.6009 105.926 30.6503L106.155 30.7516ZM100.339 30.7516C100.317 30.7246 100.289 30.6969 100.26 30.6688C100.226 30.6349 100.191 30.6004 100.165 30.5655C100.153 30.5811 100.141 30.5975 100.13 30.6144L100.339 30.7516ZM100.339 30.7516L100.532 30.593C100.52 30.5781 100.507 30.5636 100.495 30.5501C100.472 30.5826 100.446 30.6148 100.42 30.6467C100.39 30.6822 100.362 30.7173 100.339 30.7516ZM100.557 26.7757V26.3332V26.7757ZM105.097 27.4987L105.097 27.4987L105.097 27.4987Z" fill="white" stroke="white" stroke-width="0.5" stroke-linejoin="round"/>
<path d="M45.7633 24.9185C45.6311 24.9262 45.5278 25.0357 45.5278 25.1681V30.6989C45.5278 30.8369 45.6398 30.9489 45.7778 30.9489C46.0968 30.9489 46.4201 30.9589 46.7446 30.969C47.3998 30.9893 48.0595 31.0097 48.6958 30.948C49.4224 30.8935 50.0986 30.5534 50.5809 30.0014C51.0596 29.4535 51.3101 28.7397 51.2812 28.0098C51.318 27.6475 51.2851 27.2813 51.1843 26.9315C51.0817 26.5755 50.9108 26.2435 50.6812 25.9544C50.4516 25.6653 50.1677 25.425 49.8459 25.2473C49.524 25.0696 49.1705 24.9581 48.8058 24.9195L48.8058 24.9192L48.7939 24.9185C47.7846 24.8599 46.7727 24.8599 45.7633 24.9185ZM46.5381 30.0847V25.8257C47.2182 25.798 47.8993 25.8067 48.5786 25.8515C48.8315 25.8771 49.0771 25.9531 49.3015 26.0751C49.527 26.1978 49.7267 26.3646 49.8888 26.5663C50.051 26.768 50.1724 27.0005 50.2459 27.2504C50.3194 27.5003 50.3435 27.7626 50.3167 28.0221C50.3158 28.0307 50.3154 28.0394 50.3154 28.0481C50.3161 28.5719 50.1182 29.0752 49.7638 29.4539C49.4095 29.8325 48.9261 30.0575 48.4141 30.0835L48.4141 30.0835L48.4102 30.0837C47.9643 30.1133 47.5237 30.1039 47.0554 30.0939C46.8871 30.0903 46.7152 30.0866 46.5381 30.0847Z" fill="white" stroke="white" stroke-width="0.5" stroke-linejoin="round"/>
<path d="M72.63 27.9633C72.6308 27.9491 72.6305 27.9349 72.629 27.9208C72.5348 27.062 72.1335 26.2673 71.5 25.6877C70.8665 25.1081 70.0447 24.784 69.1905 24.7779C68.3363 24.7718 67.5102 25.0842 66.8686 25.6548C66.2272 26.2253 65.8149 27.0142 65.7089 27.8717L65.957 27.9023L65.7072 27.9118C65.7239 28.3521 65.826 28.7849 66.0079 29.1852C66.1898 29.5856 66.4479 29.9458 66.7676 30.2451C67.0873 30.5444 67.4622 30.7768 67.871 30.9289C68.276 31.0795 68.7063 31.1483 69.1374 31.1313C70.0123 31.1752 70.8688 30.8682 71.5219 30.2773C72.1779 29.6837 72.5757 28.8519 72.63 27.9633ZM66.6807 27.9408C66.7012 27.6317 66.7804 27.3295 66.9138 27.051C67.0503 26.766 67.2409 26.5115 67.4744 26.302C67.7078 26.0926 67.9796 25.9322 68.274 25.8301C68.5683 25.7279 68.8795 25.6859 69.1898 25.7064C69.1985 25.707 69.2073 25.7071 69.2161 25.7067C69.8321 25.6826 70.4332 25.9076 70.887 26.3335C71.3324 26.7515 71.6004 27.3296 71.6337 27.9452C71.557 28.5539 71.2661 29.1134 70.8152 29.5206C70.358 29.9334 69.768 30.161 69.1575 30.161C68.5469 30.161 67.957 29.9334 67.4998 29.5206C67.0478 29.1125 66.7565 28.5512 66.6807 27.9408Z" fill="white" stroke="white" stroke-width="0.5" stroke-linejoin="round"/>
<path d="M92.7573 30.9996C92.8029 31.0523 92.8685 31.0835 92.9382 31.0857C93.0079 31.0879 93.0754 31.061 93.1243 31.0113L93.3194 30.8132C93.3946 30.7369 93.4128 30.6211 93.3646 30.5254L90.7323 25.2948C90.6187 25.0532 90.4328 24.8192 90.1568 24.8013C89.8686 24.7826 89.6632 25.0076 89.5358 25.2495L89.5358 25.2495L89.5343 25.2525C88.8511 26.5938 88.1848 27.9267 87.5168 29.263C87.2965 29.7037 87.076 30.1449 86.8546 30.5868C86.8231 30.6496 86.8196 30.7227 86.8447 30.7883C86.8699 30.8539 86.9216 30.9059 86.987 30.9315C87.1685 31.0026 87.3384 31.0312 87.495 31.0021C87.6585 30.9718 87.7779 30.8843 87.8625 30.7798C87.9422 30.6812 87.9917 30.5668 88.0267 30.4735C88.043 30.4298 88.0579 30.3858 88.0709 30.3472C88.0721 30.3437 88.0733 30.3402 88.0744 30.3368C88.089 30.2938 88.1012 30.2582 88.1136 30.2266C88.1172 30.2176 88.1202 30.2083 88.1227 30.1989C88.1636 30.0443 88.2601 29.9119 88.3918 29.8275C88.5234 29.7431 88.6809 29.7124 88.8332 29.7408C88.8422 29.7425 88.8514 29.7437 88.8605 29.7444C89.6397 29.8023 90.4221 29.8023 91.2013 29.7444C91.2145 29.7434 91.2276 29.7414 91.2404 29.7383C91.4452 29.6898 91.6607 29.723 91.8425 29.8316C92.0244 29.9403 92.1592 30.1165 92.2178 30.3245C92.2194 30.3304 92.2212 30.3361 92.2233 30.3418C92.2836 30.5088 92.3963 30.6377 92.4932 30.7361C92.5387 30.7823 92.5778 30.8194 92.6134 30.8533C92.666 30.9033 92.7108 30.946 92.7573 30.9996ZM88.846 28.7727L90.1237 26.1842L91.39 28.7727H88.846Z" fill="white" stroke="white" stroke-width="0.5" stroke-linejoin="round"/>
<path d="M14.361 26.7752C14.4643 26.846 14.604 26.8295 14.6879 26.7366L14.853 26.5537C14.916 26.484 14.9345 26.3848 14.901 26.2969C14.8048 26.0452 14.68 25.8057 14.5292 25.5831C14.5246 25.5763 14.5196 25.5697 14.5143 25.5633C14.0756 25.037 13.243 24.787 12.4595 24.7603C11.6786 24.7337 10.8318 24.925 10.3463 25.4118C10.187 25.5527 10.062 25.7286 9.98056 25.9257C9.89791 26.1258 9.8623 26.3424 9.87644 26.5587C9.89058 26.7749 9.95409 26.985 10.0622 27.1723C10.1703 27.3597 10.32 27.5194 10.4999 27.6384C10.506 27.6424 10.5124 27.6462 10.5188 27.6497C10.9957 27.9079 11.4958 28.1193 12.0123 28.2811C12.2666 28.3948 12.5278 28.4829 12.7761 28.5666C12.8006 28.5749 12.825 28.5831 12.8492 28.5913C13.128 28.6857 13.3908 28.778 13.6401 28.9028C13.6512 28.9084 13.6627 28.9131 13.6745 28.9169C13.7626 28.9456 13.8416 28.9989 13.9024 29.0712C13.9631 29.1436 14.0031 29.2321 14.0173 29.3269C14.0316 29.4217 14.0194 29.5187 13.9825 29.6066C13.9455 29.6946 13.8854 29.7698 13.8092 29.8242C13.7988 29.8317 13.789 29.8399 13.7799 29.8488C13.4604 30.1609 12.861 30.2911 12.2283 30.2083C11.5969 30.1256 11.0362 29.8437 10.788 29.4581L10.7881 29.4581L10.7848 29.4532C10.7098 29.3425 10.6012 29.2733 10.5241 29.2286C10.4844 29.2056 10.4531 29.1887 10.4259 29.174C10.3865 29.1528 10.3557 29.1361 10.3202 29.1121C10.2173 29.0424 10.0788 29.059 9.99512 29.151L9.81503 29.349C9.7408 29.4307 9.72887 29.5513 9.78567 29.6459C9.97483 29.961 10.2018 30.2511 10.4615 30.5095C10.4748 30.5229 10.4897 30.5346 10.5057 30.5446C11.0647 30.8925 11.7035 31.0869 12.3594 31.1084C13.0153 31.1299 13.6652 30.9777 14.2452 30.667L14.2452 30.6671L14.2499 30.6644C14.4634 30.544 14.6417 30.3693 14.7674 30.158C14.8931 29.9467 14.962 29.706 14.9675 29.4597C14.973 29.2135 14.915 28.9699 14.7989 28.7531C14.6828 28.5363 14.5126 28.3536 14.3048 28.2235L14.305 28.2232L14.293 28.2166C13.8 27.9446 13.2834 27.719 12.7498 27.5429L12.7498 27.5429L12.7475 27.5422C12.2045 27.3687 11.6734 27.159 11.1576 26.9145L11.1573 26.9143C11.0783 26.877 11.0099 26.8191 10.9591 26.746C10.9083 26.6729 10.8771 26.5872 10.8689 26.4974C10.8606 26.4076 10.8758 26.3174 10.9125 26.2357C10.9488 26.155 11.0049 26.0857 11.0748 26.0342C11.5141 25.7346 12.0451 25.6071 12.5693 25.6747C13.0948 25.7425 13.579 26.0019 13.9313 26.4058L13.9311 26.4059L13.9378 26.4129C14.0657 26.5486 14.2076 26.6701 14.361 26.7752Z" fill="white" stroke="white" stroke-width="0.5" stroke-linejoin="round"/>
<path d="M143.698 30.5717C143.667 30.6334 143.663 30.7051 143.687 30.7699C143.711 30.8346 143.761 30.8867 143.824 30.9137C143.987 30.983 144.143 31.0161 144.289 30.9979C144.443 30.9788 144.562 30.9063 144.65 30.811C144.732 30.7212 144.784 30.6146 144.821 30.5239C144.847 30.4576 144.871 30.3844 144.891 30.3237C144.898 30.3036 144.904 30.2848 144.909 30.2682C144.911 30.2623 144.913 30.2564 144.915 30.2504C144.96 30.0738 145.069 29.9222 145.219 29.8253C145.368 29.7285 145.548 29.6931 145.722 29.7257C145.73 29.7273 145.738 29.7284 145.747 29.7291C146.525 29.795 147.307 29.795 148.085 29.7291C148.096 29.7282 148.107 29.7265 148.118 29.7241C148.313 29.6808 148.517 29.7163 148.687 29.8235C148.857 29.9308 148.981 30.102 149.03 30.3014C149.031 30.3091 149.034 30.3168 149.036 30.3243C149.099 30.5026 149.225 30.6363 149.331 30.7354C149.378 30.7799 149.42 30.8165 149.458 30.8499C149.518 30.9032 149.569 30.9482 149.62 31.0042C149.71 31.1027 149.861 31.1137 149.964 31.0293L150.159 30.8694C150.249 30.7952 150.276 30.6682 150.224 30.5637C149.982 30.0839 149.741 29.6034 149.5 29.1225C148.858 27.8426 148.215 26.5606 147.561 25.2871C147.445 25.0381 147.251 24.8055 146.963 24.8096C146.683 24.8136 146.486 25.0428 146.363 25.2828C145.589 26.796 144.831 28.3092 144.072 29.826C143.947 30.0745 143.823 30.323 143.698 30.5717ZM148.254 28.7653H145.696L146.97 26.1682L148.254 28.7653Z" fill="white" stroke="white" stroke-width="0.5" stroke-linejoin="round"/>
<path d="M114.681 30.1439V28.4448C114.786 28.4467 114.893 28.4495 115 28.4523C115.391 28.4625 115.787 28.4728 116.148 28.4413C116.257 28.4319 116.372 28.4378 116.501 28.4493C116.535 28.4522 116.57 28.4557 116.606 28.4593C116.703 28.4687 116.807 28.479 116.906 28.483C117.19 28.4946 117.515 28.4612 117.797 28.2006C117.848 28.1533 117.877 28.0868 117.877 28.0171V27.7962C117.877 27.6581 117.765 27.5462 117.627 27.5462H114.771L114.777 25.715H118.28C118.381 25.715 118.473 25.654 118.511 25.5605C118.55 25.4669 118.528 25.3593 118.457 25.2879C118.366 25.1976 118.236 25.1377 118.111 25.0942C117.98 25.0482 117.822 25.0097 117.65 24.9775C117.304 24.913 116.876 24.8695 116.428 24.8468C115.538 24.8016 114.534 24.8368 113.913 24.9691C113.798 24.9938 113.715 25.0957 113.715 25.2136V30.6605C113.715 30.7986 113.827 30.9105 113.965 30.9105H118.183C118.321 30.9105 118.433 30.7986 118.433 30.6605V30.3939C118.433 30.2558 118.321 30.1439 118.183 30.1439H114.681Z" fill="white" stroke="white" stroke-width="0.5" stroke-linejoin="round"/>
<path d="M36.7949 30.943L36.7949 30.9431L36.8008 30.9417C37.2881 30.8294 37.7191 30.5445 38.0169 30.1393C38.313 29.7364 38.4583 29.2406 38.4279 28.7401V28.7385V28.7354V28.7323V28.7292V28.726V28.7229V28.7198V28.7167V28.7136V28.7105V28.7073V28.7042V28.7011V28.698V28.6949V28.6918V28.6887V28.6856V28.6825V28.6794V28.6762V28.6731V28.67V28.6669V28.6638V28.6607V28.6576V28.6545V28.6514V28.6483V28.6452V28.6421V28.639V28.636V28.6329V28.6298V28.6267V28.6236V28.6205V28.6174V28.6143V28.6112V28.6081V28.605V28.602V28.5989V28.5958V28.5927V28.5896V28.5865V28.5835V28.5804V28.5773V28.5742V28.5711V28.5681V28.565V28.5619V28.5588V28.5558V28.5527V28.5496V28.5466V28.5435V28.5404V28.5373V28.5343V28.5312V28.5281V28.5251V28.522V28.5189V28.5159V28.5128V28.5097V28.5067V28.5036V28.5006V28.4975V28.4944V28.4914V28.4883V28.4853V28.4822V28.4792V28.4761V28.473V28.47V28.4669V28.4639V28.4608V28.4578V28.4547V28.4517V28.4486V28.4456V28.4425V28.4395V28.4365V28.4334V28.4304V28.4273V28.4243V28.4212V28.4182V28.4152V28.4121V28.4091V28.406V28.403V28.4V28.3969V28.3939V28.3909V28.3878V28.3848V28.3818V28.3787V28.3757V28.3727V28.3696V28.3666V28.3636V28.3605V28.3575V28.3545V28.3515V28.3484V28.3454V28.3424V28.3394V28.3363V28.3333V28.3303V28.3273V28.3242V28.3212V28.3182V28.3152V28.3122V28.3092V28.3061V28.3031V28.3001V28.2971V28.2941V28.2911V28.288V28.285V28.282V28.279V28.276V28.273V28.27V28.267V28.264V28.261V28.2579V28.2549V28.2519V28.2489V28.2459V28.2429V28.2399V28.2369V28.2339V28.2309V28.2279V28.2249V28.2219V28.2189V28.2159V28.2129V28.2099V28.2069V28.2039V28.2009V28.1979V28.1949V28.1919V28.1889V28.1859V28.183V28.18V28.177V28.174V28.171V28.168V28.165V28.162V28.159V28.156V28.1531V28.1501V28.1471V28.1441V28.1411V28.1381V28.1351V28.1322V28.1292V28.1262V28.1232V28.1202V28.1173V28.1143V28.1113V28.1083V28.1053V28.1024V28.0994V28.0964V28.0934V28.0904V28.0875V28.0845V28.0815V28.0785V28.0756V28.0726V28.0696V28.0667V28.0637V28.0607V28.0577V28.0548V28.0518V28.0488V28.0459V28.0429V28.0399V28.037V28.034V28.031V28.0281V28.0251V28.0221V28.0192V28.0162V28.0132V28.0103V28.0073V28.0044V28.0014V27.9984V27.9955V27.9925V27.9895V27.9866V27.9836V27.9807V27.9777V27.9748V27.9718V27.9688V27.9659V27.9629V27.96V27.957V27.9541V27.9511V27.9482V27.9452V27.9422V27.9393V27.9363V27.9334V27.9304V27.9275V27.9245V27.9216V27.9186V27.9157V27.9127V27.9098V27.9068V27.9039V27.9009V27.898V27.895V27.8921V27.8892V27.8862V27.8833V27.8803V27.8774V27.8744V27.8715V27.8685V27.8656V27.8627V27.8597V27.8568V27.8538V27.8509V27.848V27.845V27.8421V27.8391V27.8362V27.8333V27.8303V27.8274V27.8244V27.8215V27.8186V27.8156V27.8127V27.8098V27.8068V27.8039V27.801V27.798V27.7951V27.7922V27.7892V27.7863V27.7834V27.7804V27.7775V27.7746V27.7716V27.7687V27.7658V27.7628V27.7599V27.757V27.754V27.7511V27.7482V27.7453V27.7423V27.7394V27.7365V27.7335V27.7306V27.7277V27.7248V27.7218V27.7189V27.716V27.7131V27.7101V27.7072V27.7043V27.7014V27.6984V27.6955V27.6926V27.6897V27.6867V27.6838V27.6809V27.678V27.675V27.6721V27.6692V27.6663V27.6634V27.6604V27.6575V27.6546V27.6517V27.6488V27.6458V27.6429V27.64V27.6371V27.6342V27.6312V27.6283V27.6254V27.6225V27.6196V27.6167V27.6137V27.6108V27.6079V27.605V27.6021V27.5992V27.5962V27.5933V27.5904V27.5875V27.5846V27.5817V27.5788V27.5758V27.5729V27.57V27.5671V27.5642V27.5613V27.5584V27.5555V27.5525V27.5496V27.5467V27.5438V27.5409V27.538V27.5351V27.5322V27.5292V27.5263V27.5234V27.5205V27.5176V27.5147V27.5118V27.5089V27.506V27.5031V27.5001V27.4972V27.4943V27.4914V27.4885V27.4856V27.4827V27.4798V27.4769V27.474V27.4711V27.4682V27.4652V27.4623V27.4594V27.4565V27.4536V27.4507V27.4478V27.4449V27.442V27.4391V27.4362V27.4333V27.4304V27.4275V27.4246V27.4217V27.4187V27.4158V27.4129V27.41V27.4071V27.4042V27.4013V27.3984V27.3955V27.3926V27.3897V27.3868V27.3839V27.381V27.3781V27.3752V27.3723V27.3694V27.3665V27.3636V27.3607V27.3578V27.3549V27.352V27.3491V27.3461V27.3432V27.3403V27.3374V27.3345V27.3316V27.3287V27.3258V27.3229V27.32V27.3171V27.3142V27.3113V27.3084V27.3055V27.3026V27.2997V27.2968V27.2939V27.291V27.2881V27.2852V27.2823V27.2794V27.2765V27.2736V27.2707V27.2678V27.2649V27.262V27.2591V27.2562V27.2533V27.2504V27.2475V27.2446V27.2417V27.2388V27.2359V27.233V27.2301V27.2272V27.2243C38.4279 27.1477 38.4282 27.0706 38.4286 26.993C38.4305 26.5297 38.4325 26.0518 38.3668 25.5912C38.3562 25.448 38.2878 25.3279 38.2373 25.248C38.2166 25.2153 38.1936 25.1815 38.1737 25.1523C38.1675 25.1433 38.1617 25.1347 38.1563 25.1267C38.1312 25.0895 38.1121 25.0598 38.0976 25.0331C38.0522 24.9493 37.9631 24.8986 37.8679 24.9023C37.7726 24.9061 37.6878 24.9637 37.6492 25.0508C37.6319 25.0899 37.6153 25.1182 37.5935 25.1553C37.5775 25.1827 37.5586 25.2149 37.5346 25.2597C37.4899 25.3431 37.4327 25.4649 37.4327 25.6092V25.615V25.6208V25.6266V25.6324V25.6382V25.6441V25.6499V25.6557V25.6615V25.6673V25.6731V25.6789V25.6847V25.6905V25.6963V25.7021V25.7079V25.7137V25.7195V25.7253V25.7311V25.7369V25.7427V25.7485V25.7543V25.7601V25.7659V25.7717V25.7775V25.7833V25.7891V25.7949V25.8007V25.8065V25.8123V25.8181V25.8239V25.8297V25.8355V25.8414V25.8472V25.853V25.8588V25.8646V25.8704V25.8762V25.882V25.8878V25.8936V25.8994V25.9052V25.911V25.9168V25.9226V25.9284V25.9342V25.94V25.9458V25.9516V25.9574V25.9632V25.969V25.9748V25.9806V25.9864V25.9922V25.998V26.0038V26.0096V26.0155V26.0213V26.0271V26.0329V26.0387V26.0445V26.0503V26.0561V26.0619V26.0677V26.0735V26.0793V26.0851V26.0909V26.0967V26.1025V26.1083V26.1141V26.1199V26.1257V26.1315V26.1373V26.1431V26.1489V26.1547V26.1606V26.1664V26.1722V26.178V26.1838V26.1896V26.1954V26.2012V26.207V26.2128V26.2186V26.2244V26.2302V26.236V26.2418V26.2476V26.2534V26.2592V26.265V26.2708V26.2766V26.2825V26.2883V26.2941V26.2999V26.3057V26.3115V26.3173V26.3231V26.3289V26.3347V26.3405V26.3463V26.3521V26.3579V26.3637V26.3695V26.3753V26.3811V26.387V26.3928V26.3986V26.4044V26.4102V26.416V26.4218V26.4276V26.4334V26.4392V26.445V26.4508V26.4566V26.4624V26.4682V26.474V26.4799V26.4857V26.4915V26.4973V26.5031V26.5089V26.5147V26.5205V26.5263V26.5321V26.5379V26.5437V26.5495V26.5553V26.5612V26.567V26.5728V26.5786V26.5844V26.5902V26.596V26.6018V26.6076V26.6134V26.6192V26.625V26.6308V26.6367V26.6425V26.6483V26.6541V26.6599V26.6657V26.6715V26.6773V26.6831V26.6889V26.6947V26.7005V26.7064V26.7122V26.718V26.7238V26.7296V26.7354V26.7412V26.747V26.7528V26.7586V26.7644V26.7703V26.7761V26.7819V26.7877V26.7935V26.7993V26.8051V26.8109V26.8167V26.8225V26.8284V26.8342V26.84V26.8458V26.8516V26.8574V26.8632V26.869V26.8748V26.8807V26.8865V26.8923V26.8981V26.9039V26.9097V26.9155V26.9213V26.9271V26.933V26.9388V26.9446V26.9504V26.9562V26.962V26.9678V26.9736V26.9795V26.9853V26.9911V26.9969V27.0027V27.0085V27.0143V27.0201V27.026V27.0318V27.0376V27.0434V27.0492V27.055V27.0608V27.0666V27.0725V27.0783V27.0841V27.0899V27.0957V27.1015V27.1073V27.1132V27.119V27.1248V27.1306V27.1364V27.1422V27.148V27.1539V27.1597V27.1655V27.1713V27.1771V27.1829V27.1887V27.1946V27.2004V27.2062V27.212V27.2178V27.2236V27.2295V27.2353V27.2411V27.2469V27.2527V27.2585V27.2644V27.2702V27.276V27.2818V27.2876V27.2934V27.2993V27.3051V27.3109V27.3167V27.3225V27.3283V27.3342V27.34V27.3458V27.3516V27.3574V27.3633V27.3691V27.3749V27.3807V27.3865V27.3923V27.3982V27.404V27.4098V27.4156V27.4214V27.4273V27.4331V27.4389V27.4447V27.4505V27.4564V27.4622V27.468V27.4738V27.4796V27.4855V27.4913V27.4971V27.5029V27.5087V27.5146V27.5204V27.5262V27.532V27.5379V27.5437V27.5495V27.5553V27.5611V27.567V27.5728V27.5786V27.5844V27.5903V27.5961V27.6019V27.6077V27.6135V27.6194V27.6252V27.631V27.6368V27.6427V27.6485V27.6543V27.6601V27.666V27.6718V27.6776V27.6834V27.6893V27.6951V27.7009V27.7067V27.7126V27.7184V27.7242V27.73V27.7359V27.7417V27.7475V27.7533V27.7592V27.765V27.7708V27.7766V27.7825V27.7883V27.7941V27.7999V27.8058V27.8116V27.8174V27.8233V27.8291V27.8349V27.8407V27.8466V27.8524V27.8582V27.8641V27.8699V27.8757V27.8815V27.8874V27.8932V27.899V27.9049V27.9107V27.9165V27.9223V27.9282V27.934V27.9398V27.9457V27.9515V27.9573V27.9632V27.969V27.9748V27.9806V27.9865V27.9923V27.9981V28.004V28.0098V28.0156V28.0215V28.0273V28.0331V28.039V28.0448V28.0506V28.0565V28.0623V28.0681V28.074V28.0798V28.0856V28.0915V28.0973V28.1031V28.109V28.1148V28.1206V28.1265V28.1323V28.1381V28.144V28.1498V28.1556V28.1615V28.1673V28.1732V28.179V28.1848V28.1907V28.1965V28.2023V28.2082V28.214V28.2198V28.2257V28.2315V28.2374V28.2432V28.249V28.2549V28.2607V28.2666V28.2724V28.2782V28.2841V28.2899V28.2957V28.3016V28.3074V28.3133V28.3191V28.3249V28.3308V28.3366V28.3425V28.3483V28.3541V28.36V28.3658V28.3717V28.3775V28.3833V28.3892V28.395V28.4009V28.4067V28.4126V28.4184V28.4242V28.4301V28.4359V28.4418V28.4476V28.4535V28.4593V28.4651V28.471V28.4768V28.4827V28.4885V28.4944V28.5002V28.5061V28.5119V28.5177V28.5236V28.5294V28.5353V28.5411V28.547V28.5528V28.5587V28.5645V28.5704V28.5762V28.5821V28.5855C37.422 29.1318 37.2347 29.5334 36.9268 29.8009C36.6146 30.0721 36.1488 30.2308 35.538 30.2272C34.927 30.2236 34.4801 30.0601 34.1881 29.7914C33.8992 29.5255 33.7304 29.1278 33.7304 28.5879V28.5821V28.5763V28.5705V28.5647V28.5589V28.5531V28.5473V28.5415V28.5357V28.5299V28.5241V28.5183V28.5125V28.5067V28.5008V28.495V28.4892V28.4834V28.4776V28.4718V28.466V28.4602V28.4544V28.4486V28.4428V28.437V28.4312V28.4254V28.4196V28.4137V28.4079V28.4021V28.3963V28.3905V28.3847V28.3789V28.3731V28.3673V28.3615V28.3557V28.3499V28.344V28.3382V28.3324V28.3266V28.3208V28.315V28.3092V28.3034V28.2976V28.2918V28.2859V28.2801V28.2743V28.2685V28.2627V28.2569V28.2511V28.2453V28.2394V28.2336V28.2278V28.222V28.2162V28.2104V28.2046V28.1988V28.1929V28.1871V28.1813V28.1755V28.1697V28.1639V28.1581V28.1523V28.1464V28.1406V28.1348V28.129V28.1232V28.1174V28.1116V28.1057V28.0999V28.0941V28.0883V28.0825V28.0767V28.0708V28.065V28.0592V28.0534V28.0476V28.0418V28.0359V28.0301V28.0243V28.0185V28.0127V28.0069V28.001V27.9952V27.9894V27.9836V27.9778V27.972V27.9661V27.9603V27.9545V27.9487V27.9429V27.9371V27.9312V27.9254V27.9196V27.9138V27.908V27.9021V27.8963V27.8905V27.8847V27.8789V27.873V27.8672V27.8614V27.8556V27.8498V27.844V27.8381V27.8323V27.8265V27.8207V27.8149V27.809V27.8032V27.7974V27.7916V27.7858V27.7799V27.7741V27.7683V27.7625V27.7566V27.7508V27.745V27.7392V27.7334V27.7275V27.7217V27.7159V27.7101V27.7043V27.6984V27.6926V27.6868V27.681V27.6752V27.6693V27.6635V27.6577V27.6519V27.646V27.6402V27.6344V27.6286V27.6228V27.6169V27.6111V27.6053V27.5995V27.5936V27.5878V27.582V27.5762V27.5703V27.5645V27.5587V27.5529V27.5471V27.5412V27.5354V27.5296V27.5238V27.5179V27.5121V27.5063V27.5005V27.4946V27.4888V27.483V27.4772V27.4714V27.4655V27.4597V27.4539V27.4481V27.4422V27.4364V27.4306V27.4248V27.4189V27.4131V27.4073V27.4015V27.3956V27.3898V27.384V27.3782V27.3723V27.3665V27.3607V27.3549V27.349V27.3432V27.3374V27.3316V27.3257V27.3199V27.3141V27.3083V27.3024V27.2966V27.2908V27.285V27.2791V27.2733V27.2675V27.2617V27.2558V27.25V27.2442V27.2384V27.2325V27.2267V27.2209V27.2151V27.2092V27.2034V27.1976V27.1918V27.1859V27.1801V27.1743V27.1685V27.1626V27.1568V27.151V27.1452V27.1393V27.1335V27.1277V27.1219V27.116V27.1102V27.1044V27.0986V27.0927V27.0869V27.0811V27.0753V27.0694V27.0636V27.0578V27.052V27.0461V27.0403V27.0345V27.0287V27.0228V27.017V27.0112V27.0054V26.9995V26.9937V26.9879V26.9821V26.9762V26.9704V26.9646V26.9588V26.9529V26.9471V26.9413V26.9355V26.9296V26.9238V26.918V26.9122V26.9063V26.9005V26.8947V26.8889V26.883V26.8772V26.8714V26.8656V26.8597V26.8539V26.8481V26.8423V26.8364V26.8306V26.8248V26.819V26.8132V26.8073V26.8015V26.7957V26.7899V26.784V26.7782V26.7724V26.7666V26.7607V26.7549V26.7491V26.7433V26.7374V26.7316V26.7258V26.72V26.7141V26.7083V26.7025V26.6967V26.6908V26.685V26.6792V26.6734V26.6676V26.6617V26.6559V26.6501V26.6443V26.6384V26.6326V26.6268V26.621V26.6151V26.6093V26.6035V26.5977V26.5919V26.586V26.5802V26.5744V26.5686V26.5627V26.5569V26.5511V26.5453V26.5395V26.5336V26.5278V26.522V26.5162V26.5103V26.5045V26.4987V26.4929V26.4871V26.4812V26.4754V26.4696V26.4638V26.458V26.4521V26.4463V26.4405V26.4347V26.4289V26.423V26.4172V26.4114V26.4056V26.3997V26.3939V26.3881V26.3823V26.3765V26.3706V26.3648V26.359V26.3532V26.3474V26.3415V26.3357V26.3299V26.3241V26.3183V26.3125V26.3066V26.3008V26.295V26.2892V26.2834V26.2775V26.2717V26.2659V26.2601V26.2543V26.2485V26.2426V26.2368V26.231V26.2252V26.2194V26.2135V26.2077V26.2019V26.1961V26.1903V26.1845V26.1786V26.1728V26.167V26.1612V26.1554V26.1496V26.1437V26.1379V26.1321V26.1263V26.1205V26.1147V26.1089V26.103V26.0972V26.0914V26.0856V26.0798V26.074V26.0681V26.0623V26.0565V26.0507V26.0449V26.0391V26.0333V26.0274V26.0216V26.0158V26.01V26.0042V25.9984V25.9926V25.9868V25.9809V25.9751V25.9693V25.9635V25.9577V25.9519V25.9461V25.9403V25.9344V25.9286V25.9228V25.917V25.9112V25.9054V25.8996V25.8938V25.888V25.8821V25.8763V25.8705V25.8647V25.8589V25.8531V25.8473V25.8415V25.8357V25.8299V25.8241V25.8182V25.8124V25.8066V25.8008V25.795V25.7892V25.7834V25.7776V25.7718V25.766V25.7602V25.7544V25.7486V25.7427V25.7369V25.7311V25.7253V25.7195V25.7137V25.7079V25.7021V25.6963V25.6905V25.6847V25.6789V25.6731V25.6673V25.6615V25.6557V25.6499V25.6441V25.6383V25.6324V25.6266V25.6208V25.615V25.6092H33.7307L33.7302 25.5975C33.7228 25.4414 33.6417 25.3127 33.5855 25.2316C33.563 25.1991 33.5379 25.1654 33.5161 25.1363C33.5093 25.1271 33.5028 25.1184 33.4968 25.1103C33.4693 25.0731 33.4486 25.0437 33.433 25.0173C33.3868 24.9391 33.3017 24.8921 33.2109 24.8946C33.12 24.8971 33.0377 24.9488 32.9958 25.0295C32.9775 25.0649 32.9584 25.0922 32.9323 25.1296C32.9146 25.155 32.8936 25.1852 32.8673 25.2257C32.8191 25.3001 32.7427 25.4268 32.7427 25.5788C32.7427 25.927 32.7377 26.2781 32.7328 26.631C32.7228 27.3404 32.7127 28.057 32.7425 28.7711C32.7239 29.2767 32.8833 29.7731 33.1932 30.171C33.5051 30.5716 33.9489 30.846 34.4444 30.9432C35.22 31.1021 36.0192 31.102 36.7949 30.943Z" fill="white" stroke="white" stroke-width="0.5" stroke-linejoin="round"/>
<path d="M21.027 25.613C21.0673 25.703 21.1567 25.7609 21.2552 25.7609H23.1731C23.1855 25.8341 23.1957 25.9076 23.2038 25.9814V25.9848V25.9933V26.0017V26.0102V26.0186V26.027V26.0355V26.0439V26.0523V26.0608V26.0692V26.0776V26.0861V26.0945V26.103V26.1114V26.1198V26.1283V26.1367V26.1451V26.1536V26.162V26.1705V26.1789V26.1873V26.1958V26.2042V26.2126V26.2211V26.2295V26.2379V26.2464V26.2548V26.2633V26.2717V26.2801V26.2886V26.297V26.3054V26.3139V26.3223V26.3307V26.3392V26.3476V26.3561V26.3645V26.3729V26.3814V26.3898V26.3982V26.4067V26.4151V26.4235V26.432V26.4404V26.4489V26.4573V26.4657V26.4742V26.4826V26.491V26.4995V26.5079V26.5163V26.5248V26.5332V26.5417V26.5501V26.5585V26.567V26.5754V26.5838V26.5923V26.6007V26.6091V26.6176V26.626V26.6345V26.6429V26.6513V26.6598V26.6682V26.6766V26.6851V26.6935V26.7019V26.7104V26.7188V26.7273V26.7357V26.7441V26.7526V26.761V26.7694V26.7779V26.7863V26.7947V26.8032V26.8116V26.8201V26.8285V26.8369V26.8454V26.8538V26.8622V26.8707V26.8791V26.8876V26.896V26.9044V26.9129V26.9213V26.9297V26.9382V26.9466V26.955V26.9635V26.9719V26.9804V26.9888V26.9972V27.0057V27.0141V27.0225V27.031V27.0394V27.0478V27.0563V27.0647V27.0732V27.0816V27.09V27.0985V27.1069V27.1153V27.1238V27.1322V27.1406V27.1491V27.1575V27.166V27.1744V27.1828V27.1913V27.1997V27.2081V27.2166V27.225V27.2334V27.2419V27.2503V27.2588V27.2672V27.2756V27.2841V27.2925V27.3009V27.3094V27.3178V27.3262V27.3347V27.3431V27.3516V27.36V27.3684V27.3769V27.3853V27.419V27.4275V27.4359V27.4444V27.4528V27.4612V27.4697V27.4781V27.4865V27.495V27.5034V27.5119V27.5203V27.5287V27.5372V27.5456V27.554V27.5625V27.5709V27.5793V27.5878V27.5962V27.6047V27.6131V27.6215V27.63V27.6384V27.6468V27.6553V27.6637V27.6721V27.6806V27.689V27.6975V27.7059V27.7143V27.7228V27.7312V27.7396V27.7481V27.7565V27.7649V27.7734V27.7818V27.7903V27.7987V27.8071V27.8156V27.824V27.8324V27.8409V27.8493V27.8577V27.8662V27.8746V27.8831V27.8915V27.8999V27.9084V27.9168V27.9252V27.9337V27.9421V27.9505V27.959V27.9674V27.9759V27.9843V27.9927V28.0012V28.0096V28.018V28.0265V28.0349V28.0433V28.0518V28.0602V28.0687V28.0771V28.0855V28.094V28.1024V28.1108V28.1193V28.1277V30.2874C23.2038 30.3066 23.206 30.3257 23.2104 30.3443C23.2545 30.5332 23.3275 30.7141 23.4268 30.8803C23.4725 30.9569 23.5555 31.0033 23.6446 31.0021C23.7338 31.001 23.8156 30.9525 23.8593 30.8748C23.8755 30.846 23.8963 30.8148 23.9229 30.7769C23.9288 30.7685 23.9352 30.7593 23.942 30.7498C23.9629 30.7203 23.9868 30.6864 24.008 30.6542C24.0606 30.5741 24.139 30.4436 24.139 30.2874V30.2817V30.276V30.2703V30.2646V30.2589V30.2532V30.2475V30.2417V30.236V30.2303V30.2246V30.2189V30.2132V30.2075V30.2018V30.1961V30.1903V30.1846V30.1789V30.1732V30.1675V30.1618V30.1561V30.1504V30.1447V30.139V30.1332V30.1275V30.1218V30.1161V30.1104V30.1047V30.099V30.0933V30.0876V30.0819V30.0762V30.0705V30.0647V30.059V30.0533V30.0476V30.0419V30.0362V30.0305V30.0248V30.0191V30.0134V30.0077V30.002V29.9963V29.9906V29.9849V29.9792V29.9735V29.9678V29.962V29.9563V29.9506V29.9449V29.9392V29.9335V29.9278V29.9221V29.9164V29.9107V29.905V29.8993V29.8936V29.8879V29.8822V29.8765V29.8708V29.8651V29.8594V29.8537V29.848V29.8423V29.8366V29.8309V29.8252V29.8195V29.8138V29.8081V29.8024V29.7967V29.791V29.7853V29.7796V29.7739V29.7682V29.7625V29.7568V29.7511V29.7454V29.7397V29.734V29.7283V29.7226V29.7169V29.7112V29.7055V29.6998V29.6941V29.6884V29.6827V29.677V29.6713V29.6656V29.6599V29.6542V29.6485V29.6428V29.6371V29.6315V29.6258V29.6201V29.6144V29.6087V29.603V29.5973V29.5916V29.5859V29.5802V29.5745V29.5688V29.5631V29.5574V29.5517V29.546V29.5403V29.5346V29.529V29.5233V29.5176V29.5119V29.5062V29.5005V29.4948V29.4891V29.4834V29.4777V29.472V29.4663V29.4606V29.4549V29.4493V29.4436V29.4379V29.4322V29.4265V29.4208V29.4151V29.4094V29.4037V29.398V29.3923V29.3867V29.381V29.3753V29.3696V29.3639V29.3582V29.3525V29.3468V29.3411V29.3354V29.3298V29.3241V29.3184V29.3127V29.307V29.3013V29.2956V29.2899V29.2842V29.2786V29.2729V29.2672V29.2615V29.2558V29.2501V29.2444V29.2387V29.2331V29.2274V29.2217V29.216V29.2103V29.2046V29.1989V29.1933V29.1876V29.1819V29.1762V29.1705V29.1648V29.1591V29.1535V29.1478V29.1421V29.1364V29.1307V29.125V29.1193V29.1137V29.108V29.1023V29.0966V29.0909V29.0852V29.0795V29.0739V29.0682V29.0625V29.0568V29.0511V29.0454V29.0398V29.0341V29.0284V29.0227V29.017V29.0113V29.0057V29V28.9943V28.9886V28.9829V28.9772V28.9716V28.9659V28.9602V28.9545V28.9488V28.9432V28.9375V28.9318V28.9261V28.9204V28.9147V28.9091V28.9034V28.8977V28.892V28.8863V28.8807V28.875V28.8693V28.8636V28.8579V28.8523V28.8466V28.8409V28.8352V28.8295V28.8239V28.8182V28.8125V28.8068V28.8011V28.7955V28.7898V28.7841V28.7784V28.7727V28.7671V28.7614V28.7557V28.75V28.7443V28.7387V28.733V28.7273V28.7216V28.7159V28.7103V28.7046V28.6989V28.6932V28.6876V28.6819V28.6762V28.6705V28.6648V28.6592V28.6535V28.6478V28.6421V28.6365V28.6308V28.6251V28.6194V28.6137V28.6081V28.6024V28.5967V28.591V28.5854V28.5797V28.574V28.5683V28.5627V28.557V28.5513V28.5456V28.54V28.5343V28.5286V28.5229V28.5172V28.5116V28.5059V28.5002V28.4945V28.4889V28.4832V28.4775V28.4718V28.4662V28.4605V28.4548V28.4491V28.4435V28.4378V28.4321V28.4264V28.4208V28.4151V28.4094V28.4037V28.3981V28.3924V28.3867V28.381V28.3754V28.3697V28.364V28.3584V28.3527V28.347V28.3413V28.3357V28.33V28.3243V28.3186V28.313V28.3073V28.3016V28.2959V28.2903V28.2846V28.2789V28.2732V28.2676V28.2619V28.2562V28.2506V28.2449V28.2392V28.2335V28.2279V28.2222V28.2165V28.2108V28.2052V28.1995V28.1938V28.1882V28.1825V28.1768V28.1711V28.1655V28.1598V28.1541V28.1484V28.1428V28.1371V28.1314V28.1258V28.1201V28.1144V28.1087V28.1031V28.0974V28.0917V28.0861V28.0804V28.0747V28.069V28.0634V28.0577V28.052V28.0464V28.0407V28.035V28.0293V28.0237V28.018V28.0123V28.0067V28.001V27.9953V27.9896V27.984V27.9783V27.9726V27.967V27.9613V27.9556V27.95V27.9443V27.9386V27.9329V27.9273V27.9216V27.9159V27.9103V27.9046V27.8989V27.8932V27.8876V27.8819V27.8762V27.8706V27.8649V27.8592V27.8536V27.8479V27.8422V27.8365V27.8309V27.8252V27.8195V27.8139V27.8082V27.8025V27.7969V27.7912V27.7855V27.7798V27.7742V27.7685V27.7628V27.7572V27.7515V27.7458V27.7402V27.7345V27.7288V27.7231V27.7175V27.7118V27.7061V27.7005V27.6948V27.6891V27.6835V27.6778V27.6721V27.6665V27.6608V27.6551V27.6494V27.6438V27.6381V27.6324V27.6268V27.6211V27.6154V27.6098V27.6041V27.5984V27.5928V27.5871V27.5814V27.5757V27.5701V27.5644V27.5587V27.5531V27.5474V27.5417V27.5361V27.5304V27.5247V27.5191V27.5134V27.5077V27.502V27.4964V27.4907V27.485V27.4794V27.4737V27.468V27.4624V27.4567V27.451V27.4454V27.4397V27.434V27.4283V27.4227V27.417V27.4113V27.4057V27.4V27.3943V27.3887V27.383V27.3773V25.7304H26.1027C26.2221 25.7304 26.3249 25.6459 26.3479 25.5287L26.3855 25.3383C26.4066 25.2309 26.3555 25.1222 26.2592 25.0701C26.2421 25.0608 26.2217 25.0479 26.1935 25.029C26.1884 25.0256 26.1828 25.0218 26.1768 25.0178C26.154 25.0025 26.1264 24.9839 26.0997 24.9672C26.0388 24.9294 25.9278 24.8647 25.795 24.8647H25.7867H25.7784H25.7701H25.7618H25.7535H25.7451H25.7368H25.7285H25.7202H25.7119H25.7036H25.6953H25.687H25.6786H25.6703H25.662H25.6537H25.6454H25.6371H25.6288H25.6205H25.6121H25.6038H25.5955H25.5872H25.5789H25.5706H25.5623H25.5539H25.5456H25.5373H25.529H25.5207H25.5124H25.5041H25.4957H25.4874H25.4791H25.4708H25.4625H25.4542H25.4458H25.4375H25.4292H25.4209H25.4126H25.4043H25.3959H25.3876H25.3793H25.371H25.3627H25.3544H25.346H25.3377H25.3294H25.3211H25.3128H25.3044H25.2961H25.2878H25.2795H25.2712H25.2629H25.2545H25.2462H25.2379H25.2296H25.2213H25.2129H25.2046H25.1963H25.188H25.1797H25.1713H25.163H25.1547H25.1464H25.138H25.1297H25.1214H25.1131H25.1048H25.0964H25.0881H25.0798H25.0715H25.0631H25.0548H25.0465H25.0382H25.0299H25.0215H25.0132H25.0049H24.9966H24.9882H24.9799H24.9716H24.9633H24.9549H24.9466H24.9383H24.93H24.9217H24.9133H24.905H24.8967H24.8884H24.88H24.8717H24.8634H24.8551H24.8467H24.8384H24.8301H24.8218H24.8134H24.8051H24.7968H24.7885H24.7801H24.7718H24.7635H24.7551H24.7468H24.7385H24.7302H24.7218H24.7135H24.7052H24.6969H24.6885H24.6802H24.6719H24.6636H24.6552H24.6469H24.6386H24.6302H24.6219H24.6136H24.6053H24.5969H24.5886H24.5803H24.572H24.5636H24.5553H24.547H24.5386H24.5303H24.522H24.5137H24.5053H24.497H24.4887H24.4803H24.472H24.4637H24.4554H24.447H24.4387H24.4304H24.422H24.4137H24.4054H24.3971H24.3887H24.3804H24.3721H24.3637H24.3554H24.3471H24.3387H24.3304H24.3221H24.3138H24.3054H24.2971H24.2888H24.2804H24.2721H24.2638H24.2555H24.2471H24.2388H24.2305H24.2221H24.2138H24.2055H24.1971H24.1888H24.1805H24.1721H24.1638H24.1555H24.1472H24.1388H24.1305H24.1222H24.1138H24.1055H24.0972H24.0888H24.0805H24.0722H24.0638H24.0555H24.0472H24.0389H24.0305H24.0222H24.0139H24.0055H23.9972H23.9889H23.9805H23.9722H23.9639H23.9555H23.9472H23.9389H23.9305H23.9222H23.9139H23.9056H23.8972H23.8889H23.8806H23.8722H23.8639H23.8556H23.8472H23.8389H23.8306H23.8222H23.8139H23.8056H23.7972H23.7889H23.7806H23.7722H23.7639H23.7556H23.7472H23.7389H23.7306H23.7223H23.7139H23.7056H23.6973H23.6889H23.6806H23.6723H23.6639H23.6556H23.6473H23.6389H23.6306H23.6223H23.6139H23.6056H23.5973H23.5889H23.5806H23.5723H23.5639H23.5556H23.5473H23.539H23.5306H23.5223H23.514H23.5056H23.4973H23.489H23.4806H23.4723H23.464H23.4556H23.4473H23.439H23.4306H23.4223H23.414H23.4056H23.3973H23.389H23.3807H23.3723H23.364H23.3557H23.3473H23.339H23.3307H23.3223H23.314H23.3057H23.2973H23.289H23.2807H23.2723H23.264H23.2557H23.2474H23.239H23.2307H23.2224H23.214H23.2057H23.1974H23.189H23.1807H23.1724H23.164H23.1557H23.1474H23.1391H23.1307H23.1224H23.1141H23.1057H23.0974H23.0891H23.0807H23.0724H23.0641H23.0557H23.0474H23.0391H23.0308H23.0224H23.0141H23.0058H22.9974H22.9891H22.9808H22.9725H22.9641H22.9558H22.9475H22.9391H22.9308H22.9225H22.9141H22.9058H22.8975H22.8892H22.8808H22.8725H22.8642H22.8558H22.8475H22.8392H22.8309H22.8225H22.8142H22.8059H22.7975H22.7892H22.7809H22.7726H22.7642H22.7559H22.7476H22.7392H22.7309H22.7226H22.7143H22.7059H22.6976H22.6893H22.681H22.6726H22.6643H22.656H22.6476H22.6393H22.631H22.6227H22.6143H22.606H22.5977H22.5894H22.581H22.5727H22.5644H22.5561H22.5477H22.5394H22.5311H22.5228H22.5144H22.5061H22.4978H22.4895H22.4811H22.4728H22.4645H22.4562H22.4478H22.4395H22.4312H22.4229H22.4145H22.4062H22.3979H22.3896H22.3812H22.3729H22.3646H22.3563H22.3479H22.3396H22.3313H22.323H22.3146H22.3063H22.298H22.2897H22.2814H22.273H22.2647H22.2564H22.2481H22.2397H22.2314H22.2231H22.2148H22.2065H22.1981H22.1898H22.1815H22.1732H22.1649H22.1565H22.1482H22.1399H22.1316H22.1232H22.1149H22.1066H22.0983H22.09H22.0816H22.0733H22.065H22.0567H22.0484H22.04H22.0317H22.0234H22.0151H22.0068H21.9985H21.9901H21.9818H21.9735H21.9652H21.9569H21.9485H21.9402H21.9319H21.9236H21.9153H21.907H21.8986H21.8903H21.882H21.8737H21.8654H21.8571H21.8487H21.8404H21.8321H21.8238H21.8155H21.8072H21.7989H21.7905H21.7822H21.7739H21.7656H21.7573H21.749H21.7407H21.7323H21.724H21.7157H21.7074H21.6991H21.6908H21.6825H21.6741H21.6658H21.6575H21.6492H21.6409H21.6326H21.6243H21.616H21.6076H21.5993H21.591H21.5827H21.5744H21.5661H21.5578H21.5495H21.5412H21.5329C21.5276 24.8647 21.5223 24.8649 21.517 24.8652C21.3706 24.8745 21.2575 24.9623 21.2001 25.0083C21.167 25.0348 21.143 25.0554 21.1233 25.0723C21.0936 25.0977 21.0734 25.115 21.0462 25.1322C20.9414 25.1987 20.9013 25.3321 20.952 25.4454L21.027 25.613Z" fill="white" stroke="white" stroke-width="0.5" stroke-linejoin="round"/>
<path d="M125.235 30.6829C125.235 30.8067 125.325 30.9119 125.448 30.9302C126.307 31.0587 127.283 31.0879 128.074 31.0255C128.468 30.9943 128.827 30.9396 129.105 30.8587C129.244 30.8184 129.373 30.7689 129.479 30.7069C129.58 30.6471 129.688 30.5601 129.744 30.4324C129.777 30.3551 129.77 30.266 129.723 30.1955C129.677 30.125 129.599 30.0825 129.514 30.0825H126.185V29.525V29.5172V29.5094V29.5017V29.4939V29.4861V29.4784V29.4706V29.4628V29.4551V29.4473V29.4395V29.4318V29.424V29.4162V29.4085V29.4007V29.3929V29.3852V29.3774V29.3696V29.3619V29.3541V29.3463V29.3386V29.3308V29.323V29.3153V29.3075V29.2997V29.292V29.2842V29.2764V29.2687V29.2609V29.2531V29.2454V29.2376V29.2298V29.2221V29.2143V29.2065V29.1987V29.191V29.1832V29.1754V29.1677V29.1599V29.1521V29.1444V29.1366V29.1288V29.1211V29.1133V29.1055V29.0978V29.09V29.0822V29.0745V29.0667V29.0589V29.0512V29.0434V29.0356V29.0279V29.0201V29.0123V29.0046V28.9968V28.989V28.9813V28.9735V28.9657V28.958V28.9502V28.9424V28.9347V28.9269V28.9191V28.9114V28.9036V28.8958V28.8881V28.8803V28.8725V28.8648V28.857V28.8492V28.8415V28.8337V28.8259V28.8182V28.8104V28.8026V28.7949V28.7871V28.7793V28.7716V28.7638V28.756V28.7483V28.7405V28.7327V28.725V28.7172V28.7094V28.7017V28.6939V28.6861V28.6784V28.6706V28.6628V28.6551V28.6473V28.6395V28.6318V28.624V28.6162V28.6085V28.6007V28.5929V28.5852V28.5774V28.5696V28.5619V28.5541V28.5463V28.5386V28.5308V28.523V28.5153V28.5075V28.4997V28.492V28.4842V28.4764V28.4687V28.4609V28.4531V28.4454V28.4376V28.4298V28.4221V28.4143V28.4065V28.3988V28.391V28.3832V28.3755V28.3677V28.3599V28.3521V28.3444V28.3366V28.3288V28.3211V28.3133V28.3055V28.2978V28.29V28.2822V28.2745V28.2667V28.2589V28.2512V28.2434V28.2356V28.2279V28.2201V28.2123V28.2046V28.1968V28.189V28.1813V28.1735V28.1657V28.158V28.1502V28.1424V28.1347V28.1269V28.1191V28.1114V28.1036V28.0958V28.0881V28.0803V28.0725V28.0648V28.057V28.0492V28.0415V28.0337V28.0259V28.0182V28.0104V28.0026V27.9949V27.9871V27.9793V27.9716V27.9638V27.956V27.9483V27.9405V27.9327V27.925V27.9172V27.9094V27.9017V27.8939V27.8861V27.8784V27.8706V27.8628V27.8551V27.8473V27.8395V27.8318V27.824V27.8162V27.8085V27.8007V27.7929V27.7852V27.7774V27.7696V27.7619V27.7541V27.7463V27.7386V27.7308V27.723V27.7153V27.7075V27.6997V27.692V27.6842V27.6764V27.6687V27.6609V27.6531V27.6454V27.6376V27.6298V27.6221V27.6143V27.6065V27.5988V27.591V27.5832V27.5755V27.5677V27.5599V27.5522V27.5444V27.5366V27.5289V27.5211V27.5133V27.5056V27.4978V27.49V27.4822V27.4745V27.4667V27.4589V27.4512V27.4434V27.4356V27.4279V27.4201V27.4123V27.4046V27.3968V27.389V27.3813V27.3735V27.3657V27.358V27.3502V27.3424V27.3347V27.3269V27.3191V27.3114V27.3036V27.2958V27.2881V27.2803V27.2725V27.2648V27.257V27.2492V27.2415V27.2337V27.2259V27.2182V27.2104V27.2026V27.1949V27.1871V27.1793V27.1716V27.1638V27.156V27.1483V27.1405V27.1327V27.125V27.1172V27.1094V27.1017V27.0939V27.0861V27.0784V27.0706V27.0628V27.0551V27.0473V27.0395V27.0318V27.024V27.0162V27.0085V27.0007V26.9929V26.9852V26.9774V26.9696V26.9619V26.9541V26.9463V26.9386V26.9308V26.923V26.9153V26.9075V26.8997V26.892V26.8842V26.8764V26.8687V26.8609V26.8531V26.8454V26.8376V26.8298V26.8221V26.8143V26.8065V26.7988V26.791V26.7832V26.7755V26.7677V26.7599V26.7522V26.7444V26.7366V26.7289V26.7211V26.7133V26.7056V26.6978V26.69V26.6823V26.6745V26.6667V26.659V26.6512V26.6434V26.6357V26.6279V26.6201V26.6124V26.6046V26.5968V26.589V26.5813V26.5735V26.5657V26.558V26.5502V26.5424V26.5347V26.5269V26.5191V26.5114V26.5036V26.4958V26.4881V26.4803V26.4725V26.4648V26.457V26.4492V26.4415V26.4337V26.4259V26.4182V26.4104V26.4026V26.3949V26.3871V26.3793V26.3716V26.3638V26.356V26.3483V26.3405V26.3327V26.325V26.3172V26.3094V26.3017V26.2939V26.2861V26.2784V26.2706V26.2628V26.2551V26.2473V26.2395V26.2318V26.224V26.2162V26.2085V26.2007V26.1929V26.1852V26.1774V26.1696V26.1619V26.1541V26.1463V26.1386V26.1308V26.123V26.1153V26.1075V26.0997V26.092V26.0842V26.0764V26.0687V26.0609V26.0531V26.0454V26.0376V26.0298V26.0221V26.0143V26.0065V25.9988V25.991V25.9832V25.9755V25.9677V25.9599V25.9522V25.9444V25.9366V25.9289V25.9211V25.9133V25.9056V25.8978V25.89V25.8823V25.8745V25.8667V25.859V25.8512V25.8434V25.8357V25.8279V25.8201V25.8124V25.8046V25.7968V25.7891V25.7813V25.7735V25.7658V25.758V25.7502V25.7425V25.7347V25.7269V25.7191V25.7114V25.7036V25.6958V25.6881V25.6803V25.6725V25.6648V25.657V25.6492V25.6415V25.6337V25.6259V25.6182V25.6104V25.6026V25.5949V25.5871V25.5793V25.5716V25.5638V25.556V25.5483H126.185L126.185 25.5353C126.177 25.3923 126.106 25.272 126.058 25.1968C126.039 25.1667 126.017 25.1354 125.999 25.1086C125.993 25.1001 125.987 25.092 125.982 25.0846C125.959 25.0504 125.942 25.0243 125.929 25.0016C125.885 24.9215 125.801 24.8717 125.71 24.8717C125.619 24.8717 125.535 24.9215 125.491 25.0016C125.479 25.023 125.462 25.0482 125.438 25.0823C125.433 25.0897 125.428 25.0978 125.421 25.1064C125.402 25.1331 125.38 25.1647 125.36 25.1949C125.311 25.2695 125.235 25.3961 125.235 25.5483V25.5582V25.5682V25.5781V25.5881V25.598V25.608V25.618V25.6279V25.6379V25.6478V25.6578V25.6677V25.6777V25.6876V25.6976V25.7075V25.7175V25.7275V25.7374V25.7474V25.7573V25.7673V25.7772V25.7872V25.7971V25.8071V25.817V25.827V25.837V25.8469V25.8569V25.8668V25.8768V25.8867V25.8967V25.9066V25.9166V25.9266V25.9365V25.9465V25.9564V25.9664V25.9763V25.9863V25.9962V26.0062V26.0162V26.0261V26.0361V26.046V26.056V26.0659V26.0759V26.0858V26.0958V26.1058V26.1157V26.1257V26.1356V26.1456V26.1555V26.1655V26.1755V26.1854V26.1954V26.2053V26.2153V26.2253V26.2352V26.2452V26.2551V26.2651V26.275V26.285V26.295V26.3049V26.3149V26.3248V26.3348V26.3448V26.3547V26.3647V26.3746V26.3846V26.3946V26.4045V26.4145V26.4244V26.4344V26.4444V26.4543V26.4643V26.4742V26.4842V26.4942V26.5041V26.5141V26.5241V26.534V26.544V26.5539V26.5639V26.5739V26.5838V26.5938V26.6038V26.6137V26.6237V26.6337V26.6436V26.6536V26.6635V26.6735V26.6835V26.6934V26.7034V26.7134V26.7233V26.7333V26.7433V26.7532V26.7632V26.7732V26.7831V26.7931V26.8031V26.813V26.823V26.833V26.8429V26.8529V26.8629V26.8729V26.8828V26.8928V26.9028V26.9127V26.9227V26.9327V26.9426V26.9526V26.9626V26.9726V26.9825V26.9925V27.0025V27.0124V27.0224V27.0324V27.0424V27.0523V27.0623V27.0723V27.0823V27.0922V27.1022V27.1122V27.1222V27.1321V27.1421V27.1521V27.1621V27.172V27.182V27.192V27.202V27.212V27.2219V27.2319V27.2419V27.2519V27.2618V27.2718V27.2818V27.2918V27.3018V27.3117V27.3217V27.3317V27.3417V27.3517V27.3617V27.3716V27.3816V27.3916V27.4016V27.4116V27.4216V27.4315V27.4415V27.4515V27.4615V27.4715V27.4815V27.4915V27.5014V27.5114V27.5214V27.5314V27.5414V27.5514V27.5614V27.5714V27.5813V27.5913V27.6013V27.6113V27.6213V27.6313V27.6413V27.6513V27.6613V27.6713V27.6813V27.6913V27.7012V27.7112V27.7212V27.7312V27.7412V27.7512V27.7612V27.7712V27.7812V27.7912V27.8012V27.8112V27.8212V27.8312V27.8412V27.8512V27.8612V27.8712V27.8812V27.8912V27.9012V27.9112V27.9212V27.9312V27.9412V27.9512V27.9612V27.9712V27.9812V27.9912V28.0012V28.0112V28.0212V28.0313V28.0413V28.0513V28.0613V28.0713V28.0813V28.0913V28.1013V28.1113V28.1213V28.1313V28.1414V28.1514V28.1614V28.1714V28.1814V28.1914V28.2014V28.2115V28.2215V28.2315V28.2415V28.2515V28.2615V28.2716V28.2816V28.2916V28.3016V28.3116V28.3216V28.3317V28.3417V28.3517V28.3617V28.3718V28.3818V28.3918V28.4018V28.4118V28.4219V28.4319V28.4419V28.4519V28.462V28.472V28.482V28.4921V28.5021V28.5121V28.5221V28.5322V28.5422V28.5522V28.5623V28.5723V28.5823V28.5924V28.6024V28.6124V28.6225V28.6325V28.6425V28.6526V28.6626V28.6726V28.6827V28.6927V28.7028V28.7128V28.7228V28.7329V28.7429V28.753V28.763V28.7731V28.7831V28.7931V28.8032V28.8132V28.8233V28.8333V28.8434V28.8534V28.8635V28.8735V28.8836V28.8936V28.9037V28.9137V28.9238V28.9338V28.9439V28.9539V28.964V28.974V28.9841V28.9941V29.0042V29.0142V29.0243V29.0344V29.0444V29.0545V29.0645V29.0746V29.0847V29.0947V29.1048V29.1148V29.1249V29.135V29.145V29.1551V29.1652V29.1752V29.1853V29.1954V29.2054V29.2155V29.2256V29.2356V29.2457V29.2558V29.2659V29.2759V29.286V29.2961V29.3061V29.3162V29.3263V29.3364V29.3464V29.3565V29.3666V29.3767V29.3868V29.3968V29.4069V29.417V29.4271V29.4372V29.4473V29.4573V29.4674V29.4775V29.4876V29.4977V29.5078V29.5179V29.5279V29.538V29.5481V29.5582V29.5683V29.5784V29.5885V29.5986V29.6087V29.6188V29.6289V29.639V29.6491V29.6592V29.6693V29.6794V29.6895V29.6996V29.7097V29.7198V29.7299V29.74V29.7501V29.7602V29.7703V29.7804V29.7905V29.8006V29.8107V29.8208V29.8309V29.841V29.8512V29.8613V29.8714V29.8815V29.8916V29.9017V29.9118V29.922V29.9321V29.9422V29.9523V29.9624V29.9725V29.9827V29.9928V30.0029V30.013V30.0232V30.0333V30.0434V30.0535V30.0637V30.0738V30.0839V30.094V30.1042V30.1143V30.1244V30.1346V30.1447V30.1548V30.165V30.1751V30.1852V30.1954V30.2055V30.2157V30.2258V30.2359V30.2461V30.2562V30.2664V30.2765V30.2867V30.2968V30.3069V30.3171V30.3272V30.3374V30.3475V30.3577V30.3678V30.378V30.3881V30.3983V30.4084V30.4186V30.4288V30.4389V30.4491V30.4592V30.4694V30.4795V30.4897V30.4999V30.51V30.5202V30.5304V30.5405V30.5507V30.5609V30.571V30.5812V30.5914V30.6015V30.6117V30.6219V30.632V30.6422V30.6524V30.6626V30.6727V30.6829Z" fill="white" stroke="white" stroke-width="0.5" stroke-linejoin="round"/>
<path d="M136.995 24.9909C136.951 24.9138 136.869 24.8658 136.78 24.8648C136.692 24.8637 136.609 24.9098 136.563 24.9858C136.55 25.0072 136.532 25.0321 136.507 25.0651C136.501 25.0728 136.495 25.0813 136.488 25.0903C136.468 25.1157 136.444 25.1456 136.424 25.1737C136.374 25.2429 136.287 25.3697 136.287 25.5261V25.5309V25.5356V25.5403V25.545V25.5498V25.5545V25.5592V25.5639V25.5687V25.5734V25.5781V25.5828V25.5875V25.5923V25.597V25.6017V25.6064V25.6111V25.6158V25.6205V25.6253V25.63V25.6347V25.6394V25.6441V25.6488V25.6535V25.6582V25.6629V25.6676V25.6723V25.677V25.6817V25.6864V25.6911V25.6958V25.7005V25.7052V25.7099V25.7146V25.7193V25.724V25.7286V25.7333V25.738V25.7427V25.7474V25.7521V25.7568V25.7614V25.7661V25.7708V25.7755V25.7802V25.7848V25.7895V25.7942V25.7989V25.8035V25.8082V25.8129V25.8176V25.8222V25.8269V25.8316V25.8362V25.8409V25.8456V25.8502V25.8549V25.8596V25.8642V25.8689V25.8735V25.8782V25.8829V25.8875V25.8922V25.8968V25.9015V25.9061V25.9108V25.9154V25.9201V25.9247V25.9294V25.934V25.9387V25.9433V25.948V25.9526V25.9573V25.9619V25.9666V25.9712V25.9758V25.9805V25.9851V25.9898V25.9944V25.999V26.0037V26.0083V26.0129V26.0176V26.0222V26.0268V26.0315V26.0361V26.0407V26.0453V26.05V26.0546V26.0592V26.0639V26.0685V26.0731V26.0777V26.0823V26.087V26.0916V26.0962V26.1008V26.1054V26.1101V26.1147V26.1193V26.1239V26.1285V26.1331V26.1377V26.1424V26.147V26.1516V26.1562V26.1608V26.1654V26.17V26.1746V26.1792V26.1838V26.1884V26.193V26.1976V26.2022V26.2068V26.2114V26.216V26.2206V26.2252V26.2298V26.2344V26.239V26.2436V26.2482V26.2528V26.2574V26.262V26.2666V26.2712V26.2758V26.2804V26.2849V26.2895V26.2941V26.2987V26.3033V26.3079V26.3125V26.317V26.3216V26.3262V26.3308V26.3354V26.34V26.3445V26.3491V26.3537V26.3583V26.3628V26.3674V26.372V26.3766V26.3811V26.3857V26.3903V26.3949V26.3994V26.404V26.4086V26.4131V26.4177V26.4223V26.4268V26.4314V26.436V26.4405V26.4451V26.4497V26.4542V26.4588V26.4634V26.4679V26.4725V26.477V26.4816V26.4862V26.4907V26.4953V26.4998V26.5044V26.509V26.5135V26.5181V26.5226V26.5272V26.5317V26.5363V26.5408V26.5454V26.5499V26.5545V26.559V26.5636V26.5681V26.5727V26.5772V26.5818V26.5863V26.5909V26.5954V26.5999V26.6045V26.609V26.6136V26.6181V26.6227V26.6272V26.6317V26.6363V26.6408V26.6454V26.6499V26.6544V26.659V26.6635V26.668V26.6726V26.6771V26.6816V26.6862V26.6907V26.6952V26.6998V26.7043V26.7088V26.7134V26.7179V26.7224V26.727V26.7315V26.736V26.7405V26.7451V26.7496V26.7541V26.7586V26.7632V26.7677V26.7722V26.7767V26.7813V26.7858V26.7903V26.7948V26.7993V26.8039V26.8084V26.8129V26.8174V26.8219V26.8265V26.831V26.8355V26.84V26.8445V26.849V26.8536V26.8581V26.8626V26.8671V26.8716V26.8761V26.8806V26.8852V26.8897V26.8942V26.8987V26.9032V26.9077V26.9122V26.9167V26.9212V26.9257V26.9303V26.9348V26.9393V26.9438V26.9483V26.9528V26.9573V26.9618V26.9663V26.9708V26.9753V26.9798V26.9843V26.9888V26.9933V26.9978V27.0023V27.0068V27.0113V27.0158V27.0203V27.0248V27.0293V27.0338V27.0383V27.0428V27.0473V27.0518V27.0563V27.0608V27.0653V27.0698V27.0743V27.0788V27.0833V27.0878V27.0923V27.0968V27.1013V27.1057V27.1102V27.1147V27.1192V27.1237V27.1282V27.1327V27.1372V27.1417V27.1462V27.1507V27.1551V27.1596V27.1641V27.1686V27.1731V27.1776V27.1821V27.1866V27.191V27.1955V27.2V27.2045V27.209V27.2135V27.218V27.2224V27.2269V27.2314V27.2359V27.2404V27.2449V27.2493V27.2538V27.2583V27.2628V27.2673V27.2718V27.2762V27.2807V27.2852V27.2897V27.2942V27.2986V27.3031V27.3076V27.3121V27.3166V27.321V27.3255V27.33V27.3345V27.3389V27.3434V27.3479V27.3524V27.3569V27.3613V27.3658V27.3703V27.3748V27.3792V27.3837V27.3882V27.3927V27.3971V27.4016V27.4061V27.4106V27.415V27.4195V27.424V27.4284V27.4329V27.4374V27.4419V27.4463V27.4508V27.4553V27.4598V27.4642V27.4687V27.4732V27.4776V27.4821V27.4866V27.4911V27.4955V27.5V27.5045V27.5089V27.5134V27.5179V27.5223V27.5268V27.5313V27.5358V27.5402V27.5447V27.5492V27.5536V27.5581V27.5626V27.567V27.5715V27.576V27.5804V27.5849V27.5894V27.5938V27.5983V27.6028V27.6072V27.6117V27.6162V27.6206V27.6251V27.6296V27.634V27.6385V27.643V27.6474V27.6519V27.6564V27.6608V27.6653V27.6698V27.6742V27.6787V27.6832V27.6876V27.6921V27.6966V27.701V27.7055V27.71V27.7144V27.7189V27.7233V27.7278V27.7323V27.7367V27.7412V27.7457V27.7501V27.7546V27.7591V27.7635V27.768V27.7725V27.7769V27.7814V27.7858V27.7903V27.7948V27.7992V27.8037V27.8082V27.8126V27.8171V27.8216V27.826V27.8305V27.835V27.8394V27.8439V27.8483V27.8528V27.8573C136.287 28.1313 136.286 28.4062 136.284 28.6814C136.281 29.2335 136.277 29.7869 136.287 30.3377L136.287 30.3377L136.288 30.3461C136.295 30.4906 136.367 30.6097 136.416 30.6834C136.443 30.7246 136.465 30.7543 136.482 30.7792C136.507 30.8132 136.525 30.8383 136.543 30.8722C136.585 30.9481 136.663 30.9972 136.749 31.0018C136.836 31.0064 136.918 30.966 136.968 30.8949C136.984 30.8721 137.004 30.8466 137.032 30.8134C137.035 30.8089 137.039 30.8042 137.043 30.7994C137.067 30.7715 137.094 30.7384 137.119 30.7053C137.17 30.6385 137.26 30.5122 137.26 30.356V30.3466V30.3371V30.3277V30.3183V30.3088V30.2994V30.29V30.2805V30.2711V30.2617V30.2523V30.2428V30.2334V30.224V30.2145V30.2051V30.1957V30.1862V30.1768V30.1674V30.1579V30.1485V30.1391V30.1296V30.1202V30.1108V30.1014V30.0919V30.0825V30.0731V30.0636V30.0542V30.0448V30.0353V30.0259V30.0165V30.0071V29.9976V29.9882V29.9788V29.9693V29.9599V29.9505V29.9411V29.9316V29.9222V29.9128V29.9033V29.8939V29.8845V29.8751V29.8656V29.8562V29.8468V29.8374V29.8279V29.8185V29.8091V29.7996V29.7902V29.7808V29.7714V29.7619V29.7525V29.7431V29.7337V29.7242V29.7148V29.7054V29.696V29.6865V29.6771V29.6677V29.6583V29.6488V29.6394V29.63V29.6206V29.6111V29.6017V29.5923V29.5829V29.5734V29.564V29.5546V29.5452V29.5357V29.5263V29.5169V29.5075V29.4981V29.4886V29.4792V29.4698V29.4604V29.4509V29.4415V29.4321V29.4227V29.4133V29.4038V29.3944V29.385V29.3756V29.3661V29.3567V29.3473V29.3379V29.3285V29.319V29.3096V29.3002V29.2908V29.2814V29.2719V29.2625V29.2531V29.2437V29.2343V29.2248V29.2154V29.206V29.1966V29.1872V29.1777V29.1683V29.1589V29.1495V29.1401V29.1307V29.1212V29.1118V29.1024V29.093V29.0836V29.0741V29.0647V29.0553V29.0459V29.0365V29.0271V29.0176V29.0082V28.9988V28.9894V28.98V28.9706V28.9611V28.9517V28.9423V28.9329V28.9235V28.9141V28.9047V28.8952V28.8858V28.8764V28.867V28.8576V28.8482V28.8387V28.8293V28.8199V28.8105V28.8011V28.7917V28.7823V28.7728V28.7634V28.754V28.7446V28.7352V28.7258V28.7164V28.707V28.6975V28.6881V28.6787V28.6693V28.6599V28.6505V28.6411V28.6317V28.6222V28.6128V28.6034V28.594V28.5846V28.5752V28.5658V28.5564V28.5469V28.5375V28.5281V28.5187V28.5093V28.4999V28.4905V28.4811V28.4717V28.4623V28.4528V28.4434V28.434V28.4246V28.4152V28.4058V28.3964V28.387V28.3776V28.3682V28.3587V28.3493V28.3399V28.3305V28.3211V28.3117V28.3023V28.2929V28.2835V28.2741V28.2647V28.2553V28.2459V28.2364V28.227V28.2176V28.2082V28.1988V28.1894V28.18V28.1706V28.1612V28.1518V28.1424V28.133V28.1236V28.1142V28.1048V28.0954V28.0859V28.0765V28.0671V28.0577V28.0483V28.0389V28.0295V28.0201V28.0107V28.0013V27.9919V27.9825V27.9731V27.9637V27.9543V27.9449V27.9355V27.9261V27.9167V27.9073V27.8979V27.8885V27.8791V27.8697V27.8602V27.8508V27.8414V27.832V27.8226V27.8132V27.8038V27.7944V27.785V27.7756V27.7662V27.7568V27.7474V27.738V27.7286V27.7192V27.7098V27.7004V27.691V27.6816V27.6722V27.6628V27.6534V27.644V27.6346V27.6252V27.6158V27.6064V27.597V27.5876V27.5782V27.5688V27.5594V27.55V27.5406V27.5312V27.5218V27.5124V27.503V27.4936V27.4842V27.4748V27.4654V27.456V27.4466V27.4373V27.4279V27.4185V27.4091V27.3997V27.3903V27.3809V27.3715V27.3621V27.3527V27.3433V27.3339V27.3245V27.3151V27.3057V27.2963V27.2869V27.2775V27.2681V27.2587V27.2493V27.2399V27.2305V27.2211V27.2117V27.2024V27.193V27.1836V27.1742V27.1648V27.1554V27.146V27.1366V27.1272V27.1178V27.1084V27.099V27.0896V27.0802V27.0708V27.0615V27.0521V27.0427V27.0333V27.0239V27.0145V27.0051V26.9957V26.9863V26.9769V26.9675V26.9581V26.9487V26.9394V26.93V26.9206V26.9112V26.9018V26.8924V26.883V26.8736V26.8642V26.8548V26.8455V26.8361V26.8267V26.8173V26.8079V26.7985V26.7891V26.7797V26.7703V26.7609V26.7516V26.7422V26.7328V26.7234V26.714V26.7046V26.6952V26.6858V26.6764V26.6671V26.6577V26.6483V26.6389V26.6295V26.6201V26.6107V26.6013V26.592V26.5826V26.5732V26.5638V26.5544V26.545V26.5356V26.5263V26.5169V26.5075V26.4981V26.4887V26.4793V26.4699V26.4606V26.4512V26.4418V26.4324V26.423V26.4136V26.4042V26.3949V26.3855V26.3761V26.3667V26.3573V26.3479V26.3386V26.3292V26.3198V26.3104V26.301V26.2916V26.2823V26.2729V26.2635V26.2541V26.2447V26.2353V26.226V26.2166V26.2072V26.1978V26.1884V26.1791V26.1697V26.1603V26.1509V26.1415V26.1321V26.1228V26.1134V26.104V26.0946V26.0852V26.0759V26.0665V26.0571V26.0477V26.0383V26.029V26.0196V26.0102V26.0008V25.9914V25.9821V25.9727V25.9633V25.9539V25.9445V25.9352V25.9258V25.9164V25.907V25.8977V25.8883V25.8789V25.8695V25.8601V25.8508V25.8414V25.832V25.8226V25.8133V25.8039V25.7945V25.7851V25.7757V25.7664V25.757V25.7476V25.7382V25.7289V25.7195V25.7101V25.7007V25.6914V25.682V25.6726V25.6632V25.6539V25.6445V25.6351V25.6257V25.6164V25.607V25.5976V25.5882V25.5789V25.5695V25.5601V25.5507V25.5414C137.26 25.3874 137.182 25.262 137.132 25.1876C137.112 25.1582 137.089 25.1271 137.07 25.1006C137.063 25.0917 137.057 25.0832 137.051 25.0755C137.027 25.0414 137.008 25.0148 136.995 24.9909Z" fill="white" stroke="white" stroke-width="0.5" stroke-linejoin="round"/>
<path d="M58.3188 30.9809C58.3573 31.0616 58.4359 31.1156 58.525 31.1226C58.6142 31.1295 58.7002 31.0884 58.7507 31.0146C58.8066 30.9331 58.8509 30.8762 58.88 30.841C58.8945 30.8233 58.9052 30.8111 58.9117 30.804L58.9181 30.797C58.9186 30.7965 58.9188 30.7962 58.9188 30.7963L58.9185 30.7966L58.9181 30.7969L58.9179 30.7971L58.9178 30.7972C58.9638 30.7505 58.9896 30.6875 58.9896 30.6219V30.6119V30.6018V30.5917V30.5817V30.5716V30.5616V30.5515V30.5414V30.5314V30.5213V30.5113V30.5012V30.4911V30.4811V30.471V30.461V30.4509V30.4408V30.4308V30.4207V30.4106V30.4006V30.3905V30.3805V30.3704V30.3603V30.3503V30.3402V30.3301V30.3201V30.31V30.3V30.2899V30.2798V30.2698V30.2597V30.2496V30.2396V30.2295V30.2194V30.2094V30.1993V30.1892V30.1792V30.1691V30.159V30.149V30.1389V30.1288V30.1188V30.1087V30.0986V30.0886V30.0785V30.0684V30.0584V30.0483V30.0382V30.0282V30.0181V30.008V29.998V29.9879V29.9778V29.9678V29.9577V29.9476V29.9375V29.9275V29.9174V29.9073V29.8973V29.8872V29.8771V29.867V29.857V29.8469V29.8368V29.8268V29.8167V29.8066V29.7965V29.7865V29.7764V29.7663V29.7562V29.7462V29.7361V29.726V29.716V29.7059V29.6958V29.6857V29.6757V29.6656V29.6555V29.6454V29.6354V29.6253V29.6152V29.6051V29.5951V29.585V29.5749V29.5648V29.5547V29.5447V29.5346V29.5245V29.5144V29.5044V29.4943V29.4842V29.4741V29.464V29.454V29.4439V29.4338V29.4237V29.4137V29.4036V29.3935V29.3834V29.3733V29.3633V29.3532V29.3431V29.333V29.3229V29.3128V29.3028V29.2927V29.2826V29.2725V29.2624V29.2524V29.2423V29.2322V29.2221V29.212V29.2019V29.1919V29.1818V29.1717V29.1616V29.1515V29.1414V29.1314V29.1213V29.1112V29.1011V29.091V29.0809V29.0709V29.0608V29.0507V29.0406V29.0305V29.0204V29.0103V29.0003V28.9902V28.9801V28.97V28.9599V28.9498V28.9397V28.9296V28.9196V28.9095V28.8994V28.8893V28.8792V28.8691V28.859V28.8489V28.8388V28.8288V28.8187V28.8086V28.7985V28.7884V28.7783V28.7682V28.7581V28.748V28.7379V28.7279V28.7178V28.7077V28.6976V28.6875V28.6774V28.6673V28.6572V28.6471V28.637V28.6269V28.6168V28.6067V28.5967V28.5866V28.5765V28.5664V28.5563V28.5462V28.5361V28.526V28.5159V28.5058V28.4957V28.4856V28.4755V28.4654V28.4553V28.4452V28.4351V28.425V28.4149V28.4048V28.3948V28.3847V28.3746V28.3645V28.3544V28.3443V28.3342V28.3241V28.314V28.3039V28.2938V28.2837V28.2736V28.2635V28.2534V28.2433V28.2332V28.2231V28.213V28.2029V28.1928V28.1827V28.1726V28.1625V28.1524V28.1423V28.1322V28.1221V28.112V28.1019V28.0918V28.0817V28.0716V28.0615V28.0514V28.0413V28.0311V28.021V28.0109V28.0008V27.9907V27.9806V27.9705V27.9604V27.9503V27.9402V27.9301V27.92V27.9099V27.8998V27.8897V27.8796V27.8695V27.8594V27.8493V27.8392V27.8291V27.8189V27.8088V27.7987V27.7886V27.7785V27.7684V27.7583V27.7482V27.7381V27.728V27.7179V27.7078V27.6976V27.6875V27.6774V27.6673V27.6572V27.6471V27.637V27.6269V27.6168V27.6067V27.5966V27.5864V27.5763V27.5662V27.5561V27.546V27.5359V27.5258V27.5157V27.5055V27.4954V27.4853V27.4752V27.4651V27.455V27.4449V27.4348V27.4246V27.4145V27.4044V27.3943V27.3842V27.3741V27.364V27.3538V27.3437V27.3336V27.3235V27.3134V27.3033V27.2932V27.283V27.2729V27.2628V27.2527V27.2426V27.2325V27.2223V27.2122V27.2021V27.192V27.1819V27.1717V27.1616V27.1515V27.1414V27.1313V27.1212V27.111V27.1009V27.0908V27.0807V27.0706V27.0604V27.0503V27.0402V27.0301V27.02V27.0098V26.9997V26.9896V26.9795V26.9694V26.9592V26.9491V26.939V26.9289V26.9187V26.9086V26.8985V26.8884V26.8783V26.8681V26.858V26.8479V26.8378V26.8276V26.8175V26.8074V26.7973V26.7871V26.777V26.7669V26.7568V26.7466V26.7365V26.7264V26.7163V26.7061V26.696V26.6859V26.6758V26.6656V26.6555V26.6454V26.6352V26.6251V26.615V26.6049V26.5947V26.5846V26.5745V26.5644V26.5542V26.5441V26.534V26.5238V26.5137V26.5036V26.4934V26.4833V26.4732V26.4631V26.4529V26.4428V26.4327V26.4225V26.4124V26.4023V26.3921V26.382V26.3719V26.3617V26.3516V26.3415V26.3314V26.3212V26.3111V26.301V26.2908V26.2807V26.2706V26.2604V26.2503V26.2402V26.23V26.2199V26.2097V26.1996V26.1895V26.1793V26.1692V26.1591V26.1489V26.1388V26.1287V26.1185V26.1084V26.0983V26.0881V26.078V26.0678V26.0577V26.0476V26.0374V26.0273V26.0172V26.007V25.9969V25.9867V25.9766V25.9665V25.9563V25.9462V25.9361V25.9259V25.9158V25.9056V25.8955V25.8854V25.8752V25.8651V25.8549V25.8448V25.8346V25.8245V25.8144V25.8042V25.7941V25.7839V25.7738V25.7637V25.7535V25.7434V25.7332V25.7231V25.7129V25.7028V25.6927V25.6825V25.6724V25.6622V25.6521V25.6419V25.6318V25.6216V25.6115V25.6014V25.5912V25.5811V25.5709V25.5608V25.5506V25.5405V25.5303V25.5202V25.51V25.4999V25.4898V25.4796V25.4695V25.4593V25.4492C58.9896 25.4433 58.9894 25.4375 58.989 25.4316C58.9833 25.3511 58.9524 25.2852 58.9249 25.2394C58.897 25.1928 58.8634 25.152 58.8351 25.1199C58.8131 25.095 58.7887 25.0693 58.7683 25.0478C58.7628 25.042 58.7575 25.0364 58.7527 25.0313C58.7273 25.0044 58.7098 24.9848 58.6972 24.9686C58.647 24.9037 58.5681 24.8676 58.4861 24.8719C58.4042 24.8763 58.3296 24.9206 58.2866 24.9905C58.2739 25.0112 58.2574 25.0342 58.2351 25.0645C58.2319 25.0688 58.2285 25.0734 58.2249 25.0781C58.2062 25.1034 58.1835 25.134 58.163 25.1642C58.1189 25.2295 58.0469 25.3451 58.0469 25.4873V25.4967V25.5061V25.5155V25.5249V25.5343V25.5438V25.5532V25.5626V25.572V25.5814V25.5909V25.6003V25.6097V25.6191V25.6285V25.638V25.6474V25.6568V25.6662V25.6756V25.685V25.6945V25.7039V25.7133V25.7227V25.7321V25.7416V25.751V25.7604V25.7698V25.7792V25.7886V25.7981V25.8075V25.8169V25.8263V25.8357V25.8452V25.8546V25.864V25.8734V25.8828V25.8923V25.9017V25.9111V25.9205V25.9299V25.9393V25.9488V25.9582V25.9676V25.977V25.9864V25.9959V26.0053V26.0147V26.0241V26.0335V26.043V26.0524V26.0618V26.0712V26.0806V26.09V26.0995V26.1089V26.1183V26.1277V26.1371V26.1466V26.156V26.1654V26.1748V26.1842V26.1936V26.2031V26.2125V26.2219V26.2313V26.2407V26.2502V26.2596V26.269V26.2784V26.2878V26.2973V26.3067V26.3161V26.3255V26.3349V26.3443V26.3538V26.3632V26.3726V26.382V26.3914V26.4009V26.4103V26.4197V26.4291V26.4385V26.448V26.4574V26.4668V26.4762V26.4856V26.495V26.5045V26.5139V26.5233V26.5327V26.5421V26.5516V26.561V26.5704V26.5798V26.5892V26.5986V26.6081V26.6175V26.6269V26.6363V26.6457V26.6552V26.6646V26.674V26.6834V26.6928V26.7023V26.7117V26.7211V26.7305V26.7399V26.7493V26.7588V26.7682V26.7776V26.787V26.7964V26.8059V26.8153V26.8247V26.8341V26.8435V26.8529V26.8624V26.8718V26.8812V26.8906V26.9V26.9095V26.9189V26.9283V26.9377V26.9471V26.9566V26.966V26.9754V26.9848V26.9942V27.0036V27.0131V27.0225V27.0319V27.0413V27.0507V27.0602V27.0696V27.079V27.0884V27.0978V27.1073V27.1167V27.1261V27.1355V27.1449V27.1543V27.1638V27.1732V27.1826V27.192V27.2014V27.2109V27.2203V27.2297V27.2391V27.2485V27.2579V27.2674V27.2768V27.2862V27.2956V27.305V27.3145V27.3239V27.3333V27.3427V27.3521V27.3616V27.371V27.3804V27.3898V27.3992V27.4086V27.4181V27.4275V27.4369V27.4463V27.4557V27.4652V27.4746V27.484V27.4934V27.5028V27.5122V27.5217V27.5311V27.5405V27.5499V27.5593V27.5688V27.5782V27.5876V27.597V27.6064V27.6159V27.6253V27.6347V27.6441V27.6535V27.6629V27.6724V27.6818V27.6912V27.7006V27.71V27.7195V27.7289V27.7383V27.7477V27.7571V27.7666V27.776V27.7854V27.7948V27.8042V27.8136V27.8231V27.8325V27.8419V27.8513V27.8607V27.8702V27.8796V27.889V27.8984V27.9078V27.9172V27.9267V27.9361V27.9455V27.9549V27.9643V27.9738V27.9832V27.9926V28.002V28.0114V28.0209V28.0303V28.0397V28.0491V28.0585V28.0679V28.0774V28.0868V28.0962V28.1056V28.115V28.1245V28.1339V28.1433V28.1527V28.1621V28.1716V28.181V28.1904V28.1998V28.2092V28.2186V28.2281V28.2375V28.2469V28.2563V28.2657V28.2752V28.2846V28.294V28.3034V28.3128V28.3222V28.3317V28.3411V28.3505V28.3599V28.3693V28.3788V28.3882V28.3976V28.407V28.4164V28.4259V28.4353V28.4447V28.4541V28.4635V28.4729V28.4824V28.4918V28.5012V28.5106V28.52V28.5295V28.5389V28.5483V28.5577V28.5671V28.5765V28.586V28.5954V28.6048V28.6142V28.6236V28.6331V28.6425V28.6519V28.6613V28.6707V28.6802V28.6896V28.699V28.7084V28.7178V28.7272V28.7367V28.7461V28.7555V28.7649V28.7743V28.7838V28.7932V28.8026V28.812V28.8214V28.8309V28.8403V28.8497V28.8591V28.8685V28.8779V28.8874V28.8968V28.9062V28.9156V28.925V28.9345V28.9439V28.9533V28.9627V28.9721V28.9815V28.991V29.0004V29.0098V29.0192V29.0286V29.0381V29.0475V29.0569V29.0663V29.0757V29.0852V29.0946V29.104V29.1134V29.1228V29.1322V29.1417V29.1511V29.1605V29.1699V29.1793V29.1888V29.1982V29.2076V29.217V29.2264V29.2358V29.2453V29.2547V29.2641V29.2735V29.2829V29.2924V29.3018V29.3112V29.3206V29.33V29.3395V29.3489V29.3583V29.3677V29.3771V29.3865V29.396V29.4054V29.4148V29.4242V29.4336V29.4431V29.4525V29.4619V29.4713V29.4807V29.4902V29.4996V29.509V29.5184V29.5278V29.5372V29.5467V29.5561V29.5655V29.5749V29.5843V29.5938V29.6032V29.6126V29.622V29.6314V29.6408V29.6503V29.6597V29.6691V29.6785V29.6879V29.6974V29.7068V29.7162V29.7256V29.735V29.7445V29.7539V29.7633V29.7727V29.7821V29.7915V29.801V29.8104V29.8198V29.8292V29.8386V29.8481V29.8575V29.8669V29.8763V29.8857V29.8952V29.9046V29.914V29.9234V29.9328V29.9422V29.9517V29.9611V29.9705V29.9799V29.9893V29.9988V30.0082V30.0176V30.027V30.0364V30.0458V30.0553V30.0647V30.0741V30.0835V30.0929V30.1024V30.1118V30.1212V30.1306V30.14V30.1495V30.1589V30.1683V30.1777V30.1871V30.1965V30.206V30.2154V30.2248V30.2342V30.2436V30.2531V30.2625V30.2719V30.2813V30.2907V30.3001V30.3096C58.0469 30.4584 58.1067 30.5866 58.1575 30.6826C58.1816 30.7283 58.2033 30.7663 58.224 30.8029C58.2557 30.8586 58.2854 30.9107 58.3188 30.9809Z" fill="white" stroke="white" stroke-width="0.5" stroke-linejoin="round"/>
</svg>
