<svg width="160" height="50" viewBox="0 0 160 50" fill="none" xmlns="http://www.w3.org/2000/svg">
<path d="M150.076 23.1466H153.879C154.034 23.1311 154.19 23.1472 154.338 23.194C154.486 23.2408 154.622 23.3172 154.739 23.4185C154.893 23.6024 154.917 23.9783 154.795 24.5461L154.236 27.145C154.191 27.5682 153.996 27.962 153.685 28.2566C153.405 28.4492 153.068 28.5448 152.728 28.5285H148.917L150.076 23.1466ZM152.809 30.9755C153.295 31.0044 153.782 30.9357 154.241 30.7735C154.699 30.6113 155.12 30.359 155.477 30.0319C156.199 29.2223 156.671 28.2264 156.839 27.161L157.398 24.5381C157.552 24.0621 157.596 23.5586 157.529 23.0636C157.462 22.5686 157.284 22.0945 157.009 21.6752C156.692 21.3193 156.293 21.0425 155.846 20.8674C155.4 20.6923 154.917 20.6238 154.439 20.6676H148.373C148.256 20.6564 148.139 20.6913 148.048 20.7647C147.957 20.8381 147.899 20.9441 147.887 21.0595L145.86 30.4877C145.838 30.5468 145.833 30.6102 145.843 30.672C145.854 30.7338 145.881 30.7919 145.92 30.8408C145.96 30.8896 146.012 30.9277 146.071 30.9512C146.13 30.9748 146.194 30.9832 146.257 30.9755H152.809ZM143.313 24.786C143.279 25.009 143.199 25.2228 143.079 25.4151C142.959 25.6073 142.802 25.7741 142.616 25.9055C142.175 26.107 141.69 26.1977 141.205 26.1694H138.245L138.878 23.1466H141.838C142.306 23.1062 142.776 23.2007 143.192 23.4185C143.443 23.6024 143.492 23.9783 143.346 24.5461L143.313 24.786ZM137.199 20.6676C137.082 20.6564 136.965 20.6913 136.874 20.7647C136.783 20.8381 136.725 20.9441 136.713 21.0595L134.677 30.4877C134.661 30.5474 134.658 30.61 134.67 30.6708C134.681 30.7317 134.706 30.7893 134.742 30.8395C134.784 30.8876 134.836 30.925 134.896 30.9487C134.955 30.9723 135.019 30.9815 135.083 30.9755H136.81C136.928 30.9826 137.045 30.9454 137.137 30.8712C137.229 30.7971 137.289 30.6915 137.305 30.5756L137.718 28.6244H140.719L141.529 30.6396C141.565 30.742 141.633 30.8302 141.724 30.8909C141.814 30.9515 141.923 30.9812 142.032 30.9755H143.946C144.01 30.9837 144.076 30.9746 144.136 30.9493C144.196 30.924 144.248 30.8833 144.286 30.8315C144.318 30.7754 144.335 30.712 144.335 30.6476C144.335 30.5832 144.318 30.5199 144.286 30.4637L143.281 28.4005C143.99 28.1906 144.606 27.7476 145.024 27.145C145.487 26.4374 145.804 25.6466 145.957 24.818L146.022 24.5461C146.18 24.0594 146.213 23.5415 146.118 23.0391C146.023 22.5366 145.804 22.0652 145.478 21.6672C145.048 21.2972 144.546 21.0182 144.002 20.8476C143.458 20.6771 142.884 20.6185 142.316 20.6756L137.199 20.6676ZM129.545 23.3226L130.355 27.265H127.039L129.545 23.3226ZM133.437 30.9755C133.5 30.984 133.564 30.9761 133.623 30.9526C133.682 30.9291 133.734 30.8908 133.773 30.8415C133.812 30.7922 133.838 30.7336 133.847 30.6715C133.857 30.6095 133.849 30.5461 133.826 30.4877L131.499 21.0755C131.483 20.963 131.423 20.861 131.332 20.7909C131.242 20.7209 131.127 20.6882 131.012 20.6996H128.912C128.806 20.6976 128.701 20.7223 128.608 20.7713C128.514 20.8202 128.435 20.8919 128.377 20.9795L121.955 30.4797C121.908 30.5278 121.877 30.5884 121.866 30.6539C121.854 30.7194 121.863 30.7868 121.89 30.8475C121.929 30.9036 121.983 30.948 122.046 30.9762C122.109 31.0044 122.178 31.0152 122.247 31.0075H124.282C124.391 31.0139 124.499 30.9894 124.594 30.937C124.688 30.8845 124.766 30.8063 124.817 30.7116L125.628 29.4001H130.769L131.02 30.6076C131.031 30.7215 131.086 30.8269 131.173 30.9015C131.261 30.9762 131.375 31.0142 131.491 31.0075L133.437 30.9755ZM114.292 28.2806C114.191 28.0232 114.191 27.7382 114.292 27.4809L115.022 24.1062C115.049 23.81 115.171 23.5301 115.37 23.3066C115.576 23.1445 115.838 23.0671 116.1 23.0906H119.992C120.325 23.0906 120.544 23.1626 120.633 23.3066C120.737 23.5633 120.737 23.8495 120.633 24.1062L119.911 27.4809C119.87 27.7644 119.742 28.0291 119.546 28.2406C119.339 28.3991 119.079 28.476 118.817 28.4565H114.924C114.592 28.4565 114.389 28.3925 114.292 28.2486V28.2806ZM118.606 31.0075C120.763 31.0075 122.084 29.8239 122.595 27.4569L123.268 24.2582C123.404 23.8241 123.434 23.3645 123.355 22.9169C123.276 22.4694 123.091 22.0466 122.814 21.6832C122.488 21.3348 122.086 21.065 121.637 20.8944C121.189 20.7239 120.706 20.6572 120.228 20.6996H116.335C114.203 20.6996 112.881 21.8831 112.354 24.2582L111.673 27.4569C111.539 27.8895 111.51 28.3468 111.587 28.7925C111.665 29.2381 111.847 29.6598 112.119 30.0239C112.44 30.3697 112.837 30.6382 113.28 30.8087C113.723 30.9793 114.199 31.0473 114.673 31.0075H118.606ZM103.807 26.8571H107.335C107.571 26.8446 107.806 26.8943 108.016 27.0011C108.17 27.089 108.21 27.281 108.145 27.5768L108.089 27.8407C108.049 28.0608 107.925 28.2574 107.742 28.3899C107.56 28.5223 107.332 28.5805 107.107 28.5525H103.434L103.807 26.8571ZM104.618 23.1786H108.04C108.274 23.1663 108.507 23.2189 108.713 23.3305C108.875 23.4265 108.924 23.6104 108.867 23.8983L108.802 24.1622C108.766 24.3826 108.644 24.5803 108.463 24.7133C108.281 24.8462 108.053 24.9039 107.829 24.8739H104.261L104.618 23.1786ZM106.986 31.0075C107.924 31.0819 108.86 30.8363 109.637 30.3118C110.256 29.7418 110.65 28.9739 110.748 28.1446V27.9847C110.857 27.6056 110.858 27.2043 110.751 26.8248C110.644 26.4453 110.432 26.1023 110.14 25.8335C110.522 25.6639 110.844 25.3854 111.065 25.0339C111.336 24.6432 111.516 24.198 111.592 23.7304V23.5545C111.69 23.168 111.676 22.7618 111.552 22.3828C111.427 22.0037 111.196 21.667 110.886 21.4113C110.053 20.8699 109.059 20.6193 108.064 20.6996H102.875C102.758 20.6884 102.641 20.7233 102.55 20.7967C102.458 20.8701 102.4 20.976 102.388 21.0914L100.353 30.5197C100.336 30.5794 100.334 30.642 100.345 30.7028C100.356 30.7637 100.381 30.8213 100.418 30.8715C100.459 30.9196 100.512 30.957 100.571 30.9807C100.63 31.0043 100.695 31.0135 100.758 31.0075H106.986ZM97.8634 24.818C97.8314 25.0409 97.7537 25.255 97.6353 25.4474C97.5168 25.6399 97.3599 25.8066 97.1742 25.9375C96.7332 26.139 96.2484 26.2297 95.7633 26.2014H92.8035L93.4603 23.1786H96.4201C96.8886 23.1382 97.359 23.2327 97.7742 23.4505C98.0256 23.6344 98.0743 24.0103 97.9283 24.5781L97.8634 24.818ZM91.7575 20.6996C91.6399 20.6903 91.5232 20.7258 91.4312 20.7986C91.3393 20.8715 91.279 20.9762 91.2629 21.0914L89.2357 30.5197C89.2192 30.5794 89.2166 30.642 89.2278 30.7028C89.239 30.7637 89.2639 30.8213 89.3005 30.8715C89.342 30.9196 89.3946 30.957 89.4539 30.9807C89.5132 31.0043 89.5774 31.0135 89.6411 31.0075H91.3683C91.4862 31.0164 91.603 30.9797 91.6939 30.905C91.7848 30.8303 91.8425 30.7236 91.8548 30.6076L92.2765 28.6564H95.2767L96.0876 30.6716C96.1228 30.774 96.191 30.8622 96.2818 30.9229C96.3725 30.9835 96.4809 31.0132 96.5904 31.0075H98.504C98.5686 31.0148 98.634 31.0054 98.6937 30.9802C98.7535 30.9549 98.8055 30.9147 98.8446 30.8635C98.8745 30.8067 98.89 30.7436 98.89 30.6796C98.89 30.6156 98.8745 30.5525 98.8446 30.4957L97.8391 28.4325C98.5324 28.2031 99.1268 27.7494 99.5257 27.145C99.9889 26.4374 100.306 25.6466 100.458 24.818L100.523 24.5461C100.679 24.0591 100.711 23.5417 100.616 23.0397C100.522 22.5376 100.303 22.0662 99.9798 21.6672C99.5497 21.2972 99.047 21.0182 98.503 20.8476C97.959 20.6771 97.3853 20.6185 96.8174 20.6756L91.7575 20.6996ZM87.549 31.0075C87.6669 31.0164 87.7838 30.9797 87.8746 30.905C87.9655 30.8303 88.0232 30.7236 88.0356 30.6076L88.3761 29.0083C88.3973 28.9492 88.4029 28.8857 88.3922 28.8239C88.3816 28.7621 88.3551 28.7041 88.3153 28.6552C88.2755 28.6063 88.2237 28.5683 88.1648 28.5447C88.1059 28.5211 88.0419 28.5128 87.9788 28.5205H82.3026L82.6432 26.9211H86.1948C86.312 26.9323 86.4288 26.8974 86.5199 26.824C86.6111 26.7506 86.6691 26.6447 86.6814 26.5293L86.9733 25.1538C86.9927 25.0962 86.9976 25.0349 86.9878 24.975C86.9779 24.9151 86.9534 24.8585 86.9165 24.81C86.8751 24.7619 86.8224 24.7245 86.7631 24.7008C86.7038 24.6772 86.6396 24.668 86.576 24.674H83.1297L83.4541 23.1546H89.2681C89.3857 23.1639 89.5024 23.1285 89.5944 23.0556C89.6863 22.9828 89.7465 22.878 89.7627 22.7628L90.1033 21.1634C90.1191 21.1037 90.1215 21.0412 90.1103 20.9804C90.0991 20.9196 90.0746 20.862 90.0384 20.8116C89.9966 20.7644 89.9436 20.7281 89.8843 20.7058C89.8249 20.6835 89.7609 20.6759 89.6979 20.6836H81.6782C81.5611 20.6724 81.4443 20.7073 81.3532 20.7807C81.262 20.8541 81.204 20.9601 81.1917 21.0755L79.1645 30.5037C79.1433 30.5628 79.1378 30.6262 79.1484 30.688C79.159 30.7498 79.1855 30.8079 79.2253 30.8568C79.2651 30.9056 79.3169 30.9437 79.3758 30.9672C79.4347 30.9908 79.4988 30.9992 79.5618 30.9915L87.549 31.0075ZM67.6419 31.0075C67.7598 31.0164 67.8766 30.9797 67.9675 30.905C68.0583 30.8303 68.1161 30.7236 68.1284 30.6076L69.3609 24.8899L70.9827 29.0163C71.011 29.124 71.077 29.2183 71.169 29.2827C71.2609 29.3471 71.373 29.3773 71.4855 29.3681H72.5234C72.6289 29.371 72.7335 29.3485 72.8282 29.3025C72.9228 29.2566 73.0047 29.1885 73.0667 29.1042L76.5616 24.8419L75.3371 30.5197C75.3159 30.5788 75.3104 30.6422 75.321 30.704C75.3317 30.7658 75.3582 30.8239 75.398 30.8728C75.4378 30.9216 75.4896 30.9597 75.5485 30.9832C75.6074 31.0068 75.6714 31.0152 75.7345 31.0075H77.4535C77.5706 31.0125 77.6853 30.9744 77.7753 30.9004C77.8653 30.8265 77.924 30.7221 77.9401 30.6076L79.9673 21.1794C79.9823 21.12 79.985 21.0582 79.9752 20.9978C79.9654 20.9373 79.9434 20.8794 79.9105 20.8276C79.8674 20.782 79.8143 20.7468 79.7553 20.7246C79.6963 20.7024 79.6329 20.6939 79.5699 20.6996H77.1616C77.0558 20.6945 76.9504 20.7161 76.8554 20.7622C76.7603 20.8084 76.6788 20.8777 76.6183 20.9635L72.4423 26.3453L70.3664 21.0515C70.3381 20.9438 70.2722 20.8494 70.1802 20.785C70.0882 20.7206 69.9761 20.6904 69.8637 20.6996H67.9824C67.8662 20.6925 67.7515 20.7288 67.6613 20.8015C67.5711 20.8741 67.512 20.9777 67.4959 21.0914L65.4687 30.5197C65.4511 30.5788 65.4471 30.641 65.4569 30.7019C65.4668 30.7628 65.4902 30.8207 65.5255 30.8715C65.5678 30.9185 65.6205 30.9553 65.6796 30.9788C65.7387 31.0024 65.8025 31.0122 65.866 31.0075H67.6419ZM53.9542 31.0075C54.0721 31.0164 54.1889 30.9797 54.2798 30.905C54.3707 30.8303 54.4284 30.7236 54.4407 30.6076L55.6652 24.8899L57.2869 29.0163C57.3152 29.124 57.3812 29.2183 57.4732 29.2827C57.5651 29.3471 57.6772 29.3773 57.7897 29.3681H58.7627C58.8694 29.371 58.9751 29.3485 59.0711 29.3026C59.1671 29.2566 59.2504 29.1886 59.3141 29.1042L62.809 24.8419L61.5765 30.5197C61.5589 30.5788 61.5549 30.641 61.5647 30.7019C61.5745 30.7628 61.5979 30.8207 61.6332 30.8715C61.6755 30.9185 61.7283 30.9553 61.7874 30.9788C61.8465 31.0024 61.9103 31.0122 61.9738 31.0075H63.6929C63.8108 31.0164 63.9276 30.9797 64.0185 30.905C64.1094 30.8303 64.1671 30.7236 64.1794 30.6076L66.2066 21.1794C66.2254 21.1204 66.23 21.058 66.2202 20.9969C66.2103 20.9359 66.1862 20.8779 66.1499 20.8276C66.108 20.7804 66.0551 20.7441 65.9957 20.7218C65.9363 20.6995 65.8723 20.6919 65.8093 20.6996H63.4658C63.359 20.6954 63.2527 20.7172 63.1565 20.7633C63.0603 20.8093 62.9772 20.8781 62.9144 20.9635L58.7465 26.3453L56.6788 21.0515C56.6474 20.9439 56.5796 20.8503 56.4866 20.7862C56.3936 20.7222 56.2811 20.6916 56.1679 20.6996H54.2948C54.1777 20.6884 54.0608 20.7233 53.9697 20.7967C53.8786 20.8701 53.8205 20.976 53.8082 21.0914L51.781 30.5197C51.7598 30.5788 51.7543 30.6422 51.7649 30.704C51.7756 30.7658 51.8021 30.8239 51.8419 30.8728C51.8817 30.9216 51.9335 30.9597 51.9924 30.9832C52.0513 31.0068 52.1153 31.0152 52.1784 31.0075H53.9542ZM47.1914 31.0075C49.3403 31.0075 50.662 29.8239 51.1729 27.4569L52.5189 21.1794C52.5348 21.1196 52.5372 21.0572 52.526 20.9964C52.5148 20.9356 52.4902 20.878 52.4541 20.8276C52.4122 20.7804 52.3593 20.7441 52.2999 20.7218C52.2405 20.6995 52.1765 20.6919 52.1135 20.6996H50.3296C50.2124 20.6884 50.0956 20.7233 50.0045 20.7967C49.9133 20.8701 49.8553 20.976 49.843 21.0914L48.4645 27.5449C48.4314 27.8492 48.2907 28.1322 48.0672 28.3445C47.8598 28.4759 47.616 28.5402 47.3698 28.5285H43.9155C43.8068 28.5398 43.6969 28.5294 43.5923 28.4978C43.4878 28.4662 43.3909 28.414 43.3073 28.3445C43.1938 28.2166 43.1776 27.9527 43.3073 27.5449L44.6696 21.1474C44.6866 21.0882 44.6903 21.0261 44.6805 20.9653C44.6707 20.9046 44.6476 20.8466 44.6128 20.7956C44.5697 20.75 44.5166 20.7148 44.4576 20.6926C44.3986 20.6704 44.3352 20.6619 44.2723 20.6676H42.4964C42.3793 20.6564 42.2625 20.6913 42.1714 20.7647C42.0802 20.8381 42.0222 20.9441 42.0099 21.0595L40.6476 27.4569C40.5194 27.8915 40.4952 28.3495 40.5768 28.7949C40.6584 29.2403 40.8436 29.661 41.1179 30.0239C41.4406 30.3698 41.8393 30.6384 42.2834 30.8089C42.7276 30.9794 43.2054 31.0473 43.6803 31.0075H47.1914ZM35.8391 31.0075C36.7903 31.0741 37.7349 30.808 38.5069 30.2558C39.1268 29.6254 39.5248 28.8152 39.6421 27.9447C39.762 27.5721 39.7877 27.1762 39.7171 26.7915C39.6464 26.4069 39.4815 26.0451 39.2367 25.7376C38.5851 25.1488 37.7281 24.8309 36.8446 24.8499L33.8362 24.642C33.6152 24.6536 33.3979 24.5822 33.2281 24.4421C33.1717 24.3643 33.1355 24.274 33.1228 24.1792C33.11 24.0844 33.1211 23.9879 33.1551 23.8983C33.1891 23.6788 33.3083 23.481 33.4875 23.3465C33.7264 23.2106 33.9984 23.1415 34.2741 23.1466H37.023C37.469 23.1466 37.7041 23.3306 37.7366 23.6904C37.769 24.0503 37.8906 24.1382 38.1501 24.1382H39.9097C39.9692 24.1449 40.0294 24.1394 40.0866 24.1222C40.1439 24.105 40.1969 24.0764 40.2425 24.0382C40.2881 23.9999 40.3253 23.9529 40.3517 23.9C40.3781 23.847 40.3933 23.7893 40.3963 23.7304C40.4826 23.3314 40.4711 22.9178 40.3624 22.5241C40.2538 22.1305 40.0513 21.7681 39.7719 21.4673C39.4268 21.1775 39.0271 20.9578 38.5958 20.8205C38.1644 20.6833 37.7099 20.6313 37.2581 20.6676H34.4444C33.4934 20.5921 32.5458 20.8498 31.7685 21.3953C31.1161 22.0061 30.6882 22.8135 30.5521 23.6904C30.1467 25.583 31.0846 26.6199 33.3659 26.8012L36.3662 27.0331C36.5864 27.0177 36.8041 27.0864 36.9743 27.225C37.0292 27.308 37.0643 27.4023 37.0769 27.5006C37.0896 27.599 37.0795 27.6988 37.0473 27.7928C37.0305 27.9002 36.9916 28.0031 36.933 28.0953C36.8744 28.1874 36.7975 28.2668 36.7067 28.3285C36.4767 28.4537 36.2145 28.5093 35.9526 28.4885H32.9767C32.5469 28.4885 32.3118 28.3126 32.2874 27.9527C32.2631 27.5928 32.1253 27.4969 31.8739 27.4969H30.1062C30.0467 27.4903 29.9865 27.4957 29.9293 27.5129C29.872 27.5301 29.819 27.5587 29.7734 27.5969C29.7278 27.6352 29.6906 27.6822 29.6642 27.7351C29.6377 27.7881 29.6226 27.8458 29.6196 27.9047C29.5232 28.3078 29.5274 28.728 29.6319 29.1292C29.7364 29.5303 29.9381 29.9005 30.2197 30.2078C30.5616 30.4974 30.9584 30.7173 31.3872 30.8546C31.8159 30.9918 32.268 31.0438 32.7172 31.0075H35.8391Z" fill="white"/>
<path d="M3.62944 34.7891C3.53503 34.794 3.4408 34.7766 3.35392 34.7382C3.26705 34.6999 3.18982 34.6417 3.12814 34.5679C3.07211 34.4934 3.03301 34.4069 3.01374 34.3148C2.99446 34.2226 2.99548 34.1272 3.01674 34.0355L3.37481 32.299C3.40038 32.1261 3.48825 31.9694 3.62095 31.8601C3.75364 31.7509 3.92143 31.697 4.09095 31.7093H11.7775C16.9814 31.7093 20.6178 28.8015 21.7557 23.7394C21.883 23.1579 22.0342 22.4698 22.1456 21.921H17.8408C16.3849 21.8395 14.9447 22.2635 13.7508 23.1251C12.8906 23.8576 12.2641 24.8393 11.9525 25.9428V26.0165C11.9237 26.1908 11.8344 26.3483 11.7012 26.4598C11.568 26.5713 11.4 26.6292 11.2284 26.6227H9.36649C9.28636 26.6271 9.20645 26.6106 9.13413 26.5748C9.06181 26.5391 8.99942 26.4851 8.95272 26.4179C8.89325 26.3293 8.8538 26.2282 8.83728 26.1219C8.82076 26.0156 8.82758 25.9068 8.85724 25.8036C9.27219 23.7851 10.3446 21.9731 11.8968 20.6678C13.614 19.3648 15.7088 18.6979 17.8408 18.7757H25.1693C25.255 18.777 25.3396 18.7966 25.4177 18.8332C25.4958 18.8699 25.5656 18.9228 25.6228 18.9887C25.6838 19.0685 25.7257 19.162 25.745 19.2616C25.7644 19.3613 25.7607 19.4642 25.7342 19.562L25.4159 21.0692C25.4159 21.0692 24.9862 23.076 24.6918 24.3865C23.2118 30.9803 18.5012 34.7645 11.7695 34.7645L3.62944 34.7891Z" fill="white"/>
<path d="M4.53093 31.0123C4.44476 31.009 4.36014 30.9877 4.28222 30.9497C4.20429 30.9117 4.13468 30.8577 4.07762 30.7912C4.01753 30.7125 3.97675 30.62 3.95875 30.5216C3.94076 30.4233 3.94606 30.3219 3.97423 30.2261L4.28439 28.7191C4.28439 28.7191 4.70589 26.7207 5.00014 25.4431C6.48732 18.8092 11.1954 15.0008 17.9235 15.0008H26.0672C26.162 14.996 26.2566 15.0126 26.3445 15.0494C26.4324 15.0862 26.5115 15.1423 26.5762 15.2137C26.6363 15.294 26.6771 15.3878 26.6951 15.4875C26.7131 15.5872 26.7077 15.6899 26.6796 15.787L26.3217 17.5233C26.298 17.6956 26.2118 17.8522 26.0804 17.9616C25.9491 18.071 25.7824 18.1251 25.6139 18.113H17.9235C12.7144 18.113 9.07995 21.0123 7.95064 26.0737C7.81545 26.6634 7.6723 27.3514 7.553 27.9001H11.8555C13.3077 27.9778 14.7435 27.5541 15.9353 26.6962C16.8009 25.9657 17.4282 24.9796 17.7326 23.8706V23.8051C17.7628 23.6309 17.8522 23.4734 17.9848 23.3609C18.1174 23.2484 18.2845 23.1881 18.4563 23.1908H20.3093C20.3889 23.1899 20.4677 23.2078 20.5394 23.2434C20.6111 23.2789 20.6739 23.331 20.7229 23.3956C20.781 23.4848 20.819 23.5862 20.8341 23.6925C20.8493 23.7988 20.8412 23.9072 20.8104 24.0098C20.4004 26.0323 19.3278 27.8482 17.7724 29.1532C16.0529 30.4462 13.959 31.1015 11.8316 31.0123H4.53093Z" fill="white"/>
</svg>
